<svg width="1619" height="1556" viewBox="0 0 1619 1556" fill="none" xmlns="http://www.w3.org/2000/svg">
<path fill-rule="evenodd" clip-rule="evenodd" d="M61 1033.38L835.166 1307.73C858.07 1315.85 883.219 1303.86 891.336 1280.96L1076.15 759.461L135.51 426.111L61 636.36V1033.38Z" fill="#4A3B37"/>
<path d="M170.737 245L1498 7.87233e-06L1498 808.5L170.737 379L170.737 245Z" fill="#E24728"/>
<path d="M113.498 486.5L1052.5 826" stroke="#EADFC9" stroke-width="10"/>
<path d="M61.498 635L998.998 977.5" stroke="#EADFC9" stroke-width="10"/>
<path d="M2.49805 801.5L941.998 1138" stroke="#EADFC9" stroke-width="10"/>
<path d="M470.998 968.5L536.998 803" stroke="#EADFC9" stroke-width="10"/>
<path d="M315.498 919.5L255.998 1102.5" stroke="#EEE4D0" stroke-width="10"/>
<path d="M603.498 1023L540.498 1203" stroke="#EEE4D0" stroke-width="10"/>
<rect x="146.938" y="241.182" width="997.154" height="105" transform="rotate(-10.0016 146.938 241.182)" fill="#4A3B37"/>
<path d="M251.998 351.5C251.998 336.616 263.567 325 278.752 325C292.49 325 298.998 332.986 298.998 332.986L290.321 346.781C290.321 346.781 285.983 342.788 280.921 342.788C275.86 342.788 272.244 346.418 272.244 351.5C272.244 356.582 275.86 360.212 280.921 360.212C285.983 360.212 290.321 356.219 290.321 356.219L298.998 370.014C298.998 370.014 292.49 378 278.752 378C263.567 378 251.998 366.384 251.998 351.5Z" fill="#EADFC9"/>
<path d="M342.718 313.224V402.5L317.758 393.5V317.675L342.718 313.224Z" fill="#EADFC9"/>
<path d="M425.998 432L401.998 365.5L400.998 422.5L362.998 409.5V309L405.498 301.5L431.998 353.5V297L469.998 290.5V447.5L425.998 432Z" fill="#EADFC9"/>
<path d="M555.998 395.5V408H630.998L620.998 499L490.998 453V287.5L623.498 263.5L625.998 333H555.998V345.5H620.998V395.5H555.998Z" fill="#EADFC9"/>
<path d="M852.998 578L783.998 555L742.998 368.5V540.5L651.998 509V258.5L775.498 237L821.748 393L860.998 222L991.498 199V625.5L900.498 595V368.5L852.998 578Z" fill="#EADFC9"/>
<path d="M1321.25 129.316C1326.5 157.816 1475 800.816 1475 800.816L1300.5 744.316L1281 613.816H1242H1203L1175 703.816L1008.5 649.816L1120.75 174.316L1221 151.816L1321.25 129.316ZM1221 471.816H1263L1242 363.816L1221 471.816Z" fill="#EADFC9"/>
<rect x="163.533" y="340.707" width="1008.52" height="101.71" transform="rotate(18.9623 163.533 340.707)" fill="#3E3431"/>
<path fill-rule="evenodd" clip-rule="evenodd" d="M61.998 1484.61L71.498 1556L105.199 1302.76L243.533 1516.04L165.925 1273L381.494 1404.08L207.949 1219.37L458.057 1242.29L222.948 1152.5L458.057 1062.71L207.949 1085.63L381.494 900.922L165.925 1032L243.533 788.959L105.199 1002.24L71.498 749L61.998 820.387V1484.61Z" fill="#E24728"/>
</svg>
