<svg width="1457" height="1441" viewBox="0 0 1457 1441" fill="none" xmlns="http://www.w3.org/2000/svg">
<rect x="770" y="87" width="540" height="717" fill="#EADFC9" stroke="#E73E26" stroke-width="12"/>
<rect x="139" y="87" width="540" height="717" fill="#EADFC9" stroke="#E73E26" stroke-width="12"/>
<rect x="409" y="225" width="179" height="267" fill="#4A3B37"/>
<circle cx="562" cy="383" r="10" fill="#EADFC9"/>
<rect x="346" y="491" width="242" height="15" fill="#4A3B37"/>
<rect x="210" y="588" width="150" height="15" fill="#4A3B37"/>
<rect x="346" y="493" width="14" height="95" fill="#4A3B37"/>
<rect x="210" y="588" width="14" height="95" fill="#4A3B37"/>
<path d="M806.847 653.136L808.303 651.7C811.573 648.472 817.114 650.789 817.114 655.383V676.662V798H927.139H1287.86L1273.9 657.726L1272.22 638.999C1271.53 631.229 1274.65 623.605 1280.6 618.558L1298.53 603.347C1303.9 598.786 1307 592.094 1307 585.046V435.992C1307 433.043 1306.46 430.119 1305.4 427.366L1297.59 407.104L1294.6 400.751C1293.36 398.093 1291.63 395.688 1289.51 393.654L1280.02 384.536C1278.27 382.86 1276.79 380.931 1275.62 378.812L1271.11 370.631L1263.56 359.875C1261.57 357.038 1261.37 353.315 1263.04 350.28C1263.31 349.795 1263.53 349.287 1263.71 348.761L1267.65 336.912C1268.33 334.863 1268.73 332.732 1268.84 330.575L1270.07 306.721V292.364C1270.07 289.685 1269.62 287.025 1268.74 284.495L1266.08 276.82C1264.37 271.903 1261.11 267.675 1256.79 264.772L1256.48 264.56L1248.88 259.377C1245.19 256.86 1240.87 255.422 1236.41 255.225L1220.22 254.51C1215.47 254.3 1210.75 255.51 1206.69 257.985L1193.69 265.897C1190.08 268.09 1187.12 271.194 1185.1 274.896L1173.2 296.683L1159.85 315.453C1159.23 316.321 1158.71 317.253 1158.29 318.232C1154.18 327.785 1141.85 330.383 1134.24 323.299L1131.92 321.138C1128.92 318.345 1127.21 314.432 1127.21 310.333C1127.21 307.96 1127.78 305.622 1128.88 303.517L1129.05 303.199C1130.36 300.683 1132.3 298.555 1134.69 297.026L1135.23 296.683L1138.35 294.742C1140.21 293.588 1141.9 292.184 1143.38 290.571L1144.41 289.444C1147.29 286.296 1149.29 282.436 1150.18 278.261L1150.72 275.747C1151.08 274.094 1151.25 272.408 1151.25 270.717V266.903C1151.25 265.543 1150.29 264.375 1148.95 264.119L1148.77 264.082C1146.63 263.672 1145.59 261.224 1146.77 259.398L1149.92 254.558C1150.78 253.235 1151.17 251.658 1151.01 250.087L1149.8 237.769C1149.17 231.362 1145.99 225.478 1140.98 221.437L1127.19 210.316C1122.92 206.876 1117.6 205 1112.12 205H1096.59C1091.15 205 1085.87 206.846 1081.62 210.237L1075.18 215.377C1070.34 219.239 1067.17 224.824 1066.35 230.964L1064.52 244.721C1064.29 246.439 1063.17 247.908 1061.57 248.58C1059.75 249.342 1058.57 251.118 1058.57 253.085V261.74C1058.57 262.726 1058.65 263.711 1058.82 264.684L1062.63 287.587C1063.49 292.743 1060.29 297.706 1055.23 299.044C1054.44 299.254 1053.68 299.558 1052.96 299.951L991.619 333.534C987.01 336.057 981.318 333.072 980.774 327.845C980.613 326.295 980.948 324.733 981.732 323.386L984.314 318.949C986.175 315.751 988.776 313.048 991.899 311.066L1002.95 304.055C1005.26 302.59 1006.66 300.045 1006.66 297.31V291.584C1006.66 290.334 1005.64 289.321 1004.4 289.321C1003.02 289.321 1001.96 288.098 1002.16 286.733L1005.32 265.065C1006.17 259.199 1004.53 253.242 1000.79 248.641L989.123 234.278C984.565 228.668 977.723 225.411 970.495 225.411H956.208C949.096 225.411 942.351 228.565 937.791 234.022L927.822 245.952C924.279 250.192 922.339 255.541 922.339 261.066V283.391C922.339 284.079 921.781 284.637 921.092 284.637C920.299 284.637 919.708 285.368 919.874 286.144L924.778 309.063L925.499 311.836C926.838 316.98 926.432 322.423 924.344 327.311L919.7 338.18C917.708 342.845 913.125 345.87 908.053 345.87H872.708C869.363 345.87 866.056 346.569 862.998 347.922L846.121 355.389C840.062 358.069 835.381 363.135 833.186 369.385L777.355 528.387C776.458 530.942 776 533.631 776 536.339V632.002C776 642.288 783.265 651.142 793.353 653.15L801.434 654.759C803.396 655.149 805.424 654.542 806.847 653.136Z" fill="#534242"/>
<path d="M938 130H1078" stroke="#E73E26" stroke-width="5"/>
<rect x="235" width="352" height="40" fill="#715F4D"/>
<rect x="234" y="31" width="353" height="9" fill="#F5D488"/>
<rect x="144" y="675" width="79" height="15" fill="#4A3B37"/>
<rect x="234" y="31" width="353" height="9" fill="#EADFC9"/>
<path d="M235.405 40H587.09L687 810L130 804.334L235.405 40Z" fill="white" fill-opacity="0.4"/>
<rect x="870" width="352" height="40" fill="#715F4D"/>
<rect x="869" y="31" width="353" height="9" fill="#F5D488"/>
<rect x="869" y="31" width="353" height="9" fill="#EADFC9"/>
<path d="M870.405 40H1222.09L1322 810L765 804.334L870.405 40Z" fill="white" fill-opacity="0.4"/>
<path d="M254.454 1287H246.954V1271.1H254.154V1278L256.854 1271.1H264.354V1287H257.154V1280.1L254.454 1287ZM288.951 1281.3H291.051V1290.3H283.851V1287H279.051V1290.3H271.851V1281.3H273.351C273.351 1281.3 274.851 1279.5 274.851 1271.1H288.951V1281.3ZM279.951 1281.3H282.051V1276.8H280.851C280.851 1279.5 279.951 1281.3 279.951 1281.3ZM310.562 1279.05C310.562 1284.45 307.562 1287.45 304.262 1287.45C301.262 1287.45 300.062 1285.2 300.062 1285.2V1294.5H292.862V1271.1H299.462C300.062 1272.9 300.062 1272.9 300.062 1272.9C300.062 1272.9 301.262 1270.65 304.262 1270.65C307.562 1270.65 310.562 1273.65 310.562 1279.05ZM303.062 1279.05C303.062 1277.55 302.312 1276.8 301.412 1276.8C300.512 1276.8 299.762 1277.55 299.762 1279.05C299.762 1280.55 300.512 1281.3 301.412 1281.3C302.312 1281.3 303.062 1280.55 303.062 1279.05ZM316.26 1288.2L316.71 1287L311.46 1271.1H318.96L320.31 1279.5L321.66 1271.1H329.16L323.46 1288.2C321.66 1293.6 319.56 1295.7 315.81 1295.7C313.71 1295.7 311.91 1294.5 311.91 1294.5L313.56 1289.25C313.56 1289.25 314.01 1289.55 314.61 1289.55C315.36 1289.55 315.99 1288.95 316.26 1288.2ZM330.955 1271.1H344.155V1277.4H338.155V1287H330.955V1271.1ZM353.448 1287H345.948V1271.1H353.148V1278L355.848 1271.1H363.348V1287H356.148V1280.1L353.448 1287ZM374.139 1270.65C378.789 1270.65 382.539 1274.4 382.539 1279.05C382.539 1279.17 382.539 1280.43 382.539 1280.55H372.939C372.939 1280.55 373.239 1282.2 375.639 1282.2C377.139 1282.2 378.339 1281 378.339 1281L380.889 1285.05C380.889 1285.05 378.639 1287.45 374.589 1287.45C369.489 1287.45 365.739 1283.7 365.739 1279.05C365.739 1274.4 369.489 1270.65 374.139 1270.65ZM372.789 1277.7H375.489C375.489 1276.5 374.889 1275.9 374.139 1275.9C373.389 1275.9 372.789 1276.5 372.789 1277.7ZM392.749 1264.8L391.699 1279.2H385.999L384.949 1264.8H392.749ZM385.699 1281H391.999V1287H385.699V1281Z" fill="#FFE1C3"/>
<path d="M248 1257H390" stroke="#FFE1C3"/>
<rect y="1205" width="1457" height="236" fill="#EADFC9"/>
<path d="M921.547 940.267C918.516 939.425 916.058 938.473 914.271 937.714C910.863 936.25 908.908 935.395 906.911 933.476C905.486 932.11 903.88 930.577 903.587 928.866C902.637 923.358 916.715 921.799 924.047 910.48C931.03 899.7 926.938 890.659 934.27 886.587C938.097 884.461 944.018 884.268 948.222 887.512C949.088 888.174 950.289 889.458 952.873 898.996C955.596 909.058 955.303 911.57 958.138 914.179C961.155 916.968 962.831 915.353 965.624 918.155C969.744 922.309 966.783 926.588 970.805 932.372C973.962 936.899 978.082 937.603 977.705 939.48C977.188 942.048 969.143 942.489 967.062 942.614C954.284 943.318 949.661 938.763 941.742 940.902C939.047 941.634 935.304 943.318 931.379 947.721" fill="#F7EECE"/>
<path d="M921.547 940.267C918.516 939.425 916.058 938.473 914.271 937.714C910.863 936.25 908.908 935.395 906.911 933.476C905.486 932.11 903.88 930.577 903.587 928.866C902.637 923.358 916.715 921.799 924.047 910.48C931.03 899.7 926.938 890.659 934.27 886.587C938.097 884.461 944.018 884.268 948.222 887.512C949.088 888.174 950.289 889.458 952.873 898.996C955.596 909.058 955.303 911.57 958.138 914.179C961.155 916.968 962.831 915.353 965.624 918.155C969.744 922.309 966.783 926.588 970.805 932.372C973.962 936.899 978.082 937.603 977.705 939.48C977.188 942.048 969.143 942.489 967.062 942.614C954.284 943.318 949.661 938.763 941.742 940.902C939.047 941.634 935.304 943.318 931.379 947.721" stroke="#797667" stroke-miterlimit="10"/>
<path d="M1187.57 914.801C1188.73 916.581 1190.42 918.928 1192.74 921.454C1194.23 923.069 1212.36 942.393 1226.48 936.596C1232.02 934.318 1236.97 928.176 1236.59 922.365C1235.99 913.103 1221.98 906.795 1222.5 906.008C1223.06 905.153 1237.46 916.858 1243.64 912.979C1247.95 910.287 1248.56 899.907 1243.95 894.814C1238.69 888.989 1228.66 892.288 1226.19 886.946C1224.45 883.206 1228.3 879.313 1226.49 877.56C1224.11 875.227 1217.63 882.364 1210.25 880.887C1201.76 879.189 1200.7 867.815 1194.62 867.87C1188.93 867.926 1188.53 877.947 1180.53 880.583C1170.95 883.744 1161.44 872.715 1157.56 876.042C1154.6 878.568 1160.34 884.793 1157.86 893.006C1154.82 903.123 1142.98 904.034 1143.16 910.26C1143.28 914.884 1149.83 915.022 1161.54 925.402C1169.39 932.358 1170.36 935.768 1175.32 936.913C1181.73 938.377 1188.18 934.539 1192.78 930.854" fill="#F7EECE"/>
<path d="M1187.57 914.801C1188.73 916.581 1190.42 918.928 1192.74 921.454C1194.23 923.069 1212.36 942.393 1226.48 936.596C1232.02 934.318 1236.97 928.176 1236.59 922.365C1235.99 913.103 1221.98 906.795 1222.5 906.008C1223.06 905.153 1237.46 916.858 1243.64 912.979C1247.95 910.287 1248.56 899.907 1243.95 894.814C1238.69 888.989 1228.66 892.288 1226.19 886.946C1224.45 883.206 1228.3 879.313 1226.49 877.56C1224.11 875.227 1217.63 882.364 1210.25 880.887C1201.76 879.189 1200.7 867.815 1194.62 867.87C1188.93 867.926 1188.53 877.947 1180.53 880.583C1170.95 883.744 1161.44 872.715 1157.56 876.042C1154.6 878.568 1160.34 884.793 1157.86 893.006C1154.82 903.123 1142.98 904.034 1143.16 910.26C1143.28 914.884 1149.83 915.022 1161.54 925.402C1169.39 932.358 1170.36 935.768 1175.32 936.913C1181.73 938.377 1188.18 934.539 1192.78 930.854" stroke="#797667" stroke-miterlimit="10"/>
<path d="M1048.01 935.892C1042.13 934.236 1037.12 932.635 1034.76 935.119C1032.34 937.659 1036.36 941.855 1034.76 950.275C1033.79 955.341 1031.99 955.672 1031.64 960.544C1031.21 966.563 1033.79 968.412 1032.42 971.076C1030.34 975.148 1021.34 976.722 1015.01 973.644C1007.02 969.765 1004.95 959.261 1003.84 953.615C1001.5 941.786 1004.74 934.788 1001.76 933.325C997.887 931.434 992.105 943.07 978.627 944.878C976.449 945.168 970.29 945.996 967.454 942.573C964.969 939.578 966.295 934.857 967.454 930.757C968.684 926.382 970.485 919.977 975.513 916.637C985.485 909.998 1001.11 920.088 1003.32 916.375C1004.91 913.711 996.266 909.294 996.308 902.254C996.35 892.095 1014.41 879.534 1027.75 882.736C1037.24 885.014 1040.01 894.248 1049.57 893.779C1055.36 893.489 1056.4 890.024 1061.26 890.439C1069.41 891.129 1068.33 907.913 1077.63 911.751" fill="#F7EECE"/>
<path d="M1048.01 935.892C1042.13 934.236 1037.12 932.635 1034.76 935.119C1032.34 937.659 1036.36 941.855 1034.76 950.275C1033.79 955.341 1031.99 955.672 1031.64 960.544C1031.21 966.563 1033.79 968.412 1032.42 971.076C1030.34 975.148 1021.34 976.722 1015.01 973.644C1007.02 969.765 1004.95 959.261 1003.84 953.615C1001.5 941.786 1004.74 934.788 1001.76 933.325C997.887 931.434 992.105 943.07 978.627 944.878C976.449 945.168 970.29 945.996 967.454 942.573C964.969 939.578 966.295 934.857 967.454 930.757C968.684 926.382 970.485 919.977 975.513 916.637C985.485 909.998 1001.11 920.088 1003.32 916.375C1004.91 913.711 996.266 909.294 996.308 902.254C996.35 892.095 1014.41 879.534 1027.75 882.736C1037.24 885.014 1040.01 894.248 1049.57 893.779C1055.36 893.489 1056.4 890.024 1061.26 890.439C1069.41 891.129 1068.33 907.913 1077.63 911.751" stroke="#797667" stroke-miterlimit="10"/>
<path d="M1150.53 885.455C1145.19 885.69 1137.6 886.821 1134.38 891.984C1129.63 899.589 1138.85 908.699 1134.74 914.855C1129.77 922.323 1108.66 920.322 1094.7 910.494C1091.49 908.23 1077 897.367 1079.27 885.082C1080.43 878.802 1085.43 875.006 1091.75 870.202C1094.25 868.298 1104.21 861.065 1119.67 858.58C1133.55 856.358 1144.98 859.077 1151.26 861.12" fill="#F7EECE"/>
<path d="M1150.53 885.455C1145.19 885.69 1137.6 886.821 1134.38 891.984C1129.63 899.589 1138.85 908.699 1134.74 914.855C1129.77 922.323 1108.66 920.322 1094.7 910.494C1091.49 908.23 1077 897.367 1079.27 885.082C1080.43 878.802 1085.43 875.006 1091.75 870.202C1094.25 868.298 1104.21 861.065 1119.67 858.58C1133.55 856.358 1144.98 859.077 1151.26 861.12" stroke="#797667" stroke-miterlimit="10"/>
<path d="M1273.63 815.115C1277.5 816.191 1280.63 817.392 1282.92 818.386C1287.28 820.25 1289.76 821.354 1292.32 823.783C1294.14 825.522 1296.19 827.496 1296.57 829.677C1297.78 836.717 1279.81 838.691 1270.45 853.142C1261.54 866.904 1266.76 878.457 1257.39 883.647C1252.5 886.353 1244.93 886.615 1239.58 882.474C1238.48 881.618 1236.96 879.989 1233.65 867.815C1230.17 854.964 1230.53 851.762 1226.93 848.436C1223.08 844.874 1220.94 846.931 1217.38 843.356C1212.11 838.042 1215.9 832.59 1210.77 825.205C1206.75 819.421 1201.47 818.524 1201.96 816.122C1202.62 812.837 1212.89 812.271 1215.55 812.133C1231.86 811.236 1237.77 817.061 1247.88 814.314C1251.32 813.376 1256.11 811.222 1261.11 805.604" fill="#F7EECE"/>
<path d="M1273.63 815.115C1277.5 816.191 1280.63 817.392 1282.92 818.386C1287.28 820.25 1289.76 821.354 1292.32 823.783C1294.14 825.522 1296.19 827.496 1296.57 829.677C1297.78 836.717 1279.81 838.691 1270.45 853.142C1261.54 866.904 1266.76 878.457 1257.39 883.647C1252.5 886.353 1244.93 886.615 1239.58 882.474C1238.48 881.618 1236.96 879.989 1233.65 867.815C1230.17 854.964 1230.53 851.762 1226.93 848.436C1223.08 844.874 1220.94 846.931 1217.38 843.356C1212.11 838.042 1215.9 832.59 1210.77 825.205C1206.75 819.421 1201.47 818.524 1201.96 816.122C1202.62 812.837 1212.89 812.271 1215.55 812.133C1231.86 811.236 1237.77 817.061 1247.88 814.314C1251.32 813.376 1256.11 811.222 1261.11 805.604" stroke="#797667" stroke-miterlimit="10"/>
<path d="M1096.85 785.838C1094.54 786.832 1092.68 787.936 1091.32 788.833C1088.73 790.545 1087.24 791.552 1085.73 793.789C1084.65 795.39 1083.43 797.198 1083.2 799.199C1082.49 805.659 1093.17 807.481 1098.73 820.746C1104.03 833.376 1100.92 843.977 1106.5 848.752C1109.4 851.237 1113.9 851.472 1117.08 847.676C1117.74 846.889 1118.65 845.398 1120.62 834.218C1122.68 822.43 1122.46 819.49 1124.61 816.426C1126.9 813.154 1128.17 815.045 1130.3 811.76C1133.42 806.888 1131.18 801.877 1134.23 795.1C1136.62 789.786 1139.76 788.971 1139.47 786.763C1139.08 783.754 1132.96 783.229 1131.38 783.091C1121.68 782.263 1118.17 787.619 1112.17 785.093C1110.13 784.237 1107.28 782.249 1104.3 777.101" fill="#F7EECE"/>
<path d="M1096.85 785.838C1094.54 786.832 1092.68 787.936 1091.32 788.833C1088.73 790.545 1087.24 791.552 1085.73 793.789C1084.65 795.39 1083.43 797.198 1083.2 799.199C1082.49 805.659 1093.17 807.481 1098.73 820.746C1104.03 833.376 1100.92 843.977 1106.5 848.752C1109.4 851.237 1113.9 851.472 1117.08 847.676C1117.74 846.889 1118.65 845.398 1120.62 834.218C1122.68 822.43 1122.46 819.49 1124.61 816.426C1126.9 813.154 1128.17 815.045 1130.3 811.76C1133.42 806.888 1131.18 801.877 1134.23 795.1C1136.62 789.786 1139.76 788.971 1139.47 786.763C1139.08 783.754 1132.96 783.229 1131.38 783.091C1121.68 782.263 1118.17 787.619 1112.17 785.093C1110.13 784.237 1107.28 782.249 1104.3 777.101" stroke="#797667" stroke-miterlimit="10"/>
<path d="M1298.77 815.695C1299.65 813.611 1300.93 810.85 1302.69 807.896C1303.83 805.991 1317.6 783.368 1328.31 790.145C1332.51 792.809 1336.27 800.015 1335.99 806.82C1335.53 817.683 1324.9 825.067 1325.29 825.978C1325.72 826.986 1336.65 813.266 1341.34 817.821C1344.59 820.982 1345.07 833.128 1341.58 839.119C1337.58 845.951 1329.97 842.073 1328.08 848.339C1326.77 852.715 1329.69 857.284 1328.32 859.34C1326.51 862.073 1321.59 853.709 1315.99 855.434C1309.55 857.422 1308.74 870.756 1304.13 870.7C1299.82 870.645 1299.51 858.899 1293.44 855.793C1286.16 852.08 1278.95 865.013 1275.99 861.121C1273.74 858.153 1278.1 850.865 1276.23 841.245C1273.92 829.401 1264.93 828.311 1265.07 821.009C1265.17 815.585 1270.14 815.433 1279.02 803.258C1284.97 795.101 1285.73 791.098 1289.48 789.773C1294.34 788.047 1299.24 792.561 1302.74 796.868" fill="#F7EECE"/>
<path d="M1298.77 815.695C1299.65 813.611 1300.93 810.85 1302.69 807.896C1303.83 805.991 1317.6 783.368 1328.31 790.145C1332.51 792.809 1336.27 800.015 1335.99 806.82C1335.53 817.683 1324.9 825.067 1325.29 825.978C1325.72 826.986 1336.65 813.266 1341.34 817.821C1344.59 820.982 1345.07 833.128 1341.58 839.119C1337.58 845.951 1329.97 842.073 1328.08 848.339C1326.77 852.715 1329.69 857.284 1328.32 859.34C1326.51 862.073 1321.59 853.709 1315.99 855.434C1309.55 857.422 1308.74 870.756 1304.13 870.7C1299.82 870.645 1299.51 858.899 1293.44 855.793C1286.16 852.08 1278.95 865.013 1275.99 861.121C1273.74 858.153 1278.1 850.865 1276.23 841.245C1273.92 829.401 1264.93 828.311 1265.07 821.009C1265.17 815.585 1270.14 815.433 1279.02 803.258C1284.97 795.101 1285.73 791.098 1289.48 789.773C1294.34 788.047 1299.24 792.561 1302.74 796.868" stroke="#797667" stroke-miterlimit="10"/>
<path d="M1202.89 844.253C1209.08 843.438 1215.56 830.947 1215.32 819.269C1214.99 803.506 1202.38 790.366 1192.84 790.973C1188.2 791.277 1184.57 794.796 1182.78 791.87C1180.95 788.889 1184 783.988 1182.78 774.105C1182.06 768.17 1180.69 767.784 1180.42 762.069C1180.09 755.016 1182.06 752.849 1181.01 749.729C1179.43 744.953 1172.59 743.117 1167.8 746.72C1161.74 751.275 1160.16 763.587 1159.32 770.199C1157.55 784.057 1160.01 792.27 1157.74 793.982C1154.81 796.204 1150.41 782.553 1140.19 780.441C1138.53 780.096 1133.86 779.13 1131.71 783.146C1129.82 786.666 1130.83 792.188 1131.71 796.991C1132.65 802.126 1134.01 809.621 1137.83 813.541C1145.4 821.326 1157.27 809.51 1158.93 813.845C1160.13 816.978 1153.58 822.154 1153.61 830.395C1153.64 842.293 1167.35 857.034 1177.48 853.266C1184.68 850.588 1186.79 839.767 1194.04 840.319C1198.43 840.65 1199.22 844.722 1202.92 844.225L1202.89 844.253Z" fill="#F7EECE" stroke="#797667" stroke-miterlimit="10"/>
<path d="M1270.67 850.091C1266.6 849.815 1260.85 848.49 1258.4 842.43C1254.8 833.514 1261.8 822.844 1258.68 815.625C1254.91 806.874 1238.89 809.22 1228.29 820.732C1225.85 823.382 1214.86 836.109 1216.58 850.519C1217.46 857.876 1221.25 862.335 1226.06 867.966C1227.96 870.188 1235.51 878.677 1247.25 881.576C1257.79 884.185 1266.46 880.982 1271.23 878.595" fill="#F7EECE"/>
<path d="M1270.67 850.091C1266.6 849.815 1260.85 848.49 1258.4 842.43C1254.8 833.514 1261.8 822.844 1258.68 815.625C1254.91 806.874 1238.89 809.22 1228.29 820.732C1225.85 823.382 1214.86 836.109 1216.58 850.519C1217.46 857.876 1221.25 862.335 1226.06 867.966C1227.96 870.188 1235.51 878.677 1247.25 881.576C1257.79 884.185 1266.46 880.982 1271.23 878.595" stroke="#797667" stroke-miterlimit="10"/>
<path d="M1349.84 939.47C1352.77 938.2 1367.47 929.846 1369.21 928.7C1372.52 926.519 1374.4 925.235 1376.34 922.364C1377.73 920.321 1379.28 918.016 1379.57 915.463C1380.49 907.222 1366.85 904.889 1359.75 887.967C1352.99 871.845 1356.94 858.304 1349.84 852.217C1346.12 849.042 1340.38 848.738 1336.32 853.597C1335.48 854.591 1334.32 856.496 1331.81 870.782C1329.17 885.841 1329.44 889.596 1326.71 893.502C1323.79 897.67 1322.15 895.255 1319.46 899.465C1315.46 905.69 1318.34 912.081 1314.45 920.735C1311.39 927.513 1307.39 928.562 1307.76 931.378C1308.26 935.215 1316.05 935.891 1318.08 936.057C1330.46 937.12 1334.93 930.287 1342.61 933.503C1345.23 934.594 1346.04 932.872 1349.84 939.47Z" fill="#F7EECE" stroke="#797667" stroke-miterlimit="10"/>
<path d="M971.795 859.463C970.887 860.981 969.56 862.997 967.744 865.15C966.585 866.53 952.368 883.053 941.321 878.097C936.977 876.151 933.109 870.892 933.402 865.923C933.877 858 944.84 852.603 944.435 851.94C943.988 851.209 932.718 861.216 927.871 857.903C924.506 855.598 924.017 846.723 927.634 842.361C931.754 837.378 939.617 840.208 941.558 835.625C942.913 832.423 939.91 829.096 941.321 827.592C943.192 825.604 948.276 831.691 954.044 830.435C960.692 828.986 961.53 819.255 966.278 819.296C970.733 819.337 971.04 827.909 977.311 830.173C984.811 832.878 992.269 823.451 995.313 826.294C997.632 828.461 993.135 833.775 995.076 840.801C997.464 849.456 1006.74 850.243 1006.6 855.571C1006.5 859.532 1001.36 859.643 992.199 868.518C986.054 874.467 985.286 877.393 981.403 878.36C976.375 879.616 971.334 876.33 967.717 873.183" fill="#F7EECE"/>
<path d="M971.795 859.463C970.887 860.981 969.56 862.997 967.744 865.15C966.585 866.53 952.368 883.053 941.321 878.097C936.977 876.151 933.109 870.892 933.402 865.923C933.877 858 944.84 852.603 944.435 851.94C943.988 851.209 932.718 861.216 927.871 857.903C924.506 855.598 924.017 846.723 927.634 842.361C931.754 837.378 939.617 840.208 941.558 835.625C942.913 832.423 939.91 829.096 941.321 827.592C943.192 825.604 948.276 831.691 954.044 830.435C960.692 828.986 961.53 819.255 966.278 819.296C970.733 819.337 971.04 827.909 977.311 830.173C984.811 832.878 992.269 823.451 995.313 826.294C997.632 828.461 993.135 833.775 995.076 840.801C997.464 849.456 1006.74 850.243 1006.6 855.571C1006.5 859.532 1001.36 859.643 992.199 868.518C986.054 874.467 985.286 877.393 981.403 878.36C976.375 879.616 971.334 876.33 967.717 873.183" stroke="#797667" stroke-miterlimit="10"/>
<path d="M1130.86 842.914C1130.17 841.133 1129.15 838.773 1127.78 836.247C1126.9 834.618 1116.11 815.266 1107.73 821.063C1104.43 823.341 1101.48 829.497 1101.72 835.336C1102.09 844.625 1110.41 850.947 1110.1 851.72C1109.77 852.576 1101.21 840.843 1097.53 844.736C1094.98 847.441 1094.61 857.835 1097.35 862.942C1100.48 868.781 1106.44 865.468 1107.92 870.837C1108.96 874.578 1106.67 878.484 1107.74 880.251C1109.17 882.584 1113.02 875.434 1117.39 876.911C1122.43 878.609 1123.08 890.024 1126.68 889.969C1130.06 889.913 1130.3 879.865 1135.06 877.214C1140.76 874.04 1146.41 885.096 1148.72 881.77C1150.48 879.23 1147.07 872.991 1148.54 864.778C1150.35 854.646 1157.39 853.722 1157.28 847.483C1157.2 842.845 1153.31 842.707 1146.34 832.313C1141.68 825.342 1141.09 821.919 1138.15 820.774C1134.33 819.31 1130.49 823.162 1127.75 826.847" fill="#F7EECE"/>
<path d="M1130.86 842.914C1130.17 841.133 1129.15 838.773 1127.78 836.247C1126.9 834.618 1116.11 815.266 1107.73 821.063C1104.43 823.341 1101.48 829.497 1101.72 835.336C1102.09 844.625 1110.41 850.947 1110.1 851.72C1109.77 852.576 1101.21 840.843 1097.53 844.736C1094.98 847.441 1094.61 857.835 1097.35 862.942C1100.48 868.781 1106.44 865.468 1107.92 870.837C1108.96 874.578 1106.67 878.484 1107.74 880.251C1109.17 882.584 1113.02 875.434 1117.39 876.911C1122.43 878.609 1123.08 890.024 1126.68 889.969C1130.06 889.913 1130.3 879.865 1135.06 877.214C1140.76 874.04 1146.41 885.096 1148.72 881.77C1150.48 879.23 1147.07 872.991 1148.54 864.778C1150.35 854.646 1157.39 853.722 1157.28 847.483C1157.2 842.845 1153.31 842.707 1146.34 832.313C1141.68 825.342 1141.09 821.919 1138.15 820.774C1134.33 819.31 1130.49 823.162 1127.75 826.847" stroke="#797667" stroke-miterlimit="10"/>
<path d="M1070.75 838.636C1064.37 839.23 1057.68 848.354 1057.93 856.87C1058.28 868.368 1071.28 877.961 1081.14 877.52C1085.92 877.299 1089.67 874.732 1091.52 876.857C1093.4 879.038 1090.26 882.613 1091.52 889.818C1092.27 894.152 1093.68 894.429 1093.96 898.611C1094.3 903.759 1092.29 905.333 1093.35 907.611C1094.98 911.089 1102.03 912.442 1106.99 909.805C1113.25 906.479 1114.87 897.493 1115.75 892.676C1117.58 882.558 1115.04 876.567 1117.38 875.325C1120.41 873.71 1124.94 883.662 1135.5 885.208C1137.2 885.457 1142.03 886.16 1144.25 883.234C1146.19 880.667 1145.16 876.636 1144.25 873.13C1143.29 869.376 1141.88 863.91 1137.94 861.053C1130.13 855.366 1117.89 863.993 1116.17 860.832C1114.92 858.554 1121.68 854.772 1121.67 848.754C1121.64 840.072 1107.49 829.319 1097.03 832.066C1089.6 834.012 1087.43 841.908 1079.94 841.507C1075.41 841.259 1074.59 838.305 1070.78 838.65L1070.75 838.636Z" fill="#F7EECE" stroke="#797667" stroke-miterlimit="10"/>
<path d="M1000.81 834.37C1004.99 834.564 1010.94 835.53 1013.47 839.961C1017.19 846.476 1009.98 854.261 1013.18 859.52C1017.08 865.91 1033.6 864.199 1044.55 855.793C1047.06 853.86 1058.4 844.571 1056.63 834.053C1055.72 828.684 1051.81 825.44 1046.85 821.327C1044.9 819.698 1037.09 813.514 1024.98 811.388C1014.1 809.483 1005.16 811.816 1000.23 813.555" fill="#F7EECE"/>
<path d="M1000.81 834.37C1004.99 834.564 1010.94 835.53 1013.47 839.961C1017.19 846.476 1009.98 854.261 1013.18 859.52C1017.08 865.91 1033.6 864.199 1044.55 855.793C1047.06 853.86 1058.4 844.571 1056.63 834.053C1055.72 828.684 1051.81 825.44 1046.85 821.327C1044.9 819.698 1037.09 813.514 1024.98 811.388C1014.1 809.483 1005.16 811.816 1000.23 813.555" stroke="#797667" stroke-miterlimit="10"/>
<path d="M1205.95 867.332C1201.11 866.642 1196.02 855.944 1196.22 845.965C1196.48 832.479 1206.36 821.243 1213.83 821.768C1217.46 822.016 1220.31 825.039 1221.71 822.541C1223.14 819.987 1220.76 815.791 1221.71 807.357C1222.28 802.278 1223.35 801.946 1223.56 797.06C1223.82 791.028 1222.29 789.179 1223.1 786.501C1224.35 782.415 1229.69 780.842 1233.45 783.933C1238.2 787.826 1239.43 798.358 1240.1 804.017C1241.48 815.874 1239.57 822.886 1241.34 824.349C1243.65 826.24 1247.08 814.576 1255.1 812.768C1256.4 812.478 1260.06 811.65 1261.75 815.087C1263.23 818.096 1262.43 822.817 1261.75 826.93C1261.01 831.319 1259.95 837.738 1256.96 841.092C1251.02 847.745 1241.73 837.641 1240.42 841.354C1239.47 844.032 1244.61 848.463 1244.6 855.516C1244.57 865.689 1233.83 878.291 1225.9 875.075C1220.25 872.784 1218.61 863.536 1212.92 864.005C1209.49 864.295 1208.86 867.76 1205.97 867.346L1205.95 867.332Z" fill="#F7EECE" stroke="#797667" stroke-miterlimit="10"/>
<path d="M1152.88 872.328C1156.07 872.093 1160.58 870.962 1162.49 865.772C1165.31 858.138 1159.84 849.015 1162.27 842.845C1165.21 835.363 1177.77 837.365 1186.08 847.206C1187.99 849.47 1196.6 860.361 1195.26 872.673C1194.57 878.967 1191.6 882.777 1187.83 887.594C1186.35 889.499 1180.41 896.76 1171.22 899.244C1162.97 901.48 1156.18 898.747 1152.44 896.691" fill="#F7EECE"/>
<path d="M1152.88 872.328C1156.07 872.093 1160.58 870.962 1162.49 865.772C1165.31 858.138 1159.84 849.015 1162.27 842.845C1165.21 835.363 1177.77 837.365 1186.08 847.206C1187.99 849.47 1196.6 860.361 1195.26 872.673C1194.57 878.967 1191.6 882.777 1187.83 887.594C1186.35 889.499 1180.41 896.76 1171.22 899.244C1162.97 901.48 1156.18 898.747 1152.44 896.691" stroke="#797667" stroke-miterlimit="10"/>
<path d="M1170.41 802.03C1171.57 800.083 1173.26 797.516 1175.58 794.755C1177.07 792.989 1195.2 771.898 1209.32 778.219C1214.86 780.704 1219.81 787.412 1219.43 793.762C1218.83 803.879 1204.82 810.767 1205.34 811.609C1205.9 812.548 1220.3 799.766 1226.48 804.004C1230.79 806.944 1231.4 818.262 1226.79 823.839C1221.53 830.202 1211.5 826.585 1209.03 832.438C1207.29 836.524 1211.14 840.775 1209.33 842.694C1206.95 845.233 1200.47 837.448 1193.09 839.063C1184.6 840.913 1183.54 853.336 1177.46 853.281C1171.76 853.225 1171.37 842.28 1163.37 839.395C1153.79 835.944 1144.28 847.98 1140.4 844.35C1137.44 841.589 1143.18 834.798 1140.7 825.84C1137.66 814.798 1125.82 813.79 1126 806.999C1126.12 801.947 1132.67 801.795 1144.38 790.463C1152.23 782.871 1153.2 779.144 1158.16 777.902C1164.57 776.301 1171.02 780.497 1175.62 784.514" fill="#F7EECE"/>
<path d="M1170.41 802.03C1171.57 800.083 1173.26 797.516 1175.58 794.755C1177.07 792.989 1195.2 771.898 1209.32 778.219C1214.86 780.704 1219.81 787.412 1219.43 793.762C1218.83 803.879 1204.82 810.767 1205.34 811.609C1205.9 812.548 1220.3 799.766 1226.48 804.004C1230.79 806.944 1231.4 818.262 1226.79 823.839C1221.53 830.202 1211.5 826.585 1209.03 832.438C1207.29 836.524 1211.14 840.775 1209.33 842.694C1206.95 845.233 1200.47 837.448 1193.09 839.063C1184.6 840.913 1183.54 853.336 1177.46 853.281C1171.76 853.225 1171.37 842.28 1163.37 839.395C1153.79 835.944 1144.28 847.98 1140.4 844.35C1137.44 841.589 1143.18 834.798 1140.7 825.84C1137.66 814.798 1125.82 813.79 1126 806.999C1126.12 801.947 1132.67 801.795 1144.38 790.463C1152.23 782.871 1153.2 779.144 1158.16 777.902C1164.57 776.301 1171.02 780.497 1175.62 784.514" stroke="#797667" stroke-miterlimit="10"/>
<path d="M1044.1 828.628C1052.24 827.868 1060.79 816.219 1060.47 805.356C1060.03 790.669 1043.41 778.426 1030.84 778.992C1024.74 779.268 1019.95 782.553 1017.59 779.834C1015.17 777.059 1019.2 772.49 1017.59 763.284C1016.63 757.749 1014.83 757.39 1014.48 752.062C1014.04 745.492 1016.63 743.476 1015.26 740.564C1013.18 736.119 1004.17 734.408 997.843 737.762C989.854 741.999 987.787 753.47 986.67 759.64C984.338 772.559 987.578 780.206 984.589 781.794C980.721 783.864 974.939 771.151 961.461 769.178C959.283 768.86 953.124 767.949 950.288 771.704C947.803 774.975 949.129 780.123 950.288 784.609C951.517 789.399 953.319 796.384 958.347 800.028C968.319 807.274 983.947 796.273 986.153 800.304C987.745 803.216 979.1 808.033 979.142 815.722C979.184 826.806 997.242 840.54 1010.58 837.034C1020.08 834.535 1022.84 824.459 1032.41 824.97C1038.19 825.273 1039.24 829.069 1044.1 828.614V828.628Z" fill="#F7EECE" stroke="#797667" stroke-miterlimit="10"/>
<path d="M1133.37 834.066C1128.02 833.817 1120.43 832.575 1117.21 826.929C1112.46 818.62 1121.68 808.682 1117.57 801.96C1112.6 793.802 1091.5 795.983 1077.53 806.722C1074.32 809.192 1059.84 821.049 1062.1 834.466C1063.26 841.326 1068.26 845.467 1074.58 850.712C1077.08 852.783 1087.04 860.692 1102.5 863.397C1116.38 865.827 1127.81 862.845 1134.09 860.623" fill="#F7EECE"/>
<path d="M1133.37 834.066C1128.02 833.817 1120.43 832.575 1117.21 826.929C1112.46 818.62 1121.68 808.682 1117.57 801.96C1112.6 793.802 1091.5 795.983 1077.53 806.722C1074.32 809.192 1059.84 821.049 1062.1 834.466C1063.26 841.326 1068.26 845.467 1074.58 850.712C1077.08 852.783 1087.04 860.692 1102.5 863.397C1116.38 865.827 1127.81 862.845 1134.09 860.623" stroke="#797667" stroke-miterlimit="10"/>
<path d="M1101.13 906.528C1095.75 906.172 1088.13 904.388 1084.88 896.281C1080.11 884.349 1089.38 870.078 1085.25 860.425C1080.25 848.711 1059.03 851.843 1044.99 867.263C1041.76 870.811 1027.2 887.837 1029.48 907.103C1030.64 916.954 1035.67 922.9 1042.03 930.432C1044.54 933.405 1054.55 944.763 1070.1 948.648C1084.06 952.136 1095.54 947.855 1101.86 944.664" fill="#F7EECE"/>
<path d="M1101.13 906.528C1095.75 906.172 1088.13 904.388 1084.88 896.281C1080.11 884.349 1089.38 870.078 1085.25 860.425C1080.25 848.711 1059.03 851.843 1044.99 867.263C1041.76 870.811 1027.2 887.837 1029.48 907.103C1030.64 916.954 1035.67 922.9 1042.03 930.432C1044.54 933.405 1054.55 944.763 1070.1 948.648C1084.06 952.136 1095.54 947.855 1101.86 944.664" stroke="#797667" stroke-miterlimit="10"/>
<path d="M1256.47 910.866C1260.34 909.693 1263.46 908.368 1265.75 907.305C1270.11 905.262 1272.6 904.075 1275.15 901.411C1276.97 899.52 1279.02 897.367 1279.4 894.979C1280.61 887.291 1262.64 885.137 1253.28 869.361C1244.37 854.343 1249.6 841.727 1240.22 836.054C1235.34 833.086 1227.77 832.81 1222.42 837.337C1221.31 838.262 1219.79 840.043 1216.48 853.349C1213 867.373 1213.37 870.879 1209.76 874.509C1205.91 878.402 1203.77 876.152 1200.21 880.058C1194.95 885.855 1198.73 891.804 1193.61 899.879C1189.58 906.201 1184.3 907.167 1184.79 909.79C1185.45 913.365 1195.73 913.986 1198.38 914.152C1214.69 915.132 1220.6 908.768 1230.71 911.777C1234.15 912.799 1238.94 915.159 1243.94 921.288" fill="#F7EECE"/>
<path d="M1256.47 910.866C1260.34 909.693 1263.46 908.368 1265.75 907.305C1270.11 905.262 1272.6 904.075 1275.15 901.411C1276.97 899.52 1279.02 897.367 1279.4 894.979C1280.61 887.291 1262.64 885.137 1253.28 869.361C1244.37 854.343 1249.6 841.727 1240.22 836.054C1235.34 833.086 1227.77 832.81 1222.42 837.337C1221.31 838.262 1219.79 840.043 1216.48 853.349C1213 867.373 1213.37 870.879 1209.76 874.509C1205.91 878.402 1203.77 876.152 1200.21 880.058C1194.95 885.855 1198.73 891.804 1193.61 899.879C1189.58 906.201 1184.3 907.167 1184.79 909.79C1185.45 913.365 1195.73 913.986 1198.38 914.152C1214.69 915.132 1220.6 908.768 1230.71 911.777C1234.15 912.799 1238.94 915.159 1243.94 921.288" stroke="#797667" stroke-miterlimit="10"/>
<path d="M1079.68 942.821C1077.38 941.744 1075.52 940.529 1074.15 939.549C1071.57 937.686 1070.07 936.582 1068.57 934.138C1067.49 932.399 1066.26 930.425 1066.04 928.231C1065.33 921.177 1076.01 919.19 1081.57 904.71C1086.86 890.921 1083.76 879.34 1089.33 874.136C1092.24 871.417 1096.74 871.155 1099.92 875.31C1100.58 876.165 1101.48 877.794 1103.45 890.01C1105.52 902.888 1105.3 906.09 1107.45 909.445C1109.74 913.02 1111.01 910.949 1113.13 914.538C1116.26 919.852 1114.01 925.332 1117.07 932.73C1119.46 938.528 1122.6 939.425 1122.31 941.827C1121.92 945.112 1115.8 945.678 1114.22 945.83C1104.51 946.727 1101.01 940.888 1095 943.649C1092.96 944.587 1090.12 946.741 1087.14 952.386" fill="#F7EECE"/>
<path d="M1079.68 942.821C1077.38 941.744 1075.52 940.529 1074.15 939.549C1071.57 937.686 1070.07 936.582 1068.57 934.138C1067.49 932.399 1066.26 930.425 1066.04 928.231C1065.33 921.177 1076.01 919.19 1081.57 904.71C1086.86 890.921 1083.76 879.34 1089.33 874.136C1092.24 871.417 1096.74 871.155 1099.92 875.31C1100.58 876.165 1101.48 877.794 1103.45 890.01C1105.52 902.888 1105.3 906.09 1107.45 909.445C1109.74 913.02 1111.01 910.949 1113.13 914.538C1116.26 919.852 1114.01 925.332 1117.07 932.73C1119.46 938.528 1122.6 939.425 1122.31 941.827C1121.92 945.112 1115.8 945.678 1114.22 945.83C1104.51 946.727 1101.01 940.888 1095 943.649C1092.96 944.587 1090.12 946.741 1087.14 952.386" stroke="#797667" stroke-miterlimit="10"/>
<path d="M998.224 897.786C995.919 896.71 994.062 895.495 992.693 894.515C990.109 892.652 988.615 891.547 987.107 889.104C986.031 887.365 984.802 885.391 984.579 883.196C983.867 876.143 994.551 874.155 1000.11 859.676C1005.4 845.887 1002.3 834.306 1007.87 829.102C1010.78 826.383 1015.28 826.121 1018.46 830.275C1019.12 831.131 1020.02 832.76 1021.99 844.976C1024.06 857.854 1023.84 861.056 1025.99 864.41C1028.28 867.985 1029.55 865.915 1031.67 869.504C1034.8 874.818 1032.55 880.298 1035.61 887.696C1038 893.494 1041.14 894.391 1040.85 896.793C1040.46 900.078 1034.34 900.644 1032.76 900.795C1023.06 901.693 1019.55 895.854 1013.54 898.615C1011.51 899.553 1008.66 901.706 1005.68 907.352" fill="#F7EECE"/>
<path d="M998.224 897.786C995.919 896.71 994.062 895.495 992.693 894.515C990.109 892.652 988.615 891.547 987.107 889.104C986.031 887.365 984.802 885.391 984.579 883.196C983.867 876.143 994.551 874.155 1000.11 859.676C1005.4 845.887 1002.3 834.306 1007.87 829.102C1010.78 826.383 1015.28 826.121 1018.46 830.275C1019.12 831.131 1020.02 832.76 1021.99 844.976C1024.06 857.854 1023.84 861.056 1025.99 864.41C1028.28 867.985 1029.55 865.915 1031.67 869.504C1034.8 874.818 1032.55 880.298 1035.61 887.696C1038 893.494 1041.14 894.391 1040.85 896.793C1040.46 900.078 1034.34 900.644 1032.76 900.795C1023.06 901.693 1019.55 895.854 1013.54 898.615C1011.51 899.553 1008.66 901.706 1005.68 907.352" stroke="#797667" stroke-miterlimit="10"/>
<path d="M1281.6 910.231C1282.48 912.509 1283.77 915.518 1285.53 918.748C1286.66 920.818 1300.43 945.54 1311.14 938.127C1315.35 935.215 1319.1 927.347 1318.82 919.921C1318.36 908.064 1307.73 899.989 1308.13 898.995C1308.56 897.905 1319.48 912.881 1324.17 907.912C1327.43 904.462 1327.9 891.197 1324.41 884.668C1320.42 877.214 1312.8 881.438 1310.92 874.592C1309.61 869.802 1312.52 864.819 1311.16 862.583C1309.34 859.601 1304.42 868.725 1298.82 866.848C1292.39 864.681 1291.58 850.119 1286.97 850.188C1282.65 850.257 1282.34 863.08 1276.27 866.462C1268.99 870.506 1261.79 856.399 1258.83 860.65C1256.58 863.894 1260.93 871.845 1259.06 882.349C1256.76 895.282 1247.76 896.47 1247.9 904.434C1248 910.355 1252.97 910.521 1261.86 923.813C1267.81 932.716 1268.56 937.078 1272.32 938.541C1277.18 940.419 1282.08 935.491 1285.57 930.798" fill="#F7EECE"/>
<path d="M1281.6 910.231C1282.48 912.509 1283.77 915.518 1285.53 918.748C1286.66 920.818 1300.43 945.54 1311.14 938.127C1315.35 935.215 1319.1 927.347 1318.82 919.921C1318.36 908.064 1307.73 899.989 1308.13 898.995C1308.56 897.905 1319.48 912.881 1324.17 907.912C1327.43 904.462 1327.9 891.197 1324.41 884.668C1320.42 877.214 1312.8 881.438 1310.92 874.592C1309.61 869.802 1312.52 864.819 1311.16 862.583C1309.34 859.601 1304.42 868.725 1298.82 866.848C1292.39 864.681 1291.58 850.119 1286.97 850.188C1282.65 850.257 1282.34 863.08 1276.27 866.462C1268.99 870.506 1261.79 856.399 1258.83 860.65C1256.58 863.894 1260.93 871.845 1259.06 882.349C1256.76 895.282 1247.76 896.47 1247.9 904.434C1248 910.355 1252.97 910.521 1261.86 923.813C1267.81 932.716 1268.56 937.078 1272.32 938.541C1277.18 940.419 1282.08 935.491 1285.57 930.798" stroke="#797667" stroke-miterlimit="10"/>
<path d="M1303.15 881.623C1304.03 883.9 1305.32 886.909 1307.08 890.139C1308.21 892.21 1321.98 916.931 1332.69 909.519C1336.89 906.606 1340.65 898.739 1340.37 891.313C1339.91 879.456 1329.28 871.381 1329.67 870.387C1330.11 869.297 1341.03 884.273 1345.72 879.304C1348.97 875.853 1349.45 862.588 1345.96 856.059C1341.96 848.606 1334.35 852.83 1332.47 845.983C1331.15 841.194 1334.07 836.211 1332.7 833.975C1330.89 830.993 1325.97 840.117 1320.37 838.24C1313.93 836.073 1313.12 821.51 1308.51 821.579C1304.2 821.648 1303.89 834.471 1297.82 837.853C1290.54 841.898 1283.33 827.791 1280.37 832.042C1278.12 835.286 1282.48 843.236 1280.61 853.741C1278.31 866.674 1269.31 867.861 1269.45 875.826C1269.55 881.747 1274.52 881.913 1283.4 895.205C1289.35 904.108 1290.11 908.47 1293.86 909.933C1298.72 911.81 1303.63 906.883 1307.12 902.189" fill="#F7EECE"/>
<path d="M1303.15 881.623C1304.03 883.9 1305.32 886.909 1307.08 890.139C1308.21 892.21 1321.98 916.931 1332.69 909.519C1336.89 906.606 1340.65 898.739 1340.37 891.313C1339.91 879.456 1329.28 871.381 1329.67 870.387C1330.11 869.297 1341.03 884.273 1345.72 879.304C1348.97 875.853 1349.45 862.588 1345.96 856.059C1341.96 848.606 1334.35 852.83 1332.47 845.983C1331.15 841.194 1334.07 836.211 1332.7 833.975C1330.89 830.993 1325.97 840.117 1320.37 838.24C1313.93 836.073 1313.12 821.51 1308.51 821.579C1304.2 821.648 1303.89 834.471 1297.82 837.853C1290.54 841.898 1283.33 827.791 1280.37 832.042C1278.12 835.286 1282.48 843.236 1280.61 853.741C1278.31 866.674 1269.31 867.861 1269.45 875.826C1269.55 881.747 1274.52 881.913 1283.4 895.205C1289.35 904.108 1290.11 908.47 1293.86 909.933C1298.72 911.81 1303.63 906.883 1307.12 902.189" stroke="#797667" stroke-miterlimit="10"/>
<path d="M1185.73 876.746C1191.92 877.436 1198.4 888.092 1198.16 898.03C1197.83 911.46 1185.21 922.655 1175.68 922.13C1171.04 921.882 1167.41 918.873 1165.62 921.357C1163.79 923.897 1166.83 928.079 1165.62 936.485C1164.89 941.551 1163.52 941.869 1163.26 946.741C1162.92 952.745 1164.89 954.595 1163.85 957.259C1162.27 961.331 1155.42 962.891 1150.63 959.826C1144.57 955.948 1142.99 945.457 1142.16 939.826C1140.38 928.01 1142.84 921.026 1140.58 919.577C1137.65 917.686 1133.25 929.308 1123.02 931.116C1121.36 931.406 1116.7 932.234 1114.55 928.811C1112.66 925.816 1113.67 921.109 1114.55 917.023C1115.48 912.647 1116.85 906.257 1120.66 902.916C1128.23 896.291 1140.1 906.353 1141.77 902.654C1142.97 899.99 1136.42 895.587 1136.44 888.547C1136.47 878.402 1150.19 865.855 1160.31 869.057C1167.52 871.335 1169.63 880.555 1176.88 880.086C1181.26 879.796 1182.06 876.345 1185.76 876.759L1185.73 876.746Z" fill="#F7EECE" stroke="#797667" stroke-miterlimit="10"/>
<path d="M1253.51 872.672C1249.44 872.962 1243.69 874.411 1241.24 881.037C1237.64 890.782 1244.64 902.418 1241.52 910.299C1237.75 919.851 1221.73 917.298 1211.13 904.723C1208.69 901.824 1197.7 887.925 1199.42 872.203C1200.3 864.169 1204.09 859.311 1208.9 853.155C1210.8 850.725 1218.35 841.463 1230.09 838.289C1240.63 835.445 1249.3 838.937 1254.06 841.546" fill="#F7EECE"/>
<path d="M1253.51 872.672C1249.44 872.962 1243.69 874.411 1241.24 881.037C1237.64 890.782 1244.64 902.418 1241.52 910.299C1237.75 919.851 1221.73 917.298 1211.13 904.723C1208.69 901.824 1197.7 887.925 1199.42 872.203C1200.3 864.169 1204.09 859.311 1208.9 853.155C1210.8 850.725 1218.35 841.463 1230.09 838.289C1240.63 835.445 1249.3 838.937 1254.06 841.546" stroke="#797667" stroke-miterlimit="10"/>
<path d="M1062.41 893.989C1063.57 892.042 1065.26 889.475 1067.58 886.714C1069.08 884.948 1087.2 863.857 1101.32 870.178C1106.87 872.663 1111.81 879.371 1111.43 885.721C1110.83 895.838 1096.83 902.726 1097.34 903.568C1097.9 904.507 1112.3 891.725 1118.49 895.963C1122.79 898.903 1123.4 910.221 1118.8 915.798C1113.53 922.161 1103.5 918.544 1101.03 924.397C1099.3 928.483 1103.14 932.734 1101.34 934.653C1098.95 937.192 1092.47 929.407 1085.09 931.022C1076.6 932.872 1075.54 945.295 1069.47 945.24C1063.77 945.184 1063.38 934.239 1055.38 931.354C1045.79 927.903 1036.28 939.939 1032.4 936.309C1029.44 933.548 1035.18 926.757 1032.71 917.799C1029.66 906.757 1017.82 905.749 1018 898.958C1018.13 893.906 1024.68 893.754 1036.38 882.422C1044.23 874.83 1045.21 871.103 1050.17 869.861C1056.58 868.26 1063.03 872.456 1067.62 876.473" fill="#F7EECE"/>
<path d="M1062.41 893.989C1063.57 892.042 1065.26 889.475 1067.58 886.714C1069.08 884.948 1087.2 863.857 1101.32 870.178C1106.87 872.663 1111.81 879.371 1111.43 885.721C1110.83 895.838 1096.83 902.726 1097.34 903.568C1097.9 904.507 1112.3 891.725 1118.49 895.963C1122.79 898.903 1123.4 910.221 1118.8 915.798C1113.53 922.161 1103.5 918.544 1101.03 924.397C1099.3 928.483 1103.14 932.734 1101.34 934.653C1098.95 937.192 1092.47 929.407 1085.09 931.022C1076.6 932.872 1075.54 945.295 1069.47 945.24C1063.77 945.184 1063.38 934.239 1055.38 931.354C1045.79 927.903 1036.28 939.939 1032.4 936.309C1029.44 933.548 1035.18 926.757 1032.71 917.799C1029.66 906.757 1017.82 905.749 1018 898.958C1018.13 893.906 1024.68 893.754 1036.38 882.422C1044.23 874.83 1045.21 871.103 1050.17 869.861C1056.58 868.26 1063.03 872.456 1067.62 876.473" stroke="#797667" stroke-miterlimit="10"/>
<path d="M411.316 902.43L486 876.999L597.499 1332.22L501 1332.22L411.316 902.43Z" fill="#993C29"/>
<path d="M181.5 876H487V1340H152L181.5 876Z" fill="#E73E26"/>
<path d="M175.526 1322.5L197.475 889.5H464.985L452.514 1322.5H175.526Z" stroke="#FFE1C3"/>
<path d="M252 1250H393" stroke="#FFE1C3"/>
<ellipse cx="1146.5" cy="893" rx="214.5" ry="61" fill="#F7EECE"/>
<path d="M1011.41 1323.56C1027.73 1331.27 1052.27 1341.21 1083.34 1347.53C1131.98 1357.43 1171.06 1353.29 1205.62 1349.33C1229.63 1346.58 1262.34 1341.15 1300.33 1329.55L1381.85 945.916L1106.12 952.514L932.279 945.916" fill="#E73E26"/>
<path d="M1236.18 952.585L1281.11 950.983" stroke="#797667" stroke-miterlimit="10"/>
<path d="M994.424 855.181C993.527 853.787 992.215 851.951 990.421 849.963C989.275 848.694 975.224 833.565 964.306 838.093C960.013 839.873 956.189 844.691 956.479 849.246C956.948 856.506 967.784 861.448 967.384 862.055C966.942 862.731 955.803 853.552 951.013 856.603C947.687 858.715 947.204 866.831 950.779 870.834C954.85 875.403 962.622 872.808 964.54 877.004C965.879 879.93 962.911 882.98 964.306 884.361C966.155 886.183 971.179 880.606 976.88 881.752C983.45 883.077 984.279 891.994 988.972 891.952C993.375 891.911 993.679 884.057 999.876 881.987C1007.29 879.502 1014.66 888.143 1017.67 885.548C1019.96 883.56 1015.52 878.688 1017.43 872.269C1019.79 864.346 1028.96 863.629 1028.82 858.742C1028.72 855.112 1023.65 855.015 1014.59 846.885C1008.52 841.433 1007.76 838.755 1003.92 837.872C998.951 836.726 993.968 839.735 990.393 842.62" fill="#F7EECE"/>
<path d="M994.424 855.181C993.527 853.787 992.215 851.951 990.421 849.963C989.275 848.694 975.224 833.565 964.306 838.093C960.013 839.873 956.189 844.691 956.479 849.246C956.948 856.506 967.784 861.448 967.384 862.055C966.942 862.731 955.803 853.552 951.013 856.603C947.687 858.715 947.204 866.831 950.779 870.834C954.85 875.403 962.622 872.808 964.54 877.004C965.879 879.93 962.911 882.98 964.306 884.361C966.155 886.183 971.179 880.606 976.88 881.752C983.45 883.077 984.279 891.994 988.972 891.952C993.375 891.911 993.679 884.057 999.876 881.987C1007.29 879.502 1014.66 888.143 1017.67 885.548C1019.96 883.56 1015.52 878.688 1017.43 872.269C1019.79 864.346 1028.96 863.629 1028.82 858.742C1028.72 855.112 1023.65 855.015 1014.59 846.885C1008.52 841.433 1007.76 838.755 1003.92 837.872C998.951 836.726 993.968 839.735 990.393 842.62" stroke="#797667" stroke-miterlimit="10"/>
<path d="M1151.63 870.351C1150.95 871.98 1149.94 874.147 1148.59 876.466C1147.72 877.957 1137.05 895.68 1128.77 890.366C1125.51 888.282 1122.6 882.636 1122.83 877.294C1123.19 868.792 1131.42 862.994 1131.12 862.276C1130.78 861.49 1122.32 872.229 1118.69 868.667C1116.17 866.197 1115.81 856.672 1118.51 851.993C1121.61 846.638 1127.5 849.674 1128.96 844.76C1129.98 841.323 1127.72 837.748 1128.78 836.147C1130.19 834.008 1134 840.55 1138.32 839.212C1143.3 837.652 1143.94 827.203 1147.5 827.258C1150.84 827.313 1151.08 836.506 1155.78 838.935C1161.41 841.834 1167 831.716 1169.28 834.767C1171.02 837.086 1167.65 842.8 1169.1 850.337C1170.9 859.613 1177.85 860.468 1177.74 866.183C1177.66 870.434 1173.82 870.558 1166.94 880.082C1162.32 886.473 1161.75 889.607 1158.83 890.642C1155.06 891.995 1151.27 888.461 1148.56 885.079" fill="#F7EECE"/>
<path d="M1151.63 870.351C1150.95 871.98 1149.94 874.147 1148.59 876.466C1147.72 877.957 1137.05 895.68 1128.77 890.366C1125.51 888.282 1122.6 882.636 1122.83 877.294C1123.19 868.792 1131.42 862.994 1131.12 862.276C1130.78 861.49 1122.32 872.229 1118.69 868.667C1116.17 866.197 1115.81 856.672 1118.51 851.993C1121.61 846.638 1127.5 849.674 1128.96 844.76C1129.98 841.323 1127.72 837.748 1128.78 836.147C1130.19 834.008 1134 840.55 1138.32 839.212C1143.3 837.652 1143.94 827.203 1147.5 827.258C1150.84 827.313 1151.08 836.506 1155.78 838.935C1161.41 841.834 1167 831.716 1169.28 834.767C1171.02 837.086 1167.65 842.8 1169.1 850.337C1170.9 859.613 1177.85 860.468 1177.74 866.183C1177.66 870.434 1173.82 870.558 1166.94 880.082C1162.32 886.473 1161.75 889.607 1158.83 890.642C1155.06 891.995 1151.27 888.461 1148.56 885.079" stroke="#797667" stroke-miterlimit="10"/>
<path d="M923 933.772L927.556 945.333C971.451 951.632 1018.54 956.298 1068.5 958.439C1120.39 960.649 1145.2 955.649 1241.58 955.158C1260.66 955.07 1279.73 953.93 1298.8 954.263C1324.05 954.719 1349.56 945.474 1374.49 950.772C1375.08 950.895 1377.44 951.439 1379.74 949.895C1382.99 947.737 1386 941.632 1384.69 935.298C1383.44 929.281 1378.71 925.193 1373.67 926.14L1015.73 937.86L927.543 926" fill="#EDEDED"/>
<path d="M1092.22 874.273C1085.91 873.734 1079.3 865.37 1079.55 857.571C1079.89 847.039 1092.74 838.247 1102.49 838.661C1107.21 838.854 1110.92 841.214 1112.74 839.268C1114.61 837.28 1111.5 833.995 1112.74 827.397C1113.49 823.422 1114.88 823.174 1115.16 819.35C1115.49 814.63 1113.5 813.194 1114.55 811.096C1116.17 807.907 1123.14 806.679 1128.04 809.081C1134.22 812.117 1135.82 820.358 1136.69 824.775C1138.5 834.037 1135.99 839.53 1138.31 840.662C1141.3 842.139 1145.77 833.029 1156.21 831.607C1157.89 831.373 1162.67 830.724 1164.86 833.416C1166.78 835.762 1165.76 839.461 1164.86 842.664C1163.91 846.101 1162.52 851.111 1158.62 853.734C1150.91 858.937 1138.8 851.042 1137.1 853.941C1135.88 856.039 1142.56 859.49 1142.54 865.011C1142.52 872.961 1128.53 882.817 1118.19 880.305C1110.85 878.51 1108.7 871.291 1101.3 871.65C1096.83 871.871 1096.01 874.59 1092.24 874.259L1092.22 874.273Z" fill="#F7EECE" stroke="#797667" stroke-miterlimit="10"/>
<path d="M1092.22 874.273C1085.91 873.734 1079.3 865.37 1079.55 857.571C1079.89 847.039 1092.74 838.247 1102.49 838.661C1107.21 838.854 1110.92 841.214 1112.74 839.268C1114.61 837.28 1111.5 833.995 1112.74 827.397C1113.49 823.422 1114.88 823.174 1115.16 819.35C1115.49 814.63 1113.5 813.194 1114.55 811.096C1116.17 807.907 1123.14 806.679 1128.04 809.081C1134.22 812.117 1135.82 820.358 1136.69 824.775C1138.5 834.037 1135.99 839.53 1138.31 840.662C1141.3 842.139 1145.77 833.029 1156.21 831.607C1157.89 831.373 1162.67 830.724 1164.86 833.416C1166.78 835.762 1165.76 839.461 1164.86 842.664C1163.91 846.101 1162.52 851.111 1158.62 853.734C1150.91 858.937 1138.8 851.042 1137.1 853.941C1135.88 856.039 1142.56 859.49 1142.54 865.011C1142.52 872.961 1128.53 882.817 1118.19 880.305C1110.85 878.51 1108.7 871.291 1101.3 871.65C1096.83 871.871 1096.01 874.59 1092.24 874.259L1092.22 874.273Z" fill="#F7EECE" stroke="#797667" stroke-miterlimit="10"/>
<path d="M942.678 930.452C936.37 929.914 929.758 921.549 930.007 913.751C930.352 903.219 943.203 894.426 952.948 894.84C957.668 895.034 961.381 897.394 963.203 895.448C965.067 893.46 961.961 890.175 963.203 883.577C963.949 879.602 965.343 879.353 965.619 875.53C965.95 870.809 963.962 869.374 965.011 867.276C966.626 864.087 973.597 862.859 978.497 865.26C984.681 868.297 986.282 876.538 987.152 880.955C988.96 890.216 986.448 895.71 988.767 896.842C991.762 898.319 996.234 889.209 1006.67 887.787C1008.35 887.552 1013.13 886.904 1015.32 889.595C1017.24 891.942 1016.22 895.641 1015.32 898.843C1014.37 902.28 1012.98 907.291 1009.08 909.913C1001.37 915.117 989.264 907.222 987.566 910.12C986.337 912.219 993.018 915.669 993.004 921.191C992.977 929.141 978.994 938.997 968.655 936.484C961.312 934.69 959.159 927.471 951.76 927.83C947.288 928.051 946.474 930.77 942.706 930.439L942.678 930.452Z" fill="#F7EECE" stroke="#797667" stroke-miterlimit="10"/>
<path d="M1023.09 878.178C1027.23 877.999 1033.11 877.115 1035.61 873.057C1039.28 867.094 1032.16 859.972 1035.32 855.141C1039.17 849.288 1055.5 850.862 1066.32 858.55C1068.81 860.317 1080.02 868.833 1078.26 878.454C1077.37 883.368 1073.5 886.35 1068.6 890.118C1066.67 891.609 1058.95 897.282 1046.99 899.214C1036.23 900.953 1027.4 898.828 1022.53 897.226" fill="#F7EECE"/>
<path d="M1023.09 878.178C1027.23 877.999 1033.11 877.115 1035.61 873.057C1039.28 867.094 1032.16 859.972 1035.32 855.141C1039.17 849.288 1055.5 850.862 1066.32 858.55C1068.81 860.317 1080.02 868.833 1078.26 878.454C1077.37 883.368 1073.5 886.35 1068.6 890.118C1066.67 891.609 1058.95 897.282 1046.99 899.214C1036.23 900.953 1027.4 898.828 1022.53 897.226" stroke="#797667" stroke-miterlimit="10"/>
<path d="M1225.85 847.991C1221.06 848.626 1216.03 858.412 1216.23 867.564C1216.49 879.917 1226.25 890.201 1233.63 889.731C1237.22 889.497 1240.04 886.736 1241.42 889.028C1242.84 891.36 1240.48 895.211 1241.42 902.941C1241.98 907.593 1243.05 907.896 1243.25 912.369C1243.5 917.89 1242 919.588 1242.8 922.031C1244.03 925.771 1249.31 927.207 1253.03 924.391C1257.72 920.83 1258.93 911.181 1259.6 906.005C1260.96 895.142 1259.07 888.724 1260.82 887.385C1263.1 885.646 1266.5 896.329 1274.42 898C1275.7 898.262 1279.32 899.021 1280.99 895.874C1282.45 893.127 1281.67 888.793 1280.99 885.025C1280.26 881.008 1279.21 875.128 1276.26 872.063C1270.39 865.963 1261.21 875.224 1259.91 871.829C1258.97 869.372 1264.05 865.328 1264.04 858.868C1264.01 849.551 1253.4 838.011 1245.56 840.951C1239.98 843.049 1238.35 851.525 1232.73 851.083C1229.34 850.821 1228.72 847.632 1225.86 848.019L1225.85 847.991Z" fill="#F7EECE" stroke="#797667" stroke-miterlimit="10"/>
<path d="M1173.4 843.409C1176.54 843.616 1181 844.665 1182.89 849.413C1185.68 856.398 1180.27 864.749 1182.67 870.408C1185.58 877.268 1197.99 875.432 1206.21 866.405C1208.1 864.335 1216.6 854.355 1215.28 843.078C1214.6 837.308 1211.66 833.83 1207.93 829.413C1206.47 827.673 1200.6 821.02 1191.52 818.743C1183.36 816.7 1176.65 819.198 1172.96 821.076" fill="#F7EECE"/>
<path d="M1173.4 843.409C1176.54 843.616 1181 844.665 1182.89 849.413C1185.68 856.398 1180.27 864.749 1182.67 870.408C1185.58 877.268 1197.99 875.432 1206.21 866.405C1208.1 864.335 1216.6 854.355 1215.28 843.078C1214.6 837.308 1211.66 833.83 1207.93 829.413C1206.47 827.673 1200.6 821.02 1191.52 818.743C1183.36 816.7 1176.65 819.198 1172.96 821.076" stroke="#797667" stroke-miterlimit="10"/>
<path d="M1160.69 925.452C1154.38 924.914 1147.77 916.549 1148.02 908.751C1148.36 898.219 1161.21 889.426 1170.96 889.84C1175.68 890.034 1179.39 892.394 1181.21 890.448C1183.08 888.46 1179.97 885.175 1181.21 878.577C1181.96 874.602 1183.35 874.353 1183.63 870.53C1183.96 865.809 1181.97 864.374 1183.02 862.276C1184.64 859.087 1191.61 857.859 1196.51 860.26C1202.69 863.297 1204.29 871.538 1205.16 875.955C1206.97 885.216 1204.46 890.71 1206.78 891.842C1209.77 893.319 1214.25 884.209 1224.68 882.787C1226.36 882.552 1231.14 881.904 1233.34 884.595C1235.25 886.942 1234.23 890.641 1233.34 893.843C1232.38 897.28 1230.99 902.291 1227.1 904.913C1219.38 910.117 1207.28 902.222 1205.58 905.12C1204.35 907.219 1211.03 910.669 1211.02 916.191C1210.99 924.141 1197.01 933.997 1186.67 931.484C1179.32 929.69 1177.17 922.471 1169.77 922.83C1165.3 923.051 1164.49 925.77 1160.72 925.439L1160.69 925.452Z" fill="#F7EECE" stroke="#797667" stroke-miterlimit="10"/>
<path d="M1092.57 910.581C1096.71 910.402 1102.59 909.519 1105.09 905.46C1108.76 899.497 1101.63 892.375 1104.8 887.544C1108.65 881.692 1124.98 883.265 1135.8 890.953C1138.28 892.72 1149.49 901.237 1147.74 910.857C1146.84 915.771 1142.97 918.753 1138.07 922.521C1136.14 924.012 1128.43 929.685 1116.46 931.617C1105.71 933.357 1096.87 931.231 1092 929.63" fill="#F7EECE"/>
<path d="M1092.57 910.581C1096.71 910.402 1102.59 909.519 1105.09 905.46C1108.76 899.497 1101.63 892.375 1104.8 887.544C1108.65 881.692 1124.98 883.265 1135.8 890.953C1138.28 892.72 1149.49 901.237 1147.74 910.857C1146.84 915.771 1142.97 918.753 1138.07 922.521C1136.14 924.012 1128.43 929.685 1116.46 931.617C1105.71 933.357 1096.87 931.231 1092 929.63" stroke="#797667" stroke-miterlimit="10"/>
<path d="M1294.63 859.507C1289.84 860.141 1284.81 869.928 1285.01 879.079C1285.27 891.433 1295.03 901.716 1302.41 901.247C1306 901.012 1308.82 898.252 1310.2 900.543C1311.62 902.876 1309.26 906.727 1310.2 914.457C1310.76 919.108 1311.82 919.412 1312.03 923.884C1312.28 929.405 1310.78 931.103 1311.58 933.546C1312.8 937.287 1318.09 938.723 1321.8 935.907C1326.5 932.345 1327.71 922.697 1328.37 917.521C1329.74 906.658 1327.85 900.239 1329.6 898.901C1331.88 897.161 1335.28 907.845 1343.2 909.515C1344.48 909.777 1348.1 910.537 1349.77 907.389C1351.23 904.643 1350.45 900.308 1349.77 896.54C1349.04 892.524 1347.99 886.643 1345.04 883.579C1339.17 877.478 1329.99 886.74 1328.69 883.344C1327.75 880.888 1332.83 876.843 1332.82 870.383C1332.79 861.066 1322.18 849.527 1314.34 852.467C1308.76 854.565 1307.13 863.04 1301.51 862.598C1298.12 862.336 1297.5 859.148 1294.64 859.534L1294.63 859.507Z" fill="#F7EECE" stroke="#797667" stroke-miterlimit="10"/>
<path d="M1241.87 894.589C1245.02 894.796 1249.47 895.845 1251.37 900.593C1254.15 907.577 1248.74 915.928 1251.15 921.588C1254.06 928.448 1266.47 926.612 1274.68 917.585C1276.57 915.514 1285.07 905.535 1283.75 894.257C1283.07 888.488 1280.13 885.009 1276.4 880.592C1274.94 878.853 1269.08 872.2 1259.99 869.923C1251.84 867.88 1245.13 870.378 1241.43 872.255" fill="#F7EECE"/>
<path d="M1241.87 894.589C1245.02 894.796 1249.47 895.845 1251.37 900.593C1254.15 907.577 1248.74 915.928 1251.15 921.588C1254.06 928.448 1266.47 926.612 1274.68 917.585C1276.57 915.514 1285.07 905.535 1283.75 894.257C1283.07 888.488 1280.13 885.009 1276.4 880.592C1274.94 878.853 1269.08 872.2 1259.99 869.923C1251.84 867.88 1245.13 870.378 1241.43 872.255" stroke="#797667" stroke-miterlimit="10"/>
<path fill-rule="evenodd" clip-rule="evenodd" d="M1011 1072H1297V1074.46C1294.33 1074.47 1292.17 1076.45 1292.17 1078.9C1292.17 1081.35 1294.33 1083.34 1297 1083.34V1087.28C1294.33 1087.28 1292.17 1089.27 1292.17 1091.72C1292.17 1094.17 1294.33 1096.16 1297 1096.16V1100.1C1294.33 1100.1 1292.17 1102.09 1292.17 1104.54C1292.17 1106.99 1294.33 1108.97 1297 1108.97V1112.92C1294.33 1112.92 1292.17 1114.9 1292.17 1117.35C1292.17 1119.81 1294.33 1121.79 1297 1121.79V1125.74C1294.33 1125.74 1292.17 1127.72 1292.17 1130.17C1292.17 1132.62 1294.33 1134.61 1297 1134.61V1138.55C1294.33 1138.55 1292.17 1140.54 1292.17 1142.99C1292.17 1145.44 1294.33 1147.43 1297 1147.43V1151.37C1294.33 1151.37 1292.17 1153.36 1292.17 1155.81C1292.17 1158.26 1294.33 1160.25 1297 1160.25V1163.94C1294.33 1163.94 1292.17 1165.93 1292.17 1168.38C1292.17 1170.83 1294.33 1172.82 1297 1172.82V1176.51C1294.33 1176.51 1292.17 1178.5 1292.17 1180.95C1292.17 1183.4 1294.33 1185.39 1297 1185.39V1190.32H1011V1185.41C1011.48 1185.56 1011.99 1185.63 1012.53 1185.63C1015.2 1185.63 1017.36 1183.65 1017.36 1181.2C1017.36 1178.75 1015.2 1176.76 1012.53 1176.76C1011.99 1176.76 1011.48 1176.84 1011 1176.99V1172.84C1011.48 1172.98 1011.99 1173.06 1012.53 1173.06C1015.2 1173.06 1017.36 1171.08 1017.36 1168.63C1017.36 1166.18 1015.2 1164.19 1012.53 1164.19C1011.99 1164.19 1011.48 1164.27 1011 1164.41V1160.27C1011.48 1160.41 1011.99 1160.49 1012.53 1160.49C1015.2 1160.49 1017.36 1158.51 1017.36 1156.06C1017.36 1153.6 1015.2 1151.62 1012.53 1151.62C1011.99 1151.62 1011.48 1151.7 1011 1151.84V1147.45C1011.48 1147.6 1011.99 1147.67 1012.53 1147.67C1015.2 1147.67 1017.36 1145.69 1017.36 1143.24C1017.36 1140.79 1015.2 1138.8 1012.53 1138.8C1011.99 1138.8 1011.48 1138.88 1011 1139.03V1134.63C1011.48 1134.78 1011.99 1134.86 1012.53 1134.86C1015.2 1134.86 1017.36 1132.87 1017.36 1130.42C1017.36 1127.97 1015.2 1125.98 1012.53 1125.98C1011.99 1125.98 1011.48 1126.06 1011 1126.21V1121.81C1011.48 1121.96 1011.99 1122.04 1012.53 1122.04C1015.2 1122.04 1017.36 1120.05 1017.36 1117.6C1017.36 1115.15 1015.2 1113.17 1012.53 1113.17C1011.99 1113.17 1011.48 1113.24 1011 1113.39V1109C1011.48 1109.14 1011.99 1109.22 1012.53 1109.22C1015.2 1109.22 1017.36 1107.24 1017.36 1104.78C1017.36 1102.33 1015.2 1100.35 1012.53 1100.35C1011.99 1100.35 1011.48 1100.43 1011 1100.57V1096.18C1011.48 1096.32 1011.99 1096.4 1012.53 1096.4C1015.2 1096.4 1017.36 1094.42 1017.36 1091.97C1017.36 1089.52 1015.2 1087.53 1012.53 1087.53C1011.99 1087.53 1011.48 1087.61 1011 1087.75V1083.36C1011.48 1083.51 1011.99 1083.58 1012.53 1083.58C1015.2 1083.58 1017.36 1081.6 1017.36 1079.15C1017.36 1076.7 1015.2 1074.71 1012.53 1074.71C1011.99 1074.71 1011.48 1074.79 1011 1074.94V1072Z" fill="#EADFC9"/>
</svg>
