<svg width="1440" height="1010" viewBox="0 0 1440 1010" fill="none" xmlns="http://www.w3.org/2000/svg">
<g clip-path="url(#clip0_453_338)">
<rect x="-353" y="910" width="2025.22" height="91" fill="#4A3B37"/>
<rect x="-9.24414" y="924" width="53.2953" height="63" fill="#EADFC9"/>
<rect x="106.674" y="924" width="53.2953" height="63" fill="#EADFC9"/>
<rect x="223.922" y="924" width="53.2953" height="63" fill="#EADFC9"/>
<rect x="341.17" y="924" width="53.2953" height="63" fill="#EADFC9"/>
<rect x="458.422" y="923.999" width="53.2953" height="63" fill="#EADFC9"/>
<rect x="575.672" y="924" width="53.2953" height="63" fill="#EADFC9"/>
<rect x="692.92" y="924" width="53.2953" height="63" fill="#EADFC9"/>
<rect x="810.172" y="924" width="53.2953" height="63" fill="#EADFC9"/>
<rect x="927.422" y="923.999" width="53.2953" height="63" fill="#EADFC9"/>
<rect x="1044.67" y="924" width="53.2953" height="63" fill="#EADFC9"/>
<rect x="1161.92" y="924.001" width="53.2953" height="63" fill="#EADFC9"/>
<rect x="1279.17" y="923.999" width="53.2953" height="63" fill="#EADFC9"/>
<rect x="-353" y="910" width="2025.22" height="91" fill="#4A3B37"/>
<rect x="-9.24414" y="924" width="53.2953" height="63" fill="#EADFC9"/>
<rect x="106.674" y="924" width="53.2953" height="63" fill="#EADFC9"/>
<rect x="223.922" y="924" width="53.2953" height="63" fill="#EADFC9"/>
<rect x="341.17" y="924" width="53.2953" height="63" fill="#EADFC9"/>
<rect x="458.422" y="923.999" width="53.2953" height="63" fill="#EADFC9"/>
<rect x="575.672" y="924" width="53.2953" height="63" fill="#EADFC9"/>
<rect x="692.92" y="924" width="53.2953" height="63" fill="#EADFC9"/>
<rect x="810.172" y="924" width="53.2953" height="63" fill="#EADFC9"/>
<rect x="927.422" y="923.999" width="53.2953" height="63" fill="#EADFC9"/>
<rect x="1044.67" y="924" width="53.2953" height="63" fill="#EADFC9"/>
<rect x="1161.92" y="924.001" width="53.2953" height="63" fill="#EADFC9"/>
<rect x="1279.17" y="923.999" width="53.2953" height="63" fill="#EADFC9"/>
<rect x="1396.42" y="924" width="53.2953" height="63" fill="#EADFC9"/>
<path fill-rule="evenodd" clip-rule="evenodd" d="M124 265H554V336.458C552.686 336.284 551.351 336.195 550 336.195C529.565 336.195 513 356.53 513 381.613C513 406.697 529.565 427.031 550 427.031C551.351 427.031 552.686 426.942 554 426.769V497H124V427.031C144.435 427.031 161 406.697 161 381.613C161 356.53 144.435 336.195 124 336.195V265Z" fill="#E24728"/>
<path fill-rule="evenodd" clip-rule="evenodd" d="M615 265H1045V336.458C1043.69 336.284 1042.35 336.195 1041 336.195C1020.57 336.195 1004 356.53 1004 381.613C1004 406.697 1020.57 427.031 1041 427.031C1042.35 427.031 1043.69 426.942 1045 426.769V497H615V427.031C635.435 427.031 652 406.697 652 381.613C652 356.53 635.435 336.195 615 336.195V265Z" fill="#E24728"/>
<path fill-rule="evenodd" clip-rule="evenodd" d="M133 265H563V336.458C561.686 336.284 560.351 336.195 559 336.195C538.565 336.195 522 356.53 522 381.613C522 406.697 538.565 427.031 559 427.031C560.351 427.031 561.686 426.942 563 426.769V497H133V427.031C153.435 427.031 170 406.697 170 381.613C170 356.53 153.435 336.195 133 336.195V265Z" fill="#E24728"/>
<path fill-rule="evenodd" clip-rule="evenodd" d="M615 265H1045V336.458C1043.69 336.284 1042.35 336.195 1041 336.195C1020.57 336.195 1004 356.53 1004 381.613C1004 406.697 1020.57 427.031 1041 427.031C1042.35 427.031 1043.69 426.942 1045 426.769V497H615V427.031C635.435 427.031 652 406.697 652 381.613C652 356.53 635.435 336.195 615 336.195V265Z" fill="#E24728"/>
<path fill-rule="evenodd" clip-rule="evenodd" d="M902 0H1332V71.4576C1330.69 71.2843 1329.35 71.1953 1328 71.1953C1307.57 71.1953 1291 91.5296 1291 116.613C1291 141.697 1307.57 162.031 1328 162.031C1329.35 162.031 1330.69 161.942 1332 161.769V232H902V162.031C922.435 162.031 939 141.697 939 116.613C939 91.5296 922.435 71.1953 902 71.1953V0Z" fill="#E24728"/>
<path fill-rule="evenodd" clip-rule="evenodd" d="M428 0H858V71.4576C856.686 71.2843 855.351 71.1953 854 71.1953C833.565 71.1953 817 91.5296 817 116.613C817 141.697 833.565 162.031 854 162.031C855.351 162.031 856.686 161.942 858 161.769V232H428V162.031C448.435 162.031 465 141.697 465 116.613C465 91.5296 448.435 71.1953 428 71.1953V0Z" fill="#E24728"/>
<path d="M207 268L207 495" stroke="#EADFC9"/>
<path d="M689 268L689 495" stroke="#EADFC9"/>
<path fill-rule="evenodd" clip-rule="evenodd" d="M1085 265H1515V336.458C1513.69 336.284 1512.35 336.195 1511 336.195C1490.57 336.195 1474 356.53 1474 381.613C1474 406.697 1490.57 427.031 1511 427.031C1512.35 427.031 1513.69 426.942 1515 426.769V497H1085V427.031C1105.43 427.031 1122 406.697 1122 381.613C1122 356.53 1105.43 336.195 1085 336.195V265Z" fill="#E24728"/>
<path fill-rule="evenodd" clip-rule="evenodd" d="M1085 265H1515V336.458C1513.69 336.284 1512.35 336.195 1511 336.195C1490.57 336.195 1474 356.53 1474 381.613C1474 406.697 1490.57 427.031 1511 427.031C1512.35 427.031 1513.69 426.942 1515 426.769V497H1085V427.031C1105.43 427.031 1122 406.697 1122 381.613C1122 356.53 1105.43 336.195 1085 336.195V265Z" fill="#E24728"/>
<path d="M975 3L975 230" stroke="#EADFC9"/>
<path d="M1159 268L1159 495" stroke="#EADFC9"/>
<path d="M502 3L502 230" stroke="#EADFC9"/>
<path fill-rule="evenodd" clip-rule="evenodd" d="M-46 2H384V73.4576C382.686 73.2843 381.351 73.1953 380 73.1953C359.565 73.1953 343 93.5296 343 118.613C343 143.697 359.565 164.031 380 164.031C381.351 164.031 382.686 163.942 384 163.769V234H-46V164.031C-25.5655 164.031 -9 143.697 -9 118.613C-9 93.5296 -25.5655 73.1953 -46 73.1953V2Z" fill="#E24728"/>
<path d="M28 5L28 232" stroke="#EADFC9"/>
<path fill-rule="evenodd" clip-rule="evenodd" d="M-221 526H209V597.458C207.686 597.284 206.351 597.195 205 597.195C184.565 597.195 168 617.53 168 642.613C168 667.697 184.565 688.031 205 688.031C206.351 688.031 207.686 687.942 209 687.769V758H-221V688.031C-200.565 688.031 -184 667.697 -184 642.613C-184 617.53 -200.565 597.195 -221 597.195V526Z" fill="#E24728"/>
<path fill-rule="evenodd" clip-rule="evenodd" d="M739 530H1169V601.458C1167.69 601.284 1166.35 601.195 1165 601.195C1144.57 601.195 1128 621.53 1128 646.613C1128 671.697 1144.57 692.031 1165 692.031C1166.35 692.031 1167.69 691.942 1169 691.769V762H739V692.031C759.435 692.031 776 671.697 776 646.613C776 621.53 759.435 601.195 739 601.195V530Z" fill="#E24728"/>
<path fill-rule="evenodd" clip-rule="evenodd" d="M259 526H689V597.458C687.686 597.284 686.351 597.195 685 597.195C664.565 597.195 648 617.53 648 642.613C648 667.697 664.565 688.031 685 688.031C686.351 688.031 687.686 687.942 689 687.769V758H259V688.031C279.435 688.031 296 667.697 296 642.613C296 617.53 279.435 597.195 259 597.195V526Z" fill="#E24728"/>
<path fill-rule="evenodd" clip-rule="evenodd" d="M739 527H1169V598.458C1167.69 598.284 1166.35 598.195 1165 598.195C1144.57 598.195 1128 618.53 1128 643.613C1128 668.697 1144.57 689.031 1165 689.031C1166.35 689.031 1167.69 688.942 1169 688.769V759H739V689.031C759.435 689.031 776 668.697 776 643.613C776 618.53 759.435 598.195 739 598.195V527Z" fill="#E24728"/>
<path d="M333 529L333 756" stroke="#EADFC9"/>
<path d="M813 530L813 757" stroke="#EADFC9"/>
<path fill-rule="evenodd" clip-rule="evenodd" d="M-349 266H81V337.458C79.686 337.284 78.3515 337.195 77 337.195C56.5655 337.195 40 357.53 40 382.613C40 407.697 56.5655 428.031 77 428.031C78.3515 428.031 79.686 427.942 81 427.769V498H-349V428.031C-328.565 428.031 -312 407.697 -312 382.613C-312 357.53 -328.565 337.195 -349 337.195V266Z" fill="#E24728"/>
<path fill-rule="evenodd" clip-rule="evenodd" d="M1216 527H1646V598.458C1644.69 598.284 1643.35 598.195 1642 598.195C1621.57 598.195 1605 618.53 1605 643.613C1605 668.697 1621.57 689.031 1642 689.031C1643.35 689.031 1644.69 688.942 1646 688.769V759H1216V689.031C1236.43 689.031 1253 668.697 1253 643.613C1253 618.53 1236.43 598.195 1216 598.195V527Z" fill="#E24728"/>
<path d="M1290 529L1290 756" stroke="#EADFC9"/>
<path fill-rule="evenodd" clip-rule="evenodd" d="M1376 3H1806V74.4576C1804.69 74.2843 1803.35 74.1953 1802 74.1953C1781.57 74.1953 1765 94.5296 1765 119.613C1765 144.697 1781.57 165.031 1802 165.031C1803.35 165.031 1804.69 164.942 1806 164.769V235H1376V165.031C1396.43 165.031 1413 144.697 1413 119.613C1413 94.5296 1396.43 74.1953 1376 74.1953V3Z" fill="#E24728"/>
</g>
<path d="M162.4 192.4V179.6C136.8 176.4 125.6 161.2 125.6 161.2L140.8 137.2C140.8 137.2 152 147.6 168 147.6C172 147.6 174.4 145.2 174.4 142.8C174.4 134.8 131.2 134.8 131.2 99.6C131.2 73.2 162.4 65.2 162.4 65.2V51.6H183.2V63.6C207.2 66 220 81.2 220 81.2L204.8 105.2C204.8 105.2 195.2 96.4 184 96.4C180 96.4 177.6 98.8 177.6 101.2C177.6 109.2 220.8 109.2 220.8 144.4C220.8 174.8 183.2 179.6 183.2 179.6V192.4H162.4Z" fill="#EADFC9"/>
<path d="M603.8 114.8H591V106.8H605.4C605.4 106.8 613.4 59.6 663 59.6C693.4 59.6 707.8 77.2 707.8 77.2L690.2 105.2C690.2 105.2 680.6 96.4 667.8 96.4C655 96.4 648.6 106.8 648.6 106.8H674.2V114.8H646.2V121.2H674.2V129.2H648.6C648.6 129.2 655 139.6 667.8 139.6C680.6 139.6 690.2 130.8 690.2 130.8L707.8 158.8C707.8 158.8 693.4 176.4 663 176.4C613.4 176.4 605.4 129.2 605.4 129.2H591V121.2H603.8V114.8Z" fill="#EADFC9"/>
<path d="M1153.99 130.8H1133.19C1133.19 138.8 1125.19 142 1125.19 142H1174.79V174H1085.19V142C1085.19 142 1096.39 138.8 1096.39 130.8H1088.39V108.4H1096.39C1096.39 103.76 1096.39 100.88 1096.39 100.4C1096.39 75.6 1112.39 59.6 1137.19 59.6C1160.39 59.6 1174.79 74 1174.79 100.4H1146.79C1146.79 95.6 1143.59 92.4 1140.39 92.4C1137.19 92.4 1133.99 95.6 1133.99 100.4V108.4H1153.99V130.8Z" fill="#EADFC9"/>
<path d="M459.297 416.8V444H395.297V416.8H459.297ZM337.697 444L310.497 394.4V444H268.897V332H315.297L342.497 381.6V332H384.097V444H337.697ZM417.697 375.2C417.697 381.6 422.497 386.4 427.297 386.4C432.097 386.4 436.897 381.6 436.897 375.2C436.897 368.8 432.097 364 427.297 364C422.497 364 417.697 368.8 417.697 375.2ZM392.097 375.2C392.097 356 406.497 341.6 427.297 341.6C448.097 341.6 462.497 356 462.497 375.2C462.497 394.4 448.097 408.8 427.297 408.8C406.497 408.8 392.097 394.4 392.097 375.2Z" fill="#EADFC9"/>
<path d="M805.991 439H773.991L849.191 327H881.191L805.991 439ZM793.191 343C789.991 343 786.791 346.2 786.791 351C786.791 355.8 789.991 359 793.191 359C796.391 359 799.591 355.8 799.591 351C799.591 346.2 796.391 343 793.191 343ZM793.191 376.6C778.791 376.6 767.591 365.4 767.591 351C767.591 336.6 778.791 325.4 793.191 325.4C807.591 325.4 818.791 336.6 818.791 351C818.791 365.4 807.591 376.6 793.191 376.6ZM860.391 407C857.191 407 853.991 410.2 853.991 415C853.991 419.8 857.191 423 860.391 423C863.591 423 866.791 419.8 866.791 415C866.791 410.2 863.591 407 860.391 407ZM860.391 440.6C845.991 440.6 834.791 429.4 834.791 415C834.791 400.6 845.991 389.4 860.391 389.4C874.791 389.4 885.991 400.6 885.991 415C885.991 429.4 874.791 440.6 860.391 440.6ZM914.791 407C911.591 407 908.391 410.2 908.391 415C908.391 419.8 911.591 423 914.791 423C917.991 423 921.191 419.8 921.191 415C921.191 410.2 917.991 407 914.791 407ZM914.791 440.6C900.391 440.6 889.191 429.4 889.191 415C889.191 400.6 900.391 389.4 914.791 389.4C929.191 389.4 940.391 400.6 940.391 415C940.391 429.4 929.191 440.6 914.791 440.6Z" fill="#EADFC9"/>
<path d="M1311.2 434.72C1314.93 434.72 1318.18 433.547 1320.96 431.2C1323.84 428.747 1325.49 424.427 1325.92 418.24H1334.08C1333.86 424 1332.8 428.96 1330.88 433.12C1328.96 437.173 1326.24 440.267 1322.72 442.4C1319.3 444.533 1314.98 445.6 1309.76 445.6C1305.38 445.6 1301.33 444.747 1297.6 443.04C1293.86 441.227 1290.82 438.293 1288.48 434.24C1286.24 430.187 1285.12 424.693 1285.12 417.76V399.68C1282.77 400.533 1280.32 401.333 1277.76 402.08C1275.2 402.827 1272.64 403.52 1270.08 404.16V394.72C1272.85 393.973 1275.46 393.227 1277.92 392.48C1280.37 391.627 1282.77 390.827 1285.12 390.08V351.84C1285.12 347.467 1285.86 343.52 1287.36 340C1288.96 336.373 1291.41 333.493 1294.72 331.36C1298.13 329.227 1302.61 328.16 1308.16 328.16C1314.34 328.16 1319.25 330.24 1322.88 334.4C1326.61 338.453 1328.48 344.213 1328.48 351.68C1328.48 358.613 1327.14 364.96 1324.48 370.72C1321.92 376.373 1318.34 381.333 1313.76 385.6C1309.17 389.867 1304 393.227 1298.24 395.68V417.28C1298.24 422.613 1299.25 426.88 1301.28 430.08C1303.41 433.173 1306.72 434.72 1311.2 434.72ZM1317.76 352.16C1317.76 347.253 1316.96 343.573 1315.36 341.12C1313.76 338.667 1311.36 337.44 1308.16 337.44C1304.1 337.44 1301.44 338.827 1300.16 341.6C1298.88 344.267 1298.24 347.787 1298.24 352.16V385.44C1304.64 382.027 1309.49 377.547 1312.8 372C1316.1 366.453 1317.76 359.84 1317.76 352.16Z" fill="#EADFC9"/>
<path d="M7.63438 604.8V592H30.0344V604C47.6344 606.4 57.2344 616.8 57.2344 616.8L41.2344 642.4C41.2344 642.4 34.8344 636 26.8344 636C18.8344 636 14.0344 640.8 14.0344 648C14.0344 655.2 18.8344 660 26.8344 660C34.8344 660 41.2344 653.6 41.2344 653.6L57.2344 679.2C57.2344 679.2 47.6344 689.6 30.0344 692V704H7.63438V691.2C7.63438 691.2 -25.9656 682.4 -25.9656 648C-25.9656 613.6 7.63438 604.8 7.63438 604.8Z" fill="#EADFC9"/>
<path d="M441.216 698V689.2L477.216 583.76H491.616L527.776 689.36V698H441.216ZM456.576 685.36H511.936L491.936 625.84C488.416 615.28 485.856 606.48 484.256 599.44C481.536 609.84 479.136 618.32 476.896 625.2L456.576 685.36Z" fill="#EADFC9"/>
<path d="M947.043 722L925.443 661.2H911.363V650H934.243L952.323 702.64L1005.44 552.88H1016.8L957.443 722H947.043Z" fill="#EADFC9"/>
<path d="M1405.99 704H1373.99L1449.19 592H1481.19L1405.99 704ZM1393.19 608C1389.99 608 1386.79 611.2 1386.79 616C1386.79 620.8 1389.99 624 1393.19 624C1396.39 624 1399.59 620.8 1399.59 616C1399.59 611.2 1396.39 608 1393.19 608ZM1393.19 641.6C1378.79 641.6 1367.59 630.4 1367.59 616C1367.59 601.6 1378.79 590.4 1393.19 590.4C1407.59 590.4 1418.79 601.6 1418.79 616C1418.79 630.4 1407.59 641.6 1393.19 641.6ZM1460.39 672C1457.19 672 1453.99 675.2 1453.99 680C1453.99 684.8 1457.19 688 1460.39 688C1463.59 688 1466.79 684.8 1466.79 680C1466.79 675.2 1463.59 672 1460.39 672ZM1460.39 705.6C1445.99 705.6 1434.79 694.4 1434.79 680C1434.79 665.6 1445.99 654.4 1460.39 654.4C1474.79 654.4 1485.99 665.6 1485.99 680C1485.99 694.4 1474.79 705.6 1460.39 705.6ZM1514.79 672C1511.59 672 1508.39 675.2 1508.39 680C1508.39 684.8 1511.59 688 1514.79 688C1517.99 688 1521.19 684.8 1521.19 680C1521.19 675.2 1517.99 672 1514.79 672ZM1514.79 705.6C1500.39 705.6 1489.19 694.4 1489.19 680C1489.19 665.6 1500.39 654.4 1514.79 654.4C1529.19 654.4 1540.39 665.6 1540.39 680C1540.39 694.4 1529.19 705.6 1514.79 705.6Z" fill="#EADFC9"/>
<defs>
<clipPath id="clip0_453_338">
<rect width="1443" height="1010" fill="white" transform="translate(4)"/>
</clipPath>
</defs>
</svg>
