<svg width="2121" height="1571" viewBox="0 0 2121 1571" fill="none" xmlns="http://www.w3.org/2000/svg">
<path d="M1605.5 307L1649.32 628.337L1829.17 357.704L1728.27 666.1L2008.53 499.773L1782.9 734.147L2108.08 705.069L1802.4 819L2108.08 932.931L1782.9 903.853L2008.53 1138.23L1728.27 971.9L1829.17 1280.3L1649.32 1009.66L1605.5 1331L1561.68 1009.66L1381.83 1280.3L1482.73 971.9L1202.47 1138.23L1428.1 903.853L1102.92 932.931L1408.6 819L1102.92 705.069L1428.1 734.147L1202.47 499.773L1482.73 666.1L1381.83 357.704L1561.68 628.337L1605.5 307Z" fill="#EADFC9"/>
<path d="M396.5 373L430.201 626.241L568.535 412.959L490.927 656.002L706.496 524.922L532.951 709.628L783.059 686.713L547.95 776.5L783.059 866.287L532.951 843.372L706.496 1028.08L490.927 896.998L568.535 1140.04L430.201 926.759L396.5 1180L362.799 926.759L224.465 1140.04L302.073 896.998L86.5038 1028.08L260.049 843.372L9.94107 866.287L245.05 776.5L9.94107 686.713L260.049 709.628L86.5038 524.922L302.073 656.002L224.465 412.959L362.799 626.241L396.5 373Z" fill="#E24728"/>
<path d="M543.721 448.241L1721.1 865.487L1486.07 1528.67C1477.96 1551.58 1452.81 1563.56 1429.9 1555.45L335.473 1167.59C312.568 1159.48 300.58 1134.33 308.697 1111.42L543.721 448.241Z" fill="#4A3B37"/>
<path d="M522.354 525.706L1688.29 947.521" stroke="#EADFC9" stroke-width="10"/>
<path d="M460.396 713.458L1619.45 1137.15" stroke="#EADFC9" stroke-width="10"/>
<path d="M396.561 924.991L1530.58 1331.16" stroke="#EADFC9" stroke-width="10"/>
<path d="M963.646 1127.14L1046.26 919.984" stroke="#EADFC9" stroke-width="10"/>
<path d="M769.01 1065.8L694.535 1294.86" stroke="#EEE4D0" stroke-width="10"/>
<path d="M1129.49 1195.35L1050.64 1420.65" stroke="#EEE4D0" stroke-width="10"/>
<rect x="558.027" y="216.768" width="1248.12" height="131.426" transform="rotate(-10.0016 558.027 216.768)" fill="#4A3B37"/>
<rect x="578.799" y="341.342" width="1262.34" height="127.308" transform="rotate(18.9623 578.799 341.342)" fill="#3E3431"/>
</svg>
