<svg width="1440" height="706" viewBox="0 0 1440 706" fill="none" xmlns="http://www.w3.org/2000/svg">
<path d="M315.071 552H307.571V536.1H314.771V543L317.471 536.1H324.971V552H317.771V545.1L315.071 552ZM272.019 588.3H274.119V597.3H266.919V594H262.119V597.3H254.919V588.3H256.419C256.419 588.3 257.919 586.5 257.919 578.1H272.019V588.3ZM263.019 588.3H265.119V583.8H263.919C263.919 586.5 263.019 588.3 263.019 588.3ZM293.63 586.05C293.63 591.45 290.63 594.45 287.33 594.45C284.33 594.45 283.13 592.2 283.13 592.2V601.5H275.93V578.1H282.53C283.13 579.9 283.13 579.9 283.13 579.9C283.13 579.9 284.33 577.65 287.33 577.65C290.63 577.65 293.63 580.65 293.63 586.05ZM286.13 586.05C286.13 584.55 285.38 583.8 284.48 583.8C283.58 583.8 282.83 584.55 282.83 586.05C282.83 587.55 283.58 588.3 284.48 588.3C285.38 588.3 286.13 587.55 286.13 586.05ZM299.328 595.2L299.778 594L294.528 578.1H302.028L303.378 586.5L304.728 578.1H312.228L306.528 595.2C304.728 600.6 302.628 602.7 298.878 602.7C296.778 602.7 294.978 601.5 294.978 601.5L296.628 596.25C296.628 596.25 297.078 596.55 297.678 596.55C298.428 596.55 299.058 595.95 299.328 595.2ZM314.023 578.1H327.223V584.4H321.223V594H314.023V578.1ZM336.516 594H329.016V578.1H336.216V585L338.916 578.1H346.416V594H339.216V587.1L336.516 594ZM357.207 577.65C361.857 577.65 365.607 581.4 365.607 586.05C365.607 586.17 365.607 587.43 365.607 587.55H356.007C356.007 587.55 356.307 589.2 358.707 589.2C360.207 589.2 361.407 588 361.407 588L363.957 592.05C363.957 592.05 361.707 594.45 357.657 594.45C352.557 594.45 348.807 590.7 348.807 586.05C348.807 581.4 352.557 577.65 357.207 577.65ZM355.857 584.7H358.557C358.557 583.5 357.957 582.9 357.207 582.9C356.457 582.9 355.857 583.5 355.857 584.7ZM375.817 571.8L374.767 586.2H369.067L368.017 571.8H375.817ZM368.767 588H375.067V594H368.767V588Z" fill="#FFE1C3"/>
<path d="M245.106 522H385.45" stroke="#FFE1C3"/>
<rect y="470" width="1440" height="236" fill="#EADFC9"/>
<path d="M910.795 205.267C907.8 204.425 905.37 203.473 903.604 202.714C900.236 201.25 898.303 200.395 896.329 198.476C894.921 197.11 893.334 195.577 893.044 193.866C892.106 188.358 906.019 186.799 913.266 175.48C920.167 164.7 916.123 155.659 923.37 151.587C927.152 149.461 933.004 149.268 937.159 152.512C938.015 153.174 939.202 154.458 941.755 163.996C944.447 174.058 944.157 176.57 946.959 179.179C949.941 181.968 951.597 180.353 954.358 183.155C958.43 187.309 955.503 191.588 959.479 197.372C962.598 201.899 966.67 202.603 966.297 204.48C965.787 207.048 957.836 207.489 955.779 207.614C943.149 208.318 938.581 203.763 930.754 205.902C928.09 206.634 924.391 208.318 920.512 212.721" fill="#F7EECE"/>
<path d="M910.795 205.267C907.8 204.425 905.37 203.473 903.604 202.714C900.236 201.25 898.303 200.395 896.329 198.476C894.921 197.11 893.334 195.577 893.044 193.866C892.106 188.358 906.019 186.799 913.266 175.48C920.167 164.7 916.123 155.659 923.37 151.587C927.152 149.461 933.004 149.268 937.159 152.512C938.015 153.174 939.202 154.458 941.755 163.996C944.447 174.058 944.157 176.57 946.959 179.179C949.941 181.968 951.597 180.353 954.358 183.155C958.43 187.309 955.503 191.588 959.479 197.372C962.598 201.899 966.67 202.603 966.297 204.48C965.787 207.048 957.836 207.489 955.779 207.614C943.149 208.318 938.581 203.763 930.754 205.902C928.09 206.634 924.391 208.318 920.512 212.721" stroke="#797667" stroke-miterlimit="10"/>
<path d="M1173.71 179.801C1174.86 181.581 1176.53 183.928 1178.82 186.454C1180.3 188.069 1198.21 207.393 1212.17 201.596C1217.65 199.318 1222.54 193.176 1222.16 187.365C1221.57 178.103 1207.73 171.795 1208.24 171.008C1208.79 170.153 1223.02 181.858 1229.13 177.979C1233.39 175.287 1233.99 164.907 1229.44 159.814C1224.23 153.989 1214.32 157.288 1211.88 151.946C1210.17 148.206 1213.96 144.313 1212.18 142.56C1209.82 140.227 1203.42 147.364 1196.13 145.887C1187.74 144.189 1186.69 132.815 1180.68 132.87C1175.05 132.926 1174.67 142.947 1166.76 145.583C1157.29 148.744 1147.89 137.715 1144.05 141.042C1141.13 143.568 1146.8 149.793 1144.36 158.006C1141.35 168.123 1129.64 169.034 1129.82 175.26C1129.94 179.884 1136.42 180.022 1147.99 190.402C1155.74 197.358 1156.71 200.768 1161.61 201.913C1167.94 203.377 1174.32 199.539 1178.86 195.854" fill="#F7EECE"/>
<path d="M1173.71 179.801C1174.86 181.581 1176.53 183.928 1178.82 186.454C1180.3 188.069 1198.21 207.393 1212.17 201.596C1217.65 199.318 1222.54 193.176 1222.16 187.365C1221.57 178.103 1207.73 171.795 1208.24 171.008C1208.79 170.153 1223.02 181.858 1229.13 177.979C1233.39 175.287 1233.99 164.907 1229.44 159.814C1224.23 153.989 1214.32 157.288 1211.88 151.946C1210.17 148.206 1213.96 144.313 1212.18 142.56C1209.82 140.227 1203.42 147.364 1196.13 145.887C1187.74 144.189 1186.69 132.815 1180.68 132.87C1175.05 132.926 1174.67 142.947 1166.76 145.583C1157.29 148.744 1147.89 137.715 1144.05 141.042C1141.13 143.568 1146.8 149.793 1144.36 158.006C1141.35 168.123 1129.64 169.034 1129.82 175.26C1129.94 179.884 1136.42 180.022 1147.99 190.402C1155.74 197.358 1156.71 200.768 1161.61 201.913C1167.94 203.377 1174.32 199.539 1178.86 195.854" stroke="#797667" stroke-miterlimit="10"/>
<path d="M1035.78 200.892C1029.97 199.236 1025.02 197.635 1022.68 200.119C1020.3 202.659 1024.27 206.855 1022.68 215.275C1021.73 220.341 1019.95 220.672 1019.61 225.544C1019.18 231.563 1021.73 233.412 1020.38 236.076C1018.32 240.148 1009.42 241.722 1003.17 238.644C995.271 234.765 993.228 224.261 992.124 218.615C989.819 206.786 993.021 199.788 990.067 198.325C986.244 196.434 980.529 208.07 967.209 209.878C965.056 210.168 958.969 210.996 956.167 207.573C953.71 204.578 955.021 199.857 956.167 195.757C957.381 191.382 959.162 184.977 964.131 181.637C973.986 174.998 989.432 185.088 991.613 181.375C993.186 178.711 984.642 174.294 984.684 167.254C984.725 157.095 1002.57 144.534 1015.75 147.736C1025.14 150.014 1027.87 159.248 1037.33 158.779C1043.04 158.489 1044.08 155.024 1048.88 155.439C1056.93 156.129 1055.87 172.913 1065.06 176.751" fill="#F7EECE"/>
<path d="M1035.78 200.892C1029.97 199.236 1025.02 197.635 1022.68 200.119C1020.3 202.659 1024.27 206.855 1022.68 215.275C1021.73 220.341 1019.95 220.672 1019.61 225.544C1019.18 231.563 1021.73 233.412 1020.38 236.076C1018.32 240.148 1009.42 241.722 1003.17 238.644C995.271 234.765 993.228 224.261 992.124 218.615C989.819 206.786 993.021 199.788 990.067 198.325C986.244 196.434 980.529 208.07 967.209 209.878C965.056 210.168 958.969 210.996 956.167 207.573C953.71 204.578 955.021 199.857 956.167 195.757C957.381 191.382 959.162 184.977 964.131 181.637C973.986 174.998 989.432 185.088 991.613 181.375C993.186 178.711 984.642 174.294 984.684 167.254C984.725 157.095 1002.57 144.534 1015.75 147.736C1025.14 150.014 1027.87 159.248 1037.33 158.779C1043.04 158.489 1044.08 155.024 1048.88 155.439C1056.93 156.129 1055.87 172.913 1065.06 176.751" stroke="#797667" stroke-miterlimit="10"/>
<path d="M1137.11 150.455C1131.82 150.69 1124.33 151.821 1121.14 156.984C1116.45 164.589 1125.56 173.699 1121.5 179.855C1116.59 187.323 1095.73 185.322 1081.93 175.494C1078.75 173.23 1064.44 162.367 1066.67 150.082C1067.82 143.802 1072.76 140.006 1079.01 135.202C1081.48 133.298 1091.33 126.065 1106.61 123.58C1120.33 121.358 1131.62 124.077 1137.83 126.12" fill="#F7EECE"/>
<path d="M1137.11 150.455C1131.82 150.69 1124.33 151.821 1121.14 156.984C1116.45 164.589 1125.56 173.699 1121.5 179.855C1116.59 187.323 1095.73 185.322 1081.93 175.494C1078.75 173.23 1064.44 162.367 1066.67 150.082C1067.82 143.802 1072.76 140.006 1079.01 135.202C1081.48 133.298 1091.33 126.065 1106.61 123.58C1120.33 121.358 1131.62 124.077 1137.83 126.12" stroke="#797667" stroke-miterlimit="10"/>
<path d="M1258.77 80.1148C1262.6 81.1915 1265.69 82.3924 1267.95 83.3862C1272.26 85.2496 1274.72 86.3538 1277.24 88.7832C1279.04 90.5224 1281.06 92.4962 1281.44 94.6771C1282.64 101.717 1264.87 103.691 1255.63 118.142C1246.82 131.904 1251.98 143.457 1242.72 148.647C1237.89 151.353 1230.41 151.615 1225.12 147.474C1224.03 146.618 1222.53 144.989 1219.25 132.815C1215.82 119.964 1216.18 116.762 1212.62 113.436C1208.81 109.874 1206.69 111.931 1203.17 108.356C1197.97 103.042 1201.71 97.5896 1196.65 90.2049C1192.67 84.4214 1187.45 83.5242 1187.94 81.1225C1188.58 77.8374 1198.74 77.2714 1201.37 77.1334C1217.49 76.2362 1223.33 82.0611 1233.32 79.3142C1236.72 78.3756 1241.45 76.2224 1246.39 70.6045" fill="#F7EECE"/>
<path d="M1258.77 80.1148C1262.6 81.1915 1265.69 82.3924 1267.95 83.3862C1272.26 85.2496 1274.72 86.3538 1277.24 88.7832C1279.04 90.5224 1281.06 92.4962 1281.44 94.6771C1282.64 101.717 1264.87 103.691 1255.63 118.142C1246.82 131.904 1251.98 143.457 1242.72 148.647C1237.89 151.353 1230.41 151.615 1225.12 147.474C1224.03 146.618 1222.53 144.989 1219.25 132.815C1215.82 119.964 1216.18 116.762 1212.62 113.436C1208.81 109.874 1206.69 111.931 1203.17 108.356C1197.97 103.042 1201.71 97.5896 1196.65 90.2049C1192.67 84.4214 1187.45 83.5242 1187.94 81.1225C1188.58 77.8374 1198.74 77.2714 1201.37 77.1334C1217.49 76.2362 1223.33 82.0611 1233.32 79.3142C1236.72 78.3756 1241.45 76.2224 1246.39 70.6045" stroke="#797667" stroke-miterlimit="10"/>
<path d="M1084.05 50.838C1081.77 51.8318 1079.94 52.936 1078.58 53.8332C1076.03 55.5448 1074.55 56.5524 1073.06 58.7885C1072 60.3897 1070.78 62.1979 1070.56 64.1994C1069.86 70.6592 1080.42 72.4812 1085.91 85.746C1091.14 98.3758 1088.08 108.977 1093.59 113.752C1096.46 116.237 1100.9 116.472 1104.05 112.676C1104.7 111.889 1105.6 110.398 1107.54 99.2178C1109.58 87.43 1109.36 84.4899 1111.49 81.4256C1113.75 78.1543 1115.01 80.0453 1117.11 76.7602C1120.2 71.8877 1117.98 66.8772 1121 60.0998C1123.36 54.7856 1126.47 53.9713 1126.18 51.7628C1125.79 48.7537 1119.74 48.2292 1118.18 48.0911C1108.59 47.2629 1105.13 52.6186 1099.19 50.0926C1097.18 49.2368 1094.36 47.2491 1091.42 42.1006" fill="#F7EECE"/>
<path d="M1084.05 50.838C1081.77 51.8318 1079.94 52.936 1078.58 53.8332C1076.03 55.5448 1074.55 56.5524 1073.06 58.7885C1072 60.3897 1070.78 62.1979 1070.56 64.1994C1069.86 70.6592 1080.42 72.4812 1085.91 85.746C1091.14 98.3758 1088.08 108.977 1093.59 113.752C1096.46 116.237 1100.9 116.472 1104.05 112.676C1104.7 111.889 1105.6 110.398 1107.54 99.2178C1109.58 87.43 1109.36 84.4899 1111.49 81.4256C1113.75 78.1543 1115.01 80.0453 1117.11 76.7602C1120.2 71.8877 1117.98 66.8772 1121 60.0998C1123.36 54.7856 1126.47 53.9713 1126.18 51.7628C1125.79 48.7537 1119.74 48.2292 1118.18 48.0911C1108.59 47.2629 1105.13 52.6186 1099.19 50.0926C1097.18 49.2368 1094.36 47.2491 1091.42 42.1006" stroke="#797667" stroke-miterlimit="10"/>
<path d="M1283.62 80.695C1284.49 78.6107 1285.76 75.8501 1287.5 72.8963C1288.61 70.9914 1302.22 48.3682 1312.81 55.1455C1316.96 57.8095 1320.68 65.0147 1320.4 71.8196C1319.95 82.6827 1309.44 90.0673 1309.83 90.9783C1310.26 91.986 1321.05 78.2657 1325.69 82.8207C1328.9 85.9816 1329.37 98.1283 1325.92 104.119C1321.98 110.951 1314.45 107.073 1312.59 113.339C1311.29 117.715 1314.18 122.284 1312.82 124.34C1311.03 127.073 1306.17 118.709 1300.64 120.434C1294.27 122.422 1293.47 135.756 1288.92 135.7C1284.65 135.645 1284.35 123.899 1278.34 120.793C1271.15 117.08 1264.03 130.013 1261.1 126.121C1258.88 123.153 1263.19 115.865 1261.34 106.245C1259.06 94.4015 1250.17 93.311 1250.31 86.0092C1250.41 80.5846 1255.32 80.4328 1264.1 68.2584C1269.98 60.1008 1270.72 56.0979 1274.44 54.7728C1279.24 53.0474 1284.09 57.561 1287.54 61.8676" fill="#F7EECE"/>
<path d="M1283.62 80.695C1284.49 78.6107 1285.76 75.8501 1287.5 72.8963C1288.61 70.9914 1302.22 48.3682 1312.81 55.1455C1316.96 57.8095 1320.68 65.0147 1320.4 71.8196C1319.95 82.6827 1309.44 90.0673 1309.83 90.9783C1310.26 91.986 1321.05 78.2657 1325.69 82.8207C1328.9 85.9816 1329.37 98.1283 1325.92 104.119C1321.98 110.951 1314.45 107.073 1312.59 113.339C1311.29 117.715 1314.18 122.284 1312.82 124.34C1311.03 127.073 1306.17 118.709 1300.64 120.434C1294.27 122.422 1293.47 135.756 1288.92 135.7C1284.65 135.645 1284.35 123.899 1278.34 120.793C1271.15 117.08 1264.03 130.013 1261.1 126.121C1258.88 123.153 1263.19 115.865 1261.34 106.245C1259.06 94.4015 1250.17 93.311 1250.31 86.0092C1250.41 80.5846 1255.32 80.4328 1264.1 68.2584C1269.98 60.1008 1270.72 56.0979 1274.44 54.7728C1279.24 53.0474 1284.09 57.561 1287.54 61.8676" stroke="#797667" stroke-miterlimit="10"/>
<path d="M1188.86 109.253C1194.97 108.438 1201.38 95.9466 1201.14 84.2692C1200.81 68.5061 1188.35 55.3655 1178.92 55.9729C1174.34 56.2765 1170.75 59.7963 1168.98 56.87C1167.18 53.8886 1170.18 48.9885 1168.98 39.1054C1168.27 33.1701 1166.91 32.7836 1166.65 27.0691C1166.32 20.0157 1168.27 17.8487 1167.23 14.7292C1165.67 9.9533 1158.91 8.11748 1154.17 11.7201C1148.18 16.2751 1146.62 28.5875 1145.79 35.1992C1144.04 49.0575 1146.47 57.2703 1144.23 58.9819C1141.34 61.2042 1136.99 47.553 1126.88 45.4411C1125.24 45.096 1120.63 44.1298 1118.51 48.1465C1116.64 51.6663 1117.64 57.1875 1118.51 61.991C1119.43 67.1257 1120.78 74.6208 1124.55 78.5409C1132.03 86.3258 1143.77 74.5104 1145.41 78.8446C1146.59 81.9779 1140.12 87.1541 1140.15 95.3945C1140.18 107.293 1153.73 122.034 1163.74 118.266C1170.86 115.588 1172.94 104.767 1180.11 105.319C1184.44 105.65 1185.23 109.722 1188.89 109.225L1188.86 109.253Z" fill="#F7EECE" stroke="#797667" stroke-miterlimit="10"/>
<path d="M1255.84 115.091C1251.82 114.815 1246.14 113.49 1243.72 107.43C1240.16 98.5136 1247.08 87.8438 1244 80.6248C1240.27 71.8736 1224.44 74.2202 1213.96 85.732C1211.55 88.3822 1200.68 101.109 1202.38 115.519C1203.25 122.876 1207.01 127.335 1211.75 132.966C1213.63 135.188 1221.1 143.677 1232.69 146.576C1243.11 149.185 1251.69 145.982 1256.39 143.595" fill="#F7EECE"/>
<path d="M1255.84 115.091C1251.82 114.815 1246.14 113.49 1243.72 107.43C1240.16 98.5136 1247.08 87.8438 1244 80.6248C1240.27 71.8736 1224.44 74.2202 1213.96 85.732C1211.55 88.3822 1200.68 101.109 1202.38 115.519C1203.25 122.876 1207.01 127.335 1211.75 132.966C1213.63 135.188 1221.1 143.677 1232.69 146.576C1243.11 149.185 1251.69 145.982 1256.39 143.595" stroke="#797667" stroke-miterlimit="10"/>
<path d="M1334.09 204.47C1336.98 203.2 1351.52 194.846 1353.23 193.7C1356.5 191.519 1358.37 190.235 1360.28 187.364C1361.65 185.321 1363.18 183.016 1363.47 180.463C1364.38 172.222 1350.9 169.889 1343.89 152.967C1337.21 136.845 1341.11 123.304 1334.09 117.217C1330.41 114.042 1324.74 113.738 1320.72 118.597C1319.9 119.591 1318.75 121.496 1316.27 135.782C1313.66 150.841 1313.93 154.596 1311.23 158.502C1308.34 162.67 1306.73 160.255 1304.06 164.465C1300.12 170.69 1302.96 177.081 1299.11 185.735C1296.09 192.513 1292.14 193.562 1292.5 196.378C1292.99 200.215 1300.7 200.891 1302.7 201.057C1314.94 202.12 1319.36 195.287 1326.95 198.503C1329.53 199.594 1330.33 197.872 1334.09 204.47Z" fill="#F7EECE" stroke="#797667" stroke-miterlimit="10"/>
<path d="M960.456 124.463C959.559 125.981 958.248 127.997 956.453 130.15C955.308 131.53 941.256 148.053 930.338 143.097C926.045 141.151 922.222 135.892 922.511 130.923C922.981 123 933.816 117.603 933.416 116.94C932.974 116.209 921.835 126.216 917.045 122.903C913.719 120.598 913.236 111.723 916.811 107.361C920.883 102.378 928.654 105.208 930.572 100.625C931.911 97.4228 928.944 94.0962 930.338 92.5917C932.187 90.6041 937.212 96.6912 942.912 95.4351C949.483 93.9858 950.311 84.2546 955.004 84.296C959.407 84.3374 959.711 92.9092 965.908 95.1729C973.321 97.8783 980.692 88.4508 983.701 91.2942C985.992 93.4613 981.547 98.7755 983.466 105.801C985.826 114.456 994.992 115.243 994.853 120.571C994.757 124.532 989.677 124.643 980.622 133.518C974.549 139.467 973.79 142.393 969.953 143.36C964.984 144.616 960.001 141.33 956.426 138.183" fill="#F7EECE"/>
<path d="M960.456 124.463C959.559 125.981 958.248 127.997 956.453 130.15C955.308 131.53 941.256 148.053 930.338 143.097C926.045 141.151 922.222 135.892 922.511 130.923C922.981 123 933.816 117.603 933.416 116.94C932.974 116.209 921.835 126.216 917.045 122.903C913.719 120.598 913.236 111.723 916.811 107.361C920.883 102.378 928.654 105.208 930.572 100.625C931.911 97.4228 928.944 94.0962 930.338 92.5917C932.187 90.6041 937.212 96.6912 942.912 95.4351C949.483 93.9858 950.311 84.2546 955.004 84.296C959.407 84.3374 959.711 92.9092 965.908 95.1729C973.321 97.8783 980.692 88.4508 983.701 91.2942C985.992 93.4613 981.547 98.7755 983.466 105.801C985.826 114.456 994.992 115.243 994.853 120.571C994.757 124.532 989.677 124.643 980.622 133.518C974.549 139.467 973.79 142.393 969.953 143.36C964.984 144.616 960.001 141.33 956.426 138.183" stroke="#797667" stroke-miterlimit="10"/>
<path d="M1117.66 107.914C1116.98 106.133 1115.98 103.773 1114.62 101.247C1113.75 99.6181 1103.08 80.2662 1094.8 86.0635C1091.55 88.341 1088.63 94.4972 1088.87 100.336C1089.23 109.625 1097.45 115.947 1097.15 116.72C1096.82 117.576 1088.36 105.843 1084.73 109.736C1082.2 112.441 1081.84 122.835 1084.55 127.942C1087.64 133.781 1093.53 130.468 1095 135.837C1096.02 139.578 1093.75 143.484 1094.82 145.251C1096.22 147.584 1100.03 140.434 1104.35 141.911C1109.34 143.609 1109.97 155.024 1113.53 154.969C1116.87 154.913 1117.11 144.865 1121.82 142.214C1127.45 139.04 1133.04 150.096 1135.31 146.77C1137.05 144.23 1133.69 137.991 1135.14 129.778C1136.93 119.646 1143.89 118.722 1143.78 112.483C1143.69 107.845 1139.86 107.707 1132.97 97.313C1128.36 90.3424 1127.78 86.9193 1124.87 85.7736C1121.1 84.3105 1117.3 88.1616 1114.6 91.847" fill="#F7EECE"/>
<path d="M1117.66 107.914C1116.98 106.133 1115.98 103.773 1114.62 101.247C1113.75 99.6181 1103.08 80.2662 1094.8 86.0635C1091.55 88.341 1088.63 94.4972 1088.87 100.336C1089.23 109.625 1097.45 115.947 1097.15 116.72C1096.82 117.576 1088.36 105.843 1084.73 109.736C1082.2 112.441 1081.84 122.835 1084.55 127.942C1087.64 133.781 1093.53 130.468 1095 135.837C1096.02 139.578 1093.75 143.484 1094.82 145.251C1096.22 147.584 1100.03 140.434 1104.35 141.911C1109.34 143.609 1109.97 155.024 1113.53 154.969C1116.87 154.913 1117.11 144.865 1121.82 142.214C1127.45 139.04 1133.04 150.096 1135.31 146.77C1137.05 144.23 1133.69 137.991 1135.14 129.778C1136.93 119.646 1143.89 118.722 1143.78 112.483C1143.69 107.845 1139.86 107.707 1132.97 97.313C1128.36 90.3424 1127.78 86.9193 1124.87 85.7736C1121.1 84.3105 1117.3 88.1616 1114.6 91.847" stroke="#797667" stroke-miterlimit="10"/>
<path d="M1058.26 103.636C1051.95 104.23 1045.34 113.354 1045.59 121.87C1045.93 133.368 1058.78 142.961 1068.53 142.52C1073.25 142.299 1076.96 139.732 1078.78 141.857C1080.65 144.038 1077.54 147.613 1078.78 154.818C1079.53 159.152 1080.92 159.429 1081.2 163.611C1081.53 168.759 1079.54 170.333 1080.59 172.611C1082.2 176.089 1089.18 177.442 1094.08 174.805C1100.26 171.479 1101.86 162.493 1102.73 157.676C1104.54 147.558 1102.03 141.567 1104.35 140.325C1107.34 138.71 1111.81 148.662 1122.25 150.208C1123.93 150.457 1128.71 151.16 1130.9 148.234C1132.82 145.667 1131.8 141.636 1130.9 138.13C1129.95 134.376 1128.56 128.91 1124.66 126.053C1116.95 120.366 1104.84 128.993 1103.14 125.832C1101.92 123.554 1108.6 119.772 1108.58 113.754C1108.56 105.072 1094.57 94.3193 1084.23 97.0661C1076.89 99.0124 1074.74 106.908 1067.34 106.507C1062.87 106.259 1062.05 103.305 1058.28 103.65L1058.26 103.636Z" fill="#F7EECE" stroke="#797667" stroke-miterlimit="10"/>
<path d="M989.128 99.3704C993.269 99.5637 999.149 100.53 1001.65 104.961C1005.32 111.476 998.197 119.261 1001.36 124.52C1005.21 130.91 1021.54 129.199 1032.36 120.793C1034.84 118.86 1046.05 109.571 1044.3 99.053C1043.4 93.6836 1039.54 90.4398 1034.64 86.3265C1032.7 84.6977 1024.99 78.5139 1013.02 76.3883C1002.27 74.4834 993.435 76.8162 988.562 78.5554" fill="#F7EECE"/>
<path d="M989.128 99.3704C993.269 99.5637 999.149 100.53 1001.65 104.961C1005.32 111.476 998.197 119.261 1001.36 124.52C1005.21 130.91 1021.54 129.199 1032.36 120.793C1034.84 118.86 1046.05 109.571 1044.3 99.053C1043.4 93.6836 1039.54 90.4398 1034.64 86.3265C1032.7 84.6977 1024.99 78.5139 1013.02 76.3883C1002.27 74.4834 993.435 76.8162 988.562 78.5554" stroke="#797667" stroke-miterlimit="10"/>
<path d="M1191.88 132.332C1187.09 131.642 1182.07 120.944 1182.26 110.965C1182.52 97.4789 1192.28 86.2432 1199.67 86.7677C1203.26 87.0162 1206.07 90.0391 1207.45 87.5407C1208.87 84.9871 1206.51 80.791 1207.45 72.3573C1208.02 67.2778 1209.08 66.9465 1209.29 62.0602C1209.54 56.0282 1208.03 54.1786 1208.83 51.5008C1210.06 47.4151 1215.35 45.8415 1219.06 48.9334C1223.75 52.8259 1224.97 63.3577 1225.63 69.0169C1227 80.8738 1225.11 87.8858 1226.86 89.3489C1229.14 91.2399 1232.53 79.5763 1240.46 77.7681C1241.74 77.4782 1245.36 76.6501 1247.03 80.087C1248.49 83.0961 1247.7 87.8168 1247.03 91.9301C1246.29 96.3195 1245.24 102.738 1242.29 106.092C1236.42 112.745 1227.25 102.641 1225.95 106.354C1225.01 109.032 1230.09 113.463 1230.08 120.516C1230.05 130.689 1219.43 143.291 1211.59 140.075C1206.02 137.784 1204.39 128.536 1198.77 129.005C1195.37 129.295 1194.75 132.76 1191.9 132.346L1191.88 132.332Z" fill="#F7EECE" stroke="#797667" stroke-miterlimit="10"/>
<path d="M1139.43 137.328C1142.58 137.093 1147.04 135.962 1148.93 130.772C1151.72 123.138 1146.31 114.015 1148.71 107.845C1151.62 100.363 1164.03 102.365 1172.24 112.206C1174.13 114.47 1182.63 125.361 1181.31 137.673C1180.63 143.967 1177.69 147.777 1173.97 152.594C1172.5 154.499 1166.64 161.76 1157.55 164.244C1149.4 166.48 1142.69 163.747 1138.99 161.691" fill="#F7EECE"/>
<path d="M1139.43 137.328C1142.58 137.093 1147.04 135.962 1148.93 130.772C1151.72 123.138 1146.31 114.015 1148.71 107.845C1151.62 100.363 1164.03 102.365 1172.24 112.206C1174.13 114.47 1182.63 125.361 1181.31 137.673C1180.63 143.967 1177.69 147.777 1173.97 152.594C1172.5 154.499 1166.64 161.76 1157.55 164.244C1149.4 166.48 1142.69 163.747 1138.99 161.691" stroke="#797667" stroke-miterlimit="10"/>
<path d="M1156.75 67.0297C1157.9 65.0835 1159.57 62.5161 1161.86 59.7555C1163.34 57.9887 1181.25 36.8976 1195.21 43.2194C1200.69 45.7039 1205.58 52.4122 1205.2 58.7617C1204.61 68.8793 1190.77 75.7671 1191.28 76.6091C1191.83 77.5477 1206.06 64.766 1212.17 69.0036C1216.43 71.9436 1217.03 83.2622 1212.48 88.8386C1207.27 95.2019 1197.36 91.5854 1194.92 97.4379C1193.21 101.524 1197 105.775 1195.22 107.694C1192.86 110.233 1186.46 102.448 1179.17 104.063C1170.78 105.913 1169.73 118.336 1163.72 118.281C1158.09 118.225 1157.71 107.28 1149.8 104.395C1140.33 100.944 1130.93 112.98 1127.09 109.35C1124.17 106.589 1129.84 99.7983 1127.4 90.8401C1124.39 79.7976 1112.68 78.79 1112.86 71.9988C1112.98 66.9469 1119.46 66.795 1131.03 55.4627C1138.78 47.871 1139.75 44.1442 1144.65 42.9019C1150.98 41.3007 1157.36 45.4969 1161.9 49.5136" fill="#F7EECE"/>
<path d="M1156.75 67.0297C1157.9 65.0835 1159.57 62.5161 1161.86 59.7555C1163.34 57.9887 1181.25 36.8976 1195.21 43.2194C1200.69 45.7039 1205.58 52.4122 1205.2 58.7617C1204.61 68.8793 1190.77 75.7671 1191.28 76.6091C1191.83 77.5477 1206.06 64.766 1212.17 69.0036C1216.43 71.9436 1217.03 83.2622 1212.48 88.8386C1207.27 95.2019 1197.36 91.5854 1194.92 97.4379C1193.21 101.524 1197 105.775 1195.22 107.694C1192.86 110.233 1186.46 102.448 1179.17 104.063C1170.78 105.913 1169.73 118.336 1163.72 118.281C1158.09 118.225 1157.71 107.28 1149.8 104.395C1140.33 100.944 1130.93 112.98 1127.09 109.35C1124.17 106.589 1129.84 99.7983 1127.4 90.8401C1124.39 79.7976 1112.68 78.79 1112.86 71.9988C1112.98 66.9469 1119.46 66.795 1131.03 55.4627C1138.78 47.871 1139.75 44.1442 1144.65 42.9019C1150.98 41.3007 1157.36 45.4969 1161.9 49.5136" stroke="#797667" stroke-miterlimit="10"/>
<path d="M1031.92 93.6276C1039.96 92.8684 1048.41 81.2186 1048.09 70.3556C1047.67 55.6691 1031.24 43.4257 1018.82 43.9916C1012.79 44.2677 1008.05 47.5528 1005.72 44.8336C1003.33 42.0592 1007.31 37.4904 1005.72 28.2837C1004.77 22.7487 1002.99 22.3898 1002.64 17.0618C1002.21 10.4915 1004.77 8.47626 1003.41 5.56381C1001.36 1.11921 992.453 -0.592376 986.201 2.76178C978.305 6.99933 976.262 18.4697 975.158 24.6397C972.853 37.5594 976.055 45.2063 973.101 46.7937C969.278 48.8641 963.563 36.1515 950.243 34.1776C948.09 33.8602 942.003 32.9492 939.201 36.7036C936.744 39.9749 938.055 45.1235 939.201 49.6095C940.416 54.3992 942.196 61.3836 947.165 65.0276C957.021 72.2742 972.466 61.2731 974.647 65.3036C976.221 68.2161 967.677 73.0334 967.718 80.7217C967.76 91.8056 985.607 105.54 998.789 102.034C1008.18 99.5353 1010.91 89.459 1020.36 89.9698C1026.08 90.2734 1027.11 94.0693 1031.92 93.6138V93.6276Z" fill="#F7EECE" stroke="#797667" stroke-miterlimit="10"/>
<path d="M1120.14 99.0656C1114.86 98.8171 1107.36 97.5748 1104.17 91.9293C1099.48 83.6199 1108.59 73.6816 1104.53 66.9595C1099.62 58.8019 1078.76 60.9828 1064.96 71.7216C1061.78 74.1923 1047.47 86.0492 1049.71 99.4658C1050.85 106.326 1055.79 110.467 1062.05 115.712C1064.52 117.783 1074.36 125.692 1089.64 128.397C1103.36 130.827 1114.65 127.845 1120.86 125.623" fill="#F7EECE"/>
<path d="M1120.14 99.0656C1114.86 98.8171 1107.36 97.5748 1104.17 91.9293C1099.48 83.6199 1108.59 73.6816 1104.53 66.9595C1099.62 58.8019 1078.76 60.9828 1064.96 71.7216C1061.78 74.1923 1047.47 86.0492 1049.71 99.4658C1050.85 106.326 1055.79 110.467 1062.05 115.712C1064.52 117.783 1074.36 125.692 1089.64 128.397C1103.36 130.827 1114.65 127.845 1120.86 125.623" stroke="#797667" stroke-miterlimit="10"/>
<path d="M1088.28 171.528C1082.97 171.172 1075.43 169.388 1072.23 161.281C1067.51 149.349 1076.67 135.078 1072.59 125.425C1067.65 113.711 1046.68 116.843 1032.8 132.263C1029.61 135.811 1015.22 152.837 1017.46 172.103C1018.62 181.954 1023.58 187.9 1029.87 195.432C1032.36 198.405 1042.25 209.763 1057.61 213.648C1071.41 217.136 1082.76 212.855 1089 209.664" fill="#F7EECE"/>
<path d="M1088.28 171.528C1082.97 171.172 1075.43 169.388 1072.23 161.281C1067.51 149.349 1076.67 135.078 1072.59 125.425C1067.65 113.711 1046.68 116.843 1032.8 132.263C1029.61 135.811 1015.22 152.837 1017.46 172.103C1018.62 181.954 1023.58 187.9 1029.87 195.432C1032.36 198.405 1042.25 209.763 1057.61 213.648C1071.41 217.136 1082.76 212.855 1089 209.664" stroke="#797667" stroke-miterlimit="10"/>
<path d="M1241.81 175.866C1245.63 174.693 1248.72 173.368 1250.99 172.305C1255.29 170.262 1257.75 169.075 1260.28 166.411C1262.07 164.52 1264.1 162.367 1264.47 159.979C1265.67 152.291 1247.91 150.137 1238.66 134.361C1229.85 119.343 1235.02 106.727 1225.75 101.054C1220.92 98.086 1213.44 97.81 1208.16 102.337C1207.06 103.262 1205.56 105.043 1202.29 118.349C1198.85 132.373 1199.21 135.879 1195.65 139.509C1191.84 143.402 1189.73 141.152 1186.21 145.058C1181 150.855 1184.75 156.804 1179.68 164.879C1175.7 171.201 1170.49 172.167 1170.97 174.79C1171.62 178.365 1181.78 178.986 1184.4 179.152C1200.52 180.132 1206.36 173.768 1216.35 176.777C1219.75 177.799 1224.48 180.159 1229.43 186.288" fill="#F7EECE"/>
<path d="M1241.81 175.866C1245.63 174.693 1248.72 173.368 1250.99 172.305C1255.29 170.262 1257.75 169.075 1260.28 166.411C1262.07 164.52 1264.1 162.367 1264.47 159.979C1265.67 152.291 1247.91 150.137 1238.66 134.361C1229.85 119.343 1235.02 106.727 1225.75 101.054C1220.92 98.086 1213.44 97.81 1208.16 102.337C1207.06 103.262 1205.56 105.043 1202.29 118.349C1198.85 132.373 1199.21 135.879 1195.65 139.509C1191.84 143.402 1189.73 141.152 1186.21 145.058C1181 150.855 1184.75 156.804 1179.68 164.879C1175.7 171.201 1170.49 172.167 1170.97 174.79C1171.62 178.365 1181.78 178.986 1184.4 179.152C1200.52 180.132 1206.36 173.768 1216.35 176.777C1219.75 177.799 1224.48 180.159 1229.43 186.288" stroke="#797667" stroke-miterlimit="10"/>
<path d="M1067.09 207.821C1064.81 206.744 1062.97 205.529 1061.62 204.549C1059.07 202.686 1057.59 201.582 1056.1 199.138C1055.04 197.399 1053.82 195.425 1053.6 193.231C1052.9 186.177 1063.46 184.19 1068.95 169.71C1074.18 155.921 1071.12 144.34 1076.62 139.136C1079.49 136.417 1083.94 136.155 1087.09 140.31C1087.73 141.165 1088.63 142.794 1090.58 155.01C1092.62 167.888 1092.4 171.09 1094.53 174.445C1096.79 178.02 1098.05 175.949 1100.14 179.538C1103.24 184.852 1101.01 190.332 1104.04 197.73C1106.4 203.528 1109.5 204.425 1109.21 206.827C1108.83 210.112 1102.78 210.678 1101.22 210.83C1091.63 211.727 1088.16 205.888 1082.23 208.649C1080.21 209.587 1077.4 211.741 1074.46 217.386" fill="#F7EECE"/>
<path d="M1067.09 207.821C1064.81 206.744 1062.97 205.529 1061.62 204.549C1059.07 202.686 1057.59 201.582 1056.1 199.138C1055.04 197.399 1053.82 195.425 1053.6 193.231C1052.9 186.177 1063.46 184.19 1068.95 169.71C1074.18 155.921 1071.12 144.34 1076.62 139.136C1079.49 136.417 1083.94 136.155 1087.09 140.31C1087.73 141.165 1088.63 142.794 1090.58 155.01C1092.62 167.888 1092.4 171.09 1094.53 174.445C1096.79 178.02 1098.05 175.949 1100.14 179.538C1103.24 184.852 1101.01 190.332 1104.04 197.73C1106.4 203.528 1109.5 204.425 1109.21 206.827C1108.83 210.112 1102.78 210.678 1101.22 210.83C1091.63 211.727 1088.16 205.888 1082.23 208.649C1080.21 209.587 1077.4 211.741 1074.46 217.386" stroke="#797667" stroke-miterlimit="10"/>
<path d="M986.577 162.786C984.299 161.71 982.463 160.495 981.111 159.515C978.557 157.652 977.08 156.547 975.589 154.104C974.527 152.365 973.312 150.391 973.091 148.196C972.387 141.143 982.947 139.155 988.44 124.676C993.672 110.887 990.607 99.3059 996.115 94.1021C998.986 91.3829 1003.43 91.1206 1006.58 95.2753C1007.23 96.1311 1008.12 97.7599 1010.07 109.976C1012.11 122.854 1011.89 126.056 1014.02 129.41C1016.28 132.985 1017.54 130.915 1019.64 134.504C1022.73 139.818 1020.5 145.298 1023.53 152.696C1025.89 158.494 1028.99 159.391 1028.7 161.793C1028.32 165.078 1022.27 165.644 1020.71 165.795C1011.12 166.693 1007.65 160.854 1001.72 163.615C999.703 164.553 996.888 166.706 993.948 172.352" fill="#F7EECE"/>
<path d="M986.577 162.786C984.299 161.71 982.463 160.495 981.111 159.515C978.557 157.652 977.08 156.547 975.589 154.104C974.527 152.365 973.312 150.391 973.091 148.196C972.387 141.143 982.947 139.155 988.44 124.676C993.672 110.887 990.607 99.3059 996.115 94.1021C998.986 91.3829 1003.43 91.1206 1006.58 95.2753C1007.23 96.1311 1008.12 97.7599 1010.07 109.976C1012.11 122.854 1011.89 126.056 1014.02 129.41C1016.28 132.985 1017.54 130.915 1019.64 134.504C1022.73 139.818 1020.5 145.298 1023.53 152.696C1025.89 158.494 1028.99 159.391 1028.7 161.793C1028.32 165.078 1022.27 165.644 1020.71 165.795C1011.12 166.693 1007.65 160.854 1001.72 163.615C999.703 164.553 996.888 166.706 993.948 172.352" stroke="#797667" stroke-miterlimit="10"/>
<path d="M1266.65 175.231C1267.52 177.509 1268.79 180.518 1270.53 183.748C1271.65 185.818 1285.26 210.54 1295.84 203.127C1300 200.215 1303.71 192.347 1303.44 184.921C1302.98 173.064 1292.48 164.989 1292.86 163.995C1293.29 162.905 1304.08 177.881 1308.72 172.912C1311.94 169.462 1312.41 156.197 1308.96 149.668C1305.01 142.214 1297.49 146.438 1295.62 139.592C1294.33 134.802 1297.21 129.819 1295.86 127.583C1294.06 124.601 1289.21 133.725 1283.67 131.848C1277.31 129.681 1276.51 115.119 1271.95 115.188C1267.69 115.257 1267.38 128.08 1261.38 131.462C1254.19 135.506 1247.06 121.399 1244.14 125.65C1241.92 128.894 1246.22 136.845 1244.37 147.349C1242.1 160.282 1233.21 161.47 1233.34 169.434C1233.44 175.355 1238.35 175.521 1247.13 188.813C1253.01 197.716 1253.76 202.078 1257.47 203.541C1262.28 205.419 1267.12 200.491 1270.57 195.798" fill="#F7EECE"/>
<path d="M1266.65 175.231C1267.52 177.509 1268.79 180.518 1270.53 183.748C1271.65 185.818 1285.26 210.54 1295.84 203.127C1300 200.215 1303.71 192.347 1303.44 184.921C1302.98 173.064 1292.48 164.989 1292.86 163.995C1293.29 162.905 1304.08 177.881 1308.72 172.912C1311.94 169.462 1312.41 156.197 1308.96 149.668C1305.01 142.214 1297.49 146.438 1295.62 139.592C1294.33 134.802 1297.21 129.819 1295.86 127.583C1294.06 124.601 1289.21 133.725 1283.67 131.848C1277.31 129.681 1276.51 115.119 1271.95 115.188C1267.69 115.257 1267.38 128.08 1261.38 131.462C1254.19 135.506 1247.06 121.399 1244.14 125.65C1241.92 128.894 1246.22 136.845 1244.37 147.349C1242.1 160.282 1233.21 161.47 1233.34 169.434C1233.44 175.355 1238.35 175.521 1247.13 188.813C1253.01 197.716 1253.76 202.078 1257.47 203.541C1262.28 205.419 1267.12 200.491 1270.57 195.798" stroke="#797667" stroke-miterlimit="10"/>
<path d="M1287.95 146.623C1288.82 148.9 1290.09 151.909 1291.82 155.139C1292.94 157.21 1306.55 181.931 1317.14 174.519C1321.29 171.606 1325.01 163.739 1324.73 156.313C1324.28 144.456 1313.77 136.381 1314.16 135.387C1314.59 134.297 1325.38 149.273 1330.02 144.304C1333.23 140.853 1333.7 127.588 1330.25 121.059C1326.3 113.606 1318.78 117.83 1316.92 110.983C1315.62 106.194 1318.51 101.211 1317.15 98.9745C1315.36 95.993 1310.5 105.117 1304.97 103.24C1298.6 101.073 1297.8 86.5103 1293.25 86.5793C1288.98 86.6484 1288.68 99.4715 1282.67 102.853C1275.48 106.898 1268.36 92.7907 1265.43 97.0421C1263.21 100.286 1267.52 108.236 1265.67 118.741C1263.39 131.674 1254.5 132.861 1254.64 140.826C1254.74 146.747 1259.65 146.913 1268.43 160.205C1274.31 169.108 1275.05 173.47 1278.77 174.933C1283.57 176.81 1288.42 171.883 1291.87 167.189" fill="#F7EECE"/>
<path d="M1287.95 146.623C1288.82 148.9 1290.09 151.909 1291.82 155.139C1292.94 157.21 1306.55 181.931 1317.14 174.519C1321.29 171.606 1325.01 163.739 1324.73 156.313C1324.28 144.456 1313.77 136.381 1314.16 135.387C1314.59 134.297 1325.38 149.273 1330.02 144.304C1333.23 140.853 1333.7 127.588 1330.25 121.059C1326.3 113.606 1318.78 117.83 1316.92 110.983C1315.62 106.194 1318.51 101.211 1317.15 98.9745C1315.36 95.993 1310.5 105.117 1304.97 103.24C1298.6 101.073 1297.8 86.5103 1293.25 86.5793C1288.98 86.6484 1288.68 99.4715 1282.67 102.853C1275.48 106.898 1268.36 92.7907 1265.43 97.0421C1263.21 100.286 1267.52 108.236 1265.67 118.741C1263.39 131.674 1254.5 132.861 1254.64 140.826C1254.74 146.747 1259.65 146.913 1268.43 160.205C1274.31 169.108 1275.05 173.47 1278.77 174.933C1283.57 176.81 1288.42 171.883 1291.87 167.189" stroke="#797667" stroke-miterlimit="10"/>
<path d="M1171.9 141.746C1178.01 142.436 1184.42 153.092 1184.18 163.03C1183.85 176.46 1171.39 187.655 1161.96 187.13C1157.38 186.882 1153.79 183.873 1152.02 186.357C1150.21 188.897 1153.22 193.079 1152.02 201.485C1151.3 206.551 1149.95 206.869 1149.69 211.741C1149.36 217.745 1151.3 219.595 1150.27 222.259C1148.71 226.331 1141.94 227.891 1137.21 224.826C1131.22 220.948 1129.66 210.457 1128.83 204.826C1127.08 193.01 1129.51 186.026 1127.27 184.577C1124.37 182.686 1120.02 194.308 1109.92 196.116C1108.28 196.406 1103.67 197.234 1101.54 193.811C1099.68 190.816 1100.67 186.109 1101.54 182.023C1102.47 177.647 1103.82 171.257 1107.59 167.916C1115.07 161.291 1126.8 171.353 1128.44 167.654C1129.63 164.99 1123.16 160.587 1123.19 153.547C1123.21 143.402 1136.77 130.855 1146.77 134.057C1153.9 136.335 1155.98 145.555 1163.15 145.086C1167.48 144.796 1168.27 141.345 1171.92 141.759L1171.9 141.746Z" fill="#F7EECE" stroke="#797667" stroke-miterlimit="10"/>
<path d="M1238.88 137.672C1234.86 137.962 1229.18 139.411 1226.76 146.037C1223.2 155.782 1230.12 167.418 1227.04 175.299C1223.31 184.851 1207.48 182.298 1197 169.723C1194.59 166.824 1183.72 152.925 1185.42 137.203C1186.29 129.169 1190.05 124.311 1194.79 118.155C1196.67 115.725 1204.14 106.463 1215.73 103.289C1226.15 100.445 1234.73 103.937 1239.43 106.546" fill="#F7EECE"/>
<path d="M1238.88 137.672C1234.86 137.962 1229.18 139.411 1226.76 146.037C1223.2 155.782 1230.12 167.418 1227.04 175.299C1223.31 184.851 1207.48 182.298 1197 169.723C1194.59 166.824 1183.72 152.925 1185.42 137.203C1186.29 129.169 1190.05 124.311 1194.79 118.155C1196.67 115.725 1204.14 106.463 1215.73 103.289C1226.15 100.445 1234.73 103.937 1239.43 106.546" stroke="#797667" stroke-miterlimit="10"/>
<path d="M1050.02 158.989C1051.16 157.042 1052.83 154.475 1055.13 151.714C1056.6 149.948 1074.52 128.857 1088.47 135.178C1093.95 137.663 1098.84 144.371 1098.47 150.721C1097.87 160.838 1084.03 167.726 1084.54 168.568C1085.09 169.507 1099.32 156.725 1105.44 160.963C1109.69 163.903 1110.3 175.221 1105.74 180.798C1100.54 187.161 1090.63 183.544 1088.18 189.397C1086.47 193.483 1090.27 197.734 1088.49 199.653C1086.13 202.192 1079.72 194.407 1072.43 196.022C1064.04 197.872 1062.99 210.295 1056.99 210.24C1051.36 210.184 1050.97 199.239 1043.06 196.354C1033.59 192.903 1024.19 204.939 1020.36 201.309C1017.43 198.548 1023.1 191.757 1020.66 182.799C1017.65 171.757 1005.95 170.749 1006.12 163.958C1006.25 158.906 1012.72 158.754 1024.29 147.422C1032.05 139.83 1033.01 136.103 1037.91 134.861C1044.25 133.26 1050.63 137.456 1055.17 141.473" fill="#F7EECE"/>
<path d="M1050.02 158.989C1051.16 157.042 1052.83 154.475 1055.13 151.714C1056.6 149.948 1074.52 128.857 1088.47 135.178C1093.95 137.663 1098.84 144.371 1098.47 150.721C1097.87 160.838 1084.03 167.726 1084.54 168.568C1085.09 169.507 1099.32 156.725 1105.44 160.963C1109.69 163.903 1110.3 175.221 1105.74 180.798C1100.54 187.161 1090.63 183.544 1088.18 189.397C1086.47 193.483 1090.27 197.734 1088.49 199.653C1086.13 202.192 1079.72 194.407 1072.43 196.022C1064.04 197.872 1062.99 210.295 1056.99 210.24C1051.36 210.184 1050.97 199.239 1043.06 196.354C1033.59 192.903 1024.19 204.939 1020.36 201.309C1017.43 198.548 1023.1 191.757 1020.66 182.799C1017.65 171.757 1005.95 170.749 1006.12 163.958C1006.25 158.906 1012.72 158.754 1024.29 147.422C1032.05 139.83 1033.01 136.103 1037.91 134.861C1044.25 133.26 1050.63 137.456 1055.17 141.473" stroke="#797667" stroke-miterlimit="10"/>
<path d="M406.517 167.43L480.329 141.999L590.528 597.217L495.154 597.216L406.517 167.43Z" fill="#993C29"/>
<path d="M179.382 141H481.318V605H150.227L179.382 141Z" fill="#E73E26"/>
<path d="M173.484 587.5L195.177 154.5H459.554L447.228 587.5H173.484Z" stroke="#FFE1C3"/>
<ellipse cx="1133.12" cy="158" rx="211.997" ry="61" fill="#F7EECE"/>
<path d="M999.335 588.555C1015.46 596.271 1039.72 606.209 1070.42 612.531C1118.5 622.428 1157.12 618.287 1191.28 614.326C1215 611.579 1247.33 606.154 1284.88 594.546L1365.45 210.916L1092.93 217.514L921.125 210.916" fill="#E73E26"/>
<path d="M1221.76 217.585L1266.16 215.983" stroke="#797667" stroke-miterlimit="10"/>
<path d="M982.821 120.181C981.935 118.787 980.639 116.951 978.865 114.963C977.733 113.694 963.845 98.5654 953.054 103.093C948.812 104.873 945.033 109.691 945.319 114.246C945.783 121.506 956.492 126.448 956.097 127.055C955.66 127.731 944.651 118.552 939.917 121.603C936.629 123.715 936.152 131.831 939.685 135.834C943.71 140.403 951.39 137.808 953.286 142.004C954.61 144.93 951.676 147.98 953.054 149.361C954.882 151.183 959.848 145.606 965.482 146.752C971.976 148.077 972.794 156.994 977.433 156.952C981.785 156.911 982.085 149.057 988.21 146.987C995.536 144.502 1002.82 153.143 1005.79 150.548C1008.06 148.56 1003.67 143.688 1005.56 137.269C1007.9 129.346 1016.95 128.629 1016.82 123.742C1016.72 120.112 1011.7 120.015 1002.75 111.885C996.75 106.433 996 103.755 992.207 102.872C987.296 101.726 982.371 104.735 978.838 107.62" fill="#F7EECE"/>
<path d="M982.821 120.181C981.935 118.787 980.639 116.951 978.865 114.963C977.733 113.694 963.845 98.5654 953.054 103.093C948.812 104.873 945.033 109.691 945.319 114.246C945.783 121.506 956.492 126.448 956.097 127.055C955.66 127.731 944.651 118.552 939.917 121.603C936.629 123.715 936.152 131.831 939.685 135.834C943.71 140.403 951.39 137.808 953.286 142.004C954.61 144.93 951.676 147.98 953.054 149.361C954.882 151.183 959.848 145.606 965.482 146.752C971.976 148.077 972.794 156.994 977.433 156.952C981.785 156.911 982.085 149.057 988.21 146.987C995.536 144.502 1002.82 153.143 1005.79 150.548C1008.06 148.56 1003.67 143.688 1005.56 137.269C1007.9 129.346 1016.95 128.629 1016.82 123.742C1016.72 120.112 1011.7 120.015 1002.75 111.885C996.75 106.433 996 103.755 992.207 102.872C987.296 101.726 982.371 104.735 978.838 107.62" stroke="#797667" stroke-miterlimit="10"/>
<path d="M1138.19 135.351C1137.52 136.98 1136.53 139.147 1135.19 141.466C1134.33 142.957 1123.78 160.68 1115.6 155.366C1112.38 153.282 1109.5 147.636 1109.73 142.294C1110.09 133.792 1118.22 127.994 1117.92 127.276C1117.59 126.49 1109.23 137.229 1105.64 133.667C1103.14 131.197 1102.79 121.672 1105.46 116.993C1108.52 111.638 1114.34 114.674 1115.79 109.76C1116.8 106.323 1114.56 102.748 1115.61 101.147C1117 99.0077 1120.77 105.55 1125.04 104.212C1129.96 102.652 1130.59 92.2028 1134.11 92.258C1137.41 92.3132 1137.64 101.506 1142.3 103.935C1147.86 106.834 1153.39 96.7164 1155.64 99.7669C1157.36 102.086 1154.03 107.8 1155.46 115.337C1157.23 124.613 1164.11 125.468 1164 131.183C1163.92 135.434 1160.13 135.558 1153.32 145.082C1148.76 151.473 1148.19 154.607 1145.31 155.642C1141.59 156.995 1137.84 153.461 1135.16 150.079" fill="#F7EECE"/>
<path d="M1138.19 135.351C1137.52 136.98 1136.53 139.147 1135.19 141.466C1134.33 142.957 1123.78 160.68 1115.6 155.366C1112.38 153.282 1109.5 147.636 1109.73 142.294C1110.09 133.792 1118.22 127.994 1117.92 127.276C1117.59 126.49 1109.23 137.229 1105.64 133.667C1103.14 131.197 1102.79 121.672 1105.46 116.993C1108.52 111.638 1114.34 114.674 1115.79 109.76C1116.8 106.323 1114.56 102.748 1115.61 101.147C1117 99.0077 1120.77 105.55 1125.04 104.212C1129.96 102.652 1130.59 92.2028 1134.11 92.258C1137.41 92.3132 1137.64 101.506 1142.3 103.935C1147.86 106.834 1153.39 96.7164 1155.64 99.7669C1157.36 102.086 1154.03 107.8 1155.46 115.337C1157.23 124.613 1164.11 125.468 1164 131.183C1163.92 135.434 1160.13 135.558 1153.32 145.082C1148.76 151.473 1148.19 154.607 1145.31 155.642C1141.59 156.995 1137.84 153.461 1135.16 150.079" stroke="#797667" stroke-miterlimit="10"/>
<path d="M912.23 198.772L916.734 210.333C960.116 216.632 1006.65 221.298 1056.03 223.439C1107.32 225.649 1131.84 220.649 1227.1 220.158C1245.95 220.07 1264.8 218.93 1283.65 219.263C1308.6 219.719 1333.81 210.474 1358.45 215.772C1359.04 215.895 1361.37 216.439 1363.65 214.895C1366.85 212.737 1369.82 206.632 1368.53 200.298C1367.3 194.281 1362.62 190.193 1357.64 191.14L1003.88 202.86L916.721 191" fill="#EDEDED"/>
<path d="M1079.47 139.273C1073.24 138.734 1066.7 130.37 1066.95 122.571C1067.29 112.039 1079.99 103.247 1089.62 103.661C1094.29 103.854 1097.96 106.214 1099.76 104.268C1101.6 102.28 1098.53 98.9953 1099.76 92.3974C1100.5 88.4221 1101.87 88.1736 1102.15 84.3502C1102.47 79.6295 1100.51 78.194 1101.55 76.0959C1103.14 72.9074 1110.03 71.679 1114.87 74.0807C1120.99 77.1174 1122.57 85.3578 1123.43 89.7748C1125.22 99.0367 1122.73 104.53 1125.02 105.662C1127.98 107.139 1132.4 98.029 1142.72 96.6073C1144.38 96.3727 1149.1 95.7239 1151.27 98.4155C1153.17 100.762 1152.16 104.461 1151.27 107.664C1150.33 111.101 1148.95 116.111 1145.11 118.734C1137.48 123.937 1125.52 116.042 1123.84 118.941C1122.62 121.039 1129.23 124.49 1129.21 130.011C1129.19 137.961 1115.37 147.817 1105.15 145.305C1097.89 143.51 1095.76 136.291 1088.45 136.65C1084.03 136.871 1083.22 139.59 1079.5 139.259L1079.47 139.273Z" fill="#F7EECE" stroke="#797667" stroke-miterlimit="10"/>
<path d="M1079.47 139.273C1073.24 138.734 1066.7 130.37 1066.95 122.571C1067.29 112.039 1079.99 103.247 1089.62 103.661C1094.29 103.854 1097.96 106.214 1099.76 104.268C1101.6 102.28 1098.53 98.9953 1099.76 92.3974C1100.5 88.4221 1101.87 88.1736 1102.15 84.3502C1102.47 79.6295 1100.51 78.194 1101.55 76.0959C1103.14 72.9074 1110.03 71.679 1114.87 74.0807C1120.99 77.1174 1122.57 85.3578 1123.43 89.7748C1125.22 99.0367 1122.73 104.53 1125.02 105.662C1127.98 107.139 1132.4 98.029 1142.72 96.6073C1144.38 96.3727 1149.1 95.7239 1151.27 98.4155C1153.17 100.762 1152.16 104.461 1151.27 107.664C1150.33 111.101 1148.95 116.111 1145.11 118.734C1137.48 123.937 1125.52 116.042 1123.84 118.941C1122.62 121.039 1129.23 124.49 1129.21 130.011C1129.19 137.961 1115.37 147.817 1105.15 145.305C1097.89 143.51 1095.76 136.291 1088.45 136.65C1084.03 136.871 1083.22 139.59 1079.5 139.259L1079.47 139.273Z" fill="#F7EECE" stroke="#797667" stroke-miterlimit="10"/>
<path d="M931.679 195.452C925.445 194.914 918.91 186.549 919.156 178.751C919.497 168.219 932.197 159.426 941.829 159.84C946.494 160.034 950.164 162.394 951.965 160.448C953.806 158.46 950.737 155.175 951.965 148.577C952.701 144.602 954.079 144.353 954.352 140.53C954.68 135.809 952.715 134.374 953.752 132.276C955.348 129.087 962.237 127.859 967.08 130.26C973.192 133.297 974.774 141.538 975.634 145.955C977.421 155.216 974.938 160.71 977.23 161.842C980.19 163.319 984.61 154.209 994.924 152.787C996.588 152.552 1001.31 151.904 1003.48 154.595C1005.37 156.942 1004.36 160.641 1003.48 163.843C1002.54 167.28 1001.16 172.291 997.311 174.913C989.685 180.117 977.721 172.222 976.043 175.12C974.829 177.219 981.432 180.669 981.418 186.191C981.391 194.141 967.571 203.997 957.353 201.484C950.096 199.69 947.968 192.471 940.656 192.83C936.235 193.051 935.431 195.77 931.706 195.439L931.679 195.452Z" fill="#F7EECE" stroke="#797667" stroke-miterlimit="10"/>
<path d="M1011.16 143.178C1015.25 142.999 1021.06 142.115 1023.53 138.057C1027.16 132.094 1020.12 124.972 1023.24 120.141C1027.05 114.288 1043.19 115.862 1053.88 123.55C1056.34 125.317 1067.42 133.833 1065.68 143.454C1064.8 148.368 1060.98 151.35 1056.13 155.118C1054.22 156.609 1046.6 162.282 1034.77 164.214C1024.14 165.953 1015.41 163.828 1010.6 162.226" fill="#F7EECE"/>
<path d="M1011.16 143.178C1015.25 142.999 1021.06 142.115 1023.53 138.057C1027.16 132.094 1020.12 124.972 1023.24 120.141C1027.05 114.288 1043.19 115.862 1053.88 123.55C1056.34 125.317 1067.42 133.833 1065.68 143.454C1064.8 148.368 1060.98 151.35 1056.13 155.118C1054.22 156.609 1046.6 162.282 1034.77 164.214C1024.14 165.953 1015.41 163.828 1010.6 162.226" stroke="#797667" stroke-miterlimit="10"/>
<path d="M1211.54 112.991C1206.81 113.626 1201.84 123.412 1202.04 132.564C1202.29 144.917 1211.94 155.201 1219.24 154.731C1222.78 154.497 1225.57 151.736 1226.93 154.028C1228.34 156.36 1226 160.211 1226.93 167.941C1227.49 172.593 1228.54 172.896 1228.75 177.369C1228.99 182.89 1227.51 184.588 1228.3 187.031C1229.51 190.771 1234.74 192.207 1238.41 189.391C1243.04 185.83 1244.24 176.181 1244.9 171.005C1246.25 160.142 1244.38 153.724 1246.11 152.385C1248.36 150.646 1251.72 161.329 1259.55 163C1260.82 163.262 1264.39 164.021 1266.04 160.874C1267.49 158.127 1266.71 153.793 1266.04 150.025C1265.32 146.008 1264.28 140.128 1261.36 137.063C1255.57 130.963 1246.49 140.224 1245.21 136.829C1244.28 134.372 1249.31 130.328 1249.29 123.868C1249.26 114.551 1238.77 103.011 1231.02 105.951C1225.51 108.049 1223.9 116.525 1218.35 116.083C1215 115.821 1214.38 112.632 1211.56 113.019L1211.54 112.991Z" fill="#F7EECE" stroke="#797667" stroke-miterlimit="10"/>
<path d="M1159.71 108.409C1162.82 108.616 1167.22 109.665 1169.09 114.413C1171.85 121.398 1166.5 129.749 1168.87 135.408C1171.75 142.268 1184.02 140.432 1192.13 131.405C1194 129.335 1202.41 119.355 1201.1 108.078C1200.43 102.308 1197.52 98.8297 1193.84 94.4127C1192.39 92.6735 1186.59 86.0204 1177.62 83.7429C1169.56 81.7001 1162.93 84.1984 1159.27 86.0756" fill="#F7EECE"/>
<path d="M1159.71 108.409C1162.82 108.616 1167.22 109.665 1169.09 114.413C1171.85 121.398 1166.5 129.749 1168.87 135.408C1171.75 142.268 1184.02 140.432 1192.13 131.405C1194 129.335 1202.41 119.355 1201.1 108.078C1200.43 102.308 1197.52 98.8297 1193.84 94.4127C1192.39 92.6735 1186.59 86.0204 1177.62 83.7429C1169.56 81.7001 1162.93 84.1984 1159.27 86.0756" stroke="#797667" stroke-miterlimit="10"/>
<path d="M1147.15 190.452C1140.91 189.914 1134.38 181.549 1134.62 173.751C1134.96 163.219 1147.67 154.426 1157.3 154.84C1161.96 155.034 1165.63 157.394 1167.43 155.448C1169.27 153.46 1166.2 150.175 1167.43 143.577C1168.17 139.602 1169.55 139.353 1169.82 135.53C1170.15 130.809 1168.18 129.374 1169.22 127.276C1170.82 124.087 1177.71 122.859 1182.55 125.26C1188.66 128.297 1190.24 136.538 1191.1 140.955C1192.89 150.216 1190.41 155.71 1192.7 156.842C1195.66 158.319 1200.08 149.209 1210.39 147.787C1212.06 147.552 1216.78 146.904 1218.95 149.595C1220.84 151.942 1219.83 155.641 1218.95 158.843C1218 162.28 1216.63 167.291 1212.78 169.913C1205.15 175.117 1193.19 167.222 1191.51 170.12C1190.3 172.219 1196.9 175.669 1196.89 181.191C1196.86 189.141 1183.04 198.997 1172.82 196.484C1165.56 194.69 1163.44 187.471 1156.12 187.83C1151.7 188.051 1150.9 190.77 1147.17 190.439L1147.15 190.452Z" fill="#F7EECE" stroke="#797667" stroke-miterlimit="10"/>
<path d="M1079.82 175.581C1083.91 175.402 1089.72 174.519 1092.19 170.46C1095.82 164.497 1088.78 157.375 1091.9 152.544C1095.71 146.692 1111.85 148.265 1122.55 155.953C1125 157.72 1136.08 166.237 1134.35 175.857C1133.46 180.771 1129.64 183.753 1124.8 187.521C1122.89 189.012 1115.26 194.685 1103.43 196.617C1092.81 198.357 1084.07 196.231 1079.26 194.63" fill="#F7EECE"/>
<path d="M1079.82 175.581C1083.91 175.402 1089.72 174.519 1092.19 170.46C1095.82 164.497 1088.78 157.375 1091.9 152.544C1095.71 146.692 1111.85 148.265 1122.55 155.953C1125 157.72 1136.08 166.237 1134.35 175.857C1133.46 180.771 1129.64 183.753 1124.8 187.521C1122.89 189.012 1115.26 194.685 1103.43 196.617C1092.81 198.357 1084.07 196.231 1079.26 194.63" stroke="#797667" stroke-miterlimit="10"/>
<path d="M1279.52 124.507C1274.79 125.141 1269.82 134.928 1270.01 144.079C1270.27 156.433 1279.92 166.716 1287.21 166.247C1290.76 166.012 1293.54 163.252 1294.91 165.543C1296.31 167.876 1293.98 171.727 1294.91 179.457C1295.47 184.108 1296.52 184.412 1296.72 188.884C1296.97 194.405 1295.48 196.103 1296.27 198.546C1297.49 202.287 1302.71 203.723 1306.38 200.907C1311.02 197.345 1312.22 187.697 1312.88 182.521C1314.23 171.658 1312.36 165.239 1314.09 163.901C1316.34 162.161 1319.7 172.845 1327.53 174.515C1328.8 174.777 1332.37 175.537 1334.02 172.389C1335.47 169.643 1334.69 165.308 1334.02 161.54C1333.3 157.524 1332.26 151.643 1329.34 148.579C1323.54 142.478 1314.47 151.74 1313.19 148.344C1312.26 145.888 1317.28 141.843 1317.27 135.383C1317.24 126.066 1306.75 114.527 1299 117.467C1293.49 119.565 1291.88 128.04 1286.33 127.598C1282.97 127.336 1282.36 124.148 1279.53 124.534L1279.52 124.507Z" fill="#F7EECE" stroke="#797667" stroke-miterlimit="10"/>
<path d="M1227.38 159.589C1230.49 159.796 1234.9 160.845 1236.77 165.593C1239.52 172.577 1234.17 180.928 1236.55 186.588C1239.43 193.448 1251.69 191.612 1259.81 182.585C1261.68 180.514 1270.08 170.535 1268.77 159.257C1268.1 153.488 1265.2 150.009 1261.51 145.592C1260.07 143.853 1254.27 137.2 1245.29 134.923C1237.23 132.88 1230.6 135.378 1226.94 137.255" fill="#F7EECE"/>
<path d="M1227.38 159.589C1230.49 159.796 1234.9 160.845 1236.77 165.593C1239.52 172.577 1234.17 180.928 1236.55 186.588C1239.43 193.448 1251.69 191.612 1259.81 182.585C1261.68 180.514 1270.08 170.535 1268.77 159.257C1268.1 153.488 1265.2 150.009 1261.51 145.592C1260.07 143.853 1254.27 137.2 1245.29 134.923C1237.23 132.88 1230.6 135.378 1226.94 137.255" stroke="#797667" stroke-miterlimit="10"/>
<path fill-rule="evenodd" clip-rule="evenodd" d="M1004.15 335H1286.81V358.861C1286.21 358.607 1285.54 358.465 1284.83 358.465C1282.19 358.465 1280.05 360.452 1280.05 362.902C1280.05 365.353 1282.19 367.339 1284.83 367.339C1285.54 367.339 1286.21 367.198 1286.81 366.943V371.679C1286.21 371.425 1285.54 371.283 1284.83 371.283C1282.19 371.283 1280.05 373.27 1280.05 375.72C1280.05 378.171 1282.19 380.157 1284.83 380.157C1285.54 380.157 1286.21 380.015 1286.81 379.761V384.497C1286.21 384.242 1285.54 384.101 1284.83 384.101C1282.19 384.101 1280.05 386.087 1280.05 388.538C1280.05 390.988 1282.19 392.974 1284.83 392.974C1285.54 392.974 1286.21 392.833 1286.81 392.578V397.314C1286.21 397.06 1285.54 396.918 1284.83 396.918C1282.19 396.918 1280.05 398.905 1280.05 401.355C1280.05 403.806 1282.19 405.792 1284.83 405.792C1285.54 405.792 1286.21 405.651 1286.81 405.396V410.132C1286.21 409.878 1285.54 409.736 1284.83 409.736C1282.19 409.736 1280.05 411.723 1280.05 414.173C1280.05 416.624 1282.19 418.61 1284.83 418.61C1285.54 418.61 1286.21 418.469 1286.81 418.214V422.95C1286.21 422.696 1285.54 422.554 1284.83 422.554C1282.19 422.554 1280.05 424.541 1280.05 426.991C1280.05 429.442 1282.19 431.428 1284.83 431.428C1285.54 431.428 1286.21 431.286 1286.81 431.032V435.768C1286.21 435.514 1285.54 435.372 1284.83 435.372C1282.19 435.372 1280.05 437.359 1280.05 439.809C1280.05 442.259 1282.19 444.246 1284.83 444.246C1285.54 444.246 1286.21 444.104 1286.81 443.85V448.339C1286.21 448.085 1285.54 447.943 1284.83 447.943C1282.19 447.943 1280.05 449.93 1280.05 452.38C1280.05 452.702 1280.09 453.016 1280.16 453.319H1008.4C1008.44 453.093 1008.46 452.862 1008.46 452.627C1008.46 450.323 1006.56 448.429 1004.15 448.211V444.472C1006.56 444.253 1008.46 442.359 1008.46 440.056C1008.46 437.752 1006.56 435.858 1004.15 435.64V431.653C1006.56 431.435 1008.46 429.541 1008.46 427.237C1008.46 424.933 1006.56 423.04 1004.15 422.821V418.836C1006.56 418.618 1008.46 416.724 1008.46 414.42C1008.46 412.116 1006.56 410.223 1004.15 410.004V406.018C1006.56 405.8 1008.46 403.906 1008.46 401.602C1008.46 399.298 1006.56 397.404 1004.15 397.186V393.2C1006.56 392.982 1008.46 391.088 1008.46 388.784C1008.46 386.48 1006.56 384.586 1004.15 384.368V380.382C1006.56 380.164 1008.46 378.27 1008.46 375.966C1008.46 373.662 1006.56 371.769 1004.15 371.55V367.564C1006.56 367.346 1008.46 365.452 1008.46 363.148C1008.46 360.844 1006.56 358.951 1004.15 358.732V335Z" fill="#FFE1C3"/>
</svg>
