<svg width="552" height="729" viewBox="0 0 552 729" fill="none" xmlns="http://www.w3.org/2000/svg">
<rect x="6" y="6" width="540" height="717" fill="#EADFC9" stroke="#E73E26" stroke-width="12"/>
<path d="M42.8475 572.136L44.3028 570.7C47.5729 567.472 53.1142 569.789 53.1142 574.383V595.662V717H163.139H523.856L509.9 576.726L508.222 557.999C507.526 550.229 510.651 542.605 516.599 537.558L534.527 522.347C539.902 517.786 543 511.094 543 504.046V354.992C543 352.043 542.456 349.119 541.396 346.366L533.593 326.104L530.605 319.751C529.355 317.093 527.629 314.688 525.51 312.654L516.016 303.536C514.271 301.86 512.79 299.931 511.622 297.812L507.112 289.631L499.564 278.875C497.573 276.038 497.372 272.315 499.045 269.28C499.312 268.795 499.535 268.287 499.709 267.761L503.647 255.912C504.328 253.863 504.729 251.732 504.84 249.575L506.067 225.721V211.364C506.067 208.685 505.618 206.025 504.74 203.495L502.076 195.82C500.37 190.903 497.111 186.675 492.793 183.772L492.478 183.56L484.882 178.377C481.193 175.86 476.874 174.422 472.413 174.225L456.223 173.51C451.465 173.3 446.753 174.51 442.686 176.985L429.687 184.897C426.084 187.09 423.123 190.194 421.101 193.896L409.205 215.683L395.849 234.453C395.231 235.321 394.707 236.253 394.286 237.232C390.181 246.785 377.849 249.383 370.239 242.299L367.916 240.138C364.917 237.345 363.213 233.432 363.213 229.333C363.213 226.96 363.785 224.622 364.881 222.517L365.047 222.199C366.356 219.683 368.302 217.555 370.69 216.026L371.226 215.683L374.349 213.742C376.207 212.588 377.899 211.184 379.377 209.571L380.41 208.444C383.294 205.296 385.287 201.436 386.182 197.261L386.721 194.747C387.075 193.094 387.254 191.408 387.254 189.717V185.903C387.254 184.543 386.289 183.375 384.954 183.119L384.766 183.082C382.627 182.672 381.586 180.224 382.774 178.398L385.924 173.558C386.785 172.235 387.17 170.658 387.015 169.087L385.801 156.769C385.17 150.362 381.992 144.478 376.98 140.437L363.186 129.316C358.919 125.876 353.604 124 348.123 124H332.588C327.15 124 321.874 125.846 317.623 129.237L311.179 134.377C306.336 138.239 303.174 143.824 302.355 149.964L300.518 163.721C300.289 165.439 299.166 166.908 297.567 167.58C295.753 168.342 294.573 170.118 294.573 172.085V180.74C294.573 181.726 294.654 182.711 294.816 183.684L298.632 206.587C299.491 211.743 296.286 216.706 291.234 218.044C290.443 218.254 289.681 218.558 288.963 218.951L227.619 252.534C223.01 255.057 217.318 252.072 216.774 246.845C216.613 245.295 216.948 243.733 217.732 242.386L220.314 237.949C222.175 234.751 224.776 232.048 227.899 230.066L238.949 223.055C241.258 221.59 242.657 219.045 242.657 216.31V210.584C242.657 209.334 241.645 208.321 240.395 208.321C239.016 208.321 237.958 207.098 238.157 205.733L241.316 184.065C242.171 178.199 240.53 172.242 236.792 167.641L225.123 153.278C220.565 147.668 213.723 144.411 206.495 144.411H192.208C185.096 144.411 178.351 147.565 173.791 153.022L163.822 164.952C160.279 169.192 158.339 174.541 158.339 180.066V202.391C158.339 203.079 157.781 203.637 157.092 203.637C156.299 203.637 155.708 204.368 155.874 205.144L160.778 228.063L161.499 230.836C162.838 235.98 162.432 241.423 160.344 246.311L155.7 257.18C153.708 261.845 149.125 264.87 144.053 264.87H108.708C105.363 264.87 102.056 265.569 98.9977 266.922L82.1208 274.389C76.0623 277.069 71.3811 282.135 69.1862 288.385L13.3554 447.387C12.4583 449.942 12 452.631 12 455.339V551.002C12 561.288 19.265 570.142 29.353 572.15L37.4337 573.759C39.3957 574.149 41.4237 573.542 42.8475 572.136Z" fill="#534242"/>
</svg>
