<svg width="669" height="729" viewBox="0 0 669 729" fill="none" xmlns="http://www.w3.org/2000/svg">
<rect x="109" y="6" width="540" height="717" fill="#EADFC9" stroke="#E73E26" stroke-width="12"/>
<path d="M145.847 572.136L147.303 570.7C150.573 567.472 156.114 569.789 156.114 574.383V595.662V717H266.139H626.856L612.9 576.726L611.222 557.999C610.526 550.229 613.651 542.605 619.599 537.558L637.527 522.347C642.902 517.786 646 511.094 646 504.046V354.992C646 352.043 645.456 349.119 644.396 346.366L636.593 326.104L633.605 319.751C632.355 317.093 630.629 314.688 628.51 312.654L619.016 303.536C617.271 301.86 615.79 299.931 614.622 297.812L610.112 289.631L602.564 278.875C600.573 276.038 600.372 272.315 602.045 269.28C602.312 268.795 602.535 268.287 602.709 267.761L606.647 255.912C607.328 253.863 607.729 251.732 607.84 249.575L609.067 225.721V211.364C609.067 208.685 608.618 206.025 607.74 203.495L605.076 195.82C603.37 190.903 600.111 186.675 595.793 183.772L595.478 183.56L587.882 178.377C584.193 175.86 579.874 174.422 575.413 174.225L559.223 173.51C554.465 173.3 549.753 174.51 545.686 176.985L532.687 184.897C529.084 187.09 526.123 190.194 524.101 193.896L512.205 215.683L498.849 234.453C498.231 235.321 497.707 236.253 497.286 237.232C493.181 246.785 480.849 249.383 473.239 242.299L470.916 240.138C467.917 237.345 466.213 233.432 466.213 229.333C466.213 226.96 466.785 224.622 467.881 222.517L468.047 222.199C469.356 219.683 471.302 217.555 473.69 216.026L474.226 215.683L477.349 213.742C479.207 212.588 480.899 211.184 482.377 209.571L483.41 208.444C486.294 205.296 488.287 201.436 489.182 197.261L489.721 194.747C490.075 193.094 490.254 191.408 490.254 189.717V185.903C490.254 184.543 489.289 183.375 487.954 183.119L487.766 183.082C485.627 182.672 484.586 180.224 485.774 178.398L488.924 173.558C489.785 172.235 490.17 170.658 490.015 169.087L488.801 156.769C488.17 150.362 484.992 144.478 479.98 140.437L466.186 129.316C461.919 125.876 456.604 124 451.123 124H435.588C430.15 124 424.874 125.846 420.623 129.237L414.179 134.377C409.336 138.239 406.174 143.824 405.355 149.964L403.518 163.721C403.289 165.439 402.166 166.908 400.567 167.58C398.753 168.342 397.573 170.118 397.573 172.085V180.74C397.573 181.726 397.654 182.711 397.816 183.684L401.632 206.587C402.491 211.743 399.286 216.706 394.234 218.044C393.443 218.254 392.681 218.558 391.963 218.951L330.619 252.534C326.01 255.057 320.318 252.072 319.774 246.845C319.613 245.295 319.948 243.733 320.732 242.386L323.314 237.949C325.175 234.751 327.776 232.048 330.899 230.066L341.949 223.055C344.258 221.59 345.657 219.045 345.657 216.31V210.584C345.657 209.334 344.645 208.321 343.395 208.321C342.016 208.321 340.958 207.098 341.157 205.733L344.316 184.065C345.171 178.199 343.53 172.242 339.792 167.641L328.123 153.278C323.565 147.668 316.723 144.411 309.495 144.411H295.208C288.096 144.411 281.351 147.565 276.791 153.022L266.822 164.952C263.279 169.192 261.339 174.541 261.339 180.066V202.391C261.339 203.079 260.781 203.637 260.092 203.637C259.299 203.637 258.708 204.368 258.874 205.144L263.778 228.063L264.499 230.836C265.838 235.98 265.432 241.423 263.344 246.311L258.7 257.18C256.708 261.845 252.125 264.87 247.053 264.87H211.708C208.363 264.87 205.056 265.569 201.998 266.922L185.121 274.389C179.062 277.069 174.381 282.135 172.186 288.385L116.355 447.387C115.458 449.942 115 452.631 115 455.339V551.002C115 561.288 122.265 570.142 132.353 572.15L140.434 573.759C142.396 574.149 144.424 573.542 145.847 572.136Z" fill="#534242"/>
<path d="M178.411 440.2V457H172.171V440.2H178.411ZM177.211 434.44L180.091 438.52H176.491L175.291 436.6L174.091 438.52H170.491L173.371 434.44H177.211ZM189.448 443.92C191.848 443.92 193.768 445.84 193.768 450.28V457H188.008V450.28C188.008 449.32 187.528 448.84 187.048 448.84C186.568 448.84 186.088 449.32 186.088 450.28V457H180.328V444.28H185.848L186.328 445.72C186.328 445.72 187.288 443.92 189.448 443.92ZM205.302 445.72C205.302 445.72 206.262 443.92 208.182 443.92C209.142 443.92 209.862 444.28 209.862 444.28L208.902 449.56C208.902 449.56 207.942 449.08 207.222 449.08C206.022 449.08 205.062 450.04 205.062 451.72V457H199.302V444.28H204.822L205.302 445.72ZM209.633 450.64C209.633 446.92 212.633 443.92 216.953 443.92C221.273 443.92 224.273 446.92 224.273 450.64C224.273 454.36 221.273 457.36 216.953 457.36C212.633 457.36 209.633 454.36 209.633 450.64ZM218.513 450.64C218.513 449.56 217.793 448.84 216.953 448.84C216.113 448.84 215.393 449.56 215.393 450.64C215.393 451.72 216.113 452.44 216.953 452.44C217.793 452.44 218.513 451.72 218.513 450.64ZM225.472 457V439.24H231.232V457H225.472ZM237.228 457.36C234.828 457.36 232.908 455.44 232.908 451V444.28H238.668V451C238.668 451.96 239.148 452.44 239.628 452.44C240.108 452.44 240.588 451.96 240.588 451V444.28H246.348V457H240.828L240.348 455.56C240.348 455.56 239.388 457.36 237.228 457.36ZM254.032 445.72C254.032 445.72 254.992 443.92 256.912 443.92C257.872 443.92 258.592 444.28 258.592 444.28L257.632 449.56C257.632 449.56 256.672 449.08 255.952 449.08C254.752 449.08 253.792 450.04 253.792 451.72V457H248.032V444.28H253.552L254.032 445.72ZM258.843 444.28H264.603V457H258.843V444.28ZM258.843 442.84V438.28H264.603V442.84H258.843ZM266.279 457V439.24H272.039V457H266.279ZM279.955 443.92C283.675 443.92 286.675 446.92 286.675 450.64C286.675 450.736 286.675 451.744 286.675 451.84H278.995C278.995 451.84 279.235 453.16 281.155 453.16C282.355 453.16 283.315 452.2 283.315 452.2L285.355 455.44C285.355 455.44 283.555 457.36 280.315 457.36C276.235 457.36 273.235 454.36 273.235 450.64C273.235 446.92 276.235 443.92 279.955 443.92ZM278.875 449.56H281.035C281.035 448.6 280.555 448.12 279.955 448.12C279.355 448.12 278.875 448.6 278.875 449.56ZM305.888 450.64C305.888 454.96 303.488 457.36 300.848 457.36C298.448 457.36 297.488 455.56 297.488 455.56V463H291.728V444.28H297.008C297.488 445.72 297.488 445.72 297.488 445.72C297.488 445.72 298.448 443.92 300.848 443.92C303.488 443.92 305.888 446.32 305.888 450.64ZM299.888 450.64C299.888 449.44 299.288 448.84 298.568 448.84C297.848 448.84 297.248 449.44 297.248 450.64C297.248 451.84 297.848 452.44 298.568 452.44C299.288 452.44 299.888 451.84 299.888 450.64ZM313.087 445.72C313.087 445.72 314.047 443.92 315.967 443.92C316.927 443.92 317.647 444.28 317.647 444.28L316.687 449.56C316.687 449.56 315.727 449.08 315.007 449.08C313.807 449.08 312.847 450.04 312.847 451.72V457H307.087V444.28H312.607L313.087 445.72ZM317.898 444.28H323.658V457H317.898V444.28ZM317.898 442.84V438.28H323.658V442.84H317.898ZM334.454 443.92C336.854 443.92 338.774 445.84 338.774 450.28V457H333.014V450.28C333.014 449.32 332.534 448.84 332.054 448.84C331.574 448.84 331.094 449.32 331.094 450.28V457H325.334V444.28H330.854L331.334 445.72C331.334 445.72 332.294 443.92 334.454 443.92ZM345.743 450.64C345.743 451.72 346.463 452.44 347.663 452.44C348.863 452.44 349.823 451.48 349.823 451.48L352.223 455.32C352.223 455.32 350.303 457.36 346.823 457.36C342.743 457.36 339.743 454.36 339.743 450.64C339.743 446.92 342.743 443.92 346.823 443.92C350.303 443.92 352.223 445.96 352.223 445.96L349.823 449.8C349.823 449.8 348.863 448.84 347.663 448.84C346.463 448.84 345.743 449.56 345.743 450.64ZM352.933 444.28H358.693V457H352.933V444.28ZM352.933 442.84V438.28H358.693V442.84H352.933ZM374.529 450.64C374.529 454.96 372.129 457.36 369.489 457.36C367.089 457.36 366.129 455.56 366.129 455.56V463H360.369V444.28H365.649C366.129 445.72 366.129 445.72 366.129 445.72C366.129 445.72 367.089 443.92 369.489 443.92C372.129 443.92 374.529 446.32 374.529 450.64ZM368.529 450.64C368.529 449.44 367.929 448.84 367.209 448.84C366.489 448.84 365.889 449.44 365.889 450.64C365.889 451.84 366.489 452.44 367.209 452.44C367.929 452.44 368.529 451.84 368.529 450.64ZM381.367 443.92C385.447 443.92 388.447 446.92 388.447 450.64C388.447 452.704 388.447 455.128 388.447 457H382.927L382.447 455.56C382.447 455.56 381.487 457.36 379.327 457.36C376.687 457.36 375.007 455.68 375.007 453.4C375.007 451.12 376.687 449.44 380.767 449.44H382.687C382.687 449.44 382.447 448.12 380.527 448.12C379.327 448.12 378.367 449.08 378.367 449.08L376.327 445.84C376.327 445.84 378.127 443.92 381.367 443.92ZM381.487 453.52C382.087 453.52 382.687 452.92 382.687 451.48C381.367 451.48 380.767 452.08 380.767 452.8C380.767 453.16 381.127 453.52 381.487 453.52ZM389.89 457V439.24H395.65V457H389.89ZM403.567 443.92C407.287 443.92 410.287 446.92 410.287 450.64C410.287 450.736 410.287 451.744 410.287 451.84H402.607C402.607 451.84 402.847 453.16 404.767 453.16C405.967 453.16 406.927 452.2 406.927 452.2L408.967 455.44C408.967 455.44 407.167 457.36 403.927 457.36C399.847 457.36 396.847 454.36 396.847 450.64C396.847 446.92 399.847 443.92 403.567 443.92ZM402.487 449.56H404.647C404.647 448.6 404.167 448.12 403.567 448.12C402.967 448.12 402.487 448.6 402.487 449.56ZM416.055 449.08H411.015V444.28H416.055V449.08ZM416.055 457H411.015V452.2H416.055V457ZM420.861 440.2H436.221V445.72H431.661V457H425.421V445.72H420.861V440.2ZM435.263 450.64C435.263 446.92 438.263 443.92 442.583 443.92C446.903 443.92 449.903 446.92 449.903 450.64C449.903 454.36 446.903 457.36 442.583 457.36C438.263 457.36 435.263 454.36 435.263 450.64ZM444.143 450.64C444.143 449.56 443.423 448.84 442.583 448.84C441.743 448.84 441.023 449.56 441.023 450.64C441.023 451.72 441.743 452.44 442.583 452.44C443.423 452.44 444.143 451.72 444.143 450.64ZM467.902 443.92C470.302 443.92 472.222 445.84 472.222 450.28V457H466.462V450.28C466.462 449.32 465.982 448.84 465.502 448.84C465.022 448.84 464.542 449.32 464.542 450.28V457H458.782V450.28C458.782 449.32 458.302 448.84 457.822 448.84C457.342 448.84 456.862 449.32 456.862 450.28V457H451.102V444.28H456.622L457.102 445.72C457.102 445.72 458.062 443.92 460.462 443.92C462.862 443.92 464.062 446.2 464.062 446.2C464.062 446.2 465.502 443.92 467.902 443.92ZM484.22 440.2V445.96H488.06V440.2H494.3V457H488.06V451.24H484.22V457H477.98V440.2H484.22ZM501.855 443.92C505.935 443.92 508.935 446.92 508.935 450.64C508.935 452.704 508.935 455.128 508.935 457H503.415L502.935 455.56C502.935 455.56 501.975 457.36 499.815 457.36C497.175 457.36 495.495 455.68 495.495 453.4C495.495 451.12 497.175 449.44 501.255 449.44H503.175C503.175 449.44 502.935 448.12 501.015 448.12C499.815 448.12 498.855 449.08 498.855 449.08L496.815 445.84C496.815 445.84 498.615 443.92 501.855 443.92ZM501.975 453.52C502.575 453.52 503.175 452.92 503.175 451.48C501.855 451.48 501.255 452.08 501.255 452.8C501.255 453.16 501.615 453.52 501.975 453.52ZM516.378 445.72C516.378 445.72 517.338 443.92 519.258 443.92C520.218 443.92 520.938 444.28 520.938 444.28L519.978 449.56C519.978 449.56 519.018 449.08 518.298 449.08C517.098 449.08 516.138 450.04 516.138 451.72V457H510.378V444.28H515.898L516.378 445.72ZM520.475 450.64C520.475 446.32 522.875 443.92 525.515 443.92C527.915 443.92 528.875 445.72 528.875 445.72V439.24H534.635V457H529.355C528.875 455.56 528.875 455.56 528.875 455.56C528.875 455.56 527.915 457.36 525.515 457.36C522.875 457.36 520.475 454.96 520.475 450.64ZM526.475 450.64C526.475 451.84 527.075 452.44 527.795 452.44C528.515 452.44 529.115 451.84 529.115 450.64C529.115 449.44 528.515 448.84 527.795 448.84C527.075 448.84 526.475 449.44 526.475 450.64ZM538.953 457.96L539.313 457L535.113 444.28H541.113L542.193 451L543.273 444.28H549.273L544.713 457.96C543.273 462.28 541.593 463.96 538.593 463.96C536.913 463.96 535.473 463 535.473 463L536.793 458.8C536.793 458.8 537.153 459.04 537.633 459.04C538.233 459.04 538.737 458.56 538.953 457.96Z" fill="#EADFC9"/>
<path d="M162.202 44.4C162.202 51.2 153.802 55.2 153.802 55.2H161.802V64H140.202V56C140.202 56 151.402 49.2 151.402 45.6C151.402 44.4 150.602 43.6 149.202 43.6C145.802 43.6 143.402 45.8 143.402 45.8L139.602 39.8C139.602 39.8 143.202 35.4 150.802 35.4C157.802 35.4 162.202 39.8 162.202 44.4ZM185.612 44.4L180.012 48C180.012 48 186.812 49.2 186.812 55.8C186.812 60.2 182.412 64.6 175.412 64.6C167.812 64.6 164.212 60.2 164.212 60.2L168.012 54.2C168.012 54.2 170.412 56.4 173.812 56.4C175.212 56.4 176.012 55.6 176.012 54.6C176.012 53.6 175.212 52.8 173.812 52.8H170.412V47.6L175.212 44.4H166.012V36H185.612V44.4ZM195.603 67.2H188.003L200.803 32.8H208.403L195.603 67.2ZM223.195 44.4C221.595 44.4 219.995 46 219.995 50C219.995 54 221.595 55.6 223.195 55.6C224.795 55.6 226.395 54 226.395 50C226.395 46 224.795 44.4 223.195 44.4ZM223.195 64.6C215.595 64.6 209.595 58.6 209.595 50C209.595 41.4 215.595 35.4 223.195 35.4C230.795 35.4 236.795 41.4 236.795 50C236.795 58.6 230.795 64.6 223.195 64.6ZM259.205 36V44.4L249.605 64H238.805L248.205 44.8H238.005V36H259.205Z" fill="#E73E26"/>
<path d="M277 49H417" stroke="#E73E26" stroke-width="5"/>
<path d="M459.113 37.52C459.113 43.28 455.913 46.48 452.392 46.48C449.193 46.48 447.913 44.08 447.913 44.08V54H440.232V29.04H447.273C447.913 30.96 447.913 30.96 447.913 30.96C447.913 30.96 449.193 28.56 452.392 28.56C455.913 28.56 459.113 31.76 459.113 37.52ZM451.113 37.52C451.113 35.92 450.312 35.12 449.352 35.12C448.392 35.12 447.592 35.92 447.592 37.52C447.592 39.12 448.392 39.92 449.352 39.92C450.312 39.92 451.113 39.12 451.113 37.52ZM464.23 47.28L464.71 46L459.11 29.04H467.11L468.55 38L469.99 29.04H477.99L471.91 47.28C469.99 53.04 467.75 55.28 463.75 55.28C461.51 55.28 459.59 54 459.59 54L461.35 48.4C461.35 48.4 461.83 48.72 462.47 48.72C463.27 48.72 463.942 48.08 464.23 47.28ZM494.305 46H489.185L486.305 36.72V46H478.625V29.04H489.185L491.745 37.36L494.305 29.04H504.865V46H497.185V36.72L494.305 46ZM516.383 33.52C520.383 33.52 523.263 36.4 523.263 39.92C523.263 43.44 520.383 46.32 514.783 46.32C510.143 46.32 507.103 46 507.103 46V29.04H514.783V33.68C514.783 33.68 515.743 33.52 516.383 33.52ZM514.463 38.64V41.2C515.423 41.2 515.903 40.72 515.903 39.92C515.903 39.12 515.423 38.64 514.463 38.64ZM531.903 29.04V46H524.223V29.04H531.903ZM544.383 34.48V29.04H552.063V46H544.383V40.56H541.823V46H534.143V29.04H541.823V34.48H544.383ZM561.667 37.52C561.667 38.96 562.627 39.92 564.227 39.92C565.827 39.92 567.107 38.64 567.107 38.64L570.307 43.76C570.307 43.76 567.747 46.48 563.107 46.48C557.667 46.48 553.667 42.48 553.667 37.52C553.667 32.56 557.667 28.56 563.107 28.56C567.747 28.56 570.307 31.28 570.307 31.28L567.107 36.4C567.107 36.4 565.827 35.12 564.227 35.12C562.627 35.12 561.667 36.08 561.667 37.52ZM589.974 29.04L585.494 37.36L590.614 46H582.134L578.934 39.28V46H571.254V29.04H578.934V35.44L581.654 29.04H589.974ZM590.279 37.52C590.279 32.56 594.279 28.56 600.039 28.56C605.799 28.56 609.799 32.56 609.799 37.52C609.799 42.48 605.799 46.48 600.039 46.48C594.279 46.48 590.279 42.48 590.279 37.52ZM602.119 37.52C602.119 36.08 601.159 35.12 600.039 35.12C598.919 35.12 597.959 36.08 597.959 37.52C597.959 38.96 598.919 39.92 600.039 39.92C601.159 39.92 602.119 38.96 602.119 37.52ZM619.716 28.56C624.676 28.56 628.676 32.56 628.676 37.52C628.676 37.648 628.676 38.992 628.676 39.12H618.436C618.436 39.12 618.756 40.88 621.316 40.88C622.916 40.88 624.196 39.6 624.196 39.6L626.916 43.92C626.916 43.92 624.516 46.48 620.196 46.48C614.756 46.48 610.756 42.48 610.756 37.52C610.756 32.56 614.756 28.56 619.716 28.56ZM618.276 36.08H621.156C621.156 34.8 620.516 34.16 619.716 34.16C618.916 34.16 618.276 34.8 618.276 36.08ZM512.791 55.04L508.311 63.36L513.431 72H504.951L501.751 65.28V72H494.071V55.04H501.751V61.44L504.471 55.04H512.791ZM521.736 72H513.736V55.04H521.416V62.4L524.296 55.04H532.296V72H524.616V64.64L521.736 72ZM544.766 60.48V55.04H552.446V72H544.766V66.56H542.206V72H534.526V55.04H542.206V60.48H544.766ZM554.051 63.52C554.051 58.56 558.051 54.56 563.811 54.56C569.571 54.56 573.571 58.56 573.571 63.52C573.571 68.48 569.571 72.48 563.811 72.48C558.051 72.48 554.051 68.48 554.051 63.52ZM565.891 63.52C565.891 62.08 564.931 61.12 563.811 61.12C562.691 61.12 561.731 62.08 561.731 63.52C561.731 64.96 562.691 65.92 563.811 65.92C564.931 65.92 565.891 64.96 565.891 63.52Z" fill="#E73E26"/>
<path d="M208.499 468.68C218.099 468.68 225.779 476.36 225.779 494.12V521H202.739V494.12C202.739 490.28 200.819 488.36 198.899 488.36C196.979 488.36 195.059 490.28 195.059 494.12V521H172.019V470.12H194.099L196.019 475.88C196.019 475.88 199.859 468.68 208.499 468.68ZM251.736 522.44C242.136 522.44 234.456 514.76 234.456 497V470.12H257.496V497C257.496 500.84 259.416 502.76 261.336 502.76C263.256 502.76 265.176 500.84 265.176 497V470.12H288.216V521H266.136L264.216 515.24C264.216 515.24 260.376 522.44 251.736 522.44ZM365.031 468.68C374.631 468.68 382.311 476.36 382.311 494.12V521H359.271V494.12C359.271 490.28 357.351 488.36 355.431 488.36C353.511 488.36 351.591 490.28 351.591 494.12V521H328.551V494.12C328.551 490.28 326.631 488.36 324.711 488.36C322.791 488.36 320.871 490.28 320.871 494.12V521H297.831V470.12H319.911L321.831 475.88C321.831 475.88 325.671 468.68 335.271 468.68C344.871 468.68 349.671 477.8 349.671 477.8C349.671 477.8 355.431 468.68 365.031 468.68ZM413.485 468.68C429.805 468.68 441.805 480.68 441.805 495.56C441.805 503.816 441.805 513.512 441.805 521H419.725L417.805 515.24C417.805 515.24 413.965 522.44 405.325 522.44C394.765 522.44 388.045 515.72 388.045 506.6C388.045 497.48 394.765 490.76 411.085 490.76H418.765C418.765 490.76 417.805 485.48 410.125 485.48C405.325 485.48 401.485 489.32 401.485 489.32L393.325 476.36C393.325 476.36 400.525 468.68 413.485 468.68ZM413.965 507.08C416.365 507.08 418.765 504.68 418.765 498.92C413.485 498.92 411.085 501.32 411.085 504.2C411.085 505.64 412.525 507.08 413.965 507.08ZM474.456 475.88C474.456 475.88 478.296 468.68 485.976 468.68C489.816 468.68 492.696 470.12 492.696 470.12L488.856 491.24C488.856 491.24 485.016 489.32 482.136 489.32C477.336 489.32 473.496 493.16 473.496 499.88V521H450.456V470.12H472.536L474.456 475.88ZM513.861 522.44C504.261 522.44 496.581 514.76 496.581 497V470.12H519.621V497C519.621 500.84 521.541 502.76 523.461 502.76C525.381 502.76 527.301 500.84 527.301 497V470.12H550.341V521H528.261L526.341 515.24C526.341 515.24 522.501 522.44 513.861 522.44ZM559.956 521V449.96H582.996V521H559.956ZM368.868 574.2H374.628V592.44H368.868V603H343.908V592.44H316.068V574.2L340.068 535.8H368.868V574.2ZM338.148 574.2H343.908V561.72L338.148 574.2ZM434.118 574.2H439.878V592.44H434.118V603H409.158V592.44H381.318V574.2L405.318 535.8H434.118V574.2ZM403.398 574.2H409.158V561.72L403.398 574.2Z" fill="#F18B7D"/>
</svg>
