<svg width="448" height="1027" viewBox="0 0 448 1027" fill="none" xmlns="http://www.w3.org/2000/svg">
<path d="M-43.5 0.199219L-0.704773 322.163L174.96 51.0022L76.4095 360L350.152 193.349L129.774 428.18L447.376 399.046L148.82 513.199L447.376 627.352L129.774 598.218L350.152 833.049L76.4095 666.398L174.96 975.396L-0.704773 704.235L-43.5 1026.2L-86.2952 704.235L-261.96 975.396L-163.409 666.398L-437.152 833.049L-216.774 598.218L-534.376 627.352L-235.82 513.199L-534.376 399.046L-216.774 428.18L-437.152 193.349L-163.409 360L-261.96 51.0022L-86.2952 322.163L-43.5 0.199219Z" fill="#EADFC9"/>
</svg>
