<svg width="1457" height="706" viewBox="0 0 1457 706" fill="none" xmlns="http://www.w3.org/2000/svg">
<path d="M254.454 552H246.954V536.1H254.154V543L256.854 536.1H264.354V552H257.154V545.1L254.454 552ZM288.951 546.3H291.051V555.3H283.851V552H279.051V555.3H271.851V546.3H273.351C273.351 546.3 274.851 544.5 274.851 536.1H288.951V546.3ZM279.951 546.3H282.051V541.8H280.851C280.851 544.5 279.951 546.3 279.951 546.3ZM310.562 544.05C310.562 549.45 307.562 552.45 304.262 552.45C301.262 552.45 300.062 550.2 300.062 550.2V559.5H292.862V536.1H299.462C300.062 537.9 300.062 537.9 300.062 537.9C300.062 537.9 301.262 535.65 304.262 535.65C307.562 535.65 310.562 538.65 310.562 544.05ZM303.062 544.05C303.062 542.55 302.312 541.8 301.412 541.8C300.512 541.8 299.762 542.55 299.762 544.05C299.762 545.55 300.512 546.3 301.412 546.3C302.312 546.3 303.062 545.55 303.062 544.05ZM316.26 553.2L316.71 552L311.46 536.1H318.96L320.31 544.5L321.66 536.1H329.16L323.46 553.2C321.66 558.6 319.56 560.7 315.81 560.7C313.71 560.7 311.91 559.5 311.91 559.5L313.56 554.25C313.56 554.25 314.01 554.55 314.61 554.55C315.36 554.55 315.99 553.95 316.26 553.2ZM330.955 536.1H344.155V542.4H338.155V552H330.955V536.1ZM353.448 552H345.948V536.1H353.148V543L355.848 536.1H363.348V552H356.148V545.1L353.448 552ZM374.139 535.65C378.789 535.65 382.539 539.4 382.539 544.05C382.539 544.17 382.539 545.43 382.539 545.55H372.939C372.939 545.55 373.239 547.2 375.639 547.2C377.139 547.2 378.339 546 378.339 546L380.889 550.05C380.889 550.05 378.639 552.45 374.589 552.45C369.489 552.45 365.739 548.7 365.739 544.05C365.739 539.4 369.489 535.65 374.139 535.65ZM372.789 542.7H375.489C375.489 541.5 374.889 540.9 374.139 540.9C373.389 540.9 372.789 541.5 372.789 542.7ZM392.749 529.8L391.699 544.2H385.999L384.949 529.8H392.749ZM385.699 546H391.999V552H385.699V546Z" fill="#FFE1C3"/>
<path d="M248 522H390" stroke="#FFE1C3"/>
<rect y="470" width="1457" height="236" fill="#EADFC9"/>
<path d="M921.547 205.267C918.517 204.425 916.059 203.473 914.271 202.714C910.863 201.25 908.908 200.395 906.911 198.476C905.486 197.11 903.88 195.577 903.587 193.866C902.637 188.358 916.715 186.799 924.047 175.48C931.03 164.7 926.938 155.659 934.27 151.587C938.097 149.461 944.019 149.268 948.223 152.512C949.088 153.174 950.289 154.458 952.873 163.996C955.597 174.058 955.303 176.57 958.138 179.179C961.155 181.968 962.831 180.353 965.624 183.155C969.744 187.309 966.783 191.588 970.806 197.372C973.962 201.899 978.082 202.603 977.705 204.48C977.188 207.048 969.144 207.489 967.063 207.614C954.284 208.318 949.661 203.763 941.742 205.902C939.047 206.634 935.304 208.318 931.379 212.721" fill="#F7EECE"/>
<path d="M921.547 205.267C918.517 204.425 916.059 203.473 914.271 202.714C910.863 201.25 908.908 200.395 906.911 198.476C905.486 197.11 903.88 195.577 903.587 193.866C902.637 188.358 916.715 186.799 924.047 175.48C931.03 164.7 926.938 155.659 934.27 151.587C938.097 149.461 944.019 149.268 948.223 152.512C949.088 153.174 950.289 154.458 952.873 163.996C955.597 174.058 955.303 176.57 958.138 179.179C961.155 181.968 962.831 180.353 965.624 183.155C969.744 187.309 966.783 191.588 970.806 197.372C973.962 201.899 978.082 202.603 977.705 204.48C977.188 207.048 969.144 207.489 967.063 207.614C954.284 208.318 949.661 203.763 941.742 205.902C939.047 206.634 935.304 208.318 931.379 212.721" stroke="#797667" stroke-miterlimit="10"/>
<path d="M1187.57 179.801C1188.73 181.581 1190.42 183.928 1192.74 186.454C1194.23 188.069 1212.36 207.393 1226.48 201.596C1232.02 199.318 1236.97 193.176 1236.59 187.365C1235.99 178.103 1221.98 171.795 1222.5 171.008C1223.06 170.153 1237.46 181.858 1243.64 177.979C1247.95 175.287 1248.56 164.907 1243.95 159.814C1238.69 153.989 1228.66 157.288 1226.19 151.946C1224.45 148.206 1228.3 144.313 1226.49 142.56C1224.11 140.227 1217.63 147.364 1210.25 145.887C1201.76 144.189 1200.7 132.815 1194.62 132.87C1188.93 132.926 1188.53 142.947 1180.53 145.583C1170.95 148.744 1161.44 137.715 1157.56 141.042C1154.6 143.568 1160.34 149.793 1157.86 158.006C1154.82 168.123 1142.98 169.034 1143.16 175.26C1143.28 179.884 1149.83 180.022 1161.54 190.402C1169.39 197.358 1170.36 200.768 1175.32 201.913C1181.73 203.377 1188.19 199.539 1192.78 195.854" fill="#F7EECE"/>
<path d="M1187.57 179.801C1188.73 181.581 1190.42 183.928 1192.74 186.454C1194.23 188.069 1212.36 207.393 1226.48 201.596C1232.02 199.318 1236.97 193.176 1236.59 187.365C1235.99 178.103 1221.98 171.795 1222.5 171.008C1223.06 170.153 1237.46 181.858 1243.64 177.979C1247.95 175.287 1248.56 164.907 1243.95 159.814C1238.69 153.989 1228.66 157.288 1226.19 151.946C1224.45 148.206 1228.3 144.313 1226.49 142.56C1224.11 140.227 1217.63 147.364 1210.25 145.887C1201.76 144.189 1200.7 132.815 1194.62 132.87C1188.93 132.926 1188.53 142.947 1180.53 145.583C1170.95 148.744 1161.44 137.715 1157.56 141.042C1154.6 143.568 1160.34 149.793 1157.86 158.006C1154.82 168.123 1142.98 169.034 1143.16 175.26C1143.28 179.884 1149.83 180.022 1161.54 190.402C1169.39 197.358 1170.36 200.768 1175.32 201.913C1181.73 203.377 1188.19 199.539 1192.78 195.854" stroke="#797667" stroke-miterlimit="10"/>
<path d="M1048.01 200.892C1042.13 199.236 1037.12 197.635 1034.76 200.119C1032.34 202.659 1036.36 206.855 1034.76 215.275C1033.79 220.341 1031.99 220.672 1031.64 225.544C1031.21 231.563 1033.79 233.412 1032.42 236.076C1030.34 240.148 1021.34 241.722 1015.01 238.644C1007.02 234.765 1004.95 224.261 1003.84 218.615C1001.5 206.786 1004.74 199.788 1001.76 198.325C997.887 196.434 992.105 208.07 978.628 209.878C976.449 210.168 970.29 210.996 967.455 207.573C964.969 204.578 966.296 199.857 967.455 195.757C968.684 191.382 970.485 184.977 975.513 181.637C985.485 174.998 1001.11 185.088 1003.32 181.375C1004.91 178.711 996.267 174.294 996.309 167.254C996.351 157.095 1014.41 144.534 1027.75 147.736C1037.24 150.014 1040.01 159.248 1049.58 158.779C1055.36 158.489 1056.4 155.024 1061.26 155.439C1069.41 156.129 1068.33 172.913 1077.63 176.751" fill="#F7EECE"/>
<path d="M1048.01 200.892C1042.13 199.236 1037.12 197.635 1034.76 200.119C1032.34 202.659 1036.36 206.855 1034.76 215.275C1033.79 220.341 1031.99 220.672 1031.64 225.544C1031.21 231.563 1033.79 233.412 1032.42 236.076C1030.34 240.148 1021.34 241.722 1015.01 238.644C1007.02 234.765 1004.95 224.261 1003.84 218.615C1001.5 206.786 1004.74 199.788 1001.76 198.325C997.887 196.434 992.105 208.07 978.628 209.878C976.449 210.168 970.29 210.996 967.455 207.573C964.969 204.578 966.296 199.857 967.455 195.757C968.684 191.382 970.485 184.977 975.513 181.637C985.485 174.998 1001.11 185.088 1003.32 181.375C1004.91 178.711 996.267 174.294 996.309 167.254C996.351 157.095 1014.41 144.534 1027.75 147.736C1037.24 150.014 1040.01 159.248 1049.58 158.779C1055.36 158.489 1056.4 155.024 1061.26 155.439C1069.41 156.129 1068.33 172.913 1077.63 176.751" stroke="#797667" stroke-miterlimit="10"/>
<path d="M1150.54 150.455C1145.19 150.69 1137.6 151.821 1134.38 156.984C1129.63 164.589 1138.85 173.699 1134.74 179.855C1129.77 187.323 1108.66 185.322 1094.7 175.494C1091.49 173.23 1077 162.367 1079.27 150.082C1080.43 143.802 1085.43 140.006 1091.75 135.202C1094.25 133.298 1104.21 126.065 1119.67 123.58C1133.55 121.358 1144.98 124.077 1151.26 126.12" fill="#F7EECE"/>
<path d="M1150.54 150.455C1145.19 150.69 1137.6 151.821 1134.38 156.984C1129.63 164.589 1138.85 173.699 1134.74 179.855C1129.77 187.323 1108.66 185.322 1094.7 175.494C1091.49 173.23 1077 162.367 1079.27 150.082C1080.43 143.802 1085.43 140.006 1091.75 135.202C1094.25 133.298 1104.21 126.065 1119.67 123.58C1133.55 121.358 1144.98 124.077 1151.26 126.12" stroke="#797667" stroke-miterlimit="10"/>
<path d="M1273.63 80.1148C1277.5 81.1915 1280.63 82.3924 1282.92 83.3862C1287.28 85.2496 1289.76 86.3538 1292.32 88.7832C1294.14 90.5224 1296.19 92.4962 1296.57 94.6771C1297.78 101.717 1279.81 103.691 1270.45 118.142C1261.54 131.904 1266.76 143.457 1257.39 148.647C1252.5 151.353 1244.93 151.615 1239.58 147.474C1238.48 146.618 1236.96 144.989 1233.65 132.815C1230.17 119.964 1230.53 116.762 1226.93 113.436C1223.08 109.874 1220.94 111.931 1217.38 108.356C1212.11 103.042 1215.9 97.5896 1210.77 90.2049C1206.75 84.4214 1201.47 83.5242 1201.96 81.1225C1202.62 77.8374 1212.9 77.2714 1215.55 77.1334C1231.86 76.2362 1237.77 82.0611 1247.88 79.3142C1251.32 78.3756 1256.11 76.2224 1261.11 70.6045" fill="#F7EECE"/>
<path d="M1273.63 80.1148C1277.5 81.1915 1280.63 82.3924 1282.92 83.3862C1287.28 85.2496 1289.76 86.3538 1292.32 88.7832C1294.14 90.5224 1296.19 92.4962 1296.57 94.6771C1297.78 101.717 1279.81 103.691 1270.45 118.142C1261.54 131.904 1266.76 143.457 1257.39 148.647C1252.5 151.353 1244.93 151.615 1239.58 147.474C1238.48 146.618 1236.96 144.989 1233.65 132.815C1230.17 119.964 1230.53 116.762 1226.93 113.436C1223.08 109.874 1220.94 111.931 1217.38 108.356C1212.11 103.042 1215.9 97.5896 1210.77 90.2049C1206.75 84.4214 1201.47 83.5242 1201.96 81.1225C1202.62 77.8374 1212.9 77.2714 1215.55 77.1334C1231.86 76.2362 1237.77 82.0611 1247.88 79.3142C1251.32 78.3756 1256.11 76.2224 1261.11 70.6045" stroke="#797667" stroke-miterlimit="10"/>
<path d="M1096.85 50.838C1094.54 51.8318 1092.69 52.936 1091.32 53.8332C1088.73 55.5448 1087.24 56.5524 1085.73 58.7885C1084.65 60.3897 1083.43 62.1979 1083.2 64.1994C1082.49 70.6592 1093.17 72.4812 1098.73 85.746C1104.03 98.3758 1100.93 108.977 1106.5 113.752C1109.4 116.237 1113.9 116.472 1117.08 112.676C1117.74 111.889 1118.65 110.398 1120.62 99.2178C1122.68 87.43 1122.46 84.4899 1124.61 81.4256C1126.9 78.1543 1128.17 80.0453 1130.3 76.7602C1133.42 71.8877 1131.18 66.8772 1134.23 60.0998C1136.62 54.7856 1139.76 53.9713 1139.47 51.7628C1139.08 48.7537 1132.96 48.2292 1131.39 48.0911C1121.68 47.2629 1118.17 52.6186 1112.17 50.0926C1110.13 49.2368 1107.28 47.2491 1104.3 42.1006" fill="#F7EECE"/>
<path d="M1096.85 50.838C1094.54 51.8318 1092.69 52.936 1091.32 53.8332C1088.73 55.5448 1087.24 56.5524 1085.73 58.7885C1084.65 60.3897 1083.43 62.1979 1083.2 64.1994C1082.49 70.6592 1093.17 72.4812 1098.73 85.746C1104.03 98.3758 1100.93 108.977 1106.5 113.752C1109.4 116.237 1113.9 116.472 1117.08 112.676C1117.74 111.889 1118.65 110.398 1120.62 99.2178C1122.68 87.43 1122.46 84.4899 1124.61 81.4256C1126.9 78.1543 1128.17 80.0453 1130.3 76.7602C1133.42 71.8877 1131.18 66.8772 1134.23 60.0998C1136.62 54.7856 1139.76 53.9713 1139.47 51.7628C1139.08 48.7537 1132.96 48.2292 1131.39 48.0911C1121.68 47.2629 1118.17 52.6186 1112.17 50.0926C1110.13 49.2368 1107.28 47.2491 1104.3 42.1006" stroke="#797667" stroke-miterlimit="10"/>
<path d="M1298.77 80.695C1299.65 78.6107 1300.94 75.8501 1302.69 72.8963C1303.83 70.9914 1317.6 48.3682 1328.31 55.1455C1332.51 57.8095 1336.27 65.0147 1335.99 71.8196C1335.53 82.6827 1324.9 90.0673 1325.29 90.9783C1325.72 91.986 1336.65 78.2657 1341.34 82.8207C1344.59 85.9816 1345.07 98.1283 1341.58 104.119C1337.58 110.951 1329.97 107.073 1328.09 113.339C1326.77 117.715 1329.69 122.284 1328.32 124.34C1326.51 127.073 1321.59 118.709 1315.99 120.434C1309.55 122.422 1308.74 135.756 1304.13 135.7C1299.82 135.645 1299.51 123.899 1293.44 120.793C1286.16 117.08 1278.95 130.013 1275.99 126.121C1273.74 123.153 1278.1 115.865 1276.23 106.245C1273.92 94.4015 1264.93 93.311 1265.07 86.0092C1265.17 80.5846 1270.14 80.4328 1279.02 68.2584C1284.97 60.1008 1285.73 56.0979 1289.48 54.7728C1294.34 53.0474 1299.25 57.561 1302.74 61.8676" fill="#F7EECE"/>
<path d="M1298.77 80.695C1299.65 78.6107 1300.94 75.8501 1302.69 72.8963C1303.83 70.9914 1317.6 48.3682 1328.31 55.1455C1332.51 57.8095 1336.27 65.0147 1335.99 71.8196C1335.53 82.6827 1324.9 90.0673 1325.29 90.9783C1325.72 91.986 1336.65 78.2657 1341.34 82.8207C1344.59 85.9816 1345.07 98.1283 1341.58 104.119C1337.58 110.951 1329.97 107.073 1328.09 113.339C1326.77 117.715 1329.69 122.284 1328.32 124.34C1326.51 127.073 1321.59 118.709 1315.99 120.434C1309.55 122.422 1308.74 135.756 1304.13 135.7C1299.82 135.645 1299.51 123.899 1293.44 120.793C1286.16 117.08 1278.95 130.013 1275.99 126.121C1273.74 123.153 1278.1 115.865 1276.23 106.245C1273.92 94.4015 1264.93 93.311 1265.07 86.0092C1265.17 80.5846 1270.14 80.4328 1279.02 68.2584C1284.97 60.1008 1285.73 56.0979 1289.48 54.7728C1294.34 53.0474 1299.25 57.561 1302.74 61.8676" stroke="#797667" stroke-miterlimit="10"/>
<path d="M1202.9 109.253C1209.08 108.438 1215.56 95.9466 1215.32 84.2692C1214.99 68.5061 1202.38 55.3655 1192.84 55.9729C1188.2 56.2765 1184.57 59.7963 1182.78 56.87C1180.95 53.8886 1184 48.9885 1182.78 39.1054C1182.06 33.1701 1180.69 32.7836 1180.42 27.0691C1180.09 20.0157 1182.06 17.8487 1181.01 14.7292C1179.43 9.9533 1172.59 8.11748 1167.8 11.7201C1161.74 16.2751 1160.16 28.5875 1159.32 35.1992C1157.55 49.0575 1160.01 57.2703 1157.74 58.9819C1154.81 61.2042 1150.41 47.553 1140.19 45.4411C1138.53 45.096 1133.86 44.1298 1131.71 48.1465C1129.82 51.6663 1130.83 57.1875 1131.71 61.991C1132.65 67.1257 1134.01 74.6208 1137.83 78.5409C1145.4 86.3258 1157.27 74.5104 1158.93 78.8446C1160.13 81.9779 1153.58 87.1541 1153.61 95.3945C1153.64 107.293 1167.35 122.034 1177.48 118.266C1184.68 115.588 1186.79 104.767 1194.04 105.319C1198.43 105.65 1199.22 109.722 1202.92 109.225L1202.9 109.253Z" fill="#F7EECE" stroke="#797667" stroke-miterlimit="10"/>
<path d="M1270.67 115.091C1266.6 114.815 1260.85 113.49 1258.4 107.43C1254.8 98.5136 1261.8 87.8438 1258.68 80.6248C1254.91 71.8736 1238.89 74.2202 1228.29 85.732C1225.85 88.3822 1214.86 101.109 1216.58 115.519C1217.46 122.876 1221.25 127.335 1226.06 132.966C1227.96 135.188 1235.51 143.677 1247.25 146.576C1257.79 149.185 1266.46 145.982 1271.23 143.595" fill="#F7EECE"/>
<path d="M1270.67 115.091C1266.6 114.815 1260.85 113.49 1258.4 107.43C1254.8 98.5136 1261.8 87.8438 1258.68 80.6248C1254.91 71.8736 1238.89 74.2202 1228.29 85.732C1225.85 88.3822 1214.86 101.109 1216.58 115.519C1217.46 122.876 1221.25 127.335 1226.06 132.966C1227.96 135.188 1235.51 143.677 1247.25 146.576C1257.79 149.185 1266.46 145.982 1271.23 143.595" stroke="#797667" stroke-miterlimit="10"/>
<path d="M1349.84 204.47C1352.77 203.2 1367.47 194.846 1369.21 193.7C1372.52 191.519 1374.4 190.235 1376.34 187.364C1377.73 185.321 1379.28 183.016 1379.57 180.463C1380.49 172.222 1366.85 169.889 1359.75 152.967C1352.99 136.845 1356.94 123.304 1349.84 117.217C1346.12 114.042 1340.38 113.738 1336.32 118.597C1335.48 119.591 1334.32 121.496 1331.81 135.782C1329.17 150.841 1329.45 154.596 1326.71 158.502C1323.79 162.67 1322.15 160.255 1319.46 164.465C1315.47 170.69 1318.34 177.081 1314.45 185.735C1311.39 192.513 1307.39 193.562 1307.76 196.378C1308.26 200.215 1316.05 200.891 1318.08 201.057C1330.46 202.12 1334.93 195.287 1342.62 198.503C1345.23 199.594 1346.04 197.872 1349.84 204.47Z" fill="#F7EECE" stroke="#797667" stroke-miterlimit="10"/>
<path d="M971.795 124.463C970.887 125.981 969.56 127.997 967.745 130.15C966.586 131.53 952.368 148.053 941.321 143.097C936.977 141.151 933.109 135.892 933.402 130.923C933.877 123 944.84 117.603 944.435 116.94C943.988 116.209 932.718 126.216 927.872 122.903C924.506 120.598 924.017 111.723 927.634 107.361C931.754 102.378 939.617 105.208 941.558 100.625C942.913 97.4228 939.91 94.0962 941.321 92.5917C943.192 90.6041 948.276 96.6912 954.044 95.4351C960.692 93.9858 961.53 84.2546 966.278 84.296C970.733 84.3374 971.041 92.9092 977.311 95.1729C984.811 97.8783 992.269 88.4508 995.314 91.2942C997.632 93.4613 993.135 98.7755 995.076 105.801C997.464 114.456 1006.74 115.243 1006.6 120.571C1006.5 124.532 1001.36 124.643 992.199 133.518C986.054 139.467 985.286 142.393 981.403 143.36C976.376 144.616 971.334 141.33 967.717 138.183" fill="#F7EECE"/>
<path d="M971.795 124.463C970.887 125.981 969.56 127.997 967.745 130.15C966.586 131.53 952.368 148.053 941.321 143.097C936.977 141.151 933.109 135.892 933.402 130.923C933.877 123 944.84 117.603 944.435 116.94C943.988 116.209 932.718 126.216 927.872 122.903C924.506 120.598 924.017 111.723 927.634 107.361C931.754 102.378 939.617 105.208 941.558 100.625C942.913 97.4228 939.91 94.0962 941.321 92.5917C943.192 90.6041 948.276 96.6912 954.044 95.4351C960.692 93.9858 961.53 84.2546 966.278 84.296C970.733 84.3374 971.041 92.9092 977.311 95.1729C984.811 97.8783 992.269 88.4508 995.314 91.2942C997.632 93.4613 993.135 98.7755 995.076 105.801C997.464 114.456 1006.74 115.243 1006.6 120.571C1006.5 124.532 1001.36 124.643 992.199 133.518C986.054 139.467 985.286 142.393 981.403 143.36C976.376 144.616 971.334 141.33 967.717 138.183" stroke="#797667" stroke-miterlimit="10"/>
<path d="M1130.86 107.914C1130.17 106.133 1129.15 103.773 1127.78 101.247C1126.9 99.6181 1116.11 80.2662 1107.73 86.0635C1104.43 88.341 1101.48 94.4972 1101.72 100.336C1102.09 109.625 1110.41 115.947 1110.1 116.72C1109.77 117.576 1101.21 105.843 1097.53 109.736C1094.98 112.441 1094.61 122.835 1097.35 127.942C1100.48 133.781 1106.44 130.468 1107.92 135.837C1108.96 139.578 1106.67 143.484 1107.74 145.251C1109.17 147.584 1113.02 140.434 1117.39 141.911C1122.43 143.609 1123.08 155.024 1126.68 154.969C1130.06 154.913 1130.3 144.865 1135.06 142.214C1140.76 139.04 1146.41 150.096 1148.72 146.77C1150.48 144.23 1147.07 137.991 1148.54 129.778C1150.35 119.646 1157.39 118.722 1157.28 112.483C1157.2 107.845 1153.31 107.707 1146.34 97.313C1141.68 90.3424 1141.09 86.9193 1138.15 85.7736C1134.33 84.3105 1130.49 88.1616 1127.75 91.847" fill="#F7EECE"/>
<path d="M1130.86 107.914C1130.17 106.133 1129.15 103.773 1127.78 101.247C1126.9 99.6181 1116.11 80.2662 1107.73 86.0635C1104.43 88.341 1101.48 94.4972 1101.72 100.336C1102.09 109.625 1110.41 115.947 1110.1 116.72C1109.77 117.576 1101.21 105.843 1097.53 109.736C1094.98 112.441 1094.61 122.835 1097.35 127.942C1100.48 133.781 1106.44 130.468 1107.92 135.837C1108.96 139.578 1106.67 143.484 1107.74 145.251C1109.17 147.584 1113.02 140.434 1117.39 141.911C1122.43 143.609 1123.08 155.024 1126.68 154.969C1130.06 154.913 1130.3 144.865 1135.06 142.214C1140.76 139.04 1146.41 150.096 1148.72 146.77C1150.48 144.23 1147.07 137.991 1148.54 129.778C1150.35 119.646 1157.39 118.722 1157.28 112.483C1157.2 107.845 1153.31 107.707 1146.34 97.313C1141.68 90.3424 1141.09 86.9193 1138.15 85.7736C1134.33 84.3105 1130.49 88.1616 1127.75 91.847" stroke="#797667" stroke-miterlimit="10"/>
<path d="M1070.75 103.636C1064.37 104.23 1057.68 113.354 1057.93 121.87C1058.28 133.368 1071.28 142.961 1081.14 142.52C1085.92 142.299 1089.67 139.732 1091.52 141.857C1093.4 144.038 1090.26 147.613 1091.52 154.818C1092.27 159.152 1093.68 159.429 1093.96 163.611C1094.3 168.759 1092.29 170.333 1093.35 172.611C1094.98 176.089 1102.03 177.442 1106.99 174.805C1113.25 171.479 1114.87 162.493 1115.75 157.676C1117.58 147.558 1115.04 141.567 1117.38 140.325C1120.41 138.71 1124.94 148.662 1135.5 150.208C1137.2 150.457 1142.03 151.16 1144.25 148.234C1146.19 145.667 1145.16 141.636 1144.25 138.13C1143.29 134.376 1141.88 128.91 1137.94 126.053C1130.13 120.366 1117.89 128.993 1116.17 125.832C1114.92 123.554 1121.68 119.772 1121.67 113.754C1121.64 105.072 1107.49 94.3193 1097.03 97.0661C1089.6 99.0124 1087.43 106.908 1079.94 106.507C1075.41 106.259 1074.59 103.305 1070.78 103.65L1070.75 103.636Z" fill="#F7EECE" stroke="#797667" stroke-miterlimit="10"/>
<path d="M1000.81 99.3704C1004.99 99.5637 1010.94 100.53 1013.47 104.961C1017.19 111.476 1009.98 119.261 1013.18 124.52C1017.08 130.91 1033.6 129.199 1044.55 120.793C1047.06 118.86 1058.4 109.571 1056.63 99.053C1055.72 93.6836 1051.81 90.4398 1046.85 86.3265C1044.9 84.6977 1037.09 78.5139 1024.98 76.3883C1014.1 74.4834 1005.16 76.8162 1000.23 78.5554" fill="#F7EECE"/>
<path d="M1000.81 99.3704C1004.99 99.5637 1010.94 100.53 1013.47 104.961C1017.19 111.476 1009.98 119.261 1013.18 124.52C1017.08 130.91 1033.6 129.199 1044.55 120.793C1047.06 118.86 1058.4 109.571 1056.63 99.053C1055.72 93.6836 1051.81 90.4398 1046.85 86.3265C1044.9 84.6977 1037.09 78.5139 1024.98 76.3883C1014.1 74.4834 1005.16 76.8162 1000.23 78.5554" stroke="#797667" stroke-miterlimit="10"/>
<path d="M1205.95 132.332C1201.11 131.642 1196.02 120.944 1196.22 110.965C1196.48 97.4789 1206.36 86.2432 1213.83 86.7677C1217.46 87.0162 1220.31 90.0391 1221.71 87.5407C1223.15 84.9871 1220.76 80.791 1221.71 72.3573C1222.28 67.2778 1223.35 66.9465 1223.56 62.0602C1223.82 56.0282 1222.29 54.1786 1223.1 51.5008C1224.35 47.4151 1229.7 45.8415 1233.45 48.9334C1238.2 52.8259 1239.43 63.3577 1240.1 69.0169C1241.48 80.8738 1239.57 87.8858 1241.34 89.3489C1243.65 91.2399 1247.08 79.5763 1255.1 77.7681C1256.4 77.4782 1260.06 76.6501 1261.75 80.087C1263.23 83.0961 1262.43 87.8168 1261.75 91.9301C1261.01 96.3195 1259.95 102.738 1256.96 106.092C1251.02 112.745 1241.73 102.641 1240.42 106.354C1239.47 109.032 1244.61 113.463 1244.6 120.516C1244.57 130.689 1233.83 143.291 1225.9 140.075C1220.25 137.784 1218.61 128.536 1212.92 129.005C1209.49 129.295 1208.86 132.76 1205.97 132.346L1205.95 132.332Z" fill="#F7EECE" stroke="#797667" stroke-miterlimit="10"/>
<path d="M1152.88 137.328C1156.07 137.093 1160.58 135.962 1162.49 130.772C1165.31 123.138 1159.84 114.015 1162.27 107.845C1165.21 100.363 1177.77 102.365 1186.08 112.206C1187.99 114.47 1196.6 125.361 1195.26 137.673C1194.57 143.967 1191.6 147.777 1187.83 152.594C1186.35 154.499 1180.41 161.76 1171.22 164.244C1162.97 166.48 1156.18 163.747 1152.44 161.691" fill="#F7EECE"/>
<path d="M1152.88 137.328C1156.07 137.093 1160.58 135.962 1162.49 130.772C1165.31 123.138 1159.84 114.015 1162.27 107.845C1165.21 100.363 1177.77 102.365 1186.08 112.206C1187.99 114.47 1196.6 125.361 1195.26 137.673C1194.57 143.967 1191.6 147.777 1187.83 152.594C1186.35 154.499 1180.41 161.76 1171.22 164.244C1162.97 166.48 1156.18 163.747 1152.44 161.691" stroke="#797667" stroke-miterlimit="10"/>
<path d="M1170.41 67.0297C1171.57 65.0835 1173.26 62.5161 1175.58 59.7555C1177.07 57.9887 1195.2 36.8976 1209.32 43.2194C1214.86 45.7039 1219.81 52.4122 1219.43 58.7617C1218.83 68.8793 1204.82 75.7671 1205.34 76.6091C1205.9 77.5477 1220.3 64.766 1226.48 69.0036C1230.79 71.9436 1231.4 83.2622 1226.79 88.8386C1221.53 95.2019 1211.5 91.5854 1209.03 97.4379C1207.29 101.524 1211.14 105.775 1209.33 107.694C1206.95 110.233 1200.47 102.448 1193.09 104.063C1184.6 105.913 1183.54 118.336 1177.46 118.281C1171.77 118.225 1171.37 107.28 1163.37 104.395C1153.79 100.944 1144.28 112.98 1140.4 109.35C1137.44 106.589 1143.18 99.7983 1140.7 90.8401C1137.66 79.7976 1125.82 78.79 1126 71.9988C1126.12 66.9469 1132.67 66.795 1144.38 55.4627C1152.23 47.871 1153.2 44.1442 1158.16 42.9019C1164.57 41.3007 1171.02 45.4969 1175.62 49.5136" fill="#F7EECE"/>
<path d="M1170.41 67.0297C1171.57 65.0835 1173.26 62.5161 1175.58 59.7555C1177.07 57.9887 1195.2 36.8976 1209.32 43.2194C1214.86 45.7039 1219.81 52.4122 1219.43 58.7617C1218.83 68.8793 1204.82 75.7671 1205.34 76.6091C1205.9 77.5477 1220.3 64.766 1226.48 69.0036C1230.79 71.9436 1231.4 83.2622 1226.79 88.8386C1221.53 95.2019 1211.5 91.5854 1209.03 97.4379C1207.29 101.524 1211.14 105.775 1209.33 107.694C1206.95 110.233 1200.47 102.448 1193.09 104.063C1184.6 105.913 1183.54 118.336 1177.46 118.281C1171.77 118.225 1171.37 107.28 1163.37 104.395C1153.79 100.944 1144.28 112.98 1140.4 109.35C1137.44 106.589 1143.18 99.7983 1140.7 90.8401C1137.66 79.7976 1125.82 78.79 1126 71.9988C1126.12 66.9469 1132.67 66.795 1144.38 55.4627C1152.23 47.871 1153.2 44.1442 1158.16 42.9019C1164.57 41.3007 1171.02 45.4969 1175.62 49.5136" stroke="#797667" stroke-miterlimit="10"/>
<path d="M1044.1 93.6276C1052.24 92.8684 1060.79 81.2186 1060.47 70.3556C1060.03 55.6691 1043.41 43.4257 1030.84 43.9916C1024.74 44.2677 1019.95 47.5528 1017.59 44.8336C1015.18 42.0592 1019.2 37.4904 1017.59 28.2837C1016.63 22.7487 1014.83 22.3898 1014.48 17.0618C1014.04 10.4915 1016.63 8.47626 1015.26 5.56381C1013.18 1.11921 1004.17 -0.592376 997.843 2.76178C989.855 6.99933 987.788 18.4697 986.67 24.6397C984.338 37.5594 987.578 45.2063 984.589 46.7937C980.721 48.8641 974.939 36.1515 961.462 34.1776C959.283 33.8602 953.124 32.9492 950.289 36.7036C947.803 39.9749 949.13 45.1235 950.289 49.6095C951.518 54.3992 953.319 61.3836 958.347 65.0276C968.319 72.2742 983.947 61.2731 986.154 65.3036C987.746 68.2161 979.101 73.0334 979.143 80.7217C979.184 91.8056 997.243 105.54 1010.58 102.034C1020.08 99.5353 1022.84 89.459 1032.41 89.9698C1038.19 90.2734 1039.24 94.0693 1044.1 93.6138V93.6276Z" fill="#F7EECE" stroke="#797667" stroke-miterlimit="10"/>
<path d="M1133.37 99.0656C1128.02 98.8171 1120.43 97.5748 1117.21 91.9293C1112.46 83.6199 1121.68 73.6816 1117.57 66.9595C1112.6 58.8019 1091.5 60.9828 1077.53 71.7216C1074.32 74.1923 1059.84 86.0492 1062.1 99.4658C1063.26 106.326 1068.26 110.467 1074.58 115.712C1077.08 117.783 1087.04 125.692 1102.5 128.397C1116.38 130.827 1127.81 127.845 1134.09 125.623" fill="#F7EECE"/>
<path d="M1133.37 99.0656C1128.02 98.8171 1120.43 97.5748 1117.21 91.9293C1112.46 83.6199 1121.68 73.6816 1117.57 66.9595C1112.6 58.8019 1091.5 60.9828 1077.53 71.7216C1074.32 74.1923 1059.84 86.0492 1062.1 99.4658C1063.26 106.326 1068.26 110.467 1074.58 115.712C1077.08 117.783 1087.04 125.692 1102.5 128.397C1116.38 130.827 1127.81 127.845 1134.09 125.623" stroke="#797667" stroke-miterlimit="10"/>
<path d="M1101.13 171.528C1095.75 171.172 1088.13 169.388 1084.88 161.281C1080.11 149.349 1089.38 135.078 1085.25 125.425C1080.25 113.711 1059.03 116.843 1044.99 132.263C1041.76 135.811 1027.2 152.837 1029.48 172.103C1030.64 181.954 1035.67 187.9 1042.03 195.432C1044.54 198.405 1054.55 209.763 1070.1 213.648C1084.06 217.136 1095.54 212.855 1101.86 209.664" fill="#F7EECE"/>
<path d="M1101.13 171.528C1095.75 171.172 1088.13 169.388 1084.88 161.281C1080.11 149.349 1089.38 135.078 1085.25 125.425C1080.25 113.711 1059.03 116.843 1044.99 132.263C1041.76 135.811 1027.2 152.837 1029.48 172.103C1030.64 181.954 1035.67 187.9 1042.03 195.432C1044.54 198.405 1054.55 209.763 1070.1 213.648C1084.06 217.136 1095.54 212.855 1101.86 209.664" stroke="#797667" stroke-miterlimit="10"/>
<path d="M1256.47 175.866C1260.34 174.693 1263.46 173.368 1265.75 172.305C1270.11 170.262 1272.6 169.075 1275.15 166.411C1276.97 164.52 1279.02 162.367 1279.4 159.979C1280.61 152.291 1262.64 150.137 1253.28 134.361C1244.37 119.343 1249.6 106.727 1240.22 101.054C1235.34 98.086 1227.77 97.81 1222.42 102.337C1221.31 103.262 1219.79 105.043 1216.48 118.349C1213.01 132.373 1213.37 135.879 1209.76 139.509C1205.91 143.402 1203.77 141.152 1200.21 145.058C1194.95 150.855 1198.73 156.804 1193.61 164.879C1189.58 171.201 1184.3 172.167 1184.79 174.79C1185.45 178.365 1195.73 178.986 1198.38 179.152C1214.69 180.132 1220.6 173.768 1230.71 176.777C1234.15 177.799 1238.94 180.159 1243.94 186.288" fill="#F7EECE"/>
<path d="M1256.47 175.866C1260.34 174.693 1263.46 173.368 1265.75 172.305C1270.11 170.262 1272.6 169.075 1275.15 166.411C1276.97 164.52 1279.02 162.367 1279.4 159.979C1280.61 152.291 1262.64 150.137 1253.28 134.361C1244.37 119.343 1249.6 106.727 1240.22 101.054C1235.34 98.086 1227.77 97.81 1222.42 102.337C1221.31 103.262 1219.79 105.043 1216.48 118.349C1213.01 132.373 1213.37 135.879 1209.76 139.509C1205.91 143.402 1203.77 141.152 1200.21 145.058C1194.95 150.855 1198.73 156.804 1193.61 164.879C1189.58 171.201 1184.3 172.167 1184.79 174.79C1185.45 178.365 1195.73 178.986 1198.38 179.152C1214.69 180.132 1220.6 173.768 1230.71 176.777C1234.15 177.799 1238.94 180.159 1243.94 186.288" stroke="#797667" stroke-miterlimit="10"/>
<path d="M1079.68 207.821C1077.38 206.744 1075.52 205.529 1074.15 204.549C1071.57 202.686 1070.07 201.582 1068.57 199.138C1067.49 197.399 1066.26 195.425 1066.04 193.231C1065.33 186.177 1076.01 184.19 1081.57 169.71C1086.86 155.921 1083.76 144.34 1089.33 139.136C1092.24 136.417 1096.74 136.155 1099.92 140.31C1100.58 141.165 1101.48 142.794 1103.45 155.01C1105.52 167.888 1105.3 171.09 1107.45 174.445C1109.74 178.02 1111.01 175.949 1113.13 179.538C1116.26 184.852 1114.01 190.332 1117.07 197.73C1119.46 203.528 1122.6 204.425 1122.31 206.827C1121.92 210.112 1115.8 210.678 1114.22 210.83C1104.51 211.727 1101.01 205.888 1095 208.649C1092.96 209.587 1090.12 211.741 1087.14 217.386" fill="#F7EECE"/>
<path d="M1079.68 207.821C1077.38 206.744 1075.52 205.529 1074.15 204.549C1071.57 202.686 1070.07 201.582 1068.57 199.138C1067.49 197.399 1066.26 195.425 1066.04 193.231C1065.33 186.177 1076.01 184.19 1081.57 169.71C1086.86 155.921 1083.76 144.34 1089.33 139.136C1092.24 136.417 1096.74 136.155 1099.92 140.31C1100.58 141.165 1101.48 142.794 1103.45 155.01C1105.52 167.888 1105.3 171.09 1107.45 174.445C1109.74 178.02 1111.01 175.949 1113.13 179.538C1116.26 184.852 1114.01 190.332 1117.07 197.73C1119.46 203.528 1122.6 204.425 1122.31 206.827C1121.92 210.112 1115.8 210.678 1114.22 210.83C1104.51 211.727 1101.01 205.888 1095 208.649C1092.96 209.587 1090.12 211.741 1087.14 217.386" stroke="#797667" stroke-miterlimit="10"/>
<path d="M998.224 162.786C995.919 161.71 994.062 160.495 992.693 159.515C990.11 157.652 988.615 156.547 987.107 154.104C986.032 152.365 984.803 150.391 984.579 148.196C983.867 141.143 994.551 139.155 1000.11 124.676C1005.4 110.887 1002.3 99.3059 1007.87 94.1021C1010.78 91.3829 1015.28 91.1206 1018.46 95.2753C1019.12 96.1311 1020.02 97.7599 1021.99 109.976C1024.06 122.854 1023.84 126.056 1025.99 129.41C1028.28 132.985 1029.55 130.915 1031.67 134.504C1034.8 139.818 1032.55 145.298 1035.61 152.696C1038 158.494 1041.14 159.391 1040.85 161.793C1040.46 165.078 1034.34 165.644 1032.76 165.795C1023.06 166.693 1019.55 160.854 1013.54 163.615C1011.51 164.553 1008.66 166.706 1005.68 172.352" fill="#F7EECE"/>
<path d="M998.224 162.786C995.919 161.71 994.062 160.495 992.693 159.515C990.11 157.652 988.615 156.547 987.107 154.104C986.032 152.365 984.803 150.391 984.579 148.196C983.867 141.143 994.551 139.155 1000.11 124.676C1005.4 110.887 1002.3 99.3059 1007.87 94.1021C1010.78 91.3829 1015.28 91.1206 1018.46 95.2753C1019.12 96.1311 1020.02 97.7599 1021.99 109.976C1024.06 122.854 1023.84 126.056 1025.99 129.41C1028.28 132.985 1029.55 130.915 1031.67 134.504C1034.8 139.818 1032.55 145.298 1035.61 152.696C1038 158.494 1041.14 159.391 1040.85 161.793C1040.46 165.078 1034.34 165.644 1032.76 165.795C1023.06 166.693 1019.55 160.854 1013.54 163.615C1011.51 164.553 1008.66 166.706 1005.68 172.352" stroke="#797667" stroke-miterlimit="10"/>
<path d="M1281.6 175.231C1282.48 177.509 1283.77 180.518 1285.53 183.748C1286.66 185.818 1300.43 210.54 1311.14 203.127C1315.35 200.215 1319.1 192.347 1318.82 184.921C1318.36 173.064 1307.73 164.989 1308.13 163.995C1308.56 162.905 1319.48 177.881 1324.17 172.912C1327.43 169.462 1327.9 156.197 1324.41 149.668C1320.42 142.214 1312.8 146.438 1310.92 139.592C1309.61 134.802 1312.53 129.819 1311.16 127.583C1309.34 124.601 1304.42 133.725 1298.82 131.848C1292.39 129.681 1291.58 115.119 1286.97 115.188C1282.65 115.257 1282.34 128.08 1276.27 131.462C1268.99 135.506 1261.79 121.399 1258.83 125.65C1256.58 128.894 1260.93 136.845 1259.06 147.349C1256.76 160.282 1247.76 161.47 1247.9 169.434C1248 175.355 1252.97 175.521 1261.86 188.813C1267.81 197.716 1268.56 202.078 1272.32 203.541C1277.18 205.419 1282.08 200.491 1285.57 195.798" fill="#F7EECE"/>
<path d="M1281.6 175.231C1282.48 177.509 1283.77 180.518 1285.53 183.748C1286.66 185.818 1300.43 210.54 1311.14 203.127C1315.35 200.215 1319.1 192.347 1318.82 184.921C1318.36 173.064 1307.73 164.989 1308.13 163.995C1308.56 162.905 1319.48 177.881 1324.17 172.912C1327.43 169.462 1327.9 156.197 1324.41 149.668C1320.42 142.214 1312.8 146.438 1310.92 139.592C1309.61 134.802 1312.53 129.819 1311.16 127.583C1309.34 124.601 1304.42 133.725 1298.82 131.848C1292.39 129.681 1291.58 115.119 1286.97 115.188C1282.65 115.257 1282.34 128.08 1276.27 131.462C1268.99 135.506 1261.79 121.399 1258.83 125.65C1256.58 128.894 1260.93 136.845 1259.06 147.349C1256.76 160.282 1247.76 161.47 1247.9 169.434C1248 175.355 1252.97 175.521 1261.86 188.813C1267.81 197.716 1268.56 202.078 1272.32 203.541C1277.18 205.419 1282.08 200.491 1285.57 195.798" stroke="#797667" stroke-miterlimit="10"/>
<path d="M1303.15 146.623C1304.03 148.9 1305.32 151.909 1307.08 155.139C1308.21 157.21 1321.98 181.931 1332.69 174.519C1336.89 171.606 1340.65 163.739 1340.37 156.313C1339.91 144.456 1329.28 136.381 1329.67 135.387C1330.11 134.297 1341.03 149.273 1345.72 144.304C1348.97 140.853 1349.45 127.588 1345.96 121.059C1341.96 113.606 1334.35 117.83 1332.47 110.983C1331.15 106.194 1334.07 101.211 1332.7 98.9745C1330.89 95.993 1325.97 105.117 1320.37 103.24C1313.93 101.073 1313.12 86.5103 1308.51 86.5793C1304.2 86.6484 1303.89 99.4715 1297.82 102.853C1290.54 106.898 1283.33 92.7907 1280.37 97.0421C1278.12 100.286 1282.48 108.236 1280.61 118.741C1278.31 131.674 1269.31 132.861 1269.45 140.826C1269.55 146.747 1274.52 146.913 1283.4 160.205C1289.35 169.108 1290.11 173.47 1293.86 174.933C1298.72 176.81 1303.63 171.883 1307.12 167.189" fill="#F7EECE"/>
<path d="M1303.15 146.623C1304.03 148.9 1305.32 151.909 1307.08 155.139C1308.21 157.21 1321.98 181.931 1332.69 174.519C1336.89 171.606 1340.65 163.739 1340.37 156.313C1339.91 144.456 1329.28 136.381 1329.67 135.387C1330.11 134.297 1341.03 149.273 1345.72 144.304C1348.97 140.853 1349.45 127.588 1345.96 121.059C1341.96 113.606 1334.35 117.83 1332.47 110.983C1331.15 106.194 1334.07 101.211 1332.7 98.9745C1330.89 95.993 1325.97 105.117 1320.37 103.24C1313.93 101.073 1313.12 86.5103 1308.51 86.5793C1304.2 86.6484 1303.89 99.4715 1297.82 102.853C1290.54 106.898 1283.33 92.7907 1280.37 97.0421C1278.12 100.286 1282.48 108.236 1280.61 118.741C1278.31 131.674 1269.31 132.861 1269.45 140.826C1269.55 146.747 1274.52 146.913 1283.4 160.205C1289.35 169.108 1290.11 173.47 1293.86 174.933C1298.72 176.81 1303.63 171.883 1307.12 167.189" stroke="#797667" stroke-miterlimit="10"/>
<path d="M1185.73 141.746C1191.92 142.436 1198.4 153.092 1198.16 163.03C1197.83 176.46 1185.21 187.655 1175.68 187.13C1171.04 186.882 1167.41 183.873 1165.62 186.357C1163.79 188.897 1166.84 193.079 1165.62 201.485C1164.89 206.551 1163.53 206.869 1163.26 211.741C1162.92 217.745 1164.89 219.595 1163.85 222.259C1162.27 226.331 1155.42 227.891 1150.63 224.826C1144.57 220.948 1142.99 210.457 1142.16 204.826C1140.38 193.01 1142.84 186.026 1140.58 184.577C1137.65 182.686 1133.25 194.308 1123.02 196.116C1121.36 196.406 1116.7 197.234 1114.55 193.811C1112.66 190.816 1113.67 186.109 1114.55 182.023C1115.48 177.647 1116.85 171.257 1120.66 167.916C1128.23 161.291 1140.1 171.353 1141.77 167.654C1142.97 164.99 1136.42 160.587 1136.44 153.547C1136.47 143.402 1150.19 130.855 1160.31 134.057C1167.52 136.335 1169.63 145.555 1176.88 145.086C1181.26 144.796 1182.06 141.345 1185.76 141.759L1185.73 141.746Z" fill="#F7EECE" stroke="#797667" stroke-miterlimit="10"/>
<path d="M1253.51 137.672C1249.44 137.962 1243.69 139.411 1241.24 146.037C1237.64 155.782 1244.64 167.418 1241.52 175.299C1237.75 184.851 1221.73 182.298 1211.13 169.723C1208.69 166.824 1197.7 152.925 1199.42 137.203C1200.3 129.169 1204.09 124.311 1208.9 118.155C1210.8 115.725 1218.35 106.463 1230.09 103.289C1240.63 100.445 1249.3 103.937 1254.07 106.546" fill="#F7EECE"/>
<path d="M1253.51 137.672C1249.44 137.962 1243.69 139.411 1241.24 146.037C1237.64 155.782 1244.64 167.418 1241.52 175.299C1237.75 184.851 1221.73 182.298 1211.13 169.723C1208.69 166.824 1197.7 152.925 1199.42 137.203C1200.3 129.169 1204.09 124.311 1208.9 118.155C1210.8 115.725 1218.35 106.463 1230.09 103.289C1240.63 100.445 1249.3 103.937 1254.07 106.546" stroke="#797667" stroke-miterlimit="10"/>
<path d="M1062.41 158.989C1063.57 157.042 1065.26 154.475 1067.58 151.714C1069.08 149.948 1087.2 128.857 1101.32 135.178C1106.87 137.663 1111.81 144.371 1111.44 150.721C1110.83 160.838 1096.83 167.726 1097.34 168.568C1097.9 169.507 1112.3 156.725 1118.49 160.963C1122.79 163.903 1123.4 175.221 1118.8 180.798C1113.53 187.161 1103.5 183.544 1101.03 189.397C1099.3 193.483 1103.14 197.734 1101.34 199.653C1098.95 202.192 1092.47 194.407 1085.1 196.022C1076.6 197.872 1075.54 210.295 1069.47 210.24C1063.77 210.184 1063.38 199.239 1055.38 196.354C1045.79 192.903 1036.28 204.939 1032.4 201.309C1029.44 198.548 1035.18 191.757 1032.71 182.799C1029.66 171.757 1017.82 170.749 1018 163.958C1018.13 158.906 1024.68 158.754 1036.38 147.422C1044.23 139.83 1045.21 136.103 1050.17 134.861C1056.58 133.26 1063.03 137.456 1067.62 141.473" fill="#F7EECE"/>
<path d="M1062.41 158.989C1063.57 157.042 1065.26 154.475 1067.58 151.714C1069.08 149.948 1087.2 128.857 1101.32 135.178C1106.87 137.663 1111.81 144.371 1111.44 150.721C1110.83 160.838 1096.83 167.726 1097.34 168.568C1097.9 169.507 1112.3 156.725 1118.49 160.963C1122.79 163.903 1123.4 175.221 1118.8 180.798C1113.53 187.161 1103.5 183.544 1101.03 189.397C1099.3 193.483 1103.14 197.734 1101.34 199.653C1098.95 202.192 1092.47 194.407 1085.1 196.022C1076.6 197.872 1075.54 210.295 1069.47 210.24C1063.77 210.184 1063.38 199.239 1055.38 196.354C1045.79 192.903 1036.28 204.939 1032.4 201.309C1029.44 198.548 1035.18 191.757 1032.71 182.799C1029.66 171.757 1017.82 170.749 1018 163.958C1018.13 158.906 1024.68 158.754 1036.38 147.422C1044.23 139.83 1045.21 136.103 1050.17 134.861C1056.58 133.26 1063.03 137.456 1067.62 141.473" stroke="#797667" stroke-miterlimit="10"/>
<path d="M411.316 167.43L486 141.999L597.499 597.217L501 597.216L411.316 167.43Z" fill="#993C29"/>
<path d="M181.5 141H487V605H152L181.5 141Z" fill="#E73E26"/>
<path d="M175.526 587.5L197.475 154.5H464.985L452.514 587.5H175.526Z" stroke="#FFE1C3"/>
<ellipse cx="1146.5" cy="158" rx="214.5" ry="61" fill="#F7EECE"/>
<path d="M1011.13 588.555C1027.45 596.271 1051.99 606.209 1083.06 612.531C1131.7 622.428 1170.78 618.287 1205.34 614.326C1229.35 611.579 1262.06 606.154 1300.05 594.546L1381.57 210.916L1105.84 217.514L932 210.916" fill="#E73E26"/>
<path d="M1236.18 217.585L1281.11 215.983" stroke="#797667" stroke-miterlimit="10"/>
<path d="M994.424 120.181C993.527 118.787 992.215 116.951 990.421 114.963C989.275 113.694 975.224 98.5654 964.306 103.093C960.013 104.873 956.189 109.691 956.479 114.246C956.948 121.506 967.784 126.448 967.384 127.055C966.942 127.731 955.803 118.552 951.013 121.603C947.687 123.715 947.204 131.831 950.779 135.834C954.85 140.403 962.622 137.808 964.54 142.004C965.879 144.93 962.911 147.98 964.306 149.361C966.155 151.183 971.179 145.606 976.88 146.752C983.45 148.077 984.279 156.994 988.972 156.952C993.375 156.911 993.679 149.057 999.876 146.987C1007.29 144.502 1014.66 153.143 1017.67 150.548C1019.96 148.56 1015.52 143.688 1017.43 137.269C1019.79 129.346 1028.96 128.629 1028.82 123.742C1028.72 120.112 1023.65 120.015 1014.59 111.885C1008.52 106.433 1007.76 103.755 1003.92 102.872C998.951 101.726 993.968 104.735 990.393 107.62" fill="#F7EECE"/>
<path d="M994.424 120.181C993.527 118.787 992.215 116.951 990.421 114.963C989.275 113.694 975.224 98.5654 964.306 103.093C960.013 104.873 956.189 109.691 956.479 114.246C956.948 121.506 967.784 126.448 967.384 127.055C966.942 127.731 955.803 118.552 951.013 121.603C947.687 123.715 947.204 131.831 950.779 135.834C954.85 140.403 962.622 137.808 964.54 142.004C965.879 144.93 962.911 147.98 964.306 149.361C966.155 151.183 971.179 145.606 976.88 146.752C983.45 148.077 984.279 156.994 988.972 156.952C993.375 156.911 993.679 149.057 999.876 146.987C1007.29 144.502 1014.66 153.143 1017.67 150.548C1019.96 148.56 1015.52 143.688 1017.43 137.269C1019.79 129.346 1028.96 128.629 1028.82 123.742C1028.72 120.112 1023.65 120.015 1014.59 111.885C1008.52 106.433 1007.76 103.755 1003.92 102.872C998.951 101.726 993.968 104.735 990.393 107.62" stroke="#797667" stroke-miterlimit="10"/>
<path d="M1151.63 135.351C1150.95 136.98 1149.94 139.147 1148.59 141.466C1147.72 142.957 1137.05 160.68 1128.77 155.366C1125.51 153.282 1122.6 147.636 1122.83 142.294C1123.19 133.792 1131.42 127.994 1131.12 127.276C1130.78 126.49 1122.32 137.229 1118.69 133.667C1116.17 131.197 1115.81 121.672 1118.51 116.993C1121.61 111.638 1127.5 114.674 1128.96 109.76C1129.98 106.323 1127.72 102.748 1128.78 101.147C1130.19 99.0077 1134 105.55 1138.32 104.212C1143.3 102.652 1143.94 92.2028 1147.5 92.258C1150.84 92.3132 1151.08 101.506 1155.78 103.935C1161.41 106.834 1167 96.7164 1169.28 99.7669C1171.02 102.086 1167.65 107.8 1169.1 115.337C1170.9 124.613 1177.85 125.468 1177.74 131.183C1177.66 135.434 1173.82 135.558 1166.94 145.082C1162.32 151.473 1161.75 154.607 1158.83 155.642C1155.06 156.995 1151.27 153.461 1148.56 150.079" fill="#F7EECE"/>
<path d="M1151.63 135.351C1150.95 136.98 1149.94 139.147 1148.59 141.466C1147.72 142.957 1137.05 160.68 1128.77 155.366C1125.51 153.282 1122.6 147.636 1122.83 142.294C1123.19 133.792 1131.42 127.994 1131.12 127.276C1130.78 126.49 1122.32 137.229 1118.69 133.667C1116.17 131.197 1115.81 121.672 1118.51 116.993C1121.61 111.638 1127.5 114.674 1128.96 109.76C1129.98 106.323 1127.72 102.748 1128.78 101.147C1130.19 99.0077 1134 105.55 1138.32 104.212C1143.3 102.652 1143.94 92.2028 1147.5 92.258C1150.84 92.3132 1151.08 101.506 1155.78 103.935C1161.41 106.834 1167 96.7164 1169.28 99.7669C1171.02 102.086 1167.65 107.8 1169.1 115.337C1170.9 124.613 1177.85 125.468 1177.74 131.183C1177.66 135.434 1173.82 135.558 1166.94 145.082C1162.32 151.473 1161.75 154.607 1158.83 155.642C1155.06 156.995 1151.27 153.461 1148.56 150.079" stroke="#797667" stroke-miterlimit="10"/>
<path d="M923 198.772L927.556 210.333C971.451 216.632 1018.54 221.298 1068.5 223.439C1120.39 225.649 1145.2 220.649 1241.58 220.158C1260.66 220.07 1279.73 218.93 1298.8 219.263C1324.05 219.719 1349.56 210.474 1374.49 215.772C1375.08 215.895 1377.44 216.439 1379.74 214.895C1382.99 212.737 1386 206.632 1384.69 200.298C1383.44 194.281 1378.71 190.193 1373.67 191.14L1015.73 202.86L927.543 191" fill="#EDEDED"/>
<path d="M1092.22 139.273C1085.91 138.734 1079.3 130.37 1079.55 122.571C1079.89 112.039 1092.74 103.247 1102.49 103.661C1107.21 103.854 1110.92 106.214 1112.74 104.268C1114.61 102.28 1111.5 98.9953 1112.74 92.3974C1113.49 88.4221 1114.88 88.1736 1115.16 84.3502C1115.49 79.6295 1113.5 78.194 1114.55 76.0959C1116.17 72.9074 1123.14 71.679 1128.04 74.0807C1134.22 77.1174 1135.82 85.3578 1136.69 89.7748C1138.5 99.0367 1135.99 104.53 1138.31 105.662C1141.3 107.139 1145.77 98.029 1156.21 96.6073C1157.89 96.3727 1162.67 95.7239 1164.86 98.4155C1166.78 100.762 1165.76 104.461 1164.86 107.664C1163.91 111.101 1162.52 116.111 1158.62 118.734C1150.91 123.937 1138.8 116.042 1137.1 118.941C1135.88 121.039 1142.56 124.49 1142.54 130.011C1142.52 137.961 1128.53 147.817 1118.19 145.305C1110.85 143.51 1108.7 136.291 1101.3 136.65C1096.83 136.871 1096.01 139.59 1092.24 139.259L1092.22 139.273Z" fill="#F7EECE" stroke="#797667" stroke-miterlimit="10"/>
<path d="M1092.22 139.273C1085.91 138.734 1079.3 130.37 1079.55 122.571C1079.89 112.039 1092.74 103.247 1102.49 103.661C1107.21 103.854 1110.92 106.214 1112.74 104.268C1114.61 102.28 1111.5 98.9953 1112.74 92.3974C1113.49 88.4221 1114.88 88.1736 1115.16 84.3502C1115.49 79.6295 1113.5 78.194 1114.55 76.0959C1116.17 72.9074 1123.14 71.679 1128.04 74.0807C1134.22 77.1174 1135.82 85.3578 1136.69 89.7748C1138.5 99.0367 1135.99 104.53 1138.31 105.662C1141.3 107.139 1145.77 98.029 1156.21 96.6073C1157.89 96.3727 1162.67 95.7239 1164.86 98.4155C1166.78 100.762 1165.76 104.461 1164.86 107.664C1163.91 111.101 1162.52 116.111 1158.62 118.734C1150.91 123.937 1138.8 116.042 1137.1 118.941C1135.88 121.039 1142.56 124.49 1142.54 130.011C1142.52 137.961 1128.53 147.817 1118.19 145.305C1110.85 143.51 1108.7 136.291 1101.3 136.65C1096.83 136.871 1096.01 139.59 1092.24 139.259L1092.22 139.273Z" fill="#F7EECE" stroke="#797667" stroke-miterlimit="10"/>
<path d="M942.678 195.452C936.37 194.914 929.758 186.549 930.007 178.751C930.352 168.219 943.203 159.426 952.948 159.84C957.668 160.034 961.381 162.394 963.203 160.448C965.067 158.46 961.961 155.175 963.203 148.577C963.949 144.602 965.343 144.353 965.619 140.53C965.95 135.809 963.962 134.374 965.011 132.276C966.626 129.087 973.597 127.859 978.497 130.26C984.681 133.297 986.282 141.538 987.152 145.955C988.96 155.216 986.448 160.71 988.767 161.842C991.762 163.319 996.234 154.209 1006.67 152.787C1008.35 152.552 1013.13 151.904 1015.32 154.595C1017.24 156.942 1016.22 160.641 1015.32 163.843C1014.37 167.28 1012.98 172.291 1009.08 174.913C1001.37 180.117 989.264 172.222 987.566 175.12C986.337 177.219 993.018 180.669 993.004 186.191C992.977 194.141 978.994 203.997 968.655 201.484C961.312 199.69 959.159 192.471 951.76 192.83C947.288 193.051 946.474 195.77 942.706 195.439L942.678 195.452Z" fill="#F7EECE" stroke="#797667" stroke-miterlimit="10"/>
<path d="M1023.09 143.178C1027.23 142.999 1033.11 142.115 1035.61 138.057C1039.28 132.094 1032.16 124.972 1035.32 120.141C1039.17 114.288 1055.5 115.862 1066.32 123.55C1068.81 125.317 1080.02 133.833 1078.26 143.454C1077.37 148.368 1073.5 151.35 1068.6 155.118C1066.67 156.609 1058.95 162.282 1046.99 164.214C1036.23 165.953 1027.4 163.828 1022.53 162.226" fill="#F7EECE"/>
<path d="M1023.09 143.178C1027.23 142.999 1033.11 142.115 1035.61 138.057C1039.28 132.094 1032.16 124.972 1035.32 120.141C1039.17 114.288 1055.5 115.862 1066.32 123.55C1068.81 125.317 1080.02 133.833 1078.26 143.454C1077.37 148.368 1073.5 151.35 1068.6 155.118C1066.67 156.609 1058.95 162.282 1046.99 164.214C1036.23 165.953 1027.4 163.828 1022.53 162.226" stroke="#797667" stroke-miterlimit="10"/>
<path d="M1225.85 112.991C1221.06 113.626 1216.03 123.412 1216.23 132.564C1216.49 144.917 1226.25 155.201 1233.63 154.731C1237.22 154.497 1240.04 151.736 1241.42 154.028C1242.84 156.36 1240.48 160.211 1241.42 167.941C1241.98 172.593 1243.05 172.896 1243.25 177.369C1243.5 182.89 1242 184.588 1242.8 187.031C1244.03 190.771 1249.31 192.207 1253.03 189.391C1257.72 185.83 1258.93 176.181 1259.6 171.005C1260.96 160.142 1259.07 153.724 1260.82 152.385C1263.1 150.646 1266.5 161.329 1274.42 163C1275.7 163.262 1279.32 164.021 1280.99 160.874C1282.45 158.127 1281.67 153.793 1280.99 150.025C1280.26 146.008 1279.21 140.128 1276.26 137.063C1270.39 130.963 1261.21 140.224 1259.91 136.829C1258.97 134.372 1264.05 130.328 1264.04 123.868C1264.01 114.551 1253.4 103.011 1245.56 105.951C1239.98 108.049 1238.35 116.525 1232.73 116.083C1229.34 115.821 1228.72 112.632 1225.86 113.019L1225.85 112.991Z" fill="#F7EECE" stroke="#797667" stroke-miterlimit="10"/>
<path d="M1173.4 108.409C1176.54 108.616 1181 109.665 1182.89 114.413C1185.68 121.398 1180.27 129.749 1182.67 135.408C1185.58 142.268 1197.99 140.432 1206.21 131.405C1208.1 129.335 1216.6 119.355 1215.28 108.078C1214.6 102.308 1211.66 98.8297 1207.93 94.4127C1206.47 92.6735 1200.6 86.0204 1191.52 83.7429C1183.36 81.7001 1176.65 84.1984 1172.96 86.0756" fill="#F7EECE"/>
<path d="M1173.4 108.409C1176.54 108.616 1181 109.665 1182.89 114.413C1185.68 121.398 1180.27 129.749 1182.67 135.408C1185.58 142.268 1197.99 140.432 1206.21 131.405C1208.1 129.335 1216.6 119.355 1215.28 108.078C1214.6 102.308 1211.66 98.8297 1207.93 94.4127C1206.47 92.6735 1200.6 86.0204 1191.52 83.7429C1183.36 81.7001 1176.65 84.1984 1172.96 86.0756" stroke="#797667" stroke-miterlimit="10"/>
<path d="M1160.69 190.452C1154.38 189.914 1147.77 181.549 1148.02 173.751C1148.36 163.219 1161.21 154.426 1170.96 154.84C1175.68 155.034 1179.39 157.394 1181.21 155.448C1183.08 153.46 1179.97 150.175 1181.21 143.577C1181.96 139.602 1183.35 139.353 1183.63 135.53C1183.96 130.809 1181.97 129.374 1183.02 127.276C1184.64 124.087 1191.61 122.859 1196.51 125.26C1202.69 128.297 1204.29 136.538 1205.16 140.955C1206.97 150.216 1204.46 155.71 1206.78 156.842C1209.77 158.319 1214.25 149.209 1224.68 147.787C1226.36 147.552 1231.14 146.904 1233.34 149.595C1235.25 151.942 1234.23 155.641 1233.34 158.843C1232.38 162.28 1230.99 167.291 1227.1 169.913C1219.38 175.117 1207.28 167.222 1205.58 170.12C1204.35 172.219 1211.03 175.669 1211.02 181.191C1210.99 189.141 1197.01 198.997 1186.67 196.484C1179.32 194.69 1177.17 187.471 1169.77 187.83C1165.3 188.051 1164.49 190.77 1160.72 190.439L1160.69 190.452Z" fill="#F7EECE" stroke="#797667" stroke-miterlimit="10"/>
<path d="M1092.57 175.581C1096.71 175.402 1102.59 174.519 1105.09 170.46C1108.76 164.497 1101.63 157.375 1104.8 152.544C1108.65 146.692 1124.98 148.265 1135.8 155.953C1138.28 157.72 1149.49 166.237 1147.74 175.857C1146.84 180.771 1142.97 183.753 1138.07 187.521C1136.14 189.012 1128.43 194.685 1116.46 196.617C1105.71 198.357 1096.87 196.231 1092 194.63" fill="#F7EECE"/>
<path d="M1092.57 175.581C1096.71 175.402 1102.59 174.519 1105.09 170.46C1108.76 164.497 1101.63 157.375 1104.8 152.544C1108.65 146.692 1124.98 148.265 1135.8 155.953C1138.28 157.72 1149.49 166.237 1147.74 175.857C1146.84 180.771 1142.97 183.753 1138.07 187.521C1136.14 189.012 1128.43 194.685 1116.46 196.617C1105.71 198.357 1096.87 196.231 1092 194.63" stroke="#797667" stroke-miterlimit="10"/>
<path d="M1294.63 124.507C1289.84 125.141 1284.81 134.928 1285.01 144.079C1285.27 156.433 1295.03 166.716 1302.41 166.247C1306 166.012 1308.82 163.252 1310.2 165.543C1311.62 167.876 1309.26 171.727 1310.2 179.457C1310.76 184.108 1311.82 184.412 1312.03 188.884C1312.28 194.405 1310.78 196.103 1311.58 198.546C1312.8 202.287 1318.09 203.723 1321.8 200.907C1326.5 197.345 1327.71 187.697 1328.37 182.521C1329.74 171.658 1327.85 165.239 1329.6 163.901C1331.88 162.161 1335.28 172.845 1343.2 174.515C1344.48 174.777 1348.1 175.537 1349.77 172.389C1351.23 169.643 1350.45 165.308 1349.77 161.54C1349.04 157.524 1347.99 151.643 1345.04 148.579C1339.17 142.478 1329.99 151.74 1328.69 148.344C1327.75 145.888 1332.83 141.843 1332.82 135.383C1332.79 126.066 1322.18 114.527 1314.34 117.467C1308.76 119.565 1307.13 128.04 1301.51 127.598C1298.12 127.336 1297.5 124.148 1294.64 124.534L1294.63 124.507Z" fill="#F7EECE" stroke="#797667" stroke-miterlimit="10"/>
<path d="M1241.87 159.589C1245.02 159.796 1249.47 160.845 1251.37 165.593C1254.15 172.577 1248.74 180.928 1251.15 186.588C1254.06 193.448 1266.47 191.612 1274.68 182.585C1276.57 180.514 1285.07 170.535 1283.75 159.257C1283.07 153.488 1280.13 150.009 1276.4 145.592C1274.94 143.853 1269.08 137.2 1259.99 134.923C1251.84 132.88 1245.13 135.378 1241.43 137.255" fill="#F7EECE"/>
<path d="M1241.87 159.589C1245.02 159.796 1249.47 160.845 1251.37 165.593C1254.15 172.577 1248.74 180.928 1251.15 186.588C1254.06 193.448 1266.47 191.612 1274.68 182.585C1276.57 180.514 1285.07 170.535 1283.75 159.257C1283.07 153.488 1280.13 150.009 1276.4 145.592C1274.94 143.853 1269.08 137.2 1259.99 134.923C1251.84 132.88 1245.13 135.378 1241.43 137.255" stroke="#797667" stroke-miterlimit="10"/>
<path fill-rule="evenodd" clip-rule="evenodd" d="M1016 335H1302V358.861C1301.39 358.607 1300.71 358.465 1300 358.465C1297.33 358.465 1295.17 360.452 1295.17 362.902C1295.17 365.353 1297.33 367.339 1300 367.339C1300.71 367.339 1301.39 367.198 1302 366.943V371.679C1301.39 371.425 1300.71 371.283 1300 371.283C1297.33 371.283 1295.17 373.27 1295.17 375.72C1295.17 378.171 1297.33 380.157 1300 380.157C1300.71 380.157 1301.39 380.015 1302 379.761V384.497C1301.39 384.242 1300.71 384.101 1300 384.101C1297.33 384.101 1295.17 386.087 1295.17 388.538C1295.17 390.988 1297.33 392.974 1300 392.974C1300.71 392.974 1301.39 392.833 1302 392.578V397.314C1301.39 397.06 1300.71 396.918 1300 396.918C1297.33 396.918 1295.17 398.905 1295.17 401.355C1295.17 403.806 1297.33 405.792 1300 405.792C1300.71 405.792 1301.39 405.651 1302 405.396V410.132C1301.39 409.878 1300.71 409.736 1300 409.736C1297.33 409.736 1295.17 411.723 1295.17 414.173C1295.17 416.624 1297.33 418.61 1300 418.61C1300.71 418.61 1301.39 418.469 1302 418.214V422.95C1301.39 422.696 1300.71 422.554 1300 422.554C1297.33 422.554 1295.17 424.541 1295.17 426.991C1295.17 429.442 1297.33 431.428 1300 431.428C1300.71 431.428 1301.39 431.286 1302 431.032V435.768C1301.39 435.514 1300.71 435.372 1300 435.372C1297.33 435.372 1295.17 437.359 1295.17 439.809C1295.17 442.259 1297.33 444.246 1300 444.246C1300.71 444.246 1301.39 444.104 1302 443.85V448.339C1301.39 448.085 1300.71 447.943 1300 447.943C1297.33 447.943 1295.17 449.93 1295.17 452.38C1295.17 452.702 1295.2 453.016 1295.27 453.319H1020.3C1020.34 453.093 1020.36 452.862 1020.36 452.627C1020.36 450.323 1018.45 448.429 1016 448.211V444.472C1018.45 444.253 1020.36 442.359 1020.36 440.056C1020.36 437.752 1018.45 435.858 1016 435.64V431.653C1018.45 431.435 1020.36 429.541 1020.36 427.237C1020.36 424.933 1018.45 423.04 1016 422.821V418.836C1018.45 418.618 1020.36 416.724 1020.36 414.42C1020.36 412.116 1018.45 410.223 1016 410.004V406.018C1018.45 405.8 1020.36 403.906 1020.36 401.602C1020.36 399.298 1018.45 397.404 1016 397.186V393.2C1018.45 392.982 1020.36 391.088 1020.36 388.784C1020.36 386.48 1018.45 384.586 1016 384.368V380.382C1018.45 380.164 1020.36 378.27 1020.36 375.966C1020.36 373.662 1018.45 371.769 1016 371.55V367.564C1018.45 367.346 1020.36 365.452 1020.36 363.148C1020.36 360.844 1018.45 358.951 1016 358.732V335Z" fill="#FFE1C3"/>
</svg>
