<svg width="1440" height="706" viewBox="0 0 1440 706" fill="none" xmlns="http://www.w3.org/2000/svg">
<path d="M241.454 552H233.954V536.1H241.154V543L243.854 536.1H251.354V552H244.154V545.1L241.454 552ZM275.951 546.3H278.051V555.3H270.851V552H266.051V555.3H258.851V546.3H260.351C260.351 546.3 261.851 544.5 261.851 536.1H275.951V546.3ZM266.951 546.3H269.051V541.8H267.851C267.851 544.5 266.951 546.3 266.951 546.3ZM297.562 544.05C297.562 549.45 294.562 552.45 291.262 552.45C288.262 552.45 287.062 550.2 287.062 550.2V559.5H279.862V536.1H286.462C287.062 537.9 287.062 537.9 287.062 537.9C287.062 537.9 288.262 535.65 291.262 535.65C294.562 535.65 297.562 538.65 297.562 544.05ZM290.062 544.05C290.062 542.55 289.312 541.8 288.412 541.8C287.512 541.8 286.762 542.55 286.762 544.05C286.762 545.55 287.512 546.3 288.412 546.3C289.312 546.3 290.062 545.55 290.062 544.05ZM303.26 553.2L303.71 552L298.46 536.1H305.96L307.31 544.5L308.66 536.1H316.16L310.46 553.2C308.66 558.6 306.56 560.7 302.81 560.7C300.71 560.7 298.91 559.5 298.91 559.5L300.56 554.25C300.56 554.25 301.01 554.55 301.61 554.55C302.36 554.55 302.99 553.95 303.26 553.2ZM317.955 536.1H331.155V542.4H325.155V552H317.955V536.1ZM340.448 552H332.948V536.1H340.148V543L342.848 536.1H350.348V552H343.148V545.1L340.448 552ZM361.139 535.65C365.789 535.65 369.539 539.4 369.539 544.05C369.539 544.17 369.539 545.43 369.539 545.55H359.939C359.939 545.55 360.239 547.2 362.639 547.2C364.139 547.2 365.339 546 365.339 546L367.889 550.05C367.889 550.05 365.639 552.45 361.589 552.45C356.489 552.45 352.739 548.7 352.739 544.05C352.739 539.4 356.489 535.65 361.139 535.65ZM359.789 542.7H362.489C362.489 541.5 361.889 540.9 361.139 540.9C360.389 540.9 359.789 541.5 359.789 542.7ZM379.749 529.8L378.699 544.2H372.999L371.949 529.8H379.749ZM372.699 546H378.999V552H372.699V546Z" fill="#FFE1C3"/>
<path d="M235 522H377" stroke="#FFE1C3"/>
<rect y="470" width="1440" height="236" fill="#EADFC9"/>
<path d="M908.547 205.267C905.516 204.425 903.058 203.473 901.271 202.714C897.863 201.25 895.908 200.395 893.911 198.476C892.486 197.11 890.88 195.577 890.587 193.866C889.637 188.358 903.715 186.799 911.047 175.48C918.03 164.7 913.938 155.659 921.27 151.587C925.097 149.461 931.018 149.268 935.222 152.512C936.088 153.174 937.289 154.458 939.873 163.996C942.596 174.058 942.303 176.57 945.138 179.179C948.155 181.968 949.831 180.353 952.624 183.155C956.744 187.309 953.783 191.588 957.805 197.372C960.962 201.899 965.082 202.603 964.705 204.48C964.188 207.048 956.143 207.489 954.062 207.614C941.284 208.318 936.661 203.763 928.742 205.902C926.047 206.634 922.304 208.318 918.379 212.721" fill="#F7EECE"/>
<path d="M908.547 205.267C905.516 204.425 903.058 203.473 901.271 202.714C897.863 201.25 895.908 200.395 893.911 198.476C892.486 197.11 890.88 195.577 890.587 193.866C889.637 188.358 903.715 186.799 911.047 175.48C918.03 164.7 913.938 155.659 921.27 151.587C925.097 149.461 931.018 149.268 935.222 152.512C936.088 153.174 937.289 154.458 939.873 163.996C942.596 174.058 942.303 176.57 945.138 179.179C948.155 181.968 949.831 180.353 952.624 183.155C956.744 187.309 953.783 191.588 957.805 197.372C960.962 201.899 965.082 202.603 964.705 204.48C964.188 207.048 956.143 207.489 954.062 207.614C941.284 208.318 936.661 203.763 928.742 205.902C926.047 206.634 922.304 208.318 918.379 212.721" stroke="#797667" stroke-miterlimit="10"/>
<path d="M1174.57 179.801C1175.73 181.581 1177.42 183.928 1179.74 186.454C1181.23 188.069 1199.36 207.393 1213.48 201.596C1219.02 199.318 1223.97 193.176 1223.59 187.365C1222.99 178.103 1208.98 171.795 1209.5 171.008C1210.06 170.153 1224.46 181.858 1230.64 177.979C1234.95 175.287 1235.56 164.907 1230.95 159.814C1225.69 153.989 1215.66 157.288 1213.19 151.946C1211.45 148.206 1215.3 144.313 1213.49 142.56C1211.11 140.227 1204.63 147.364 1197.25 145.887C1188.76 144.189 1187.7 132.815 1181.62 132.87C1175.93 132.926 1175.53 142.947 1167.53 145.583C1157.95 148.744 1148.44 137.715 1144.56 141.042C1141.6 143.568 1147.34 149.793 1144.86 158.006C1141.82 168.123 1129.98 169.034 1130.16 175.26C1130.28 179.884 1136.83 180.022 1148.54 190.402C1156.39 197.358 1157.36 200.768 1162.32 201.913C1168.73 203.377 1175.18 199.539 1179.78 195.854" fill="#F7EECE"/>
<path d="M1174.57 179.801C1175.73 181.581 1177.42 183.928 1179.74 186.454C1181.23 188.069 1199.36 207.393 1213.48 201.596C1219.02 199.318 1223.97 193.176 1223.59 187.365C1222.99 178.103 1208.98 171.795 1209.5 171.008C1210.06 170.153 1224.46 181.858 1230.64 177.979C1234.95 175.287 1235.56 164.907 1230.95 159.814C1225.69 153.989 1215.66 157.288 1213.19 151.946C1211.45 148.206 1215.3 144.313 1213.49 142.56C1211.11 140.227 1204.63 147.364 1197.25 145.887C1188.76 144.189 1187.7 132.815 1181.62 132.87C1175.93 132.926 1175.53 142.947 1167.53 145.583C1157.95 148.744 1148.44 137.715 1144.56 141.042C1141.6 143.568 1147.34 149.793 1144.86 158.006C1141.82 168.123 1129.98 169.034 1130.16 175.26C1130.28 179.884 1136.83 180.022 1148.54 190.402C1156.39 197.358 1157.36 200.768 1162.32 201.913C1168.73 203.377 1175.18 199.539 1179.78 195.854" stroke="#797667" stroke-miterlimit="10"/>
<path d="M1035.01 200.892C1029.13 199.236 1024.12 197.635 1021.76 200.119C1019.34 202.659 1023.36 206.855 1021.76 215.275C1020.79 220.341 1018.99 220.672 1018.64 225.544C1018.21 231.563 1020.79 233.412 1019.42 236.076C1017.34 240.148 1008.34 241.722 1002.01 238.644C994.02 234.765 991.953 224.261 990.836 218.615C988.504 206.786 991.744 199.788 988.755 198.325C984.887 196.434 979.105 208.07 965.627 209.878C963.449 210.168 957.29 210.996 954.454 207.573C951.969 204.578 953.295 199.857 954.454 195.757C955.684 191.382 957.485 184.977 962.513 181.637C972.485 174.998 988.113 185.088 990.319 181.375C991.911 178.711 983.266 174.294 983.308 167.254C983.35 157.095 1001.41 144.534 1014.75 147.736C1024.24 150.014 1027.01 159.248 1036.57 158.779C1042.36 158.489 1043.4 155.024 1048.26 155.439C1056.41 156.129 1055.33 172.913 1064.63 176.751" fill="#F7EECE"/>
<path d="M1035.01 200.892C1029.13 199.236 1024.12 197.635 1021.76 200.119C1019.34 202.659 1023.36 206.855 1021.76 215.275C1020.79 220.341 1018.99 220.672 1018.64 225.544C1018.21 231.563 1020.79 233.412 1019.42 236.076C1017.34 240.148 1008.34 241.722 1002.01 238.644C994.02 234.765 991.953 224.261 990.836 218.615C988.504 206.786 991.744 199.788 988.755 198.325C984.887 196.434 979.105 208.07 965.627 209.878C963.449 210.168 957.29 210.996 954.454 207.573C951.969 204.578 953.295 199.857 954.454 195.757C955.684 191.382 957.485 184.977 962.513 181.637C972.485 174.998 988.113 185.088 990.319 181.375C991.911 178.711 983.266 174.294 983.308 167.254C983.35 157.095 1001.41 144.534 1014.75 147.736C1024.24 150.014 1027.01 159.248 1036.57 158.779C1042.36 158.489 1043.4 155.024 1048.26 155.439C1056.41 156.129 1055.33 172.913 1064.63 176.751" stroke="#797667" stroke-miterlimit="10"/>
<path d="M1137.53 150.455C1132.19 150.69 1124.6 151.821 1121.38 156.984C1116.63 164.589 1125.85 173.699 1121.74 179.855C1116.77 187.323 1095.66 185.322 1081.7 175.494C1078.49 173.23 1064 162.367 1066.27 150.082C1067.43 143.802 1072.43 140.006 1078.75 135.202C1081.25 133.298 1091.21 126.065 1106.67 123.58C1120.55 121.358 1131.98 124.077 1138.26 126.12" fill="#F7EECE"/>
<path d="M1137.53 150.455C1132.19 150.69 1124.6 151.821 1121.38 156.984C1116.63 164.589 1125.85 173.699 1121.74 179.855C1116.77 187.323 1095.66 185.322 1081.7 175.494C1078.49 173.23 1064 162.367 1066.27 150.082C1067.43 143.802 1072.43 140.006 1078.75 135.202C1081.25 133.298 1091.21 126.065 1106.67 123.58C1120.55 121.358 1131.98 124.077 1138.26 126.12" stroke="#797667" stroke-miterlimit="10"/>
<path d="M1260.63 80.1148C1264.5 81.1915 1267.63 82.3924 1269.92 83.3862C1274.28 85.2496 1276.76 86.3538 1279.32 88.7832C1281.14 90.5224 1283.19 92.4962 1283.57 94.6771C1284.78 101.717 1266.81 103.691 1257.45 118.142C1248.54 131.904 1253.76 143.457 1244.39 148.647C1239.5 151.353 1231.93 151.615 1226.58 147.474C1225.48 146.618 1223.96 144.989 1220.65 132.815C1217.17 119.964 1217.53 116.762 1213.93 113.436C1210.08 109.874 1207.94 111.931 1204.38 108.356C1199.11 103.042 1202.9 97.5896 1197.77 90.2049C1193.75 84.4214 1188.47 83.5242 1188.96 81.1225C1189.62 77.8374 1199.89 77.2714 1202.55 77.1334C1218.86 76.2362 1224.77 82.0611 1234.88 79.3142C1238.32 78.3756 1243.11 76.2224 1248.11 70.6045" fill="#F7EECE"/>
<path d="M1260.63 80.1148C1264.5 81.1915 1267.63 82.3924 1269.92 83.3862C1274.28 85.2496 1276.76 86.3538 1279.32 88.7832C1281.14 90.5224 1283.19 92.4962 1283.57 94.6771C1284.78 101.717 1266.81 103.691 1257.45 118.142C1248.54 131.904 1253.76 143.457 1244.39 148.647C1239.5 151.353 1231.93 151.615 1226.58 147.474C1225.48 146.618 1223.96 144.989 1220.65 132.815C1217.17 119.964 1217.53 116.762 1213.93 113.436C1210.08 109.874 1207.94 111.931 1204.38 108.356C1199.11 103.042 1202.9 97.5896 1197.77 90.2049C1193.75 84.4214 1188.47 83.5242 1188.96 81.1225C1189.62 77.8374 1199.89 77.2714 1202.55 77.1334C1218.86 76.2362 1224.77 82.0611 1234.88 79.3142C1238.32 78.3756 1243.11 76.2224 1248.11 70.6045" stroke="#797667" stroke-miterlimit="10"/>
<path d="M1083.85 50.838C1081.54 51.8318 1079.68 52.936 1078.32 53.8332C1075.73 55.5448 1074.24 56.5524 1072.73 58.7885C1071.65 60.3897 1070.43 62.1979 1070.2 64.1994C1069.49 70.6592 1080.17 72.4812 1085.73 85.746C1091.03 98.3758 1087.92 108.977 1093.5 113.752C1096.4 116.237 1100.9 116.472 1104.08 112.676C1104.74 111.889 1105.65 110.398 1107.62 99.2178C1109.68 87.43 1109.46 84.4899 1111.61 81.4256C1113.9 78.1543 1115.17 80.0453 1117.3 76.7602C1120.42 71.8877 1118.18 66.8772 1121.23 60.0998C1123.62 54.7856 1126.76 53.9713 1126.47 51.7628C1126.08 48.7537 1119.96 48.2292 1118.38 48.0911C1108.68 47.2629 1105.17 52.6186 1099.17 50.0926C1097.13 49.2368 1094.28 47.2491 1091.3 42.1006" fill="#F7EECE"/>
<path d="M1083.85 50.838C1081.54 51.8318 1079.68 52.936 1078.32 53.8332C1075.73 55.5448 1074.24 56.5524 1072.73 58.7885C1071.65 60.3897 1070.43 62.1979 1070.2 64.1994C1069.49 70.6592 1080.17 72.4812 1085.73 85.746C1091.03 98.3758 1087.92 108.977 1093.5 113.752C1096.4 116.237 1100.9 116.472 1104.08 112.676C1104.74 111.889 1105.65 110.398 1107.62 99.2178C1109.68 87.43 1109.46 84.4899 1111.61 81.4256C1113.9 78.1543 1115.17 80.0453 1117.3 76.7602C1120.42 71.8877 1118.18 66.8772 1121.23 60.0998C1123.62 54.7856 1126.76 53.9713 1126.47 51.7628C1126.08 48.7537 1119.96 48.2292 1118.38 48.0911C1108.68 47.2629 1105.17 52.6186 1099.17 50.0926C1097.13 49.2368 1094.28 47.2491 1091.3 42.1006" stroke="#797667" stroke-miterlimit="10"/>
<path d="M1285.77 80.695C1286.65 78.6107 1287.93 75.8501 1289.69 72.8963C1290.83 70.9914 1304.6 48.3682 1315.31 55.1455C1319.51 57.8095 1323.27 65.0147 1322.99 71.8196C1322.53 82.6827 1311.9 90.0673 1312.29 90.9783C1312.72 91.986 1323.65 78.2657 1328.34 82.8207C1331.59 85.9816 1332.07 98.1283 1328.58 104.119C1324.58 110.951 1316.97 107.073 1315.08 113.339C1313.77 117.715 1316.69 122.284 1315.32 124.34C1313.51 127.073 1308.59 118.709 1302.99 120.434C1296.55 122.422 1295.74 135.756 1291.13 135.7C1286.82 135.645 1286.51 123.899 1280.44 120.793C1273.16 117.08 1265.95 130.013 1262.99 126.121C1260.74 123.153 1265.1 115.865 1263.23 106.245C1260.92 94.4015 1251.93 93.311 1252.07 86.0092C1252.17 80.5846 1257.14 80.4328 1266.02 68.2584C1271.97 60.1008 1272.73 56.0979 1276.48 54.7728C1281.34 53.0474 1286.24 57.561 1289.74 61.8676" fill="#F7EECE"/>
<path d="M1285.77 80.695C1286.65 78.6107 1287.93 75.8501 1289.69 72.8963C1290.83 70.9914 1304.6 48.3682 1315.31 55.1455C1319.51 57.8095 1323.27 65.0147 1322.99 71.8196C1322.53 82.6827 1311.9 90.0673 1312.29 90.9783C1312.72 91.986 1323.65 78.2657 1328.34 82.8207C1331.59 85.9816 1332.07 98.1283 1328.58 104.119C1324.58 110.951 1316.97 107.073 1315.08 113.339C1313.77 117.715 1316.69 122.284 1315.32 124.34C1313.51 127.073 1308.59 118.709 1302.99 120.434C1296.55 122.422 1295.74 135.756 1291.13 135.7C1286.82 135.645 1286.51 123.899 1280.44 120.793C1273.16 117.08 1265.95 130.013 1262.99 126.121C1260.74 123.153 1265.1 115.865 1263.23 106.245C1260.92 94.4015 1251.93 93.311 1252.07 86.0092C1252.17 80.5846 1257.14 80.4328 1266.02 68.2584C1271.97 60.1008 1272.73 56.0979 1276.48 54.7728C1281.34 53.0474 1286.24 57.561 1289.74 61.8676" stroke="#797667" stroke-miterlimit="10"/>
<path d="M1189.89 109.253C1196.08 108.438 1202.56 95.9466 1202.32 84.2692C1201.99 68.5061 1189.38 55.3655 1179.84 55.9729C1175.2 56.2765 1171.57 59.7963 1169.78 56.87C1167.95 53.8886 1171 48.9885 1169.78 39.1054C1169.06 33.1701 1167.69 32.7836 1167.42 27.0691C1167.09 20.0157 1169.06 17.8487 1168.01 14.7292C1166.43 9.9533 1159.59 8.11748 1154.8 11.7201C1148.74 16.2751 1147.16 28.5875 1146.32 35.1992C1144.55 49.0575 1147.01 57.2703 1144.74 58.9819C1141.81 61.2042 1137.41 47.553 1127.19 45.4411C1125.53 45.096 1120.86 44.1298 1118.71 48.1465C1116.82 51.6663 1117.83 57.1875 1118.71 61.991C1119.65 67.1257 1121.01 74.6208 1124.83 78.5409C1132.4 86.3258 1144.27 74.5104 1145.93 78.8446C1147.13 81.9779 1140.58 87.1541 1140.61 95.3945C1140.64 107.293 1154.35 122.034 1164.48 118.266C1171.68 115.588 1173.79 104.767 1181.04 105.319C1185.43 105.65 1186.22 109.722 1189.92 109.225L1189.89 109.253Z" fill="#F7EECE" stroke="#797667" stroke-miterlimit="10"/>
<path d="M1257.67 115.091C1253.6 114.815 1247.85 113.49 1245.4 107.43C1241.8 98.5136 1248.8 87.8438 1245.68 80.6248C1241.91 71.8736 1225.89 74.2202 1215.29 85.732C1212.85 88.3822 1201.86 101.109 1203.58 115.519C1204.46 122.876 1208.25 127.335 1213.06 132.966C1214.96 135.188 1222.51 143.677 1234.25 146.576C1244.79 149.185 1253.46 145.982 1258.23 143.595" fill="#F7EECE"/>
<path d="M1257.67 115.091C1253.6 114.815 1247.85 113.49 1245.4 107.43C1241.8 98.5136 1248.8 87.8438 1245.68 80.6248C1241.91 71.8736 1225.89 74.2202 1215.29 85.732C1212.85 88.3822 1201.86 101.109 1203.58 115.519C1204.46 122.876 1208.25 127.335 1213.06 132.966C1214.96 135.188 1222.51 143.677 1234.25 146.576C1244.79 149.185 1253.46 145.982 1258.23 143.595" stroke="#797667" stroke-miterlimit="10"/>
<path d="M1336.84 204.47C1339.77 203.2 1354.47 194.846 1356.21 193.7C1359.52 191.519 1361.4 190.235 1363.34 187.364C1364.73 185.321 1366.28 183.016 1366.57 180.463C1367.49 172.222 1353.85 169.889 1346.75 152.967C1339.99 136.845 1343.94 123.304 1336.84 117.217C1333.12 114.042 1327.38 113.738 1323.32 118.597C1322.48 119.591 1321.32 121.496 1318.81 135.782C1316.17 150.841 1316.44 154.596 1313.71 158.502C1310.79 162.67 1309.15 160.255 1306.46 164.465C1302.46 170.69 1305.34 177.081 1301.45 185.735C1298.39 192.513 1294.39 193.562 1294.76 196.378C1295.26 200.215 1303.05 200.891 1305.08 201.057C1317.46 202.12 1321.93 195.287 1329.61 198.503C1332.23 199.594 1333.04 197.872 1336.84 204.47Z" fill="#F7EECE" stroke="#797667" stroke-miterlimit="10"/>
<path d="M958.795 124.463C957.887 125.981 956.56 127.997 954.744 130.15C953.585 131.53 939.368 148.053 928.321 143.097C923.977 141.151 920.109 135.892 920.402 130.923C920.877 123 931.84 117.603 931.435 116.94C930.988 116.209 919.718 126.216 914.871 122.903C911.506 120.598 911.017 111.723 914.634 107.361C918.754 102.378 926.617 105.208 928.558 100.625C929.913 97.4228 926.91 94.0962 928.321 92.5917C930.192 90.6041 935.276 96.6912 941.044 95.4351C947.692 93.9858 948.53 84.2546 953.278 84.296C957.733 84.3374 958.04 92.9092 964.311 95.1729C971.811 97.8783 979.269 88.4508 982.313 91.2942C984.632 93.4613 980.135 98.7755 982.076 105.801C984.464 114.456 993.738 115.243 993.598 120.571C993.5 124.532 988.361 124.643 979.199 133.518C973.054 139.467 972.286 142.393 968.403 143.36C963.375 144.616 958.334 141.33 954.717 138.183" fill="#F7EECE"/>
<path d="M958.795 124.463C957.887 125.981 956.56 127.997 954.744 130.15C953.585 131.53 939.368 148.053 928.321 143.097C923.977 141.151 920.109 135.892 920.402 130.923C920.877 123 931.84 117.603 931.435 116.94C930.988 116.209 919.718 126.216 914.871 122.903C911.506 120.598 911.017 111.723 914.634 107.361C918.754 102.378 926.617 105.208 928.558 100.625C929.913 97.4228 926.91 94.0962 928.321 92.5917C930.192 90.6041 935.276 96.6912 941.044 95.4351C947.692 93.9858 948.53 84.2546 953.278 84.296C957.733 84.3374 958.04 92.9092 964.311 95.1729C971.811 97.8783 979.269 88.4508 982.313 91.2942C984.632 93.4613 980.135 98.7755 982.076 105.801C984.464 114.456 993.738 115.243 993.598 120.571C993.5 124.532 988.361 124.643 979.199 133.518C973.054 139.467 972.286 142.393 968.403 143.36C963.375 144.616 958.334 141.33 954.717 138.183" stroke="#797667" stroke-miterlimit="10"/>
<path d="M1117.86 107.914C1117.17 106.133 1116.15 103.773 1114.78 101.247C1113.9 99.6181 1103.11 80.2662 1094.73 86.0635C1091.43 88.341 1088.48 94.4972 1088.72 100.336C1089.09 109.625 1097.41 115.947 1097.1 116.72C1096.77 117.576 1088.21 105.843 1084.53 109.736C1081.98 112.441 1081.61 122.835 1084.35 127.942C1087.48 133.781 1093.44 130.468 1094.92 135.837C1095.96 139.578 1093.67 143.484 1094.74 145.251C1096.17 147.584 1100.02 140.434 1104.39 141.911C1109.43 143.609 1110.08 155.024 1113.68 154.969C1117.06 154.913 1117.3 144.865 1122.06 142.214C1127.76 139.04 1133.41 150.096 1135.72 146.77C1137.48 144.23 1134.07 137.991 1135.54 129.778C1137.35 119.646 1144.39 118.722 1144.28 112.483C1144.2 107.845 1140.31 107.707 1133.34 97.313C1128.68 90.3424 1128.09 86.9193 1125.15 85.7736C1121.33 84.3105 1117.49 88.1616 1114.75 91.847" fill="#F7EECE"/>
<path d="M1117.86 107.914C1117.17 106.133 1116.15 103.773 1114.78 101.247C1113.9 99.6181 1103.11 80.2662 1094.73 86.0635C1091.43 88.341 1088.48 94.4972 1088.72 100.336C1089.09 109.625 1097.41 115.947 1097.1 116.72C1096.77 117.576 1088.21 105.843 1084.53 109.736C1081.98 112.441 1081.61 122.835 1084.35 127.942C1087.48 133.781 1093.44 130.468 1094.92 135.837C1095.96 139.578 1093.67 143.484 1094.74 145.251C1096.17 147.584 1100.02 140.434 1104.39 141.911C1109.43 143.609 1110.08 155.024 1113.68 154.969C1117.06 154.913 1117.3 144.865 1122.06 142.214C1127.76 139.04 1133.41 150.096 1135.72 146.77C1137.48 144.23 1134.07 137.991 1135.54 129.778C1137.35 119.646 1144.39 118.722 1144.28 112.483C1144.2 107.845 1140.31 107.707 1133.34 97.313C1128.68 90.3424 1128.09 86.9193 1125.15 85.7736C1121.33 84.3105 1117.49 88.1616 1114.75 91.847" stroke="#797667" stroke-miterlimit="10"/>
<path d="M1057.75 103.636C1051.37 104.23 1044.68 113.354 1044.93 121.87C1045.28 133.368 1058.28 142.961 1068.14 142.52C1072.92 142.299 1076.67 139.732 1078.52 141.857C1080.4 144.038 1077.26 147.613 1078.52 154.818C1079.27 159.152 1080.68 159.429 1080.96 163.611C1081.3 168.759 1079.29 170.333 1080.35 172.611C1081.98 176.089 1089.03 177.442 1093.99 174.805C1100.25 171.479 1101.87 162.493 1102.75 157.676C1104.58 147.558 1102.04 141.567 1104.38 140.325C1107.41 138.71 1111.94 148.662 1122.5 150.208C1124.2 150.457 1129.03 151.16 1131.25 148.234C1133.19 145.667 1132.16 141.636 1131.25 138.13C1130.29 134.376 1128.88 128.91 1124.94 126.053C1117.13 120.366 1104.89 128.993 1103.17 125.832C1101.92 123.554 1108.68 119.772 1108.67 113.754C1108.64 105.072 1094.49 94.3193 1084.03 97.0661C1076.6 99.0124 1074.43 106.908 1066.94 106.507C1062.41 106.259 1061.59 103.305 1057.78 103.65L1057.75 103.636Z" fill="#F7EECE" stroke="#797667" stroke-miterlimit="10"/>
<path d="M987.805 99.3704C991.995 99.5637 997.944 100.53 1000.47 104.961C1004.19 111.476 996.981 119.261 1000.18 124.52C1004.08 130.91 1020.6 129.199 1031.55 120.793C1034.06 118.86 1045.4 109.571 1043.63 99.053C1042.72 93.6836 1038.81 90.4398 1033.85 86.3265C1031.9 84.6977 1024.09 78.5139 1011.98 76.3883C1001.1 74.4834 992.162 76.8162 987.232 78.5554" fill="#F7EECE"/>
<path d="M987.805 99.3704C991.995 99.5637 997.944 100.53 1000.47 104.961C1004.19 111.476 996.981 119.261 1000.18 124.52C1004.08 130.91 1020.6 129.199 1031.55 120.793C1034.06 118.86 1045.4 109.571 1043.63 99.053C1042.72 93.6836 1038.81 90.4398 1033.85 86.3265C1031.9 84.6977 1024.09 78.5139 1011.98 76.3883C1001.1 74.4834 992.162 76.8162 987.232 78.5554" stroke="#797667" stroke-miterlimit="10"/>
<path d="M1192.95 132.332C1188.11 131.642 1183.02 120.944 1183.22 110.965C1183.48 97.4789 1193.36 86.2432 1200.83 86.7677C1204.46 87.0162 1207.31 90.0391 1208.71 87.5407C1210.14 84.9871 1207.76 80.791 1208.71 72.3573C1209.28 67.2778 1210.35 66.9465 1210.56 62.0602C1210.82 56.0282 1209.29 54.1786 1210.1 51.5008C1211.35 47.4151 1216.69 45.8415 1220.45 48.9334C1225.2 52.8259 1226.43 63.3577 1227.1 69.0169C1228.48 80.8738 1226.57 87.8858 1228.34 89.3489C1230.65 91.2399 1234.08 79.5763 1242.1 77.7681C1243.4 77.4782 1247.06 76.6501 1248.75 80.087C1250.23 83.0961 1249.43 87.8168 1248.75 91.9301C1248.01 96.3195 1246.95 102.738 1243.96 106.092C1238.02 112.745 1228.73 102.641 1227.42 106.354C1226.47 109.032 1231.61 113.463 1231.6 120.516C1231.57 130.689 1220.83 143.291 1212.9 140.075C1207.25 137.784 1205.61 128.536 1199.92 129.005C1196.49 129.295 1195.86 132.76 1192.97 132.346L1192.95 132.332Z" fill="#F7EECE" stroke="#797667" stroke-miterlimit="10"/>
<path d="M1139.88 137.328C1143.07 137.093 1147.58 135.962 1149.49 130.772C1152.31 123.138 1146.84 114.015 1149.27 107.845C1152.21 100.363 1164.77 102.365 1173.08 112.206C1174.99 114.47 1183.6 125.361 1182.26 137.673C1181.57 143.967 1178.6 147.777 1174.83 152.594C1173.35 154.499 1167.41 161.76 1158.22 164.244C1149.97 166.48 1143.18 163.747 1139.44 161.691" fill="#F7EECE"/>
<path d="M1139.88 137.328C1143.07 137.093 1147.58 135.962 1149.49 130.772C1152.31 123.138 1146.84 114.015 1149.27 107.845C1152.21 100.363 1164.77 102.365 1173.08 112.206C1174.99 114.47 1183.6 125.361 1182.26 137.673C1181.57 143.967 1178.6 147.777 1174.83 152.594C1173.35 154.499 1167.41 161.76 1158.22 164.244C1149.97 166.48 1143.18 163.747 1139.44 161.691" stroke="#797667" stroke-miterlimit="10"/>
<path d="M1157.41 67.0297C1158.57 65.0835 1160.26 62.5161 1162.58 59.7555C1164.07 57.9887 1182.2 36.8976 1196.32 43.2194C1201.86 45.7039 1206.81 52.4122 1206.43 58.7617C1205.83 68.8793 1191.82 75.7671 1192.34 76.6091C1192.9 77.5477 1207.3 64.766 1213.48 69.0036C1217.79 71.9436 1218.4 83.2622 1213.79 88.8386C1208.53 95.2019 1198.5 91.5854 1196.03 97.4379C1194.29 101.524 1198.14 105.775 1196.33 107.694C1193.95 110.233 1187.47 102.448 1180.09 104.063C1171.6 105.913 1170.54 118.336 1164.46 118.281C1158.76 118.225 1158.37 107.28 1150.37 104.395C1140.79 100.944 1131.28 112.98 1127.4 109.35C1124.44 106.589 1130.18 99.7983 1127.7 90.8401C1124.66 79.7976 1112.82 78.79 1113 71.9988C1113.12 66.9469 1119.67 66.795 1131.38 55.4627C1139.23 47.871 1140.2 44.1442 1145.16 42.9019C1151.57 41.3007 1158.02 45.4969 1162.62 49.5136" fill="#F7EECE"/>
<path d="M1157.41 67.0297C1158.57 65.0835 1160.26 62.5161 1162.58 59.7555C1164.07 57.9887 1182.2 36.8976 1196.32 43.2194C1201.86 45.7039 1206.81 52.4122 1206.43 58.7617C1205.83 68.8793 1191.82 75.7671 1192.34 76.6091C1192.9 77.5477 1207.3 64.766 1213.48 69.0036C1217.79 71.9436 1218.4 83.2622 1213.79 88.8386C1208.53 95.2019 1198.5 91.5854 1196.03 97.4379C1194.29 101.524 1198.14 105.775 1196.33 107.694C1193.95 110.233 1187.47 102.448 1180.09 104.063C1171.6 105.913 1170.54 118.336 1164.46 118.281C1158.76 118.225 1158.37 107.28 1150.37 104.395C1140.79 100.944 1131.28 112.98 1127.4 109.35C1124.44 106.589 1130.18 99.7983 1127.7 90.8401C1124.66 79.7976 1112.82 78.79 1113 71.9988C1113.12 66.9469 1119.67 66.795 1131.38 55.4627C1139.23 47.871 1140.2 44.1442 1145.16 42.9019C1151.57 41.3007 1158.02 45.4969 1162.62 49.5136" stroke="#797667" stroke-miterlimit="10"/>
<path d="M1031.1 93.6276C1039.24 92.8684 1047.79 81.2186 1047.47 70.3556C1047.03 55.6691 1030.41 43.4257 1017.84 43.9916C1011.74 44.2677 1006.95 47.5528 1004.59 44.8336C1002.17 42.0592 1006.2 37.4904 1004.59 28.2837C1003.63 22.7487 1001.83 22.3898 1001.48 17.0618C1001.04 10.4915 1003.63 8.47626 1002.26 5.56381C1000.18 1.11921 991.17 -0.592376 984.843 2.76178C976.854 6.99933 974.787 18.4697 973.67 24.6397C971.338 37.5594 974.578 45.2063 971.589 46.7937C967.721 48.8641 961.939 36.1515 948.461 34.1776C946.283 33.8602 940.124 32.9492 937.288 36.7036C934.803 39.9749 936.129 45.1235 937.288 49.6095C938.517 54.3992 940.319 61.3836 945.347 65.0276C955.319 72.2742 970.947 61.2731 973.153 65.3036C974.745 68.2161 966.1 73.0334 966.142 80.7217C966.184 91.8056 984.242 105.54 997.58 102.034C1007.08 99.5353 1009.84 89.459 1019.41 89.9698C1025.19 90.2734 1026.24 94.0693 1031.1 93.6138V93.6276Z" fill="#F7EECE" stroke="#797667" stroke-miterlimit="10"/>
<path d="M1120.37 99.0656C1115.02 98.8171 1107.43 97.5748 1104.21 91.9293C1099.46 83.6199 1108.68 73.6816 1104.57 66.9595C1099.6 58.8019 1078.5 60.9828 1064.53 71.7216C1061.32 74.1923 1046.84 86.0492 1049.1 99.4658C1050.26 106.326 1055.26 110.467 1061.58 115.712C1064.08 117.783 1074.04 125.692 1089.5 128.397C1103.38 130.826 1114.81 127.845 1121.09 125.623" fill="#F7EECE"/>
<path d="M1120.37 99.0656C1115.02 98.8171 1107.43 97.5748 1104.21 91.9293C1099.46 83.6199 1108.68 73.6816 1104.57 66.9595C1099.6 58.8019 1078.5 60.9828 1064.53 71.7216C1061.32 74.1923 1046.84 86.0492 1049.1 99.4658C1050.26 106.326 1055.26 110.467 1061.58 115.712C1064.08 117.783 1074.04 125.692 1089.5 128.397C1103.38 130.827 1114.81 127.845 1121.09 125.623" stroke="#797667" stroke-miterlimit="10"/>
<path d="M1088.13 171.528C1082.75 171.172 1075.13 169.388 1071.88 161.281C1067.11 149.349 1076.38 135.078 1072.25 125.425C1067.25 113.711 1046.03 116.843 1031.99 132.263C1028.76 135.811 1014.2 152.837 1016.48 172.103C1017.64 181.954 1022.67 187.9 1029.03 195.432C1031.54 198.405 1041.55 209.763 1057.1 213.648C1071.06 217.136 1082.54 212.855 1088.86 209.664" fill="#F7EECE"/>
<path d="M1088.13 171.528C1082.75 171.172 1075.13 169.388 1071.88 161.281C1067.11 149.349 1076.38 135.078 1072.25 125.425C1067.25 113.711 1046.03 116.843 1031.99 132.263C1028.76 135.811 1014.2 152.837 1016.48 172.103C1017.64 181.954 1022.67 187.9 1029.03 195.432C1031.54 198.405 1041.55 209.763 1057.1 213.648C1071.06 217.136 1082.54 212.855 1088.86 209.664" stroke="#797667" stroke-miterlimit="10"/>
<path d="M1243.47 175.866C1247.34 174.693 1250.46 173.368 1252.75 172.305C1257.11 170.262 1259.6 169.075 1262.15 166.411C1263.97 164.52 1266.02 162.367 1266.4 159.979C1267.61 152.291 1249.64 150.137 1240.28 134.361C1231.37 119.343 1236.6 106.727 1227.22 101.054C1222.34 98.086 1214.77 97.81 1209.42 102.337C1208.31 103.262 1206.79 105.043 1203.48 118.349C1200 132.373 1200.37 135.879 1196.76 139.509C1192.91 143.402 1190.77 141.152 1187.21 145.058C1181.95 150.855 1185.73 156.804 1180.61 164.879C1176.58 171.201 1171.3 172.167 1171.79 174.79C1172.45 178.365 1182.73 178.986 1185.38 179.152C1201.69 180.132 1207.6 173.768 1217.71 176.777C1221.15 177.799 1225.94 180.159 1230.94 186.288" fill="#F7EECE"/>
<path d="M1243.47 175.866C1247.34 174.693 1250.46 173.368 1252.75 172.305C1257.11 170.262 1259.6 169.075 1262.15 166.411C1263.97 164.52 1266.02 162.367 1266.4 159.979C1267.61 152.291 1249.64 150.137 1240.28 134.361C1231.37 119.343 1236.6 106.727 1227.22 101.054C1222.34 98.086 1214.77 97.81 1209.42 102.337C1208.31 103.262 1206.79 105.043 1203.48 118.349C1200 132.373 1200.37 135.879 1196.76 139.509C1192.91 143.402 1190.77 141.152 1187.21 145.058C1181.95 150.855 1185.73 156.804 1180.61 164.879C1176.58 171.201 1171.3 172.167 1171.79 174.79C1172.45 178.365 1182.73 178.986 1185.38 179.152C1201.69 180.132 1207.6 173.768 1217.71 176.777C1221.15 177.799 1225.94 180.159 1230.94 186.288" stroke="#797667" stroke-miterlimit="10"/>
<path d="M1066.68 207.821C1064.38 206.744 1062.52 205.529 1061.15 204.549C1058.57 202.686 1057.07 201.582 1055.57 199.138C1054.49 197.399 1053.26 195.425 1053.04 193.231C1052.33 186.177 1063.01 184.19 1068.57 169.71C1073.86 155.921 1070.76 144.34 1076.33 139.136C1079.24 136.417 1083.74 136.155 1086.92 140.31C1087.58 141.165 1088.48 142.794 1090.45 155.01C1092.52 167.888 1092.3 171.09 1094.45 174.445C1096.74 178.02 1098.01 175.949 1100.13 179.538C1103.26 184.852 1101.01 190.332 1104.07 197.73C1106.46 203.528 1109.6 204.425 1109.31 206.827C1108.92 210.112 1102.8 210.678 1101.22 210.83C1091.51 211.727 1088.01 205.888 1082 208.649C1079.96 209.587 1077.12 211.741 1074.14 217.386" fill="#F7EECE"/>
<path d="M1066.68 207.821C1064.38 206.744 1062.52 205.529 1061.15 204.549C1058.57 202.686 1057.07 201.582 1055.57 199.138C1054.49 197.399 1053.26 195.425 1053.04 193.231C1052.33 186.177 1063.01 184.19 1068.57 169.71C1073.86 155.921 1070.76 144.34 1076.33 139.136C1079.24 136.417 1083.74 136.155 1086.92 140.31C1087.58 141.165 1088.48 142.794 1090.45 155.01C1092.52 167.888 1092.3 171.09 1094.45 174.445C1096.74 178.02 1098.01 175.949 1100.13 179.538C1103.26 184.852 1101.01 190.332 1104.07 197.73C1106.46 203.528 1109.6 204.425 1109.31 206.827C1108.92 210.112 1102.8 210.678 1101.22 210.83C1091.51 211.727 1088.01 205.888 1082 208.649C1079.96 209.587 1077.12 211.741 1074.14 217.386" stroke="#797667" stroke-miterlimit="10"/>
<path d="M985.224 162.786C982.919 161.71 981.062 160.495 979.693 159.515C977.109 157.652 975.615 156.547 974.107 154.104C973.031 152.365 971.802 150.391 971.579 148.196C970.867 141.143 981.551 139.155 987.109 124.676C992.402 110.887 989.302 99.3059 994.874 94.1021C997.779 91.3829 1002.28 91.1206 1005.46 95.2753C1006.12 96.1311 1007.02 97.7599 1008.99 109.976C1011.06 122.854 1010.84 126.056 1012.99 129.41C1015.28 132.985 1016.55 130.915 1018.67 134.504C1021.8 139.818 1019.55 145.298 1022.61 152.696C1025 158.494 1028.14 159.391 1027.85 161.793C1027.46 165.078 1021.34 165.644 1019.76 165.795C1010.06 166.693 1006.55 160.854 1000.54 163.615C998.505 164.553 995.656 166.706 992.682 172.352" fill="#F7EECE"/>
<path d="M985.224 162.786C982.919 161.71 981.062 160.495 979.693 159.515C977.109 157.652 975.615 156.547 974.107 154.104C973.031 152.365 971.802 150.391 971.579 148.196C970.867 141.143 981.551 139.155 987.109 124.676C992.402 110.887 989.302 99.3059 994.874 94.1021C997.779 91.3829 1002.28 91.1206 1005.46 95.2753C1006.12 96.1311 1007.02 97.7599 1008.99 109.976C1011.06 122.854 1010.84 126.056 1012.99 129.41C1015.28 132.985 1016.55 130.915 1018.67 134.504C1021.8 139.818 1019.55 145.298 1022.61 152.696C1025 158.494 1028.14 159.391 1027.85 161.793C1027.46 165.078 1021.34 165.644 1019.76 165.795C1010.06 166.693 1006.55 160.854 1000.54 163.615C998.505 164.553 995.656 166.706 992.682 172.352" stroke="#797667" stroke-miterlimit="10"/>
<path d="M1268.6 175.231C1269.48 177.509 1270.77 180.518 1272.53 183.748C1273.66 185.818 1287.43 210.54 1298.14 203.127C1302.35 200.215 1306.1 192.347 1305.82 184.921C1305.36 173.064 1294.73 164.989 1295.13 163.995C1295.56 162.905 1306.48 177.881 1311.17 172.912C1314.43 169.462 1314.9 156.197 1311.41 149.668C1307.42 142.214 1299.8 146.438 1297.92 139.592C1296.61 134.802 1299.52 129.819 1298.16 127.583C1296.34 124.601 1291.42 133.725 1285.82 131.848C1279.39 129.681 1278.58 115.119 1273.97 115.188C1269.65 115.257 1269.34 128.08 1263.27 131.462C1255.99 135.506 1248.79 121.399 1245.83 125.65C1243.58 128.894 1247.93 136.845 1246.06 147.349C1243.76 160.282 1234.76 161.47 1234.9 169.434C1235 175.355 1239.97 175.521 1248.86 188.813C1254.81 197.716 1255.56 202.078 1259.32 203.541C1264.18 205.419 1269.08 200.491 1272.57 195.798" fill="#F7EECE"/>
<path d="M1268.6 175.231C1269.48 177.509 1270.77 180.518 1272.53 183.748C1273.66 185.818 1287.43 210.54 1298.14 203.127C1302.35 200.215 1306.1 192.347 1305.82 184.921C1305.36 173.064 1294.73 164.989 1295.13 163.995C1295.56 162.905 1306.48 177.881 1311.17 172.912C1314.43 169.462 1314.9 156.197 1311.41 149.668C1307.42 142.214 1299.8 146.438 1297.92 139.592C1296.61 134.802 1299.52 129.819 1298.16 127.583C1296.34 124.601 1291.42 133.725 1285.82 131.848C1279.39 129.681 1278.58 115.119 1273.97 115.188C1269.65 115.257 1269.34 128.08 1263.27 131.462C1255.99 135.506 1248.79 121.399 1245.83 125.65C1243.58 128.894 1247.93 136.845 1246.06 147.349C1243.76 160.282 1234.76 161.47 1234.9 169.434C1235 175.355 1239.97 175.521 1248.86 188.813C1254.81 197.716 1255.56 202.078 1259.32 203.541C1264.18 205.419 1269.08 200.491 1272.57 195.798" stroke="#797667" stroke-miterlimit="10"/>
<path d="M1290.15 146.623C1291.03 148.9 1292.32 151.909 1294.08 155.139C1295.21 157.21 1308.98 181.931 1319.69 174.519C1323.89 171.606 1327.65 163.739 1327.37 156.313C1326.91 144.456 1316.28 136.381 1316.67 135.387C1317.11 134.297 1328.03 149.273 1332.72 144.304C1335.97 140.853 1336.45 127.588 1332.96 121.059C1328.96 113.606 1321.35 117.83 1319.47 110.983C1318.15 106.194 1321.07 101.211 1319.7 98.9745C1317.89 95.993 1312.97 105.117 1307.37 103.24C1300.93 101.073 1300.12 86.5103 1295.51 86.5793C1291.2 86.6484 1290.89 99.4715 1284.82 102.853C1277.54 106.898 1270.33 92.7907 1267.37 97.0421C1265.12 100.286 1269.48 108.236 1267.61 118.741C1265.31 131.674 1256.31 132.861 1256.45 140.826C1256.55 146.747 1261.52 146.913 1270.4 160.205C1276.35 169.108 1277.11 173.47 1280.86 174.933C1285.72 176.81 1290.63 171.883 1294.12 167.189" fill="#F7EECE"/>
<path d="M1290.15 146.623C1291.03 148.9 1292.32 151.909 1294.08 155.139C1295.21 157.21 1308.98 181.931 1319.69 174.519C1323.89 171.606 1327.65 163.739 1327.37 156.313C1326.91 144.456 1316.28 136.381 1316.67 135.387C1317.11 134.297 1328.03 149.273 1332.72 144.304C1335.97 140.853 1336.45 127.588 1332.96 121.059C1328.96 113.606 1321.35 117.83 1319.47 110.983C1318.15 106.194 1321.07 101.211 1319.7 98.9745C1317.89 95.993 1312.97 105.117 1307.37 103.24C1300.93 101.073 1300.12 86.5103 1295.51 86.5793C1291.2 86.6484 1290.89 99.4715 1284.82 102.853C1277.54 106.898 1270.33 92.7907 1267.37 97.0421C1265.12 100.286 1269.48 108.236 1267.61 118.741C1265.31 131.674 1256.31 132.861 1256.45 140.826C1256.55 146.747 1261.52 146.913 1270.4 160.205C1276.35 169.108 1277.11 173.47 1280.86 174.933C1285.72 176.81 1290.63 171.883 1294.12 167.189" stroke="#797667" stroke-miterlimit="10"/>
<path d="M1172.73 141.746C1178.92 142.436 1185.4 153.092 1185.16 163.03C1184.83 176.46 1172.21 187.655 1162.68 187.13C1158.04 186.882 1154.41 183.873 1152.62 186.357C1150.79 188.897 1153.83 193.079 1152.62 201.485C1151.89 206.551 1150.52 206.869 1150.26 211.741C1149.92 217.745 1151.89 219.595 1150.85 222.259C1149.27 226.331 1142.42 227.891 1137.63 224.826C1131.57 220.948 1129.99 210.457 1129.16 204.826C1127.38 193.01 1129.84 186.026 1127.58 184.577C1124.65 182.686 1120.25 194.308 1110.02 196.116C1108.36 196.406 1103.7 197.234 1101.55 193.811C1099.66 190.816 1100.67 186.109 1101.55 182.023C1102.48 177.647 1103.85 171.257 1107.66 167.916C1115.23 161.291 1127.1 171.353 1128.77 167.654C1129.97 164.99 1123.42 160.587 1123.44 153.547C1123.47 143.402 1137.19 130.855 1147.31 134.057C1154.52 136.335 1156.63 145.555 1163.88 145.086C1168.26 144.796 1169.06 141.345 1172.76 141.759L1172.73 141.746Z" fill="#F7EECE" stroke="#797667" stroke-miterlimit="10"/>
<path d="M1240.51 137.672C1236.44 137.962 1230.69 139.411 1228.24 146.037C1224.64 155.782 1231.64 167.418 1228.52 175.299C1224.75 184.851 1208.73 182.298 1198.13 169.723C1195.69 166.824 1184.7 152.925 1186.42 137.203C1187.3 129.169 1191.09 124.311 1195.9 118.155C1197.8 115.725 1205.35 106.463 1217.09 103.289C1227.63 100.445 1236.3 103.937 1241.06 106.546" fill="#F7EECE"/>
<path d="M1240.51 137.672C1236.44 137.962 1230.69 139.411 1228.24 146.037C1224.64 155.782 1231.64 167.418 1228.52 175.299C1224.75 184.851 1208.73 182.298 1198.13 169.723C1195.69 166.824 1184.7 152.925 1186.42 137.203C1187.3 129.169 1191.09 124.311 1195.9 118.155C1197.8 115.725 1205.35 106.463 1217.09 103.289C1227.63 100.445 1236.3 103.937 1241.06 106.546" stroke="#797667" stroke-miterlimit="10"/>
<path d="M1049.41 158.989C1050.57 157.042 1052.26 154.475 1054.58 151.714C1056.08 149.948 1074.2 128.857 1088.32 135.178C1093.87 137.663 1098.81 144.371 1098.43 150.721C1097.83 160.838 1083.83 167.726 1084.34 168.568C1084.9 169.507 1099.3 156.725 1105.49 160.963C1109.79 163.903 1110.4 175.221 1105.8 180.798C1100.53 187.161 1090.5 183.544 1088.03 189.397C1086.3 193.483 1090.14 197.734 1088.34 199.653C1085.95 202.192 1079.47 194.407 1072.09 196.022C1063.6 197.872 1062.54 210.295 1056.47 210.24C1050.77 210.184 1050.38 199.239 1042.38 196.354C1032.79 192.903 1023.28 204.939 1019.4 201.309C1016.44 198.548 1022.18 191.757 1019.71 182.799C1016.66 171.757 1004.82 170.749 1005 163.958C1005.13 158.906 1011.68 158.754 1023.38 147.422C1031.23 139.83 1032.21 136.103 1037.17 134.861C1043.58 133.26 1050.03 137.456 1054.62 141.473" fill="#F7EECE"/>
<path d="M1049.41 158.989C1050.57 157.042 1052.26 154.475 1054.58 151.714C1056.08 149.948 1074.2 128.857 1088.32 135.178C1093.87 137.663 1098.81 144.371 1098.43 150.721C1097.83 160.838 1083.83 167.726 1084.34 168.568C1084.9 169.507 1099.3 156.725 1105.49 160.963C1109.79 163.903 1110.4 175.221 1105.8 180.798C1100.53 187.161 1090.5 183.544 1088.03 189.397C1086.3 193.483 1090.14 197.734 1088.34 199.653C1085.95 202.192 1079.47 194.407 1072.09 196.022C1063.6 197.872 1062.54 210.295 1056.47 210.24C1050.77 210.184 1050.38 199.239 1042.38 196.354C1032.79 192.903 1023.28 204.939 1019.4 201.309C1016.44 198.548 1022.18 191.757 1019.71 182.799C1016.66 171.757 1004.82 170.749 1005 163.958C1005.13 158.906 1011.68 158.754 1023.38 147.422C1031.23 139.83 1032.21 136.103 1037.17 134.861C1043.58 133.26 1050.03 137.456 1054.62 141.473" stroke="#797667" stroke-miterlimit="10"/>
<path d="M398.316 167.43L473 141.999L584.499 597.217L488 597.216L398.316 167.43Z" fill="#993C29"/>
<path d="M168.5 141H474V605H139L168.5 141Z" fill="#E24728"/>
<path d="M162.526 587.5L184.475 154.5H451.985L439.514 587.5H162.526Z" stroke="#FFE1C3"/>
<path d="M203 513H328" stroke="#FFE1C3"/>
<ellipse cx="1133.5" cy="158" rx="214.5" ry="61" fill="#F7EECE"/>
<path d="M998.412 588.555C1014.73 596.271 1039.27 606.209 1070.34 612.531C1118.98 622.428 1158.06 618.287 1192.62 614.326C1216.63 611.579 1249.34 606.154 1287.33 594.546L1368.85 210.916L1093.12 217.514L919.279 210.916" fill="#E24728"/>
<path d="M1223.18 217.585L1268.11 215.983" stroke="#797667" stroke-miterlimit="10"/>
<path d="M981.424 120.181C980.527 118.787 979.215 116.951 977.421 114.963C976.275 113.694 962.224 98.5654 951.306 103.093C947.013 104.873 943.189 109.691 943.479 114.246C943.948 121.506 954.784 126.448 954.384 127.055C953.942 127.731 942.803 118.552 938.013 121.603C934.687 123.715 934.204 131.831 937.779 135.834C941.85 140.403 949.622 137.808 951.54 142.004C952.879 144.93 949.911 147.98 951.306 149.361C953.155 151.183 958.179 145.606 963.88 146.752C970.45 148.077 971.279 156.994 975.972 156.952C980.375 156.911 980.679 149.057 986.876 146.987C994.288 144.502 1001.66 153.143 1004.67 150.548C1006.96 148.56 1002.52 143.688 1004.43 137.269C1006.79 129.346 1015.96 128.629 1015.82 123.742C1015.72 120.112 1010.65 120.015 1001.59 111.885C995.517 106.433 994.758 103.755 990.92 102.872C985.951 101.726 980.968 104.735 977.393 107.62" fill="#F7EECE"/>
<path d="M981.424 120.181C980.527 118.787 979.215 116.951 977.421 114.963C976.275 113.694 962.224 98.5654 951.306 103.093C947.013 104.873 943.189 109.691 943.479 114.246C943.948 121.506 954.784 126.448 954.384 127.055C953.942 127.731 942.803 118.552 938.013 121.603C934.687 123.715 934.204 131.831 937.779 135.834C941.85 140.403 949.622 137.808 951.54 142.004C952.879 144.93 949.911 147.98 951.306 149.361C953.155 151.183 958.179 145.606 963.88 146.752C970.45 148.077 971.279 156.994 975.972 156.952C980.375 156.911 980.679 149.057 986.876 146.987C994.288 144.502 1001.66 153.143 1004.67 150.548C1006.96 148.56 1002.52 143.688 1004.43 137.269C1006.79 129.346 1015.96 128.629 1015.82 123.742C1015.72 120.112 1010.65 120.015 1001.59 111.885C995.517 106.433 994.758 103.755 990.92 102.872C985.951 101.726 980.968 104.735 977.393 107.62" stroke="#797667" stroke-miterlimit="10"/>
<path d="M1138.63 135.351C1137.95 136.98 1136.94 139.147 1135.59 141.466C1134.72 142.957 1124.05 160.68 1115.77 155.366C1112.51 153.282 1109.6 147.636 1109.83 142.294C1110.19 133.792 1118.42 127.994 1118.12 127.276C1117.78 126.49 1109.32 137.229 1105.69 133.667C1103.17 131.197 1102.81 121.672 1105.51 116.993C1108.61 111.638 1114.5 114.674 1115.96 109.76C1116.98 106.323 1114.72 102.748 1115.78 101.147C1117.19 99.0078 1121 105.55 1125.32 104.212C1130.3 102.652 1130.94 92.2028 1134.5 92.258C1137.84 92.3132 1138.08 101.506 1142.78 103.935C1148.41 106.834 1154 96.7164 1156.28 99.7669C1158.02 102.086 1154.65 107.8 1156.1 115.337C1157.9 124.612 1164.85 125.468 1164.74 131.183C1164.66 135.434 1160.82 135.558 1153.94 145.082C1149.32 151.473 1148.75 154.607 1145.83 155.642C1142.06 156.995 1138.27 153.461 1135.56 150.079" fill="#F7EECE"/>
<path d="M1138.63 135.351C1137.95 136.98 1136.94 139.147 1135.59 141.466C1134.72 142.957 1124.05 160.68 1115.77 155.366C1112.51 153.282 1109.6 147.636 1109.83 142.294C1110.19 133.792 1118.42 127.994 1118.12 127.276C1117.78 126.49 1109.32 137.229 1105.69 133.667C1103.17 131.197 1102.81 121.672 1105.51 116.993C1108.61 111.638 1114.5 114.674 1115.96 109.76C1116.98 106.323 1114.72 102.748 1115.78 101.147C1117.19 99.0077 1121 105.55 1125.32 104.212C1130.3 102.652 1130.94 92.2028 1134.5 92.258C1137.84 92.3132 1138.08 101.506 1142.78 103.935C1148.41 106.834 1154 96.7164 1156.28 99.7669C1158.02 102.086 1154.65 107.8 1156.1 115.337C1157.9 124.613 1164.85 125.468 1164.74 131.183C1164.66 135.434 1160.82 135.558 1153.94 145.082C1149.32 151.473 1148.75 154.607 1145.83 155.642C1142.06 156.995 1138.27 153.461 1135.56 150.079" stroke="#797667" stroke-miterlimit="10"/>
<path d="M910 198.772L914.556 210.333C958.451 216.632 1005.54 221.298 1055.5 223.439C1107.39 225.649 1132.2 220.649 1228.58 220.158C1247.66 220.07 1266.73 218.93 1285.8 219.263C1311.05 219.719 1336.56 210.474 1361.49 215.772C1362.08 215.895 1364.44 216.439 1366.74 214.895C1369.99 212.737 1373 206.632 1371.69 200.298C1370.44 194.281 1365.71 190.193 1360.67 191.14L1002.73 202.86L914.543 191" fill="#EDEDED"/>
<path d="M1079.22 139.273C1072.91 138.734 1066.3 130.37 1066.55 122.571C1066.89 112.039 1079.74 103.247 1089.49 103.661C1094.21 103.854 1097.92 106.214 1099.74 104.268C1101.61 102.28 1098.5 98.9953 1099.74 92.3974C1100.49 88.4221 1101.88 88.1736 1102.16 84.3502C1102.49 79.6295 1100.5 78.194 1101.55 76.0959C1103.17 72.9074 1110.14 71.679 1115.04 74.0807C1121.22 77.1174 1122.82 85.3578 1123.69 89.7748C1125.5 99.0367 1122.99 104.53 1125.31 105.662C1128.3 107.139 1132.77 98.029 1143.21 96.6073C1144.89 96.3727 1149.67 95.7239 1151.86 98.4155C1153.78 100.762 1152.76 104.461 1151.86 107.664C1150.91 111.101 1149.52 116.111 1145.62 118.734C1137.91 123.937 1125.8 116.042 1124.1 118.941C1122.88 121.039 1129.56 124.49 1129.54 130.011C1129.52 137.961 1115.53 147.817 1105.19 145.305C1097.85 143.51 1095.7 136.291 1088.3 136.65C1083.83 136.871 1083.01 139.59 1079.24 139.259L1079.22 139.273Z" fill="#F7EECE" stroke="#797667" stroke-miterlimit="10"/>
<path d="M1079.22 139.273C1072.91 138.734 1066.3 130.37 1066.55 122.571C1066.89 112.039 1079.74 103.247 1089.49 103.661C1094.21 103.854 1097.92 106.214 1099.74 104.268C1101.61 102.28 1098.5 98.9953 1099.74 92.3974C1100.49 88.4221 1101.88 88.1736 1102.16 84.3502C1102.49 79.6295 1100.5 78.194 1101.55 76.0959C1103.17 72.9074 1110.14 71.679 1115.04 74.0807C1121.22 77.1174 1122.82 85.3578 1123.69 89.7748C1125.5 99.0367 1122.99 104.53 1125.31 105.662C1128.3 107.139 1132.77 98.029 1143.21 96.6073C1144.89 96.3727 1149.67 95.7239 1151.86 98.4155C1153.78 100.762 1152.76 104.461 1151.86 107.664C1150.91 111.101 1149.52 116.111 1145.62 118.734C1137.91 123.937 1125.8 116.042 1124.1 118.941C1122.88 121.039 1129.56 124.49 1129.54 130.011C1129.52 137.961 1115.53 147.817 1105.19 145.305C1097.85 143.51 1095.7 136.291 1088.3 136.65C1083.83 136.871 1083.01 139.59 1079.24 139.259L1079.22 139.273Z" fill="#F7EECE" stroke="#797667" stroke-miterlimit="10"/>
<path d="M929.678 195.452C923.37 194.914 916.758 186.549 917.007 178.751C917.352 168.219 930.203 159.426 939.948 159.84C944.668 160.034 948.381 162.394 950.203 160.448C952.067 158.46 948.961 155.175 950.203 148.577C950.949 144.602 952.343 144.353 952.619 140.53C952.95 135.809 950.962 134.374 952.011 132.276C953.626 129.087 960.597 127.859 965.497 130.26C971.681 133.297 973.282 141.538 974.152 145.955C975.96 155.216 973.448 160.71 975.767 161.842C978.762 163.319 983.234 154.209 993.669 152.787C995.353 152.552 1000.13 151.904 1002.32 154.595C1004.24 156.942 1003.22 160.641 1002.32 163.843C1001.37 167.28 999.977 172.291 996.085 174.913C988.369 180.117 976.264 172.222 974.566 175.12C973.337 177.219 980.018 180.669 980.004 186.191C979.977 194.141 965.994 203.997 955.655 201.484C948.312 199.69 946.159 192.471 938.76 192.83C934.288 193.051 933.474 195.77 929.706 195.439L929.678 195.452Z" fill="#F7EECE" stroke="#797667" stroke-miterlimit="10"/>
<path d="M1010.09 143.178C1014.23 142.999 1020.11 142.115 1022.61 138.057C1026.28 132.094 1019.16 124.972 1022.32 120.141C1026.17 114.288 1042.5 115.862 1053.32 123.55C1055.81 125.317 1067.02 133.833 1065.26 143.454C1064.37 148.368 1060.5 151.35 1055.6 155.118C1053.67 156.609 1045.95 162.282 1033.99 164.214C1023.23 165.953 1014.4 163.828 1009.53 162.226" fill="#F7EECE"/>
<path d="M1010.09 143.178C1014.23 142.999 1020.11 142.115 1022.61 138.057C1026.28 132.094 1019.16 124.972 1022.32 120.141C1026.17 114.288 1042.5 115.862 1053.32 123.55C1055.81 125.317 1067.02 133.833 1065.26 143.454C1064.37 148.368 1060.5 151.35 1055.6 155.118C1053.67 156.609 1045.95 162.282 1033.99 164.214C1023.23 165.953 1014.4 163.828 1009.53 162.226" stroke="#797667" stroke-miterlimit="10"/>
<path d="M1212.85 112.991C1208.06 113.626 1203.03 123.412 1203.23 132.564C1203.49 144.917 1213.25 155.201 1220.63 154.731C1224.22 154.497 1227.04 151.736 1228.42 154.028C1229.84 156.36 1227.48 160.211 1228.42 167.941C1228.98 172.593 1230.05 172.896 1230.25 177.369C1230.5 182.89 1229 184.588 1229.8 187.031C1231.03 190.771 1236.31 192.207 1240.03 189.391C1244.72 185.83 1245.93 176.181 1246.6 171.005C1247.96 160.142 1246.07 153.724 1247.82 152.385C1250.1 150.646 1253.5 161.329 1261.42 163C1262.7 163.262 1266.32 164.021 1267.99 160.874C1269.45 158.127 1268.67 153.793 1267.99 150.025C1267.26 146.008 1266.21 140.128 1263.26 137.063C1257.39 130.963 1248.21 140.224 1246.91 136.829C1245.97 134.372 1251.05 130.328 1251.04 123.868C1251.01 114.551 1240.4 103.011 1232.56 105.951C1226.98 108.049 1225.35 116.525 1219.73 116.083C1216.34 115.821 1215.72 112.632 1212.86 113.019L1212.85 112.991Z" fill="#F7EECE" stroke="#797667" stroke-miterlimit="10"/>
<path d="M1160.4 108.409C1163.54 108.616 1168 109.665 1169.89 114.413C1172.68 121.398 1167.27 129.749 1169.67 135.408C1172.58 142.268 1184.99 140.432 1193.21 131.405C1195.1 129.335 1203.6 119.355 1202.28 108.078C1201.6 102.308 1198.66 98.8297 1194.93 94.4127C1193.47 92.6735 1187.6 86.0204 1178.52 83.7429C1170.36 81.7001 1163.65 84.1984 1159.96 86.0756" fill="#F7EECE"/>
<path d="M1160.4 108.409C1163.54 108.616 1168 109.665 1169.89 114.413C1172.68 121.398 1167.27 129.749 1169.67 135.408C1172.58 142.268 1184.99 140.432 1193.21 131.405C1195.1 129.335 1203.6 119.355 1202.28 108.078C1201.6 102.308 1198.66 98.8297 1194.93 94.4127C1193.47 92.6735 1187.6 86.0204 1178.52 83.7429C1170.36 81.7001 1163.65 84.1984 1159.96 86.0756" stroke="#797667" stroke-miterlimit="10"/>
<path d="M1147.69 190.452C1141.38 189.914 1134.77 181.549 1135.02 173.751C1135.36 163.219 1148.21 154.426 1157.96 154.84C1162.68 155.034 1166.39 157.394 1168.21 155.448C1170.08 153.46 1166.97 150.175 1168.21 143.577C1168.96 139.602 1170.35 139.353 1170.63 135.53C1170.96 130.809 1168.97 129.374 1170.02 127.276C1171.64 124.087 1178.61 122.859 1183.51 125.26C1189.69 128.297 1191.29 136.538 1192.16 140.955C1193.97 150.216 1191.46 155.71 1193.78 156.842C1196.77 158.319 1201.25 149.209 1211.68 147.787C1213.36 147.552 1218.14 146.904 1220.34 149.595C1222.25 151.942 1221.23 155.641 1220.34 158.843C1219.38 162.28 1217.99 167.291 1214.1 169.913C1206.38 175.117 1194.28 167.222 1192.58 170.12C1191.35 172.219 1198.03 175.669 1198.02 181.191C1197.99 189.141 1184.01 198.997 1173.67 196.484C1166.32 194.69 1164.17 187.471 1156.77 187.83C1152.3 188.051 1151.49 190.77 1147.72 190.439L1147.69 190.452Z" fill="#F7EECE" stroke="#797667" stroke-miterlimit="10"/>
<path d="M1079.57 175.581C1083.71 175.402 1089.59 174.519 1092.09 170.46C1095.76 164.497 1088.63 157.375 1091.8 152.544C1095.65 146.692 1111.98 148.265 1122.8 155.953C1125.28 157.72 1136.49 166.237 1134.74 175.857C1133.84 180.771 1129.97 183.753 1125.07 187.521C1123.14 189.012 1115.43 194.685 1103.46 196.617C1092.71 198.357 1083.87 196.231 1079 194.63" fill="#F7EECE"/>
<path d="M1079.57 175.581C1083.71 175.402 1089.59 174.519 1092.09 170.46C1095.76 164.497 1088.63 157.375 1091.8 152.544C1095.65 146.692 1111.98 148.265 1122.8 155.953C1125.28 157.72 1136.49 166.237 1134.74 175.857C1133.84 180.771 1129.97 183.753 1125.07 187.521C1123.14 189.012 1115.43 194.685 1103.46 196.617C1092.71 198.357 1083.87 196.231 1079 194.63" stroke="#797667" stroke-miterlimit="10"/>
<path d="M1281.63 124.507C1276.84 125.141 1271.81 134.928 1272.01 144.079C1272.27 156.433 1282.03 166.716 1289.41 166.247C1293 166.012 1295.82 163.252 1297.2 165.543C1298.62 167.876 1296.26 171.727 1297.2 179.457C1297.76 184.108 1298.82 184.412 1299.03 188.884C1299.28 194.405 1297.78 196.103 1298.58 198.546C1299.8 202.287 1305.09 203.723 1308.8 200.907C1313.5 197.345 1314.71 187.697 1315.37 182.521C1316.74 171.658 1314.85 165.239 1316.6 163.901C1318.88 162.161 1322.28 172.845 1330.2 174.515C1331.48 174.777 1335.1 175.537 1336.77 172.389C1338.23 169.643 1337.45 165.308 1336.77 161.54C1336.04 157.524 1334.99 151.643 1332.04 148.579C1326.17 142.478 1316.99 151.74 1315.69 148.344C1314.75 145.888 1319.83 141.843 1319.82 135.383C1319.79 126.066 1309.18 114.527 1301.34 117.467C1295.76 119.565 1294.13 128.04 1288.51 127.598C1285.12 127.336 1284.5 124.148 1281.64 124.534L1281.63 124.507Z" fill="#F7EECE" stroke="#797667" stroke-miterlimit="10"/>
<path d="M1228.87 159.589C1232.02 159.796 1236.47 160.845 1238.37 165.593C1241.15 172.577 1235.74 180.928 1238.15 186.588C1241.06 193.448 1253.47 191.612 1261.68 182.585C1263.57 180.514 1272.07 170.535 1270.75 159.257C1270.07 153.488 1267.13 150.009 1263.4 145.592C1261.94 143.853 1256.08 137.2 1246.99 134.923C1238.84 132.88 1232.13 135.378 1228.43 137.255" fill="#F7EECE"/>
<path d="M1228.87 159.589C1232.02 159.796 1236.47 160.845 1238.37 165.593C1241.15 172.577 1235.74 180.928 1238.15 186.588C1241.06 193.448 1253.47 191.612 1261.68 182.585C1263.57 180.514 1272.07 170.535 1270.75 159.257C1270.07 153.488 1267.13 150.009 1263.4 145.592C1261.94 143.853 1256.08 137.2 1246.99 134.923C1238.84 132.88 1232.13 135.378 1228.43 137.255" stroke="#797667" stroke-miterlimit="10"/>
<path fill-rule="evenodd" clip-rule="evenodd" d="M998 337H1284V339.465C1281.33 339.465 1279.17 341.451 1279.17 343.902C1279.17 346.352 1281.33 348.338 1284 348.339V352.283C1281.33 352.283 1279.17 354.27 1279.17 356.72C1279.17 359.17 1281.33 361.157 1284 361.157V365.101C1281.33 365.101 1279.17 367.087 1279.17 369.538C1279.17 371.988 1281.33 373.974 1284 373.975V377.918C1281.33 377.918 1279.17 379.905 1279.17 382.355C1279.17 384.805 1281.33 386.792 1284 386.792V390.736C1281.33 390.736 1279.17 392.723 1279.17 395.173C1279.17 397.623 1281.33 399.61 1284 399.61V403.555C1281.33 403.555 1279.17 405.541 1279.17 407.992C1279.17 410.442 1281.33 412.428 1284 412.429V416.372C1281.33 416.372 1279.17 418.359 1279.17 420.809C1279.17 423.259 1281.33 425.246 1284 425.246V428.943C1281.33 428.944 1279.17 430.93 1279.17 433.38C1279.17 435.831 1281.33 437.817 1284 437.817V441.515C1281.33 441.515 1279.17 443.501 1279.17 445.952C1279.17 448.402 1281.33 450.388 1284 450.389V455.319H998V450.409C998.48 450.555 998.993 450.635 999.526 450.635C1002.2 450.635 1004.36 448.648 1004.36 446.198C1004.36 443.747 1002.2 441.761 999.526 441.761C998.993 441.761 998.48 441.84 998 441.986V437.838C998.48 437.984 998.993 438.063 999.526 438.063C1002.2 438.063 1004.36 436.077 1004.36 433.626C1004.36 431.176 1002.2 429.189 999.526 429.189C998.993 429.189 998.48 429.269 998 429.415V425.267C998.48 425.413 998.993 425.492 999.526 425.492C1002.2 425.492 1004.36 423.506 1004.36 421.055C1004.36 418.605 1002.2 416.618 999.526 416.618C998.993 416.618 998.48 416.697 998 416.844V412.449C998.48 412.595 998.993 412.675 999.526 412.675C1002.2 412.675 1004.36 410.688 1004.36 408.238C1004.36 405.787 1002.2 403.801 999.526 403.801C998.993 403.801 998.48 403.88 998 404.026V399.632C998.48 399.778 998.993 399.857 999.526 399.857C1002.2 399.857 1004.36 397.871 1004.36 395.42C1004.36 392.97 1002.2 390.983 999.526 390.983C998.993 390.983 998.48 391.063 998 391.209V386.813C998.48 386.96 998.993 387.039 999.526 387.039C1002.2 387.039 1004.36 385.052 1004.36 382.602C1004.36 380.152 1002.2 378.165 999.526 378.165C998.993 378.165 998.48 378.244 998 378.391V373.996C998.48 374.142 998.993 374.222 999.526 374.222C1002.2 374.222 1004.36 372.235 1004.36 369.785C1004.36 367.334 1002.2 365.348 999.526 365.348C998.993 365.348 998.48 365.427 998 365.573V361.178C998.48 361.324 998.993 361.403 999.526 361.403C1002.2 361.403 1004.36 359.417 1004.36 356.966C1004.36 354.516 1002.2 352.529 999.526 352.529C998.993 352.529 998.48 352.609 998 352.755V348.359C998.48 348.506 998.993 348.585 999.526 348.585C1002.2 348.585 1004.36 346.598 1004.36 344.148C1004.36 341.697 1002.2 339.711 999.526 339.711C998.993 339.711 998.48 339.79 998 339.936V337Z" fill="#EADFC9"/>
</svg>
