<svg width="1366" height="821" viewBox="0 0 1366 821" fill="none" xmlns="http://www.w3.org/2000/svg">
<path fill-rule="evenodd" clip-rule="evenodd" d="M48.6758 0L1365.27 87.4839L1347.8 350.365L1347.8 350.365C1301.69 347.301 1261.22 391.338 1257.41 448.723C1253.59 506.109 1287.88 555.113 1333.99 558.177L1333.99 558.177L1316.59 820.02L0.00076422 732.536L17.4116 470.512C61.402 470.196 99.1069 427.297 102.781 372.005C106.455 316.713 74.7576 269.202 31.1956 263.068L48.6758 0Z" fill="#914536"/>
<path fill-rule="evenodd" clip-rule="evenodd" d="M22.9844 50H1342.48V305.611H1342.48C1296.27 305.611 1258.81 350.845 1258.81 406.643C1258.81 462.442 1296.27 507.675 1342.48 507.675H1342.48V762.275H22.9844V507.497C66.8575 504.362 101.636 460.407 101.636 406.644C101.636 352.881 66.8575 308.926 22.9844 305.791V50Z" fill="#E24728"/>
<path d="M1158.08 165.199L806.601 160.393C772.867 159.932 745.273 187.151 745.273 220.887V472.435C745.273 505.848 772.36 532.935 805.773 532.935H1157.33C1190.75 532.935 1217.84 505.836 1217.83 472.414L1217.75 225.673C1217.74 192.59 1191.16 165.652 1158.08 165.199Z" fill="#EADFC9" stroke="#EADFC9" stroke-width="9"/>
<path d="M567.12 172.938L215.663 168.156C181.931 167.697 154.34 194.915 154.34 228.65V478.908C154.34 512.113 181.103 539.113 214.307 539.406L565.763 542.502C599.384 542.798 626.797 515.626 626.797 482.004V233.433C626.797 200.34 600.209 173.388 567.12 172.938Z" fill="#EADFC9" stroke="#EADFC9" stroke-width="9"/>
<path fill-rule="evenodd" clip-rule="evenodd" d="M539.313 532.101L260.888 538.283L293.576 484.044C293.576 484.044 329.289 515.759 379.276 514.649C391.773 514.372 399.105 506.707 398.938 499.209C398.759 491.14 384.572 485.989 365.357 479.011C325.053 464.376 262.629 441.709 260.975 367.239C259.699 309.753 313.465 253.546 400.943 251.603C490.921 249.606 537.131 303.593 537.131 303.593L491.307 379.629C491.307 379.629 460.704 352.802 425.713 353.579C413.216 353.856 405.884 361.521 406.05 369.019C406.23 377.088 420.417 382.239 439.631 389.216C479.936 403.852 542.36 426.519 544.014 500.989C544.247 511.511 542.637 521.99 539.313 532.101Z" fill="#E24728"/>
<circle cx="463.664" cy="325.64" r="103.5" transform="rotate(-0.462274 463.664 325.64)" fill="#EADFC9"/>
<path fill-rule="evenodd" clip-rule="evenodd" d="M504.117 420.803C541.453 404.941 567.496 367.808 567.149 324.739C566.688 267.617 519.977 221.684 462.818 222.145C434.737 222.372 409.359 233.753 390.86 252.047C309.347 257.897 259.737 311.927 260.964 367.137C262.617 441.559 325.041 464.211 365.345 478.836C384.56 485.809 398.747 490.957 398.926 499.02C399.093 506.514 391.761 514.173 379.264 514.45C329.276 515.56 293.564 483.866 293.564 483.866L260.876 538.07L539.301 531.891C542.624 521.786 544.235 511.314 544.001 500.799C543.146 462.296 526.025 437.65 504.117 420.803ZM464.487 429.004C478.549 428.89 491.934 425.979 504.117 420.803C483.678 405.087 459.073 396.158 439.62 389.099C420.405 382.127 406.218 376.978 406.039 368.915C405.872 361.422 413.204 353.762 425.701 353.485C460.693 352.708 491.295 379.518 491.295 379.518L537.119 303.531C537.119 303.531 490.91 249.579 400.932 251.576C397.523 251.651 394.165 251.809 390.86 252.047C371.702 270.991 359.921 297.349 360.156 326.409C360.617 383.532 407.327 429.465 464.487 429.004Z" fill="#E24728"/>
<mask id="path-8-inside-1_463_411" fill="white">
<path fill-rule="evenodd" clip-rule="evenodd" d="M1145.21 526.459L841.127 530.689V221.586C841.127 221.586 911.127 216.586 988.627 216.586C1101.13 216.586 1146.13 261.586 1146.13 314.086C1146.13 374.086 1081.13 386.586 1081.13 386.586V389.086C1081.13 389.086 1161.13 401.586 1161.13 476.586C1161.13 494.715 1156.24 511.757 1145.21 526.459ZM971.127 351.586V306.586H988.627C1006.13 306.586 1016.13 316.586 1016.13 329.086C1016.13 341.586 1006.13 351.586 988.627 351.586H971.127ZM1021.13 461.586C1021.13 476.586 1011.13 486.586 991.127 486.586H971.127V436.586H991.127C1011.13 436.586 1021.13 446.586 1021.13 461.586Z"/>
</mask>
<path fill-rule="evenodd" clip-rule="evenodd" d="M1145.21 526.459L841.127 530.689V221.586C841.127 221.586 911.127 216.586 988.627 216.586C1101.13 216.586 1146.13 261.586 1146.13 314.086C1146.13 374.086 1081.13 386.586 1081.13 386.586V389.086C1081.13 389.086 1161.13 401.586 1161.13 476.586C1161.13 494.715 1156.24 511.757 1145.21 526.459ZM971.127 351.586V306.586H988.627C1006.13 306.586 1016.13 316.586 1016.13 329.086C1016.13 341.586 1006.13 351.586 988.627 351.586H971.127ZM1021.13 461.586C1021.13 476.586 1011.13 486.586 991.127 486.586H971.127V436.586H991.127C1011.13 436.586 1021.13 446.586 1021.13 461.586Z" fill="#E24728"/>
<path d="M1145.21 526.459L1145.22 527.459L1145.71 527.452L1146.01 527.059L1145.21 526.459ZM841.127 530.689H840.127V531.703L841.141 531.689L841.127 530.689ZM841.127 221.586L841.056 220.588L840.127 220.655V221.586H841.127ZM1081.13 386.586L1080.94 385.604L1080.13 385.76V386.586H1081.13ZM1081.13 389.086H1080.13V389.942L1080.97 390.074L1081.13 389.086ZM971.127 306.586V305.586H970.127V306.586H971.127ZM971.127 351.586H970.127V352.586H971.127V351.586ZM971.127 486.586H970.127V487.586H971.127V486.586ZM971.127 436.586V435.586H970.127V436.586H971.127ZM1145.19 525.459L841.113 529.689L841.141 531.689L1145.22 527.459L1145.19 525.459ZM842.127 530.689V221.586H840.127V530.689H842.127ZM841.127 221.586C841.198 222.583 841.198 222.583 841.199 222.583C841.199 222.583 841.2 222.583 841.201 222.583C841.203 222.583 841.206 222.583 841.211 222.583C841.219 222.582 841.232 222.581 841.249 222.58C841.282 222.577 841.333 222.574 841.4 222.569C841.535 222.56 841.735 222.546 842.001 222.527C842.531 222.491 843.32 222.437 844.352 222.369C846.416 222.232 849.451 222.037 853.336 221.803C861.105 221.334 872.272 220.71 885.86 220.085C913.038 218.835 949.897 217.586 988.627 217.586V215.586C949.857 215.586 912.966 216.837 885.769 218.087C872.169 218.712 860.993 219.338 853.215 219.806C849.326 220.041 846.287 220.236 844.22 220.373C843.186 220.442 842.396 220.495 841.863 220.532C841.597 220.55 841.395 220.565 841.26 220.574C841.193 220.579 841.142 220.582 841.107 220.585C841.09 220.586 841.077 220.587 841.069 220.588C841.064 220.588 841.061 220.588 841.059 220.588C841.058 220.588 841.057 220.588 841.057 220.588C841.056 220.588 841.056 220.588 841.127 221.586ZM988.627 217.586C1044.76 217.586 1083.91 228.816 1108.99 246.466C1134.03 264.089 1145.13 288.157 1145.13 314.086H1147.13C1147.13 287.515 1135.72 262.833 1110.14 244.831C1084.6 226.856 1044.99 215.586 988.627 215.586V217.586ZM1145.13 314.086C1145.13 343.65 1129.14 361.498 1113.08 371.999C1105.04 377.255 1097 380.66 1090.96 382.75C1087.94 383.795 1085.42 384.51 1083.67 384.963C1082.79 385.19 1082.11 385.351 1081.64 385.455C1081.41 385.507 1081.23 385.545 1081.11 385.569C1081.05 385.581 1081.01 385.59 1080.98 385.596C1080.96 385.599 1080.95 385.601 1080.95 385.602C1080.94 385.603 1080.94 385.603 1080.94 385.604C1080.94 385.604 1080.94 385.604 1080.94 385.604C1080.94 385.604 1080.94 385.604 1081.13 386.586C1081.32 387.568 1081.32 387.568 1081.32 387.568C1081.32 387.568 1081.32 387.567 1081.32 387.567C1081.32 387.567 1081.33 387.566 1081.33 387.565C1081.34 387.563 1081.35 387.561 1081.37 387.557C1081.4 387.551 1081.45 387.541 1081.52 387.527C1081.64 387.501 1081.83 387.461 1082.07 387.407C1082.56 387.298 1083.27 387.132 1084.17 386.9C1085.97 386.435 1088.53 385.705 1091.61 384.64C1097.76 382.512 1105.96 379.042 1114.17 373.673C1130.61 362.924 1147.13 344.522 1147.13 314.086H1145.13ZM1080.13 386.586V389.086H1082.13V386.586H1080.13ZM1081.13 389.086C1080.97 390.074 1080.97 390.074 1080.97 390.074C1080.97 390.074 1080.97 390.074 1080.97 390.074C1080.98 390.075 1080.98 390.075 1080.98 390.076C1080.99 390.077 1081.01 390.079 1081.02 390.082C1081.06 390.088 1081.11 390.097 1081.19 390.11C1081.33 390.135 1081.55 390.174 1081.84 390.228C1082.42 390.335 1083.26 390.504 1084.35 390.746C1086.51 391.229 1089.61 392.003 1093.33 393.165C1100.77 395.492 1110.69 399.366 1120.6 405.559C1140.39 417.93 1160.13 439.522 1160.13 476.586H1162.13C1162.13 438.65 1141.86 416.492 1121.66 403.863C1111.57 397.556 1101.48 393.618 1093.93 391.256C1090.15 390.075 1086.99 389.287 1084.78 388.794C1083.68 388.547 1082.81 388.374 1082.21 388.262C1081.91 388.206 1081.68 388.165 1081.53 388.138C1081.45 388.125 1081.39 388.115 1081.35 388.108C1081.33 388.105 1081.31 388.103 1081.3 388.101C1081.29 388.1 1081.29 388.099 1081.29 388.099C1081.29 388.099 1081.28 388.098 1081.28 388.098C1081.28 388.098 1081.28 388.098 1081.13 389.086ZM1160.13 476.586C1160.13 494.528 1155.29 511.352 1144.41 525.859L1146.01 527.059C1157.18 512.161 1162.13 494.901 1162.13 476.586H1160.13ZM970.127 306.586V351.586H972.127V306.586H970.127ZM988.627 305.586H971.127V307.586H988.627V305.586ZM1017.13 329.086C1017.13 322.555 1014.51 316.651 1009.59 312.393C1004.69 308.141 997.565 305.586 988.627 305.586V307.586C997.189 307.586 1003.81 310.031 1008.28 313.904C1012.75 317.771 1015.13 323.117 1015.13 329.086H1017.13ZM988.627 352.586C997.565 352.586 1004.69 350.031 1009.59 345.779C1014.51 341.521 1017.13 335.617 1017.13 329.086H1015.13C1015.13 335.055 1012.75 340.401 1008.28 344.268C1003.81 348.141 997.189 350.586 988.627 350.586V352.586ZM971.127 352.586H988.627V350.586H971.127V352.586ZM991.127 487.586C1001.28 487.586 1009.05 485.047 1014.29 480.464C1019.54 475.865 1022.13 469.318 1022.13 461.586H1020.13C1020.13 468.853 1017.71 474.807 1012.97 478.958C1008.21 483.125 1000.97 485.586 991.127 485.586V487.586ZM971.127 487.586H991.127V485.586H971.127V487.586ZM970.127 436.586V486.586H972.127V436.586H970.127ZM991.127 435.586H971.127V437.586H991.127V435.586ZM1022.13 461.586C1022.13 453.853 1019.54 447.307 1014.29 442.708C1009.05 438.125 1001.28 435.586 991.127 435.586V437.586C1000.97 437.586 1008.21 440.047 1012.97 444.214C1017.71 448.365 1020.13 454.318 1020.13 461.586H1022.13Z" fill="#EADFC9" mask="url(#path-8-inside-1_463_411)"/>
<path d="M467.823 102.259C471.698 102.25 473.32 107.205 470.191 109.49L458.838 117.777C457.438 118.799 456.856 120.605 457.395 122.252L461.768 135.61C462.974 139.292 458.763 142.366 455.623 140.096L444.233 131.86C442.829 130.844 440.931 130.849 439.531 131.87L428.179 140.158C425.049 142.442 420.824 139.387 422.013 135.699L426.327 122.322C426.858 120.673 426.268 118.869 424.864 117.853L413.474 109.617C410.334 107.347 411.934 102.384 415.809 102.376L429.864 102.344C431.597 102.34 433.13 101.221 433.662 99.5717L437.976 86.1945C439.165 82.5066 444.378 82.4949 445.584 86.1774L449.957 99.5351C450.497 101.182 452.035 102.294 453.768 102.291L467.823 102.259Z" fill="#EADFC9"/>
<path d="M591.651 103.581C595.526 103.573 597.148 108.527 594.019 110.812L582.666 119.099C581.267 120.121 580.684 121.928 581.223 123.574L585.597 136.932C586.802 140.615 582.591 143.689 579.451 141.418L568.062 133.182C566.657 132.167 564.759 132.171 563.359 133.193L552.007 141.48C548.877 143.764 544.652 140.709 545.841 137.021L550.155 123.644C550.687 121.995 550.096 120.191 548.692 119.175L537.302 110.939C534.162 108.669 535.762 103.707 539.637 103.698L553.692 103.666C555.425 103.663 556.959 102.543 557.49 100.894L561.804 87.5168C562.993 83.8288 568.206 83.8171 569.412 87.4997L573.786 100.857C574.325 102.504 575.863 103.617 577.596 103.613L591.651 103.581Z" fill="#EADFC9"/>
<path d="M701.479 102.325C705.354 102.317 706.977 107.272 703.847 109.556L692.494 117.843C691.095 118.865 690.512 120.672 691.051 122.319L695.425 135.676C696.63 139.359 692.419 142.433 689.279 140.162L677.89 131.926C676.486 130.911 674.587 130.915 673.187 131.937L661.835 140.224C658.705 142.509 654.48 139.454 655.67 135.766L659.983 122.388C660.515 120.739 659.924 118.935 658.52 117.92L647.13 109.683C643.99 107.413 645.59 102.451 649.465 102.442L663.52 102.411C665.253 102.407 666.787 101.287 667.318 99.6381L671.632 86.2609C672.821 82.573 678.035 82.5613 679.24 86.2438L683.614 99.6016C684.153 101.248 685.691 102.361 687.424 102.357L701.479 102.325Z" fill="#EADFC9"/>
<path d="M825.479 99.3254C829.354 99.3167 830.977 104.272 827.847 106.556L816.494 114.843C815.095 115.865 814.512 117.672 815.051 119.319L819.425 132.676C820.63 136.359 816.419 139.433 813.279 137.162L801.89 128.926C800.486 127.911 798.587 127.915 797.187 128.937L785.835 137.224C782.705 139.509 778.48 136.454 779.67 132.766L783.983 119.388C784.515 117.739 783.924 115.935 782.52 114.92L771.13 106.683C767.99 104.413 769.59 99.4509 773.465 99.4422L787.52 99.4106C789.253 99.4067 790.787 98.2874 791.318 96.6381L795.632 83.2609C796.821 79.573 802.035 79.5613 803.24 83.2438L807.614 96.6016C808.153 98.2484 809.691 99.3608 811.424 99.3569L825.479 99.3254Z" fill="#EADFC9"/>
<path d="M949.069 96.3176C952.944 96.3089 954.566 101.264 951.437 103.548L940.084 111.835C938.685 112.857 938.102 114.664 938.641 116.311L943.014 129.669C944.22 133.351 940.009 136.425 936.869 134.154L925.48 125.918C924.075 124.903 922.177 124.907 920.777 125.929L909.425 134.216C906.295 136.501 902.07 133.446 903.259 129.758L907.573 116.381C908.105 114.731 907.514 112.927 906.11 111.912L894.72 103.676C891.58 101.405 893.18 96.443 897.055 96.4343L911.11 96.4028C912.843 96.3989 914.377 95.2796 914.908 93.6303L919.222 80.2531C920.411 76.5652 925.624 76.5535 926.83 80.236L931.203 93.5937C931.743 95.2406 933.281 96.353 935.014 96.3491L949.069 96.3176Z" fill="#EADFC9"/>
<path d="M535.484 539.5L538.984 532H265.984L263.484 537.5L535.484 539.5Z" fill="#E24728"/>
</svg>
