<svg width="405" height="390" viewBox="0 0 405 390" fill="none" xmlns="http://www.w3.org/2000/svg">
<path d="M397.634 375.195H401.134V371.695V371.39V371.085V370.78V370.474V370.168V369.862V369.555V369.248V368.941V368.633V368.325V368.017V367.708V367.399V367.089V366.78V366.47V366.159V365.848V365.537V365.226V364.914V364.602V364.29V363.977V363.664V363.351V363.037V362.723V362.409V362.094V361.779V361.464V361.149V360.833V360.517V360.2V359.883V359.566V359.249V358.931V358.613V358.295V357.976V357.657V357.338V357.018V356.699V356.379V356.058V355.737V355.416V355.095V354.774V354.452V354.13V353.807V353.484V353.161V352.838V352.514V352.191V351.866V351.542V351.217V350.892V350.567V350.242V349.916V349.59V349.263V348.937V348.61V348.283V347.955V347.628V347.3V346.971V346.643V346.314V345.985V345.656V345.326V344.997V344.667V344.336V344.006V343.675V343.344V343.013V342.681V342.349V342.017V341.685V341.353V341.02V340.687V340.354V340.02V339.686V339.352V339.018V338.684V338.349V338.014V337.679V337.344V337.008V336.672V336.336V336V335.663V335.327V334.99V334.653V334.315V333.978V333.64V333.302V332.963V332.625V332.286V331.947V331.608V331.269V330.929V330.59V330.25V329.909V329.569V329.229V328.888V328.547V328.206V327.864V327.523V327.181V326.839V326.497V326.155V325.812V325.469V325.126V324.783V324.44V324.096V323.753V323.409V323.065V322.721V322.376V322.032V321.687V321.342V320.997V320.652V320.306V319.961V319.615V319.269V318.923V318.576V318.23V317.883V317.536V317.189V316.842V316.495V316.148V315.8V315.452V315.104V314.756V314.408V314.059V313.711V313.362V313.013V312.664V312.315V311.966V311.616V311.267V310.917V310.567V310.217V309.867V309.517V309.166V308.816V308.465V308.114V307.763V307.412V307.061V306.71V306.358V306.006V305.655V305.303V304.951V304.599V304.246V303.894V303.542V303.189V302.836V302.483V302.13V301.777V301.424V301.071V300.717V300.364V300.01V299.657V299.303V298.949V298.595V298.241V297.886V297.532V297.178V296.823V296.468V296.114V295.759V295.404V295.049V294.694V294.339V293.983V293.628V293.272V292.917V292.561V292.206V291.85V291.494V291.138V290.782V290.426V290.069V289.713V289.357V289V288.644V288.287V287.931V287.574V287.217V286.86V286.503V286.147V285.789V285.432V285.075V284.718V284.361V284.003V283.646V283.289V282.931V282.573V282.216V281.858V281.501V281.143V280.785V280.427V280.069V279.711V279.353V278.995V278.637V278.279V277.921V277.563V277.205V276.846V276.488V276.13V275.771V275.413V275.055V274.696V274.338V273.979V273.621V273.262V272.904V272.545V272.186V271.828V271.469V271.111V270.752V270.393V270.034V269.676V269.317V268.958V268.6V268.241V267.882V267.523V267.165V266.806V266.447V266.088V265.729V265.371V265.012V264.653V264.294V263.936V263.577V263.218V262.859V262.501V262.142V261.783V261.425V261.066V260.707V260.349V259.99V259.631V259.273V258.914V258.556V258.197V257.839V257.48V257.122V256.764V256.405V256.047V255.689V255.33V254.972V254.614V254.256V253.897V253.539V253.181V252.823V252.465V252.107V251.75V251.392V251.034V250.676V250.318V249.961V249.603V249.246V248.888V248.531V248.173V247.816V247.459V247.102V246.744V246.387V246.03V245.673V245.316V244.96V244.603V244.246V243.89V243.533V243.177V242.82V242.464V242.108V241.751V241.395V241.039V240.683V240.327V239.972V239.616V239.26V238.905V238.549V238.194V237.839V237.483V237.128V236.773V236.418V236.064V235.709V235.354V235V234.645V234.291V233.937V233.583V233.229V232.875V232.521V232.167V231.814V231.46V231.107V230.753V230.4V230.047V229.694V229.342V228.989V228.636V228.284V227.931V227.579V227.227V226.875V226.523V226.172V225.82V225.468V225.117V224.766V224.415V224.064V223.713V223.362V223.012V222.661V222.311V221.961V221.611V221.261V220.912V220.562V220.213V219.863V219.514V219.165V218.816V218.468V218.119V217.771V217.423V217.075V216.727V216.379V216.031V215.684V215.337V214.99V214.643V214.296V213.949V213.603V213.256V212.91V212.564V212.219V211.873V211.528V211.182V210.837V210.492V210.148V209.803V209.459V209.115V208.771V208.427V208.083V207.74V207.397V207.053V206.711V206.368V206.025V205.683V205.341V204.999V204.657V204.316V203.975V203.633V203.292V202.952V202.611V202.271V201.931V201.591V201.251V200.912V200.572V200.233V199.894V199.556V199.217V198.879V198.541V198.203V197.866V197.528V197.191V196.854V196.518V196.181V195.845V195.509V195.173C401.134 89.8731 316.181 5.16016 201.129 5.16016C155.451 5.16016 119.895 18.6984 95.7508 32.2529C83.6815 39.0287 74.4581 45.8113 68.235 50.9174C65.1228 53.471 62.7587 55.6072 61.1621 57.1162C60.3637 57.8708 59.757 58.4688 59.3443 58.8841C59.138 59.0917 58.9801 59.2537 58.8711 59.3667C58.8166 59.4232 58.7742 59.4675 58.7441 59.4992L58.7082 59.5371L58.6971 59.5489L58.6932 59.553C58.6918 59.5545 58.6906 59.5558 61.2439 61.9496L58.6906 59.5558L56.8422 61.5275L58.2821 63.8145L114.902 153.74L117.238 157.451L120.337 154.352L120.338 154.352L120.339 154.35L120.346 154.343L120.392 154.299C120.403 154.288 120.415 154.275 120.429 154.262C120.471 154.221 120.526 154.167 120.595 154.101C120.781 153.923 121.064 153.655 121.441 153.309C122.195 152.617 123.32 151.616 124.779 150.409C127.7 147.992 131.938 144.762 137.184 141.534C147.725 135.047 162.065 128.731 177.815 128.731C203.558 128.731 217.575 137.534 225.184 145.904C229.034 150.139 231.336 154.365 232.67 157.51C232.795 157.806 232.912 158.092 233.021 158.367H184.476C127.45 158.367 86.6164 170.097 59.9622 190.303C33.1656 210.616 21.1074 239.189 21.1074 271.777C21.1074 304.31 33.1118 332.735 54.6835 353.012C76.2443 373.28 107.122 385.186 144.509 385.186C175.541 385.186 197.981 372.234 212.604 359.331C219.907 352.888 225.276 346.445 228.827 341.603C229.284 340.979 229.712 340.382 230.11 339.813L241.106 372.802L241.904 375.195H244.427H397.634ZM199.503 232.096C206.907 226.455 218.261 222.546 234.219 222.043C233.755 239.672 229.832 251.942 224.465 259.813C218.799 268.125 211.503 271.608 204.459 271.608C200.602 271.608 196.451 269.643 193.196 266.388C189.94 263.132 187.976 258.982 187.976 255.124C187.976 246.194 191.653 238.077 199.503 232.096Z" stroke="#533D27" stroke-width="7"/>
<circle cx="142.549" cy="385.016" r="3.49671" fill="#EADFC9" stroke="#533D27"/>
<circle cx="210.493" cy="385.016" r="3.49671" fill="#533D27" stroke="#533D27"/>
<circle cx="74.6061" cy="385.016" r="3.49671" fill="#533D27" stroke="#533D27"/>
<circle cx="23.9791" cy="339.719" r="3.49671" fill="#533D27" stroke="#533D27"/>
<circle cx="23.9791" cy="273.108" r="3.49671" fill="#EADFC9" stroke="#533D27"/>
<path d="M23.9805 339.721V274.109V208.496" stroke="#533D27"/>
<circle cx="23.9791" cy="209.161" r="3.49671" fill="#533D27" stroke="#533D27"/>
<circle cx="65.2799" cy="161.2" r="3.49671" fill="#533D27" stroke="#533D27"/>
<circle cx="186.512" cy="161.2" r="3.49671" fill="#EADFC9" stroke="#533D27"/>
<circle cx="209.161" cy="3.99671" r="3.49671" fill="#EADFC9" stroke="#533D27"/>
<circle cx="318.405" cy="3.99671" r="3.49671" fill="#533D27" stroke="#533D27"/>
<path d="M115.904 4.66211H317.072" stroke="#533D27"/>
<circle cx="113.241" cy="3.99671" r="3.49671" fill="#533D27" stroke="#533D27"/>
<circle cx="400.997" cy="92.9967" r="3.49671" fill="#533D27" stroke="#533D27"/>
<path d="M75.9375 385.016H210.493" stroke="#533D27"/>
<path d="M402.336 92.5898L402.336 175.855" stroke="#533D27"/>
<rect x="319.904" y="5.49609" width="80.9309" height="86.2599" stroke="#533D27" stroke-width="3" stroke-dasharray="8 8"/>
<path d="M66.6113 161.201L184 162" stroke="#533D27"/>
<rect x="1.5" y="146.713" width="62.2796" height="62.2796" stroke="#533D27" stroke-width="3" stroke-dasharray="7 7"/>
<rect x="6.82812" y="341.221" width="70.273" height="46.2928" stroke="#533D27" stroke-width="3" stroke-dasharray="9 9"/>
</svg>
