<svg width="420" height="327" viewBox="0 0 420 327" fill="none" xmlns="http://www.w3.org/2000/svg">
<path d="M104.19 186.571L78.5977 185L86.0977 169.299L95.5977 169.298H120.344L139.405 159.922L144.098 186.571L130.359 192L104.19 186.571Z" fill="#4A3B37" stroke="#4A3B37"/>
<path fill-rule="evenodd" clip-rule="evenodd" d="M140.481 36.3165L162.018 7.6C165.607 2.81569 171.238 0 177.218 0H226.989C233.432 0 239.436 3.26518 242.937 8.67348L262.792 39.3384C266.591 45.2048 266.862 52.6828 263.499 58.8089L250.533 82.4243C249.697 83.9469 249.074 85.5768 248.681 87.2686L242.606 113.416C241.685 117.381 242.062 121.536 243.68 125.27L252.344 145.264C254.001 149.087 256.868 152.26 260.505 154.293L283.269 167.021C286.103 168.606 289.295 169.438 292.542 169.438H304.078C309.47 169.438 314.607 167.147 318.211 163.137L330.974 148.933C333.182 146.475 334.712 143.484 335.411 140.254L341.726 111.084L346.005 80.8054C346.198 79.4345 346.541 78.0889 347.027 76.7925L351.711 64.302C352.974 60.9347 355.482 58.1811 358.717 56.6098C363.214 54.4255 368.534 54.7999 372.681 57.5927L374.451 58.7846C379.846 62.4184 382.819 68.7148 382.196 75.19L378.272 116.003C378.048 118.328 377.398 120.592 376.353 122.681L363.611 148.167C362.621 150.146 361.293 151.937 359.688 153.459L332.585 179.151C329.836 181.756 326.372 183.48 322.637 184.103L296.925 188.388C295.395 188.643 293.839 188.71 292.293 188.587L256.688 185.751C255.509 185.657 254.364 185.307 253.334 184.726L247.963 181.696C244.935 179.988 241.188 182.176 241.188 185.652C241.188 187.532 240.031 189.217 238.277 189.892L232.987 191.926C232.362 192.167 231.72 192.357 231.065 192.497L205.037 198.054C202.224 198.654 199.311 198.608 196.519 197.919L177.51 193.229C174.993 192.608 172.63 191.478 170.565 189.909L166.081 186.501C165.306 185.912 164.665 185.167 164.2 184.313C162.296 180.823 157.844 179.662 154.478 181.778L150.376 184.356C149.062 185.182 147.593 185.732 146.06 185.973L109.422 191.726C107.061 192.097 104.652 192.019 102.319 191.496L70.5938 184.385C66.9905 183.578 63.7006 181.737 61.1264 179.09L31.5732 148.692C29.3348 146.39 27.7164 143.558 26.8692 140.46L17.7219 107.015C17.1853 105.053 16.9672 103.018 17.076 100.986L18.5145 74.1359C18.8334 68.1822 21.9286 62.7235 26.8738 59.393L29.7478 57.4575C33.8279 54.7096 38.9805 54.0917 43.5946 55.7969C49.0053 57.7966 52.8309 62.67 53.4886 68.4008L57.3378 101.944L63.9255 138.775C64.6683 142.928 66.7722 146.716 69.9055 149.541L82.6168 161.002C85.1677 163.302 88.2944 164.867 91.6642 165.532L105.106 168.182C109.234 168.996 113.515 168.417 117.279 166.535L129.674 160.338C132.494 158.927 134.92 156.837 136.731 154.255L147.048 139.548C149.29 136.351 150.493 132.541 150.493 128.637V88.5127C150.493 86.0082 149.998 83.5285 149.036 81.216L138.138 55.0132C135.556 48.8054 136.447 41.6952 140.481 36.3165ZM215.173 39.0201C215.173 47.7566 208.405 54.8389 200.057 54.8389C191.709 54.8389 184.941 47.7566 184.941 39.0201C184.941 30.2835 191.709 23.2012 200.057 23.2012C208.405 23.2012 215.173 30.2835 215.173 39.0201ZM200.057 143.425C208.405 143.425 215.173 136.343 215.173 127.606C215.173 118.869 208.405 111.787 200.057 111.787C191.709 111.787 184.941 118.869 184.941 127.606C184.941 136.343 191.709 143.425 200.057 143.425Z" fill="#4A3B37"/>
<path fill-rule="evenodd" clip-rule="evenodd" d="M341.369 125.082C304.735 125.819 275.56 156.115 276.205 192.75L278.552 325.989L411.215 323.321L408.869 190.082C408.224 153.447 378.003 124.345 341.369 125.082ZM342.584 194.238C355.732 193.974 366.189 182.369 365.942 168.319C365.694 154.269 354.836 143.093 341.688 143.357C328.541 143.622 318.083 155.226 318.331 169.277C318.578 183.327 329.437 194.503 342.584 194.238Z" fill="#B23D25"/>
<path fill-rule="evenodd" clip-rule="evenodd" d="M349.246 125.084C312.612 125.821 283.437 156.117 284.082 192.752L286.428 325.991L419.092 323.323L416.746 190.084C416.101 153.449 385.88 124.347 349.246 125.084ZM350.461 194.24C363.609 193.976 374.066 182.371 373.819 168.321C373.571 154.27 362.713 143.095 349.565 143.359C336.418 143.624 325.96 155.228 326.208 169.278C326.455 183.329 337.314 194.505 350.461 194.24Z" fill="#E73E26"/>
<path d="M339.375 146.5L339.098 125L377.098 119L370.028 135.633L361 152L348.999 162L339.375 146.5Z" fill="#4A3B37" stroke="#4A3B37"/>
<path fill-rule="evenodd" clip-rule="evenodd" d="M66.3378 125.344C29.7037 126.08 0.528849 156.377 1.17399 193.012L3.52029 326.251L136.184 323.582L133.838 190.344C133.193 153.708 102.972 124.607 66.3378 125.344ZM67.5531 194.5C80.7005 194.236 91.1581 182.631 90.9106 168.581C90.6632 154.53 79.8045 143.354 66.6571 143.619C53.5097 143.883 43.0521 155.488 43.2996 169.538C43.547 183.589 54.4057 194.764 67.5531 194.5Z" fill="#B23D25"/>
<path fill-rule="evenodd" clip-rule="evenodd" d="M74.2147 125.346C37.5806 126.082 8.4058 156.378 9.05094 193.014L11.3972 326.252L144.061 323.584L141.715 190.346C141.07 153.71 110.849 124.609 74.2147 125.346ZM75.4301 194.502C88.5775 194.238 99.035 182.633 98.7876 168.583C98.5402 154.532 87.6815 143.356 74.534 143.621C61.3866 143.885 50.9291 155.49 51.1765 169.54C51.4239 183.591 62.2826 194.766 75.4301 194.502Z" fill="#E73E26"/>
<path d="M43.5 163L27 138.5L32 133L43.5 128L60.5 123L66.5 146L73 152.5L61.5 175L43.5 163Z" fill="#4A3B37" stroke="#4A3B37"/>
</svg>
