<svg width="1410" height="1218" viewBox="0 0 1410 1218" fill="none" xmlns="http://www.w3.org/2000/svg">
<g clip-path="url(#clip0_463_479)">
<rect width="1410" height="1218" fill="white"/>
<rect y="1" width="1410" height="1216" fill="#4A3B37"/>
<path d="M40.9734 984H-26V1098L92 1095.51V1035.51C92 1025.49 88.9886 1015.7 83.3564 1007.41L82.3297 1005.9C73.0219 992.201 57.5349 984 40.9734 984Z" fill="#C14228"/>
<path d="M854.973 984H788V1098L906 1095.51V1035.51C906 1025.49 902.989 1015.7 897.356 1007.41L896.33 1005.9C887.022 992.201 871.535 984 854.973 984Z" fill="#C14228"/>
<path d="M1017.19 984H962.057C956.11 984 950.231 985.263 944.808 987.706L942.486 988.751C930.357 994.215 921.533 1005.1 918.699 1018.1L915.534 1032.62C914.893 1035.56 914.57 1038.56 914.57 1041.56V1110.59H1070V1038.73C1070 1029.75 1067.58 1020.94 1063 1013.22L1060.19 1008.49C1051.19 993.307 1034.84 984 1017.19 984Z" fill="#C14228"/>
<path d="M1179 984H1127.76C1120.93 984 1114.2 985.668 1108.16 988.858L1105.58 990.22C1094.23 996.211 1086.24 1007.06 1083.9 1019.68L1079.71 1042.19C1079.24 1044.72 1079 1047.29 1079 1049.87V1127H1234V1043.88C1234 1036.03 1232.15 1028.29 1228.61 1021.29L1223.61 1011.42C1215.1 994.601 1197.85 984 1179 984Z" fill="#C14228"/>
<path d="M1349.97 984H1291.29C1286 984 1280.77 984.997 1275.85 986.938L1273.38 987.916C1260.76 992.902 1251.33 1003.68 1248.05 1016.85L1245.82 1025.83C1245 1029.15 1244.58 1032.55 1244.58 1035.96V1092H1401V1035.53C1401 1025.54 1398.01 1015.79 1392.42 1007.52L1391.38 1005.99C1382.08 992.238 1366.56 984 1349.97 984Z" fill="#C14228"/>
<path d="M201.605 984H149.007C142.45 984 135.984 985.535 130.127 988.482L127.602 989.753C115.997 995.593 107.748 1006.47 105.259 1019.23L101.347 1039.27C100.83 1041.92 100.57 1044.61 100.57 1047.31V1125.42H256V1042.28C256 1034.1 253.994 1026.05 250.159 1018.82L245.764 1010.55C237.088 994.212 220.102 984 201.605 984Z" fill="#C14228"/>
<path d="M366.566 984H312.783C306.577 984 300.449 985.375 294.838 988.027L292.53 989.117C280.616 994.748 272.035 1005.64 269.353 1018.54L265.879 1035.26C265.294 1038.07 265 1040.94 265 1043.81V1112H420V1040.07C420 1031.45 417.769 1022.97 413.523 1015.46L410.089 1009.39C401.217 993.7 384.589 984 366.566 984Z" fill="#C14228"/>
<path d="M533.475 984H478.637C472.481 984 466.4 985.353 460.825 987.964L458.26 989.165C446.304 994.764 437.676 1005.66 434.966 1018.58L431.474 1035.23C430.88 1038.06 430.58 1040.95 430.58 1043.85V1112H587V1040.18C587 1031.48 584.734 1022.94 580.426 1015.39L576.901 1009.22C568.003 993.625 551.428 984 533.475 984Z" fill="#C14228"/>
<path d="M696.001 984H644.765C637.931 984 631.2 985.668 625.156 988.858L622.578 990.22C611.229 996.211 603.242 1007.06 600.895 1019.68L596.708 1042.19C596.237 1044.72 596 1047.29 596 1049.87V1127H751V1043.88C751 1036.03 749.154 1028.29 745.61 1021.29L740.611 1011.42C732.098 994.601 714.851 984 696.001 984Z" fill="#C14228"/>
<path d="M860.157 980H802.013C796.741 980 791.517 980.992 786.612 982.925L784.328 983.826C771.7 988.803 762.256 999.575 758.975 1012.74L756.816 1021.41C755.988 1024.73 755.57 1028.14 755.57 1031.56V1090.76H911V1031.24C911 1021.24 907.999 1011.46 902.384 1003.18L901.541 1001.94C892.237 988.218 876.736 980 860.157 980Z" fill="#C14228"/>
<path d="M94.0112 1048H-26V1227L159 1223.09V1120.09C159 1110.08 155.996 1100.3 150.376 1092.02L135.387 1069.93C126.082 1056.21 110.585 1048 94.0112 1048Z" fill="#CE462A"/>
<path d="M351.404 1048H240.687C235.429 1048 230.217 1048.99 225.324 1050.91L206.128 1058.46C193.491 1063.42 184.035 1074.19 180.744 1087.36L173.712 1115.5C172.88 1118.83 172.459 1122.25 172.459 1125.68V1221.07H416V1119.47C416 1109.44 412.985 1099.64 407.347 1091.35L392.751 1069.89C383.442 1056.2 367.96 1048 351.404 1048Z" fill="#CE462A"/>
<path d="M609.215 1048H499.231C493.884 1048 488.586 1049.02 483.621 1051.01L464.538 1058.65C451.961 1063.68 442.585 1074.48 439.357 1087.63L432.21 1116.77C431.406 1120.04 431 1123.4 431 1126.78V1218H674V1120.15C674 1110.27 671.072 1100.61 665.586 1092.39L650.801 1070.24C641.525 1056.34 625.922 1048 609.215 1048Z" fill="#CE462A"/>
<path d="M870.068 1048H759.033C753.716 1048 748.447 1049.01 743.507 1050.97L724.128 1058.68C711.53 1063.7 702.127 1074.48 698.877 1087.64L691.694 1116.74C690.881 1120.03 690.47 1123.41 690.47 1126.81V1218H935V1120.23C935 1110.3 932.043 1100.59 926.505 1092.35L911.573 1070.12C902.286 1056.29 886.724 1048 870.068 1048Z" fill="#CE462A"/>
<path d="M1128.12 1048H1017.45C1012.12 1048 1006.84 1049.01 1001.89 1050.99L982.616 1058.67C970.026 1063.69 960.632 1074.48 957.39 1087.64L950.219 1116.75C949.409 1120.04 949 1123.41 949 1126.8V1218H1193V1120.2C1193 1110.29 1190.05 1100.6 1184.53 1092.36L1169.65 1070.16C1160.37 1056.31 1144.79 1048 1128.12 1048Z" fill="#CE462A"/>
<path d="M1376.21 1043H1264.14C1258.92 1043 1253.74 1043.97 1248.88 1045.87L1229.3 1053.5C1216.64 1058.44 1207.15 1069.2 1203.83 1082.37L1196.75 1110.46C1195.91 1113.82 1195.48 1117.26 1195.48 1120.72V1216.07H1441V1114.57C1441 1104.48 1437.95 1094.62 1432.24 1086.3L1417.46 1064.73C1408.13 1051.13 1392.7 1043 1376.21 1043Z" fill="#CE462A"/>
<path d="M123.062 1096H-25V1227L187 1224.14V1159.12C187 1145.34 181.309 1132.16 171.271 1122.71L157.333 1109.59C148.057 1100.86 135.8 1096 123.062 1096Z" fill="#E73E26"/>
<path d="M420.296 1096H277.57C274.149 1096 270.741 1096.42 267.422 1097.24L239.446 1104.21C226.277 1107.49 215.503 1116.93 210.524 1129.56L205.769 1141.61C203.833 1146.52 202.839 1151.75 202.839 1157.02V1222.59H484V1158.77C484 1144.9 478.236 1131.65 468.085 1122.19L454.381 1109.42C445.126 1100.8 432.946 1096 420.296 1096Z" fill="#E73E26"/>
<path d="M719.13 1096H575.95C572.522 1096 569.106 1096.42 565.779 1097.25L537.657 1104.27C524.486 1107.56 513.716 1117.01 508.745 1129.64L503.917 1141.91C501.989 1146.81 501 1152.03 501 1157.29V1219H783V1158.95C783 1145.1 777.253 1131.87 767.129 1122.41L753.259 1109.46C743.999 1100.81 731.801 1096 719.13 1096Z" fill="#E73E26"/>
<path d="M1017.11 1096H873.835C870.408 1096 866.994 1096.42 863.669 1097.25L835.515 1104.27C822.344 1107.56 811.573 1117.01 806.6 1129.64L801.77 1141.91C799.84 1146.81 798.85 1152.03 798.85 1157.29V1219H1081V1158.96C1081 1145.1 1075.25 1131.87 1065.12 1122.41L1051.23 1109.45C1041.97 1100.81 1029.78 1096 1017.11 1096Z" fill="#E73E26"/>
<path d="M1315.24 1096H1172.72C1169.28 1096 1165.85 1096.42 1162.52 1097.26L1134.61 1104.25C1121.43 1107.55 1110.67 1117.02 1105.71 1129.66L1100.9 1141.93C1098.98 1146.82 1098 1152.02 1098 1157.26V1219H1379V1158.9C1379 1145.08 1373.28 1131.87 1363.19 1122.42L1349.43 1109.52C1340.16 1100.83 1327.94 1096 1315.24 1096Z" fill="#E73E26"/>
<path d="M61.7315 160.531L-26 104.471V0H1415V59.8588L1372.58 111.612C1335.2 157.213 1279.6 183.996 1220.64 184.804L695.75 192H169.422C131.258 192 93.8908 181.081 61.7315 160.531Z" fill="#735B55"/>
<ellipse cx="300.5" cy="87.5" rx="20.5" ry="12.5" fill="#F7EECE"/>
<ellipse cx="478.5" cy="87.5" rx="20.5" ry="12.5" fill="#F7EECE"/>
<ellipse cx="344" cy="123" rx="17" ry="10" fill="#F7EECE"/>
<ellipse cx="385.5" cy="153.5" rx="16.5" ry="9.5" fill="#F7EECE"/>
<ellipse cx="17.5" cy="12.5" rx="17.5" ry="12.5" transform="matrix(-1 0 0 1 1071 75)" fill="#F7EECE"/>
<ellipse cx="14.5" cy="10" rx="14.5" ry="10" transform="matrix(-1 0 0 1 1029 113)" fill="#F7EECE"/>
<ellipse cx="14.5" cy="9.5" rx="14.5" ry="9.5" transform="matrix(-1 0 0 1 994 144)" fill="#F7EECE"/>
<ellipse cx="677.5" cy="87.5" rx="20.5" ry="12.5" fill="#F7EECE"/>
<ellipse cx="677.5" cy="124" rx="17.5" ry="11" fill="#F7EECE"/>
<ellipse cx="677" cy="154.5" rx="14" ry="8.5" fill="#F7EECE"/>
<ellipse cx="505" cy="123" rx="17" ry="10" fill="#F7EECE"/>
<ellipse cx="529.5" cy="153.5" rx="16.5" ry="9.5" fill="#F7EECE"/>
<ellipse cx="19.5" cy="12.5" rx="19.5" ry="12.5" transform="matrix(-1 0 0 1 896 75)" fill="#F7EECE"/>
<ellipse cx="16.5" cy="10" rx="16.5" ry="10" transform="matrix(-1 0 0 1 868 113)" fill="#F7EECE"/>
<ellipse cx="15.5" cy="9.5" rx="15.5" ry="9.5" transform="matrix(-1 0 0 1 843 144)" fill="#F7EECE"/>
</g>
<defs>
<clipPath id="clip0_463_479">
<rect width="1410" height="1218" fill="white"/>
</clipPath>
</defs>
</svg>
