<svg width="1425" height="2108" viewBox="0 0 1425 2108" fill="none" xmlns="http://www.w3.org/2000/svg">
<g clip-path="url(#clip0_469_571)">
<path d="M31 39L66.6981 307.304L213.231 81.3358L131.024 338.834L359.369 199.958L175.539 395.651L440.47 371.372L191.426 466.5L440.47 561.628L175.539 537.349L359.369 733.042L131.024 594.166L213.231 851.664L66.6981 625.696L31 894L-4.69809 625.696L-151.231 851.664L-69.0238 594.166L-297.369 733.042L-113.539 537.349L-378.47 561.628L-129.426 466.5L-378.47 371.372L-113.539 395.651L-297.369 199.958L-69.0238 338.834L-151.231 81.3358L-4.69809 307.304L31 39Z" fill="#E24728"/>
<path d="M1171.5 894L1205.2 1147.24L1343.53 933.959L1265.93 1177L1481.5 1045.92L1307.95 1230.63L1558.06 1207.71L1322.95 1297.5L1558.06 1387.29L1307.95 1364.37L1481.5 1549.08L1265.93 1418L1343.53 1661.04L1205.2 1447.76L1171.5 1701L1137.8 1447.76L999.465 1661.04L1077.07 1418L861.504 1549.08L1035.05 1364.37L784.941 1387.29L1020.05 1297.5L784.941 1207.71L1035.05 1230.63L861.504 1045.92L1077.07 1177L999.465 933.959L1137.8 1147.24L1171.5 894Z" fill="#E24728"/>
<rect x="438.203" y="516.326" width="1093.38" height="841.19" transform="rotate(42.4402 438.203 516.326)" fill="#4A3B37"/>
<path d="M386.274 1054.18C380.804 1049.23 380.401 1041.09 385.476 1035.49C390.067 1030.42 395.177 1030.68 395.177 1030.68L397.347 1038.47C397.347 1038.47 394.43 1038.74 392.738 1040.61C391.047 1042.48 391.173 1045.02 393.041 1046.71C394.909 1048.4 397.451 1048.28 399.143 1046.41C400.834 1044.54 400.816 1041.61 400.816 1041.61L408.786 1043C408.786 1043 409.547 1048.06 404.955 1053.13C399.881 1058.74 391.745 1059.14 386.274 1054.18ZM408.106 1011.3L426.786 1028.22L420.503 1035.16L401.824 1018.24L408.106 1011.3ZM447.323 1005.54L434.942 1002.59L443.215 1010.08L436.932 1017.02L418.253 1000.1L425.26 992.362L437.641 995.316L429.368 987.825L435.651 980.887L454.33 997.803L447.323 1005.54ZM465.155 974.587L466.121 973.519C467.934 971.518 467.82 969.23 465.285 966.934C462.75 964.638 460.462 964.752 458.65 966.753L457.683 967.821L465.155 974.587ZM472.051 959.462C477.789 964.658 478.42 971.737 471.992 978.836C468.126 983.105 464.476 986.599 464.476 986.599L445.797 969.684C445.797 969.684 448.913 965.707 452.779 961.437C459.207 954.339 466.314 954.267 472.051 959.462ZM490.664 944.272L491.998 945.48L499.247 937.475L504.584 942.308L491.052 957.251L472.373 940.336L485.422 925.926L490.759 930.759L483.993 938.231L485.327 939.439L491.61 932.501L496.947 937.334L490.664 944.272ZM530.692 913.478L523.442 921.484L514.405 919.128L514.163 919.395L520.301 924.953L514.018 931.891L495.339 914.975C495.339 914.975 498.455 910.998 502.08 906.995C507.396 901.125 512.481 900.873 516.35 904.376C520.219 907.88 519.379 911.49 519.379 911.49L530.692 913.478ZM509.36 915.045L510.085 914.245C510.931 913.311 510.868 912.039 510.067 911.314C509.267 910.589 507.996 910.652 507.15 911.586L506.425 912.387L509.36 915.045ZM538.531 891.414L539.865 892.622L547.114 884.617L552.451 889.45L538.919 904.393L520.24 887.478L533.289 873.068L538.626 877.901L531.859 885.373L533.194 886.581L539.477 879.643L544.813 884.476L538.531 891.414ZM549.488 855.179L562.03 866.536L568.555 859.331L574.692 864.889L561.885 879.032L543.206 862.117L549.488 855.179ZM571.487 830.886L584.029 842.244L590.553 835.039L596.69 840.597L583.883 854.74L565.204 837.824L571.487 830.886ZM599.164 800.323C599.295 800.393 622.797 811.768 622.797 811.768L615.789 819.507L612.637 817.624L609.496 821.093L611.681 824.043L604.673 831.782L590.948 809.396L599.164 800.323ZM605.951 816.426L607.643 814.558L601.994 811.142L605.951 816.426Z" fill="#4A3B37"/>
<path d="M463.152 1112.9L469.556 1118.7L473.423 1114.43L467.018 1108.63L473.301 1101.69L491.981 1118.61L485.698 1125.55L479.293 1119.75L475.427 1124.02L481.831 1129.82L475.549 1136.75L456.869 1119.84L463.152 1112.9ZM492.507 1080.49C492.638 1080.56 516.14 1091.93 516.14 1091.93L509.133 1099.67L505.981 1097.79L502.84 1101.25L505.025 1104.2L498.017 1111.94L484.291 1089.56L492.507 1080.49ZM499.295 1096.59L500.986 1094.72L495.337 1091.3L499.295 1096.59ZM538.844 1066.86L531.595 1074.86L522.557 1072.51L522.316 1072.78L528.453 1078.33L522.17 1085.27L503.491 1068.36C503.491 1068.36 506.607 1064.38 510.232 1060.38C515.548 1054.51 520.633 1054.25 524.502 1057.76C528.372 1061.26 527.531 1064.87 527.531 1064.87L538.844 1066.86ZM517.512 1068.43L518.237 1067.63C519.083 1066.69 519.02 1065.42 518.22 1064.7C517.419 1063.97 516.148 1064.03 515.302 1064.97L514.577 1065.77L517.512 1068.43ZM560.845 1042.56L553.596 1050.57L544.558 1048.21L544.317 1048.48L550.454 1054.04L544.171 1060.98L525.492 1044.06C525.492 1044.06 528.608 1040.08 532.233 1036.08C537.549 1030.21 542.634 1029.96 546.504 1033.46C550.373 1036.97 549.532 1040.58 549.532 1040.58L560.845 1042.56ZM539.514 1044.13L540.239 1043.33C541.084 1042.4 541.021 1041.12 540.221 1040.4C539.42 1039.67 538.149 1039.74 537.303 1040.67L536.578 1041.47L539.514 1044.13ZM552.338 1014.42L559.366 1017.38L555.721 1010.68L562.97 1002.67L568.645 1019.47L575.85 1025.99L569.567 1032.93L562.362 1026.41L545.088 1022.42L552.338 1014.42ZM584.461 978.406C589.777 972.535 594.862 972.283 598.731 975.787C602.601 979.291 602.853 984.376 598.745 988.913C597.778 989.98 596.436 991.193 596.436 991.193L602.44 996.63L596.158 1003.57L577.478 986.653C577.478 986.653 580.595 982.676 584.461 978.406ZM591.5 986.723L592.466 985.656C593.312 984.722 593.249 983.45 592.448 982.725C591.648 982 590.377 982.063 589.531 982.997L588.564 984.065L591.5 986.723ZM619.923 958.554C618.055 956.862 615.512 956.988 614.062 958.589C612.612 960.191 612.738 962.733 614.606 964.424C616.474 966.116 619.017 965.99 620.467 964.389C621.916 962.788 621.79 960.245 619.923 958.554ZM626.689 951.082C632.159 956.036 632.562 964.172 627.004 970.309C621.446 976.447 613.311 976.85 607.84 971.896C602.37 966.942 601.967 958.807 607.525 952.669C613.082 946.532 621.218 946.128 626.689 951.082ZM622.685 936.732L638.15 919.654L644.288 925.212L639.697 930.282L652.238 941.639L645.956 948.577L633.414 937.22L628.823 942.29L622.685 936.732ZM643.931 913.27L659.396 896.192L665.534 901.75L660.943 906.82L673.484 918.178L667.202 925.116L654.66 913.758L650.069 918.828L643.931 913.27ZM683.963 893.199L685.297 894.407L692.546 886.402L697.883 891.234L684.351 906.178L665.672 889.263L678.721 874.853L684.058 879.686L677.291 887.158L678.626 888.366L684.908 881.428L690.245 886.261L683.963 893.199ZM721.091 865.607L713.841 873.612L704.804 871.256L704.562 871.523L710.7 877.081L704.417 884.019L685.738 867.104C685.738 867.104 688.854 863.126 692.479 859.124C697.795 853.253 702.88 853.001 706.749 856.505C710.618 860.009 709.778 863.619 709.778 863.619L721.091 865.607ZM699.759 867.174L700.484 866.373C701.33 865.439 701.267 864.168 700.466 863.443C699.666 862.718 698.395 862.781 697.549 863.715L696.824 864.516L699.759 867.174Z" fill="#4A3B37"/>
<path d="M539.008 1191.52L551.574 1177.65L557.444 1182.96L551.161 1189.9L553.296 1191.83L558.371 1186.23L563.708 1191.06L558.633 1196.67L563.97 1201.5L557.687 1208.44L539.008 1191.52ZM567.998 1182.84C563.862 1179.09 563.547 1172.74 567.897 1167.93C572.246 1163.13 578.603 1162.82 582.739 1166.56C586.875 1170.31 587.19 1176.66 582.84 1181.47C578.491 1186.27 572.134 1186.59 567.998 1182.84ZM576.939 1172.97C575.738 1171.88 574.213 1171.95 573.367 1172.89C572.521 1173.82 572.597 1175.35 573.798 1176.44C574.999 1177.52 576.524 1177.45 577.37 1176.51C578.216 1175.58 578.14 1174.05 576.939 1172.97ZM589.59 1148C589.59 1148 588.556 1145.12 590.489 1142.99C591.455 1141.92 592.581 1141.48 592.581 1141.48L597.485 1147.86C597.485 1147.86 595.984 1148.45 595.26 1149.25C594.051 1150.58 594.152 1152.62 596.02 1154.31L601.891 1159.63L596.091 1166.03L581.948 1153.22L587.506 1147.09L589.59 1148ZM605.55 1130.38C605.55 1130.38 604.516 1127.5 606.449 1125.36C607.415 1124.29 608.541 1123.86 608.541 1123.86L613.445 1130.24C613.445 1130.24 611.944 1130.82 611.22 1131.63C610.011 1132.96 610.112 1134.99 611.98 1136.68L617.851 1142L612.051 1148.41L597.908 1135.6L603.466 1129.46L605.55 1130.38ZM619.515 1110.93C623.26 1106.8 629.616 1106.48 633.753 1110.23C633.859 1110.32 634.98 1111.34 635.087 1111.44L627.354 1119.98C627.354 1119.98 629.063 1121.04 630.997 1118.9C632.205 1117.57 632.104 1115.53 632.104 1115.53L637.76 1116.53C637.76 1116.53 638.083 1120.46 634.821 1124.07C630.713 1128.6 624.357 1128.92 620.22 1125.17C616.084 1121.43 615.769 1115.07 619.515 1110.93ZM624.698 1117.81L626.873 1115.41C625.806 1114.45 624.789 1114.5 624.185 1115.16C623.58 1115.83 623.631 1116.85 624.698 1117.81ZM653.357 1094.21C655.892 1096.51 656.094 1100.57 652.349 1104.71C648.361 1109.11 643.772 1109.09 643.772 1109.09L642.383 1104.18C642.383 1104.18 644.925 1104.06 646.737 1102.06C647.1 1101.66 647.075 1101.15 646.808 1100.91C646.007 1100.18 641.028 1105.14 636.759 1101.28C634.224 1098.98 634.022 1094.91 637.768 1090.78C641.03 1087.18 645.352 1086.96 645.352 1086.96L646.742 1091.86C646.742 1091.86 644.708 1091.96 643.379 1093.43C643.016 1093.83 643.042 1094.34 643.308 1094.58C644.109 1095.31 649.088 1090.34 653.357 1094.21ZM655.82 1082.37L654.129 1084.24L648.792 1079.41L650.483 1077.54L645.947 1073.43L651.746 1067.03L656.283 1071.14L658.458 1068.73L663.795 1073.57L661.62 1075.97L663.888 1078.02C664.955 1078.99 665.972 1078.94 666.697 1078.14C667.181 1077.6 667.53 1076.95 667.53 1076.95L672.867 1081.78C672.867 1081.78 672.168 1083.09 670.959 1084.43C667.335 1088.43 662.758 1088.66 658.088 1084.43L655.82 1082.37ZM691.834 1047.97C692.076 1047.7 692.317 1047.43 692.317 1047.43L689.115 1044.53L694.915 1038.13L701.452 1044.05C701.452 1044.05 702.48 1049.35 697.647 1054.69C692.572 1060.29 684.436 1060.69 678.966 1055.74C673.496 1050.79 673.093 1042.65 678.167 1037.05C682.758 1031.98 687.868 1032.23 687.868 1032.23L690.039 1040.03C690.039 1040.03 687.121 1040.3 685.43 1042.17C683.738 1044.04 683.864 1046.58 685.732 1048.27C687.6 1049.96 690.143 1049.83 691.834 1047.97ZM715.534 1034.93C713.118 1037.6 709.05 1037.81 704.113 1033.33L696.642 1026.57L702.441 1020.16L709.913 1026.93C710.98 1027.9 711.997 1027.85 712.48 1027.31C712.964 1026.78 712.913 1025.76 711.846 1024.8L704.374 1018.03L710.174 1011.63L724.317 1024.43L718.759 1030.57L716.674 1029.65C716.674 1029.65 717.709 1032.53 715.534 1034.93ZM733.459 985.108C735.875 982.439 739.943 982.237 744.88 986.708L752.351 993.474L746.552 999.878L739.08 993.112C738.013 992.146 736.996 992.196 736.513 992.73C736.029 993.263 736.08 994.28 737.147 995.247L744.619 1002.01L738.819 1008.42L731.348 1001.65C730.28 1000.68 729.263 1000.74 728.78 1001.27C728.297 1001.8 728.347 1002.82 729.414 1003.79L736.886 1010.55L731.087 1016.96L716.944 1004.15L722.502 998.012L724.586 998.928C724.586 998.928 723.551 996.048 725.968 993.38C728.384 990.711 732.127 991.673 732.127 991.673C732.127 991.673 731.042 987.776 733.459 985.108ZM766.055 964.129C770.858 968.479 771.11 973.563 768.452 976.499C766.036 979.167 763.068 978.422 763.068 978.422L771.34 985.913L765.54 992.318L744.726 973.469L750.043 967.599C752.127 968.515 752.127 968.515 752.127 968.515C752.127 968.515 751.092 965.635 753.509 962.967C756.167 960.031 761.252 959.779 766.055 964.129ZM760.014 970.8C758.68 969.592 757.408 969.655 756.683 970.455C755.958 971.256 756.021 972.527 757.356 973.735C758.69 974.944 759.961 974.881 760.686 974.08C761.411 973.28 761.348 972.008 760.014 970.8Z" fill="#4A3B37"/>
<path d="M617.495 1267.24L632.96 1250.16L639.097 1255.72L634.506 1260.79L647.048 1272.15L640.765 1279.08L628.223 1267.73L623.632 1272.8L617.495 1267.24ZM652.312 1237.1C654.729 1234.44 658.797 1234.23 663.733 1238.7L671.205 1245.47L665.405 1251.87L657.934 1245.11C656.866 1244.14 655.849 1244.19 655.366 1244.73C654.883 1245.26 654.933 1246.28 656.001 1247.24L663.472 1254.01L657.673 1260.41L637.926 1242.53L643.726 1236.13L651.197 1242.89C651.197 1242.89 650.137 1239.51 652.312 1237.1ZM669.479 1218.15C673.224 1214.01 679.58 1213.7 683.716 1217.44C683.823 1217.54 684.944 1218.55 685.051 1218.65L677.318 1227.19C677.318 1227.19 679.027 1228.25 680.96 1226.12C682.169 1224.78 682.068 1222.75 682.068 1222.75L687.724 1223.74C687.724 1223.74 688.047 1227.68 684.784 1231.28C680.676 1235.82 674.32 1236.13 670.184 1232.38C666.048 1228.64 665.733 1222.28 669.479 1218.15ZM674.662 1225.03L676.837 1222.62C675.769 1221.66 674.752 1221.71 674.148 1222.38C673.544 1223.04 673.595 1224.06 674.662 1225.03ZM720.524 1191.01L715.449 1196.61L702.142 1190.39L712.549 1199.81L706.266 1206.75L687.587 1189.84L696.528 1179.96L709.447 1186.08L702.086 1173.83L711.027 1163.95L729.706 1180.87L723.423 1187.81L713.016 1178.38L720.524 1191.01ZM727.846 1153.69C731.954 1149.16 738.31 1148.84 742.446 1152.59C744.741 1154.67 747.436 1157.11 749.517 1158.99L743.959 1165.13L741.875 1164.21C741.875 1164.21 742.91 1167.09 740.735 1169.49C738.077 1172.43 734.517 1172.61 731.982 1170.31C729.447 1168.01 729.271 1164.45 733.379 1159.92L735.312 1157.78C735.312 1157.78 733.603 1156.72 731.67 1158.86C730.461 1160.19 730.562 1162.22 730.562 1162.22L724.906 1161.23C724.906 1161.23 724.583 1157.3 727.846 1153.69ZM738.64 1163.23C739.244 1162.56 739.181 1161.29 737.58 1159.84C736.251 1161.31 736.314 1162.58 737.115 1163.3C737.515 1163.66 738.278 1163.63 738.64 1163.23ZM749.544 1133.75C749.544 1133.75 748.509 1130.87 750.442 1128.74C751.409 1127.67 752.534 1127.23 752.534 1127.23L757.438 1133.62C757.438 1133.62 755.938 1134.2 755.213 1135C754.005 1136.34 754.106 1138.37 755.974 1140.06L761.844 1145.38L756.045 1151.78L741.902 1138.98L747.46 1132.84L749.544 1133.75ZM764.165 1125.12L762.474 1126.98L757.137 1122.15L758.828 1120.28L754.292 1116.18L760.091 1109.77L764.628 1113.88L766.803 1111.48L772.14 1116.31L769.965 1118.71L772.233 1120.77C773.3 1121.73 774.317 1121.68 775.042 1120.88C775.526 1120.35 775.875 1119.69 775.875 1119.69L781.212 1124.53C781.212 1124.53 780.513 1125.84 779.304 1127.17C775.68 1131.17 771.103 1131.4 766.433 1127.17L764.165 1125.12ZM773.562 1104.01L779.362 1097.61L793.505 1110.42L787.705 1116.82L773.562 1104.01ZM771.961 1102.56L766.891 1097.97L772.691 1091.57L777.761 1096.16L771.961 1102.56ZM791.402 1083.51C795.51 1078.97 801.867 1078.66 806.003 1082.4C808.298 1084.48 810.993 1086.92 813.074 1088.81L807.516 1094.94L805.432 1094.03C805.432 1094.03 806.467 1096.91 804.292 1099.31C801.634 1102.24 798.074 1102.42 795.539 1100.12C793.004 1097.83 792.828 1094.27 796.936 1089.73L798.869 1087.6C798.869 1087.6 797.16 1086.54 795.226 1088.67C794.018 1090.01 794.119 1092.04 794.119 1092.04L788.463 1091.05C788.463 1091.05 788.14 1087.11 791.402 1083.51ZM802.197 1093.04C802.801 1092.37 802.738 1091.1 801.137 1089.65C799.808 1091.12 799.871 1092.39 800.672 1093.12C801.072 1093.48 801.835 1093.44 802.197 1093.04ZM814.241 1058.29C816.657 1055.62 820.725 1055.42 825.662 1059.89L833.134 1066.65L827.334 1073.06L819.862 1066.29C818.795 1065.33 817.778 1065.38 817.295 1065.91C816.811 1066.44 816.862 1067.46 817.929 1068.43L825.401 1075.19L819.601 1081.6L805.459 1068.79L811.016 1062.65L813.101 1063.57C813.101 1063.57 812.066 1060.69 814.241 1058.29Z" fill="#4A3B37"/>
<path d="M702.612 1335.63L715.177 1321.75L721.048 1327.07L714.765 1334.01L716.9 1335.94L721.974 1330.34L727.311 1335.17L722.237 1340.78L727.574 1345.61L721.291 1352.55L702.612 1335.63ZM732.916 1314.5C732.916 1314.5 731.881 1311.62 733.814 1309.49C734.781 1308.42 735.906 1307.98 735.906 1307.98L740.81 1314.37C740.81 1314.37 739.309 1314.95 738.585 1315.75C737.376 1317.08 737.477 1319.12 739.345 1320.81L745.216 1326.13L739.416 1332.53L725.273 1319.72L730.831 1313.59L732.916 1314.5ZM747.821 1309.04C743.685 1305.29 743.37 1298.93 747.72 1294.13C752.07 1289.33 758.426 1289.01 762.562 1292.76C766.698 1296.5 767.013 1302.86 762.663 1307.66C758.314 1312.47 751.958 1312.78 747.821 1309.04ZM756.762 1299.16C755.562 1298.08 754.036 1298.15 753.19 1299.08C752.345 1300.02 752.42 1301.54 753.621 1302.63C754.822 1303.72 756.347 1303.64 757.193 1302.71C758.039 1301.78 757.963 1300.25 756.762 1299.16ZM777.721 1272L777.374 1280.42L781.966 1275.35L787.036 1279.95L775.437 1292.75L770.366 1288.16L770.713 1279.73L766.605 1284.27L761.535 1279.68L772.651 1267.4L777.721 1272ZM785.053 1252.9C788.799 1248.77 795.155 1248.45 799.291 1252.2C799.398 1252.3 800.519 1253.31 800.625 1253.41L792.893 1261.95C792.893 1261.95 794.602 1263.01 796.535 1260.87C797.743 1259.54 797.643 1257.51 797.643 1257.51L803.299 1258.5C803.299 1258.5 803.621 1262.43 800.359 1266.04C796.251 1270.57 789.895 1270.89 785.759 1267.14C781.623 1263.4 781.308 1257.04 785.053 1252.9ZM790.237 1259.78L792.412 1257.38C791.344 1256.42 790.327 1256.47 789.723 1257.13C789.119 1257.8 789.169 1258.82 790.237 1259.78ZM807.052 1228.61C809.468 1225.94 813.536 1225.74 818.473 1230.21L825.944 1236.98L820.145 1243.38L812.673 1236.62C811.606 1235.65 810.589 1235.7 810.106 1236.23C809.622 1236.77 809.673 1237.78 810.74 1238.75L818.212 1245.52L812.412 1251.92L798.269 1239.11L803.827 1232.98L805.912 1233.89C805.912 1233.89 804.877 1231.01 807.052 1228.61Z" fill="#4A3B37"/>
<path d="M787.676 1404.08L806.355 1421L800.072 1427.93L781.393 1411.02L787.676 1404.08ZM807.999 1389.95C810.416 1387.28 814.484 1387.08 819.42 1391.55L826.892 1398.32L821.092 1404.72L813.621 1397.96C812.553 1396.99 811.536 1397.04 811.053 1397.57C810.57 1398.11 810.62 1399.12 811.688 1400.09L819.159 1406.86L813.36 1413.26L799.217 1400.45L804.775 1394.32L806.859 1395.23C806.859 1395.23 805.824 1392.35 807.999 1389.95ZM825.586 1382.06L823.895 1383.93L818.558 1379.1L820.25 1377.23L815.713 1373.12L821.513 1366.72L826.049 1370.82L828.224 1368.42L833.561 1373.25L831.386 1375.66L833.654 1377.71C834.722 1378.68 835.739 1378.63 836.464 1377.83C836.947 1377.29 837.297 1376.64 837.297 1376.64L842.634 1381.47C842.634 1381.47 841.934 1382.78 840.726 1384.11C837.101 1388.12 832.525 1388.34 827.855 1384.11L825.586 1382.06ZM841.572 1367.89C837.435 1364.15 837.12 1357.79 841.47 1352.99C845.82 1348.19 852.176 1347.87 856.312 1351.62C860.448 1355.36 860.763 1361.72 856.413 1366.52C852.064 1371.33 845.708 1371.64 841.572 1367.89ZM850.512 1358.02C849.312 1356.93 847.786 1357.01 846.94 1357.94C846.095 1358.88 846.17 1360.4 847.371 1361.49C848.572 1362.58 850.097 1362.5 850.943 1361.57C851.789 1360.63 851.713 1359.11 850.512 1358.02ZM871.012 1331.9L869.321 1333.77L863.984 1328.93L865.675 1327.06L861.139 1322.96L866.938 1316.55L871.475 1320.66L873.65 1318.26L878.987 1323.09L876.812 1325.49L879.08 1327.55C880.147 1328.51 881.164 1328.46 881.889 1327.66C882.373 1327.13 882.722 1326.48 882.722 1326.48L888.059 1331.31C888.059 1331.31 887.36 1332.62 886.151 1333.95C882.527 1337.95 877.95 1338.18 873.28 1333.95L871.012 1331.9ZM889.191 1300.29C891.608 1297.62 895.676 1297.42 900.613 1301.89L908.084 1308.66L902.285 1315.06L894.813 1308.3C893.746 1307.33 892.729 1307.38 892.245 1307.91C891.762 1308.45 891.812 1309.46 892.88 1310.43L900.352 1317.2L894.552 1323.6L874.805 1305.72L880.605 1299.32L888.077 1306.08C888.077 1306.08 887.017 1302.69 889.191 1300.29ZM906.358 1281.34C910.103 1277.2 916.459 1276.88 920.596 1280.63C920.702 1280.73 921.823 1281.74 921.93 1281.84L914.197 1290.38C914.197 1290.38 915.906 1291.44 917.84 1289.3C919.048 1287.97 918.947 1285.94 918.947 1285.94L924.603 1286.93C924.603 1286.93 924.926 1290.87 921.664 1294.47C917.556 1299 911.2 1299.32 907.063 1295.57C902.927 1291.83 902.612 1285.47 906.358 1281.34ZM911.541 1288.21L913.716 1285.81C912.649 1284.85 911.632 1284.9 911.028 1285.56C910.423 1286.23 910.474 1287.25 911.541 1288.21ZM938.482 1237.55L950.568 1244.85L941.623 1234.08L948.148 1226.87L963.202 1247.79L956.195 1255.53L944.909 1248.95L952.57 1259.53L945.562 1267.27L923.258 1254.36L929.783 1247.15L941.385 1254.99L932.924 1243.69L938.482 1237.55ZM964.1 1232.59C959.963 1228.84 959.648 1222.49 963.998 1217.68C968.348 1212.88 974.704 1212.57 978.84 1216.31C982.976 1220.06 983.291 1226.41 978.941 1231.22C974.592 1236.02 968.236 1236.33 964.1 1232.59ZM973.04 1222.72C971.84 1221.63 970.314 1221.7 969.468 1222.64C968.623 1223.57 968.698 1225.1 969.899 1226.18C971.1 1227.27 972.625 1227.2 973.471 1226.26C974.317 1225.33 974.241 1223.8 973.04 1222.72ZM984.638 1209.91C980.501 1206.16 980.186 1199.81 984.536 1195C988.886 1190.2 995.242 1189.89 999.378 1193.63C1003.51 1197.38 1003.83 1203.73 999.48 1208.54C995.13 1213.34 988.774 1213.65 984.638 1209.91ZM993.579 1200.04C992.378 1198.95 990.852 1199.02 990.006 1199.96C989.161 1200.89 989.236 1202.42 990.437 1203.51C991.638 1204.59 993.163 1204.52 994.009 1203.58C994.855 1202.65 994.779 1201.12 993.579 1200.04ZM1005.18 1187.23C1000.37 1182.88 1000.12 1177.79 1002.78 1174.86C1005.2 1172.19 1008.16 1172.94 1008.16 1172.94L1000.96 1166.41L1006.76 1160.01L1026.5 1177.89L1021.19 1183.76C1019.1 1182.84 1019.1 1182.84 1019.1 1182.84C1019.1 1182.84 1020.14 1185.72 1017.72 1188.39C1015.06 1191.33 1009.98 1191.58 1005.18 1187.23ZM1011.22 1180.56C1012.55 1181.77 1013.82 1181.7 1014.55 1180.9C1015.27 1180.1 1015.21 1178.83 1013.87 1177.62C1012.54 1176.41 1011.27 1176.48 1010.54 1177.28C1009.82 1178.08 1009.88 1179.35 1011.22 1180.56ZM1039.75 1154.68C1042.29 1156.97 1042.49 1161.04 1038.74 1165.18C1034.76 1169.58 1030.17 1169.55 1030.17 1169.55L1028.78 1164.65C1028.78 1164.65 1031.32 1164.53 1033.13 1162.53C1033.49 1162.13 1033.47 1161.62 1033.2 1161.37C1032.4 1160.65 1027.42 1165.61 1023.15 1161.75C1020.62 1159.45 1020.42 1155.38 1024.16 1151.25C1027.42 1147.64 1031.75 1147.43 1031.75 1147.43L1033.14 1152.33C1033.14 1152.33 1031.1 1152.43 1029.77 1153.9C1029.41 1154.3 1029.44 1154.81 1029.7 1155.05C1030.5 1155.77 1035.48 1150.81 1039.75 1154.68Z" fill="#EADFC9"/>
<path d="M271.768 1187.07L266.698 1182.48L277.089 1171L282.159 1175.59L271.768 1187.07ZM290.864 1165.98L285.794 1161.39L296.185 1149.92L301.255 1154.51L290.864 1165.98ZM309.96 1144.89L304.89 1140.3L315.28 1128.83L320.35 1133.42L309.96 1144.89ZM329.055 1123.81L323.985 1119.22L334.376 1107.74L339.446 1112.33L329.055 1123.81ZM348.151 1102.72L343.081 1098.13L353.472 1086.65L358.542 1091.25L348.151 1102.72Z" fill="#4A3B37"/>
<path d="M351.219 1261.72L346.149 1257.13L356.54 1245.65L361.61 1250.24L351.219 1261.72ZM370.315 1240.63L365.245 1236.04L375.636 1224.56L380.706 1229.15L370.315 1240.63ZM389.411 1219.54L384.341 1214.95L394.732 1203.48L399.802 1208.07L389.411 1219.54ZM408.507 1198.46L403.437 1193.86L413.827 1182.39L418.897 1186.98L408.507 1198.46ZM427.602 1177.37L422.532 1172.78L432.923 1161.3L437.993 1165.89L427.602 1177.37Z" fill="#4A3B37"/>
<path d="M433.358 1333.4L428.288 1328.81L438.679 1317.33L443.749 1321.92L433.358 1333.4ZM452.454 1312.31L447.384 1307.72L457.775 1296.25L462.845 1300.84L452.454 1312.31ZM471.55 1291.22L466.479 1286.63L476.87 1275.16L481.94 1279.75L471.55 1291.22ZM490.645 1270.14L485.575 1265.55L495.966 1254.07L501.036 1258.66L490.645 1270.14ZM509.741 1249.05L504.671 1244.46L515.062 1232.98L520.132 1237.58L509.741 1249.05Z" fill="#4A3B37"/>
<path d="M512.811 1408.05L507.741 1403.46L518.132 1391.98L523.202 1396.57L512.811 1408.05ZM531.907 1386.96L526.837 1382.37L537.228 1370.89L542.298 1375.48L531.907 1386.96ZM551.003 1365.87L545.933 1361.28L556.323 1349.81L561.393 1354.4L551.003 1365.87ZM570.098 1344.79L565.028 1340.19L575.419 1328.72L580.489 1333.31L570.098 1344.79ZM589.194 1323.7L584.124 1319.11L594.515 1307.63L599.585 1312.22L589.194 1323.7Z" fill="#4A3B37"/>
<path d="M596.962 1477.51L591.891 1472.91L602.282 1461.44L607.352 1466.03L596.962 1477.51ZM616.057 1456.42L610.987 1451.83L621.378 1440.35L626.448 1444.94L616.057 1456.42ZM635.153 1435.33L630.083 1430.74L640.474 1419.27L645.544 1423.86L635.153 1435.33ZM654.249 1414.24L649.179 1409.65L659.569 1398.18L664.64 1402.77L654.249 1414.24ZM673.345 1393.16L668.274 1388.57L678.665 1377.09L683.735 1381.68L673.345 1393.16Z" fill="#EADFC9"/>
<path d="M675.743 1552.89L670.673 1548.3L681.064 1536.83L686.134 1541.42L675.743 1552.89ZM694.839 1531.81L689.768 1527.22L700.159 1515.74L705.229 1520.33L694.839 1531.81ZM713.934 1510.72L708.864 1506.13L719.255 1494.65L724.325 1499.25L713.934 1510.72ZM733.03 1489.63L727.96 1485.04L738.351 1473.57L743.421 1478.16L733.03 1489.63ZM752.126 1468.55L747.056 1463.95L757.446 1452.48L762.517 1457.07L752.126 1468.55Z" fill="#EADFC9"/>
<path d="M176.628 1278.18C175.661 1279.25 175.762 1281.29 178.43 1283.7C181.099 1286.12 183.133 1286.02 184.099 1284.95C185.066 1283.88 184.965 1281.85 182.297 1279.43C179.628 1277.02 177.594 1277.12 176.628 1278.18ZM190.103 1290.39C185.512 1295.46 177.885 1295.84 172.148 1290.64C166.41 1285.44 166.032 1277.82 170.624 1272.75C175.215 1267.68 182.842 1267.3 188.579 1272.49C194.317 1277.69 194.695 1285.32 190.103 1290.39ZM200.591 1262.98C200.591 1262.98 200.959 1265.26 199.025 1267.39C195.642 1271.13 191.066 1271.36 187.33 1267.97C183.461 1264.47 183.184 1258.88 187.292 1254.34C191.883 1249.27 198.493 1248.94 204.764 1254.62C210.501 1259.82 210.879 1267.44 206.53 1272.25C203.147 1275.98 199.237 1276.81 199.237 1276.81L196.659 1271.08C196.659 1271.08 198.668 1270.47 200.118 1268.87C202.051 1266.74 201.925 1264.19 200.591 1262.98ZM192.888 1261.84C194.089 1262.92 195.36 1262.86 195.964 1262.19C196.568 1261.53 196.505 1260.26 195.304 1259.17C194.104 1258.08 192.832 1258.14 192.228 1258.81C191.624 1259.48 191.687 1260.75 192.888 1261.84ZM212.304 1247.37L207.229 1252.97L201.892 1248.14L206.967 1242.54L212.304 1247.37ZM221.11 1255.34L216.035 1260.95L210.698 1256.11L215.773 1250.51L221.11 1255.34ZM218.184 1232.29C217.218 1233.36 217.318 1235.39 219.987 1237.81C222.655 1240.23 224.689 1240.13 225.656 1239.06C226.623 1237.99 226.522 1235.96 223.853 1233.54C221.185 1231.13 219.151 1231.23 218.184 1232.29ZM231.66 1244.5C227.069 1249.57 219.441 1249.94 213.704 1244.75C207.967 1239.55 207.589 1231.93 212.18 1226.86C216.771 1221.79 224.399 1221.41 230.136 1226.6C235.873 1231.8 236.251 1239.43 231.66 1244.5ZM236.544 1212.02C235.577 1213.09 235.678 1215.12 238.346 1217.54C241.015 1219.95 243.049 1219.85 244.015 1218.79C244.982 1217.72 244.881 1215.68 242.213 1213.27C239.544 1210.85 237.51 1210.95 236.544 1212.02ZM250.019 1224.22C245.428 1229.29 237.801 1229.67 232.064 1224.48C226.326 1219.28 225.948 1211.65 230.54 1206.58C235.131 1201.51 242.758 1201.13 248.496 1206.33C254.233 1211.53 254.611 1219.15 250.019 1224.22Z" fill="#EADFC9"/>
<path d="M245.886 1352.83L251.685 1346.42L270.364 1363.34L264.082 1370.28L251.807 1359.16L249.516 1364.37L243.646 1359.06L245.886 1352.83ZM267.927 1339.75C266.961 1340.82 267.061 1342.85 269.73 1345.27C272.398 1347.68 274.432 1347.58 275.399 1346.52C276.365 1345.45 276.265 1343.42 273.596 1341C270.928 1338.58 268.894 1338.68 267.927 1339.75ZM281.403 1351.95C276.812 1357.02 269.184 1357.4 263.447 1352.21C257.71 1347.01 257.332 1339.38 261.923 1334.31C266.514 1329.24 274.142 1328.87 279.879 1334.06C285.616 1339.26 285.994 1346.88 281.403 1351.95ZM287.415 1326.81L282.34 1332.42L277.003 1327.58L282.078 1321.98L287.415 1326.81ZM296.221 1334.79L291.146 1340.39L285.809 1335.56L290.884 1329.95L296.221 1334.79ZM303.198 1310.99L304.648 1309.39L309.718 1313.98L308.268 1315.58L311.204 1318.24L304.921 1325.18L301.986 1322.52L294.978 1330.26L289.908 1325.67L285.275 1309.33L292.524 1301.33L303.198 1310.99ZM295.466 1319.53L296.916 1317.93L293.446 1314.79L295.466 1319.53ZM309.248 1294.12C308.281 1295.19 308.382 1297.22 311.05 1299.64C313.719 1302.06 315.753 1301.95 316.719 1300.89C317.686 1299.82 317.585 1297.79 314.917 1295.37C312.248 1292.95 310.214 1293.05 309.248 1294.12ZM322.723 1306.32C318.132 1311.39 310.505 1311.77 304.768 1306.58C299.03 1301.38 298.652 1293.75 303.244 1288.68C307.835 1283.61 315.462 1283.24 321.2 1288.43C326.937 1293.63 327.315 1301.25 322.723 1306.32Z" fill="#EADFC9"/>
<path d="M328.024 1424.51L333.824 1418.11L352.503 1435.02L346.22 1441.96L333.945 1430.84L331.655 1436.05L325.784 1430.74L328.024 1424.51ZM350.287 1413.33C353.67 1409.6 358.755 1409.34 362.224 1412.49C365.56 1415.51 365.837 1421.1 361.608 1425.77C357.017 1430.84 351.907 1430.58 351.907 1430.58L350.2 1424.42C350.2 1424.42 353.117 1424.15 354.809 1422.28C355.896 1421.08 355.833 1419.81 354.899 1418.97C353.965 1418.12 352.694 1418.18 351.607 1419.38C350.64 1420.45 350.207 1422 350.207 1422L345.173 1423.27L337.575 1413.96L348.449 1401.95L354.053 1407.03L347.77 1413.97L348.863 1415.44C348.863 1415.44 349.321 1414.4 350.287 1413.33ZM366.061 1402.35L360.986 1407.95L355.649 1403.12L360.724 1397.52L366.061 1402.35ZM374.867 1410.32L369.792 1415.93L364.455 1411.1L369.53 1405.49L374.867 1410.32ZM361.746 1387.27L367.546 1380.87L386.225 1397.78L379.942 1404.72L367.667 1393.6L365.377 1398.81L359.506 1393.5L361.746 1387.27ZM383.788 1374.19C382.821 1375.26 382.922 1377.29 385.59 1379.71C388.259 1382.13 390.293 1382.03 391.259 1380.96C392.226 1379.89 392.125 1377.86 389.457 1375.44C386.788 1373.03 384.754 1373.13 383.788 1374.19ZM397.264 1386.4C392.672 1391.47 385.045 1391.84 379.308 1386.65C373.57 1381.45 373.192 1373.83 377.784 1368.76C382.375 1363.69 390.002 1363.31 395.74 1368.5C401.477 1373.7 401.855 1381.33 397.264 1386.4Z" fill="#EADFC9"/>
<path d="M407.476 1499.16L413.275 1492.75L431.954 1509.67L425.672 1516.61L413.397 1505.49L411.106 1510.7L405.236 1505.39L407.476 1499.16ZM426.803 1485.32C426.199 1485.99 426.25 1487.01 427.184 1487.85C428.118 1488.7 429.134 1488.65 429.739 1487.98C430.343 1487.31 430.292 1486.3 429.358 1485.45C428.424 1484.61 427.407 1484.66 426.803 1485.32ZM434.275 1492.09C433.55 1492.89 433.613 1494.16 434.547 1495.01C435.481 1495.85 436.752 1495.79 437.477 1494.99C438.202 1494.19 438.139 1492.92 437.205 1492.07C436.271 1491.23 435 1491.29 434.275 1492.09ZM422.667 1481.58C426.896 1476.91 431.981 1476.66 434.649 1479.07C437.585 1481.73 436.102 1485.24 436.102 1485.24L436.236 1485.37C436.236 1485.37 440.553 1482.48 444.288 1485.86C447.09 1488.4 447.342 1493.48 442.147 1499.22C436.952 1504.95 431.867 1505.21 429.065 1502.67C425.329 1499.29 427.778 1494.7 427.778 1494.7L427.645 1494.58C427.645 1494.58 424.294 1496.41 421.359 1493.75C418.69 1491.33 418.438 1486.25 422.667 1481.58ZM447.329 1474.99L442.255 1480.6L436.918 1475.76L441.992 1470.16L447.329 1474.99ZM456.135 1482.97L451.06 1488.57L445.724 1483.74L450.798 1478.13L456.135 1482.97ZM453.21 1459.92C452.243 1460.98 452.344 1463.02 455.012 1465.43C457.681 1467.85 459.715 1467.75 460.681 1466.68C461.648 1465.62 461.547 1463.58 458.879 1461.17C456.21 1458.75 454.176 1458.85 453.21 1459.92ZM466.685 1472.12C462.094 1477.19 454.467 1477.57 448.73 1472.37C442.992 1467.18 442.614 1459.55 447.206 1454.48C451.797 1449.41 459.424 1449.03 465.161 1454.23C470.899 1459.42 471.277 1467.05 466.685 1472.12ZM471.569 1439.64C470.603 1440.71 470.703 1442.74 473.372 1445.16C476.04 1447.58 478.074 1447.48 479.041 1446.41C480.007 1445.34 479.907 1443.31 477.238 1440.89C474.57 1438.47 472.536 1438.58 471.569 1439.64ZM485.045 1451.85C480.454 1456.92 472.826 1457.29 467.089 1452.1C461.352 1446.9 460.974 1439.28 465.565 1434.21C470.156 1429.14 477.784 1428.76 483.521 1433.95C489.258 1439.15 489.636 1446.78 485.045 1451.85Z" fill="#EADFC9"/>
<path d="M507.26 1562.62C511.796 1566.73 509.39 1574.75 509.39 1574.75L514.223 1569.41L520.094 1574.72L507.045 1589.13L501.708 1584.3C501.708 1584.3 503.938 1572.72 501.536 1570.55C500.736 1569.82 499.719 1569.87 498.873 1570.81C496.819 1573.07 496.837 1576 496.837 1576L490.538 1574.92C490.538 1574.92 489.778 1569.86 494.369 1564.79C498.598 1560.12 504.191 1559.84 507.26 1562.62ZM517.657 1551.14C516.691 1552.2 516.792 1554.24 519.46 1556.65C522.129 1559.07 524.163 1558.97 525.129 1557.9C526.096 1556.83 525.995 1554.8 523.326 1552.38C520.658 1549.97 518.624 1550.07 517.657 1551.14ZM531.133 1563.34C526.542 1568.41 518.914 1568.79 513.177 1563.59C507.44 1558.4 507.062 1550.77 511.653 1545.7C516.245 1540.63 523.872 1540.25 529.609 1545.45C535.346 1550.64 535.724 1558.27 531.133 1563.34ZM537.145 1538.2L532.07 1543.8L526.734 1538.97L531.808 1533.36L537.145 1538.2ZM545.951 1546.17L540.876 1551.77L535.539 1546.94L540.614 1541.34L545.951 1546.17ZM543.026 1523.12C542.059 1524.19 542.16 1526.22 544.828 1528.64C547.497 1531.06 549.531 1530.96 550.497 1529.89C551.464 1528.82 551.363 1526.79 548.695 1524.37C546.026 1521.95 543.992 1522.05 543.026 1523.12ZM556.501 1535.33C551.91 1540.4 544.283 1540.77 538.545 1535.58C532.808 1530.38 532.43 1522.75 537.022 1517.68C541.613 1512.61 549.24 1512.24 554.977 1517.43C560.715 1522.63 561.093 1530.25 556.501 1535.33ZM561.385 1502.85C560.418 1503.92 560.519 1505.95 563.188 1508.37C565.856 1510.78 567.89 1510.68 568.857 1509.61C569.823 1508.55 569.723 1506.51 567.054 1504.1C564.386 1501.68 562.352 1501.78 561.385 1502.85ZM574.861 1515.05C570.27 1520.12 562.642 1520.5 556.905 1515.3C551.168 1510.11 550.79 1502.48 555.381 1497.41C559.972 1492.34 567.6 1491.96 573.337 1497.16C579.074 1502.35 579.452 1509.98 574.861 1515.05Z" fill="#EADFC9"/>
<path d="M586.041 1638.01C590.578 1642.11 588.172 1650.13 588.172 1650.13L593.004 1644.8L598.875 1650.11L585.826 1664.52L580.489 1659.69C580.489 1659.69 582.719 1648.11 580.317 1645.94C579.517 1645.21 578.5 1645.26 577.654 1646.2C575.6 1648.46 575.618 1651.39 575.618 1651.39L569.32 1650.3C569.32 1650.3 568.559 1645.24 573.15 1640.17C577.379 1635.5 582.973 1635.23 586.041 1638.01ZM601.876 1620.52C606.412 1624.63 604.006 1632.65 604.006 1632.65L608.839 1627.31L614.71 1632.63L601.661 1647.04L596.324 1642.2C596.324 1642.2 598.553 1630.62 596.152 1628.45C595.351 1627.73 594.334 1627.78 593.489 1628.71C591.435 1630.98 591.452 1633.91 591.452 1633.91L585.154 1632.82C585.154 1632.82 584.393 1627.76 588.985 1622.69C593.214 1618.02 598.807 1617.74 601.876 1620.52ZM613.401 1616.37L608.327 1621.98L602.99 1617.14L608.064 1611.54L613.401 1616.37ZM622.207 1624.35L617.133 1629.95L611.796 1625.12L616.87 1619.52L622.207 1624.35ZM619.282 1601.3C618.315 1602.37 618.416 1604.4 621.085 1606.82C623.753 1609.23 625.787 1609.13 626.754 1608.07C627.72 1607 627.619 1604.96 624.951 1602.55C622.282 1600.13 620.248 1600.23 619.282 1601.3ZM632.758 1613.5C628.166 1618.57 620.539 1618.95 614.802 1613.75C609.065 1608.56 608.687 1600.93 613.278 1595.86C617.869 1590.79 625.496 1590.41 631.234 1595.61C636.971 1600.8 637.349 1608.43 632.758 1613.5ZM637.641 1581.02C636.675 1582.09 636.776 1584.13 639.444 1586.54C642.112 1588.96 644.146 1588.86 645.113 1587.79C646.08 1586.72 645.979 1584.69 643.31 1582.27C640.642 1579.86 638.608 1579.96 637.641 1581.02ZM651.117 1593.23C646.526 1598.3 638.898 1598.68 633.161 1593.48C627.424 1588.29 627.046 1580.66 631.637 1575.59C636.229 1570.52 643.856 1570.14 649.593 1575.34C655.33 1580.53 655.708 1588.16 651.117 1593.23Z" fill="#EADFC9"/>
<path d="M60.1343 1123.53C40.6842 1105.92 39.2506 1076.99 57.2935 1057.06C73.6181 1039.04 91.7874 1039.95 91.7874 1039.95L99.5041 1067.66C99.5041 1067.66 89.1307 1068.63 83.1164 1075.27C77.102 1081.91 77.55 1090.95 84.1916 1096.96C90.8331 1102.98 99.8729 1102.53 105.887 1095.89C111.902 1089.25 111.838 1078.83 111.838 1078.83L140.176 1083.77C140.176 1083.77 142.88 1101.76 126.555 1119.79C108.512 1139.71 79.5844 1141.14 60.1343 1123.53ZM111.983 999.532L178.398 1059.68L156.059 1084.34L89.6441 1024.2L111.983 999.532ZM225.643 1007.5L181.625 996.998L211.037 1023.63L188.698 1048.3L122.283 988.158L147.2 960.643L191.218 971.148L161.806 944.514L184.145 919.845L250.56 979.988L225.643 1007.5ZM259.476 922.47L264.22 926.765L289.995 898.302L308.971 915.486L260.857 968.618L194.441 908.475L240.838 857.24L259.813 874.424L235.756 900.99L240.5 905.286L262.839 880.617L281.815 897.801L259.476 922.47ZM367.429 850.931L349.386 870.856L302.074 848.733L339.076 882.241L316.737 906.909L250.322 846.766L282.112 811.661L328.047 833.399L301.873 789.839L333.663 754.734L400.079 814.877L377.74 839.546L340.737 806.037L367.429 850.931ZM386.49 696.398C386.955 696.647 470.518 737.091 470.518 737.091L445.602 764.606L434.396 757.912L423.226 770.246L430.996 780.736L406.079 808.25L357.278 728.657L386.49 696.398ZM410.623 753.653L416.638 747.011L396.552 734.867L410.623 753.653Z" fill="#EADFC9"/>
<rect x="39.3828" y="690.859" width="1374.29" height="895.303" transform="rotate(-23.4029 39.3828 690.859)" fill="#E24728"/>
<path d="M1338.86 819.46C1347.63 815.565 1357.77 819.467 1364.98 835.699L1375.88 860.267L1354.83 869.616L1343.92 845.049C1342.36 841.539 1339.83 840.563 1338.07 841.343C1336.32 842.122 1335.34 844.656 1336.9 848.165L1347.81 872.733L1326.75 882.082L1306.1 835.579L1326.28 826.62L1330.37 831.105C1330.37 831.105 1330.96 822.966 1338.86 819.46ZM1403.82 790.618C1412.6 786.722 1422.73 790.625 1429.94 806.857L1440.85 831.425L1419.79 840.774L1408.88 816.206C1407.32 812.697 1404.79 811.721 1403.03 812.5C1401.28 813.279 1400.3 815.813 1401.86 819.323L1412.77 843.89L1391.71 853.24L1380.8 828.672C1379.25 825.163 1376.71 824.187 1374.96 824.966C1373.2 825.745 1372.23 828.279 1373.78 831.789L1384.69 856.356L1363.63 865.705L1342.99 819.203L1363.17 810.243L1367.26 814.728C1367.26 814.728 1367.85 806.59 1376.62 802.694C1385.4 798.798 1393.48 805.186 1393.48 805.186C1393.48 805.186 1395.05 794.513 1403.82 790.618Z" fill="#EADFC9"/>
<path d="M1215.14 439.153C1230.05 432.53 1245.89 438.628 1251.93 452.228C1255.28 459.774 1259.21 468.636 1262.25 475.48L1242.07 484.439L1237.98 479.954C1237.98 479.954 1237.39 488.093 1229.49 491.599C1219.84 495.884 1210.97 492.469 1207.27 484.134C1203.57 475.798 1206.99 466.929 1221.9 460.307L1228.92 457.19C1228.92 457.19 1225.9 452.754 1218.88 455.871C1214.5 457.819 1212.54 462.886 1212.54 462.886L1199.83 454.353C1199.83 454.353 1203.29 444.412 1215.14 439.153ZM1231.16 474.054C1233.35 473.08 1234.57 469.913 1232.23 464.648C1227.41 466.791 1226.19 469.958 1227.36 472.591C1227.94 473.907 1229.84 474.639 1231.16 474.054ZM1261.21 418.696C1274.81 412.658 1290.65 418.756 1296.69 432.356C1296.84 432.707 1298.48 436.392 1298.63 436.743L1270.56 449.209C1270.56 449.209 1273.58 453.645 1280.6 450.529C1284.98 448.581 1286.93 443.513 1286.93 443.513L1299.65 452.047C1299.65 452.047 1296.19 461.988 1284.34 467.247C1269.43 473.869 1253.59 467.771 1247.55 454.171C1241.51 440.572 1247.61 424.735 1261.21 418.696ZM1266.42 441.068L1274.31 437.562C1272.76 434.053 1270.22 433.077 1268.03 434.051C1265.83 435.025 1264.86 437.559 1266.42 441.068Z" fill="#EADFC9"/>
<path d="M1294.76 620.374L1287.36 603.703L1308.42 594.353L1315.82 611.024L1294.76 620.374ZM1318.72 674.334L1297.1 625.638L1318.16 616.289L1339.78 664.985C1346.6 680.339 1342.21 691.742 1329.05 697.585C1324.66 699.533 1320.76 700.214 1320.76 700.214L1312.97 682.666C1312.97 682.666 1314.92 682.326 1316.67 681.546C1319.3 680.378 1320.28 677.844 1318.72 674.334ZM1341.25 604.461C1350.03 600.565 1360.16 604.468 1367.37 620.7L1378.28 645.267L1357.22 654.617L1346.31 630.049C1344.75 626.54 1342.22 625.564 1340.46 626.343C1338.71 627.122 1337.73 629.656 1339.29 633.166L1350.2 657.733L1329.14 667.082L1308.49 620.58L1328.67 611.62L1332.77 616.105C1332.77 616.105 1333.36 607.967 1341.25 604.461Z" fill="#EADFC9"/>
<path d="M621.795 683.135C622.038 683.447 667.05 736.568 667.05 736.568L641.605 747.865L635.955 739.87L624.549 744.934L626.69 754.488L601.245 765.785L591.963 696.38L621.795 683.135ZM620.948 729.727L627.09 727L617.007 712.57L620.948 729.727ZM662.535 712.314L664.483 716.701L690.805 705.014L698.596 722.562L649.461 744.377L622.192 682.959L669.572 661.923L677.363 679.471L652.796 690.379L654.744 694.766L677.556 684.637L685.347 702.185L662.535 712.314Z" fill="#EADFC9"/>
<path d="M313.789 819.885C314.032 820.197 359.044 873.318 359.044 873.318L333.6 884.615L327.949 876.62L316.543 881.684L318.684 891.238L293.239 902.535L283.957 833.13L313.789 819.885ZM312.942 866.477L319.084 863.75L309.001 849.32L312.942 866.477ZM378.219 838.546L380.167 842.933L406.489 831.246L414.28 848.794L365.145 870.609L337.876 809.191L385.256 788.155L393.047 805.703L368.48 816.611L370.428 820.998L393.24 810.869L401.032 828.417L378.219 838.546Z" fill="#EADFC9"/>
<path d="M450.594 791.096L556.157 744.227" stroke="#EADFC9" stroke-width="3"/>
<path d="M696.719 923.924L681.526 889.705L704.339 879.577L719.532 913.796C727.712 932.221 721.37 948.692 708.209 954.535C696.803 959.599 688.324 957.062 688.324 957.062L686.285 935.909C686.285 935.909 689.696 936.495 693.206 934.937C697.154 933.184 698.862 928.75 696.719 923.924ZM768.462 924.632L741.47 904.055L753.547 931.255L730.734 941.383L703.465 879.965L728.91 868.667L755.902 889.245L743.826 862.045L766.638 851.917L793.907 913.335L768.462 924.632Z" fill="#EADFC9"/>
<path d="M387.999 1060.99L372.806 1026.77L395.619 1016.65L410.812 1050.86C418.992 1069.29 412.65 1085.76 399.489 1091.6C388.083 1096.67 379.604 1094.13 379.604 1094.13L377.565 1072.98C377.565 1072.98 380.976 1073.56 384.486 1072.01C388.434 1070.25 390.142 1065.82 387.999 1060.99ZM471.149 1056.64L444.157 1036.06L456.233 1063.26L433.42 1073.39L406.151 1011.97L431.596 1000.67L458.588 1021.25L446.512 994.049L469.325 983.921L496.594 1045.34L471.149 1056.64Z" fill="#EADFC9"/>
<path d="M507.73 998.816L653.051 934.296" stroke="#EADFC9" stroke-width="3"/>
<rect x="307.497" y="1020.98" width="516" height="133" transform="rotate(-23.9405 307.497 1020.98)" stroke="#EADFC9" stroke-width="4"/>
<rect x="224.64" y="831.026" width="516" height="133" transform="rotate(-23.9405 224.64 831.026)" stroke="#EADFC9" stroke-width="4"/>
<path d="M790.794 1133.55L763.802 1112.97L775.878 1140.17L753.065 1150.3L725.796 1088.88L751.241 1077.58L778.233 1098.16L766.157 1070.96L788.97 1060.83L816.239 1122.25L790.794 1133.55ZM846.934 1108.62L828.509 1116.8L802.787 1087.26L817.98 1121.47L795.167 1131.6L767.898 1070.18L800.362 1055.77L825.256 1084.63L820.543 1046.81L853.007 1032.4L880.276 1093.82L857.463 1103.94L842.271 1069.73L846.934 1108.62Z" fill="#EADFC9"/>
<path d="M495.583 1264.61L468.591 1244.04L480.667 1271.24L457.854 1281.36L430.585 1219.95L456.03 1208.65L483.022 1229.23L470.946 1202.03L493.759 1191.9L521.028 1253.32L495.583 1264.61ZM583.31 1225.66L564.885 1233.84L539.163 1204.3L554.356 1238.52L531.543 1248.65L504.274 1187.23L536.738 1172.82L561.632 1201.68L556.919 1163.86L589.383 1149.44L616.652 1210.86L593.839 1220.99L578.646 1186.77L583.31 1225.66Z" fill="#EADFC9"/>
<path d="M628.693 1172.69L721.918 1131.3" stroke="#EADFC9" stroke-width="3"/>
<rect x="388.653" y="1203.77" width="516" height="133" transform="rotate(-23.9405 388.653 1203.77)" stroke="#EADFC9" stroke-width="4"/>
<path d="M1069.87 945.829C1078.64 941.934 1088.78 945.837 1095.99 962.069L1106.9 986.636L1085.84 995.985L1074.93 971.418C1073.37 967.908 1070.84 966.933 1069.08 967.712C1067.33 968.491 1066.35 971.025 1067.91 974.534L1078.82 999.102L1057.76 1008.45L1037.11 961.949L1057.29 952.989L1061.39 957.474C1061.39 957.474 1061.97 949.335 1069.87 945.829ZM1155.01 908.027C1163.79 904.132 1173.92 908.034 1181.13 924.266L1192.04 948.834L1170.98 958.183L1160.07 933.616C1158.51 930.106 1155.98 929.13 1154.23 929.91C1152.47 930.689 1151.5 933.223 1153.05 936.732L1163.96 961.3L1142.9 970.649L1132 946.082C1130.44 942.572 1127.9 941.596 1126.15 942.375C1124.39 943.154 1123.42 945.688 1124.98 949.198L1135.88 973.765L1114.83 983.115L1094.18 936.612L1114.36 927.652L1118.45 932.138C1118.45 932.138 1119.04 923.999 1127.81 920.103C1136.59 916.208 1144.68 922.595 1144.68 922.595C1144.68 922.595 1146.24 911.923 1155.01 908.027Z" fill="#EADFC9"/>
<path d="M1205 913.391L1298.22 872" stroke="#EADFC9" stroke-width="3"/>
<rect x="989.438" y="930.466" width="516" height="133" transform="rotate(-23.9405 989.438 930.466)" stroke="#EADFC9" stroke-width="4"/>
<path d="M1034 556.52L1179.32 491.999" stroke="#EADFC9" stroke-width="3"/>
<rect x="828.339" y="567.622" width="516" height="133" transform="rotate(-23.9405 828.339 567.622)" stroke="#EADFC9" stroke-width="4"/>
<path d="M969.765 766.491L962.363 749.82L983.421 740.471L990.822 757.141L969.765 766.491ZM993.722 820.451L972.102 771.755L993.16 762.406L1014.78 811.102C1021.6 826.457 1017.21 837.859 1004.05 843.703C999.659 845.65 995.759 846.331 995.759 846.331L987.968 828.783C987.968 828.783 989.918 828.443 991.673 827.664C994.305 826.495 995.281 823.961 993.722 820.451ZM1034.68 742.397C1043.45 738.502 1053.59 742.404 1060.79 758.636L1071.7 783.204L1050.64 792.553L1039.74 767.986C1038.18 764.476 1035.64 763.5 1033.89 764.28C1032.13 765.059 1031.16 767.593 1032.72 771.102L1043.62 795.67L1022.57 805.019L1001.92 758.516L1022.1 749.557L1026.19 754.042C1026.19 754.042 1026.78 745.903 1034.68 742.397Z" fill="#EADFC9"/>
<path d="M1109.73 728.256L1255.05 663.736" stroke="#EADFC9" stroke-width="3"/>
<rect x="909.497" y="750.415" width="516" height="133" transform="rotate(-23.9405 909.497 750.415)" stroke="#EADFC9" stroke-width="4"/>
<path d="M909.442 576.399C924.506 570.121 940.199 576.581 945.923 590.316C949.099 597.937 952.829 606.887 955.709 613.799L935.328 622.293L931.34 617.714C931.34 617.714 930.565 625.837 922.59 629.161C912.843 633.223 904.055 629.605 900.546 621.187C897.038 612.769 900.656 603.981 915.72 597.703L922.809 594.749C922.809 594.749 919.892 590.244 912.803 593.199C908.372 595.045 906.305 600.067 906.305 600.067L893.788 591.243C893.788 591.243 897.479 581.384 909.442 576.399ZM924.657 611.659C926.872 610.736 928.164 607.598 925.948 602.281C921.075 604.312 919.783 607.45 920.89 610.109C921.444 611.438 923.327 612.213 924.657 611.659ZM966.608 552.575C980.343 546.851 996.036 553.312 1001.76 567.047C1001.91 567.401 1003.46 571.123 1003.61 571.478L975.25 583.295C975.25 583.295 978.167 587.799 985.256 584.845C989.687 582.998 991.754 577.977 991.754 577.977L1004.27 586.801C1004.27 586.801 1000.58 596.659 988.617 601.645C973.553 607.923 957.86 601.462 952.136 587.727C946.412 573.992 952.873 558.299 966.608 552.575ZM971.298 575.061L979.274 571.738C977.796 568.193 975.286 567.159 973.07 568.083C970.855 569.006 969.821 571.517 971.298 575.061Z" fill="#EADFC9"/>
<rect x="-300" y="2017" width="2025.22" height="91" fill="#4A3B37"/>
<rect x="43.7559" y="2031" width="53.2953" height="63" fill="#EADFC9"/>
<rect x="159.674" y="2031" width="53.2953" height="63" fill="#EADFC9"/>
<rect x="276.922" y="2031" width="53.2953" height="63" fill="#EADFC9"/>
<rect x="394.17" y="2031" width="53.2953" height="63" fill="#EADFC9"/>
<rect x="511.422" y="2031" width="53.2953" height="63" fill="#EADFC9"/>
<rect x="628.672" y="2031" width="53.2953" height="63" fill="#EADFC9"/>
<rect x="745.92" y="2031" width="53.2953" height="63" fill="#EADFC9"/>
<rect x="863.172" y="2031" width="53.2953" height="63" fill="#EADFC9"/>
<rect x="980.422" y="2031" width="53.2953" height="63" fill="#EADFC9"/>
<rect x="1097.67" y="2031" width="53.2953" height="63" fill="#EADFC9"/>
<rect x="1214.92" y="2031" width="53.2953" height="63" fill="#EADFC9"/>
<rect x="1332.17" y="2031" width="53.2953" height="63" fill="#EADFC9"/>
<rect x="-300" y="2017" width="2025.22" height="91" fill="#4A3B37"/>
<rect x="43.7559" y="2031" width="53.2953" height="63" fill="#EADFC9"/>
<rect x="159.674" y="2031" width="53.2953" height="63" fill="#EADFC9"/>
<rect x="276.922" y="2031" width="53.2953" height="63" fill="#EADFC9"/>
<rect x="394.17" y="2031" width="53.2953" height="63" fill="#EADFC9"/>
<rect x="511.422" y="2031" width="53.2953" height="63" fill="#EADFC9"/>
<rect x="628.672" y="2031" width="53.2953" height="63" fill="#EADFC9"/>
<rect x="745.92" y="2031" width="53.2953" height="63" fill="#EADFC9"/>
<rect x="863.172" y="2031" width="53.2953" height="63" fill="#EADFC9"/>
<rect x="980.422" y="2031" width="53.2953" height="63" fill="#EADFC9"/>
<rect x="1097.67" y="2031" width="53.2953" height="63" fill="#EADFC9"/>
<rect x="1214.92" y="2031" width="53.2953" height="63" fill="#EADFC9"/>
<rect x="1332.17" y="2031" width="53.2953" height="63" fill="#EADFC9"/>
<rect x="-300" width="2025.22" height="91" fill="#4A3B37"/>
<rect x="43.7559" y="14" width="53.2953" height="63" fill="#EADFC9"/>
<rect x="159.674" y="14" width="53.2953" height="63" fill="#EADFC9"/>
<rect x="276.922" y="14" width="53.2953" height="63" fill="#EADFC9"/>
<rect x="394.17" y="14" width="53.2953" height="63" fill="#EADFC9"/>
<rect x="511.422" y="13.999" width="53.2953" height="63" fill="#EADFC9"/>
<rect x="628.672" y="14" width="53.2953" height="63" fill="#EADFC9"/>
<rect x="745.92" y="14" width="53.2953" height="63" fill="#EADFC9"/>
<rect x="863.172" y="14" width="53.2953" height="63" fill="#EADFC9"/>
<rect x="980.422" y="13.999" width="53.2953" height="63" fill="#EADFC9"/>
<rect x="1097.67" y="14" width="53.2953" height="63" fill="#EADFC9"/>
<rect x="1214.92" y="14.001" width="53.2953" height="63" fill="#EADFC9"/>
<rect x="1332.17" y="13.999" width="53.2953" height="63" fill="#EADFC9"/>
<rect x="-300" width="2025.22" height="91" fill="#4A3B37"/>
<rect x="43.7559" y="14" width="53.2953" height="63" fill="#EADFC9"/>
<rect x="159.674" y="14" width="53.2953" height="63" fill="#EADFC9"/>
<rect x="276.922" y="14" width="53.2953" height="63" fill="#EADFC9"/>
<rect x="394.17" y="14" width="53.2953" height="63" fill="#EADFC9"/>
<rect x="511.422" y="13.999" width="53.2953" height="63" fill="#EADFC9"/>
<rect x="628.672" y="14" width="53.2953" height="63" fill="#EADFC9"/>
<rect x="745.92" y="14" width="53.2953" height="63" fill="#EADFC9"/>
<rect x="863.172" y="14" width="53.2953" height="63" fill="#EADFC9"/>
<rect x="980.422" y="13.999" width="53.2953" height="63" fill="#EADFC9"/>
<rect x="1097.67" y="14" width="53.2953" height="63" fill="#EADFC9"/>
<rect x="1214.92" y="14.001" width="53.2953" height="63" fill="#EADFC9"/>
<rect x="1332.17" y="13.999" width="53.2953" height="63" fill="#EADFC9"/>
</g>
<defs>
<clipPath id="clip0_469_571">
<rect width="1425" height="2108" fill="white"/>
</clipPath>
</defs>
</svg>
