<svg width="552" height="729" viewBox="0 0 552 729" fill="none" xmlns="http://www.w3.org/2000/svg">
<rect x="6" y="6" width="540" height="717" fill="#EADFC9" stroke="#E73E26" stroke-width="12"/>
<path d="M286.36 443.2L274.2 465.6L287.64 488H268.44L259.48 470.08V488H242.84V443.2H259.48V461.12L267.16 443.2H286.36ZM322.52 443.2C322.584 443.456 335.64 488 335.64 488H317.08L315.8 481.6H307.48L306.2 488H287.64L300.76 443.2H322.52ZM309.4 471.36H313.88L311.64 459.84L309.4 471.36ZM359.29 442.56C373.37 442.56 379.77 448.96 379.77 458.24C379.77 467.52 373.37 473.92 362.49 473.92C359.93 473.92 356.73 473.6 356.73 473.6V488H340.09V443.2C340.09 443.2 349.05 442.56 359.29 442.56ZM356.73 461.76H359.29C361.53 461.76 363.13 460.16 363.13 458.24C363.13 456.32 361.53 454.72 359.29 454.72H356.73V461.76ZM402.168 443.2V488H385.528V443.2H402.168ZM447.6 488H434.16L426.48 463.04V488H409.84V443.2H433.52L440.88 467.52L448.24 443.2H471.92V488H455.28V463.04L447.6 488ZM496.23 443.2V488H479.59V443.2H496.23ZM241.56 515.6C241.56 502.48 251.8 492.24 265.24 492.24C277.4 492.24 283.16 499.28 283.16 499.28L275.48 511.44C275.48 511.44 271.64 507.92 267.16 507.92C262.68 507.92 259.48 511.12 259.48 515.6C259.48 520.08 262.68 523.28 267.16 523.28C271.64 523.28 275.48 519.76 275.48 519.76L283.16 531.92C283.16 531.92 277.4 538.64 265.88 538.96L264.6 541.84C268.76 541.84 272.28 545.36 272.28 549.52C272.28 554.32 268.76 557.84 263.32 557.84H257.56V551.44H262.04C263 551.44 263.96 550.48 263.96 549.52C263.96 548.56 263 547.6 262.04 547.6H258.2L261.72 538.64C249.88 536.72 241.56 527.76 241.56 515.6ZM319.958 493.2C320.022 493.456 333.078 538 333.078 538H314.518L313.238 531.6H304.918L303.638 538H285.078L298.198 493.2H319.958ZM306.838 521.36H311.318L309.078 509.84L306.838 521.36ZM354.168 493.2V523.28H371.448V538H337.528V493.2H354.168Z" fill="#4A3B37"/>
<path d="M171.32 38.04H187.32V44.76H183.16V55H175.48V44.76H171.32V38.04ZM192.745 56.28L193.225 55L187.625 38.04H195.625L197.065 47L198.505 38.04H206.505L200.425 56.28C198.505 62.04 196.265 64.28 192.265 64.28C190.025 64.28 188.105 63 188.105 63L189.865 57.4C189.865 57.4 190.345 57.72 190.985 57.72C191.785 57.72 192.457 57.08 192.745 56.28ZM226.98 46.52C226.98 52.28 223.78 55.48 220.26 55.48C217.06 55.48 215.78 53.08 215.78 53.08V63H208.1V38.04H215.14C215.78 39.96 215.78 39.96 215.78 39.96C215.78 39.96 217.06 37.56 220.26 37.56C223.78 37.56 226.98 40.76 226.98 46.52ZM218.98 46.52C218.98 44.92 218.18 44.12 217.22 44.12C216.26 44.12 215.46 44.92 215.46 46.52C215.46 48.12 216.26 48.92 217.22 48.92C218.18 48.92 218.98 48.12 218.98 46.52ZM237.858 37.56C242.818 37.56 246.818 41.56 246.818 46.52C246.818 46.648 246.818 47.992 246.818 48.12H236.578C236.578 48.12 236.898 49.88 239.458 49.88C241.058 49.88 242.338 48.6 242.338 48.6L245.058 52.92C245.058 52.92 242.658 55.48 238.338 55.48C232.898 55.48 228.898 51.48 228.898 46.52C228.898 41.56 232.898 37.56 237.858 37.56ZM236.418 45.08H239.298C239.298 43.8 238.658 43.16 237.858 43.16C237.058 43.16 236.418 43.8 236.418 45.08ZM266.989 38.04V48.6H269.229V58.52H261.549V55H249.069V38.04H256.749V48.6H259.309V38.04H266.989ZM289.883 38.04L285.403 46.36L290.523 55H282.043L278.843 48.28V55H271.163V38.04H278.843V44.44L281.563 38.04H289.883ZM291.148 46.52C291.148 41.56 295.148 37.56 300.908 37.56C306.668 37.56 310.668 41.56 310.668 46.52C310.668 51.48 306.668 55.48 300.908 55.48C295.148 55.48 291.148 51.48 291.148 46.52ZM302.988 46.52C302.988 45.08 302.028 44.12 300.908 44.12C299.788 44.12 298.828 45.08 298.828 46.52C298.828 47.96 299.788 48.92 300.908 48.92C302.028 48.92 302.988 47.96 302.988 46.52ZM321.545 37.56C326.505 37.56 330.505 41.56 330.505 46.52C330.505 46.648 330.505 47.992 330.505 48.12H320.265C320.265 48.12 320.585 49.88 323.145 49.88C324.745 49.88 326.025 48.6 326.025 48.6L328.745 52.92C328.745 52.92 326.345 55.48 322.025 55.48C316.585 55.48 312.585 51.48 312.585 46.52C312.585 41.56 316.585 37.56 321.545 37.56ZM320.105 45.08H322.985C322.985 43.8 322.345 43.16 321.545 43.16C320.745 43.16 320.105 43.8 320.105 45.08ZM357.883 38.04L353.403 46.36L358.523 55H350.043L346.843 48.28V55H339.163V38.04H346.843V44.44L349.563 38.04H357.883ZM367.788 55H359.788V38.04H367.468V45.4L370.348 38.04H378.348V55H370.668V47.64L367.788 55ZM391.778 43.48V38.04H399.458V55H391.778V49.56H389.218V55H381.538V38.04H389.218V43.48H391.778ZM402.023 46.52C402.023 41.56 406.023 37.56 411.783 37.56C417.543 37.56 421.543 41.56 421.543 46.52C421.543 51.48 417.543 55.48 411.783 55.48C406.023 55.48 402.023 51.48 402.023 46.52ZM413.863 46.52C413.863 45.08 412.903 44.12 411.783 44.12C410.663 44.12 409.703 45.08 409.703 46.52C409.703 47.96 410.663 48.92 411.783 48.92C412.903 48.92 413.863 47.96 413.863 46.52Z" fill="#4A3B37"/>
<rect x="276" y="144" width="179" height="267" fill="#4A3B37"/>
<circle cx="429" cy="302" r="10" fill="#EADFC9"/>
<rect x="213" y="410" width="242" height="15" fill="#4A3B37"/>
<rect x="77" y="507" width="150" height="15" fill="#4A3B37"/>
<rect x="213" y="412" width="14" height="95" fill="#4A3B37"/>
<rect x="77" y="507" width="14" height="102" fill="#4A3B37"/>
<path d="M396.84 507.8H405.48V533H396.12V516.44L390.72 518.24V510.32L396.84 507.8ZM429.428 515.36C429.428 521.48 421.868 525.08 421.868 525.08H429.068V533H409.628V525.8C409.628 525.8 419.708 519.68 419.708 516.44C419.708 515.36 418.988 514.64 417.728 514.64C414.668 514.64 412.508 516.62 412.508 516.62L409.088 511.22C409.088 511.22 412.328 507.26 419.168 507.26C425.468 507.26 429.428 511.22 429.428 515.36ZM438.798 535.88H431.958L443.478 504.92H450.318L438.798 535.88ZM464.711 515.36C463.271 515.36 461.831 516.8 461.831 520.4C461.831 524 463.271 525.44 464.711 525.44C466.151 525.44 467.591 524 467.591 520.4C467.591 516.8 466.151 515.36 464.711 515.36ZM464.711 533.54C457.871 533.54 452.471 528.14 452.471 520.4C452.471 512.66 457.871 507.26 464.711 507.26C471.551 507.26 476.951 512.66 476.951 520.4C476.951 528.14 471.551 533.54 464.711 533.54ZM498.2 507.8V515.36L489.56 533H479.84L488.3 515.72H479.12V507.8H498.2Z" fill="#E73E26"/>
<rect x="11" y="594" width="79" height="15" fill="#4A3B37"/>
</svg>
