<svg width="552" height="734" viewBox="0 0 552 734" fill="none" xmlns="http://www.w3.org/2000/svg">
<rect x="6" y="6" width="540" height="721.047" fill="#EADFC9" stroke="#E73E26" stroke-width="12"/>
<path d="M42.8488 575.311L44.2782 573.893C47.5496 570.646 53.1142 572.963 53.1142 577.572V598.969V720.981H163.139H523.856L509.9 579.928L508.212 560.98C507.522 553.237 510.626 545.639 516.54 540.593L534.577 525.204C539.922 520.644 543 513.971 543 506.946V356.915C543 353.981 542.462 351.071 541.412 348.331L533.593 327.914L530.593 321.501C529.351 318.845 527.633 316.44 525.525 314.403L516.005 305.211C514.268 303.533 512.793 301.602 511.632 299.484L507.112 291.239L499.565 280.424C497.572 277.569 497.37 273.83 499.044 270.776C499.312 270.288 499.535 269.776 499.71 269.247L503.658 257.301C504.332 255.262 504.729 253.141 504.839 250.996L506.067 226.974V212.494C506.067 209.829 505.623 207.183 504.753 204.663L502.059 196.859C500.364 191.946 497.119 187.717 492.814 184.806L492.478 184.58L484.897 179.377C481.198 176.84 476.863 175.389 472.383 175.191L456.258 174.475C451.479 174.262 446.745 175.483 442.665 177.981L429.677 185.93C426.081 188.131 423.128 191.241 421.115 194.947L409.205 216.88L395.843 235.763C395.229 236.631 394.709 237.561 394.291 238.539C390.192 248.129 377.812 250.733 370.197 243.606L367.932 241.486C364.921 238.668 363.213 234.728 363.213 230.604C363.213 228.219 363.785 225.869 364.882 223.751L365.042 223.44C366.355 220.906 368.308 218.759 370.708 217.214L371.226 216.88L374.351 214.928C376.208 213.768 377.898 212.358 379.372 210.74L380.437 209.572C383.304 206.426 385.283 202.574 386.17 198.411L386.726 195.802C387.077 194.157 387.254 192.48 387.254 190.798V186.935C387.254 185.567 386.284 184.392 384.941 184.133L384.761 184.098C382.621 183.685 381.578 181.237 382.762 179.407L385.925 174.52C386.785 173.191 387.17 171.609 387.015 170.032L385.793 157.553C385.167 151.164 382.008 145.293 377.021 141.25L363.2 130.045C358.925 126.58 353.589 124.688 348.086 124.688H332.624C327.164 124.688 321.868 126.55 317.609 129.966L311.141 135.153C306.321 139.018 303.178 144.593 302.365 150.717L300.516 164.641C300.288 166.363 299.166 167.835 297.566 168.51C295.752 169.277 294.573 171.055 294.573 173.024V181.748C294.573 182.737 294.654 183.724 294.816 184.699L298.641 207.786C299.495 212.944 296.292 217.907 291.24 219.253C290.445 219.465 289.679 219.773 288.958 220.169L227.674 253.905C223.045 256.453 217.317 253.455 216.772 248.2C216.612 246.651 216.946 245.09 217.726 243.743L220.306 239.283C222.172 236.059 224.785 233.331 227.925 231.327L238.941 224.298C241.256 222.821 242.657 220.265 242.657 217.519V211.741C242.657 210.491 241.644 209.478 240.394 209.478C239.015 209.478 237.957 208.255 238.155 206.89L241.319 185.061C242.173 179.176 240.533 173.202 236.797 168.577L225.124 154.13C220.567 148.49 213.706 145.213 206.456 145.213H192.247C185.113 145.213 178.349 148.387 173.789 153.874L163.817 165.874C160.277 170.134 158.339 175.499 158.339 181.039V203.52C158.339 204.209 157.78 204.768 157.092 204.768C156.298 204.768 155.707 205.498 155.872 206.274L160.778 229.33L161.521 232.202C162.847 237.321 162.444 242.735 160.376 247.602L155.685 258.644C153.703 263.311 149.123 266.341 144.053 266.341H108.733C105.372 266.341 102.049 267.047 98.9784 268.413L82.108 275.918C76.0574 278.609 71.3879 283.682 69.2047 289.934L13.3417 449.91C12.4536 452.454 12 455.129 12 457.823V554.195C12 564.462 19.2462 573.303 29.3141 575.319L37.4239 576.942C39.3909 577.336 41.425 576.725 42.8488 575.311Z" fill="#534242"/>
<path d="M80.4109 464.2V481H74.1709V464.2H80.4109ZM79.2109 458.44L82.0909 462.52H78.4909L77.2909 460.6L76.0909 462.52H72.4909L75.3709 458.44H79.2109ZM91.4481 467.92C93.8481 467.92 95.7681 469.84 95.7681 474.28V481H90.0081V474.28C90.0081 473.32 89.5281 472.84 89.0481 472.84C88.5681 472.84 88.0881 473.32 88.0881 474.28V481H82.3281V468.28H87.8481L88.3281 469.72C88.3281 469.72 89.2881 467.92 91.4481 467.92ZM107.302 469.72C107.302 469.72 108.262 467.92 110.182 467.92C111.142 467.92 111.862 468.28 111.862 468.28L110.902 473.56C110.902 473.56 109.942 473.08 109.222 473.08C108.022 473.08 107.062 474.04 107.062 475.72V481H101.302V468.28H106.822L107.302 469.72ZM111.633 474.64C111.633 470.92 114.633 467.92 118.953 467.92C123.273 467.92 126.273 470.92 126.273 474.64C126.273 478.36 123.273 481.36 118.953 481.36C114.633 481.36 111.633 478.36 111.633 474.64ZM120.513 474.64C120.513 473.56 119.793 472.84 118.953 472.84C118.113 472.84 117.393 473.56 117.393 474.64C117.393 475.72 118.113 476.44 118.953 476.44C119.793 476.44 120.513 475.72 120.513 474.64ZM127.472 481V463.24H133.232V481H127.472ZM139.228 481.36C136.828 481.36 134.908 479.44 134.908 475V468.28H140.668V475C140.668 475.96 141.148 476.44 141.628 476.44C142.108 476.44 142.588 475.96 142.588 475V468.28H148.348V481H142.828L142.348 479.56C142.348 479.56 141.388 481.36 139.228 481.36ZM156.032 469.72C156.032 469.72 156.992 467.92 158.912 467.92C159.872 467.92 160.592 468.28 160.592 468.28L159.632 473.56C159.632 473.56 158.672 473.08 157.952 473.08C156.752 473.08 155.792 474.04 155.792 475.72V481H150.032V468.28H155.552L156.032 469.72ZM160.843 468.28H166.603V481H160.843V468.28ZM160.843 466.84V462.28H166.603V466.84H160.843ZM168.279 481V463.24H174.039V481H168.279ZM181.955 467.92C185.675 467.92 188.675 470.92 188.675 474.64C188.675 474.736 188.675 475.744 188.675 475.84H180.995C180.995 475.84 181.235 477.16 183.155 477.16C184.355 477.16 185.315 476.2 185.315 476.2L187.355 479.44C187.355 479.44 185.555 481.36 182.315 481.36C178.235 481.36 175.235 478.36 175.235 474.64C175.235 470.92 178.235 467.92 181.955 467.92ZM180.875 473.56H183.035C183.035 472.6 182.555 472.12 181.955 472.12C181.355 472.12 180.875 472.6 180.875 473.56ZM207.888 474.64C207.888 478.96 205.488 481.36 202.848 481.36C200.448 481.36 199.488 479.56 199.488 479.56V487H193.728V468.28H199.008C199.488 469.72 199.488 469.72 199.488 469.72C199.488 469.72 200.448 467.92 202.848 467.92C205.488 467.92 207.888 470.32 207.888 474.64ZM201.888 474.64C201.888 473.44 201.288 472.84 200.568 472.84C199.848 472.84 199.248 473.44 199.248 474.64C199.248 475.84 199.848 476.44 200.568 476.44C201.288 476.44 201.888 475.84 201.888 474.64ZM215.087 469.72C215.087 469.72 216.047 467.92 217.967 467.92C218.927 467.92 219.647 468.28 219.647 468.28L218.687 473.56C218.687 473.56 217.727 473.08 217.007 473.08C215.807 473.08 214.847 474.04 214.847 475.72V481H209.087V468.28H214.607L215.087 469.72ZM219.898 468.28H225.658V481H219.898V468.28ZM219.898 466.84V462.28H225.658V466.84H219.898ZM236.454 467.92C238.854 467.92 240.774 469.84 240.774 474.28V481H235.014V474.28C235.014 473.32 234.534 472.84 234.054 472.84C233.574 472.84 233.094 473.32 233.094 474.28V481H227.334V468.28H232.854L233.334 469.72C233.334 469.72 234.294 467.92 236.454 467.92ZM247.743 474.64C247.743 475.72 248.463 476.44 249.663 476.44C250.863 476.44 251.823 475.48 251.823 475.48L254.223 479.32C254.223 479.32 252.303 481.36 248.823 481.36C244.743 481.36 241.743 478.36 241.743 474.64C241.743 470.92 244.743 467.92 248.823 467.92C252.303 467.92 254.223 469.96 254.223 469.96L251.823 473.8C251.823 473.8 250.863 472.84 249.663 472.84C248.463 472.84 247.743 473.56 247.743 474.64ZM254.933 468.28H260.693V481H254.933V468.28ZM254.933 466.84V462.28H260.693V466.84H254.933ZM276.529 474.64C276.529 478.96 274.129 481.36 271.489 481.36C269.089 481.36 268.129 479.56 268.129 479.56V487H262.369V468.28H267.649C268.129 469.72 268.129 469.72 268.129 469.72C268.129 469.72 269.089 467.92 271.489 467.92C274.129 467.92 276.529 470.32 276.529 474.64ZM270.529 474.64C270.529 473.44 269.929 472.84 269.209 472.84C268.489 472.84 267.889 473.44 267.889 474.64C267.889 475.84 268.489 476.44 269.209 476.44C269.929 476.44 270.529 475.84 270.529 474.64ZM283.367 467.92C287.447 467.92 290.447 470.92 290.447 474.64C290.447 476.704 290.447 479.128 290.447 481H284.927L284.447 479.56C284.447 479.56 283.487 481.36 281.327 481.36C278.687 481.36 277.007 479.68 277.007 477.4C277.007 475.12 278.687 473.44 282.767 473.44H284.687C284.687 473.44 284.447 472.12 282.527 472.12C281.327 472.12 280.367 473.08 280.367 473.08L278.327 469.84C278.327 469.84 280.127 467.92 283.367 467.92ZM283.487 477.52C284.087 477.52 284.687 476.92 284.687 475.48C283.367 475.48 282.767 476.08 282.767 476.8C282.767 477.16 283.127 477.52 283.487 477.52ZM291.89 481V463.24H297.65V481H291.89ZM305.567 467.92C309.287 467.92 312.287 470.92 312.287 474.64C312.287 474.736 312.287 475.744 312.287 475.84H304.607C304.607 475.84 304.847 477.16 306.767 477.16C307.967 477.16 308.927 476.2 308.927 476.2L310.967 479.44C310.967 479.44 309.167 481.36 305.927 481.36C301.847 481.36 298.847 478.36 298.847 474.64C298.847 470.92 301.847 467.92 305.567 467.92ZM304.487 473.56H306.647C306.647 472.6 306.167 472.12 305.567 472.12C304.967 472.12 304.487 472.6 304.487 473.56ZM318.055 473.08H313.015V468.28H318.055V473.08ZM318.055 481H313.015V476.2H318.055V481ZM322.861 464.2H338.221V469.72H333.661V481H327.421V469.72H322.861V464.2ZM337.263 474.64C337.263 470.92 340.263 467.92 344.583 467.92C348.903 467.92 351.903 470.92 351.903 474.64C351.903 478.36 348.903 481.36 344.583 481.36C340.263 481.36 337.263 478.36 337.263 474.64ZM346.143 474.64C346.143 473.56 345.423 472.84 344.583 472.84C343.743 472.84 343.023 473.56 343.023 474.64C343.023 475.72 343.743 476.44 344.583 476.44C345.423 476.44 346.143 475.72 346.143 474.64ZM369.902 467.92C372.302 467.92 374.222 469.84 374.222 474.28V481H368.462V474.28C368.462 473.32 367.982 472.84 367.502 472.84C367.022 472.84 366.542 473.32 366.542 474.28V481H360.782V474.28C360.782 473.32 360.302 472.84 359.822 472.84C359.342 472.84 358.862 473.32 358.862 474.28V481H353.102V468.28H358.622L359.102 469.72C359.102 469.72 360.062 467.92 362.462 467.92C364.862 467.92 366.062 470.2 366.062 470.2C366.062 470.2 367.502 467.92 369.902 467.92ZM386.22 464.2V469.96H390.06V464.2H396.3V481H390.06V475.24H386.22V481H379.98V464.2H386.22ZM403.855 467.92C407.935 467.92 410.935 470.92 410.935 474.64C410.935 476.704 410.935 479.128 410.935 481H405.415L404.935 479.56C404.935 479.56 403.975 481.36 401.815 481.36C399.175 481.36 397.495 479.68 397.495 477.4C397.495 475.12 399.175 473.44 403.255 473.44H405.175C405.175 473.44 404.935 472.12 403.015 472.12C401.815 472.12 400.855 473.08 400.855 473.08L398.815 469.84C398.815 469.84 400.615 467.92 403.855 467.92ZM403.975 477.52C404.575 477.52 405.175 476.92 405.175 475.48C403.855 475.48 403.255 476.08 403.255 476.8C403.255 477.16 403.615 477.52 403.975 477.52ZM418.378 469.72C418.378 469.72 419.338 467.92 421.258 467.92C422.218 467.92 422.938 468.28 422.938 468.28L421.978 473.56C421.978 473.56 421.018 473.08 420.298 473.08C419.098 473.08 418.138 474.04 418.138 475.72V481H412.378V468.28H417.898L418.378 469.72ZM422.475 474.64C422.475 470.32 424.875 467.92 427.515 467.92C429.915 467.92 430.875 469.72 430.875 469.72V463.24H436.635V481H431.355C430.875 479.56 430.875 479.56 430.875 479.56C430.875 479.56 429.915 481.36 427.515 481.36C424.875 481.36 422.475 478.96 422.475 474.64ZM428.475 474.64C428.475 475.84 429.075 476.44 429.795 476.44C430.515 476.44 431.115 475.84 431.115 474.64C431.115 473.44 430.515 472.84 429.795 472.84C429.075 472.84 428.475 473.44 428.475 474.64ZM440.953 481.96L441.313 481L437.113 468.28H443.113L444.193 475L445.273 468.28H451.273L446.713 481.96C445.273 486.28 443.593 487.96 440.593 487.96C438.913 487.96 437.473 487 437.473 487L438.793 482.8C438.793 482.8 439.153 483.04 439.633 483.04C440.233 483.04 440.737 482.56 440.953 481.96Z" fill="#EADFC9"/>
<path d="M57.2 40.4C57.2 47.2 48.8 51.2 48.8 51.2H56.8V60H35.2V52C35.2 52 46.4 45.2 46.4 41.6C46.4 40.4 45.6 39.6 44.2 39.6C40.8 39.6 38.4 41.8 38.4 41.8L34.6 35.8C34.6 35.8 38.2 31.4 45.8 31.4C52.8 31.4 57.2 35.8 57.2 40.4ZM80.6109 40.4L75.0109 44C75.0109 44 81.8109 45.2 81.8109 51.8C81.8109 56.2 77.4109 60.6 70.4109 60.6C62.8109 60.6 59.2109 56.2 59.2109 56.2L63.0109 50.2C63.0109 50.2 65.4109 52.4 68.8109 52.4C70.2109 52.4 71.0109 51.6 71.0109 50.6C71.0109 49.6 70.2109 48.8 68.8109 48.8H65.4109V43.6L70.2109 40.4H61.0109V32H80.6109V40.4ZM90.6016 63.2H83.0016L95.8016 28.8H103.402L90.6016 63.2ZM118.194 40.4C116.594 40.4 114.994 42 114.994 46C114.994 50 116.594 51.6 118.194 51.6C119.794 51.6 121.394 50 121.394 46C121.394 42 119.794 40.4 118.194 40.4ZM118.194 60.6C110.594 60.6 104.594 54.6 104.594 46C104.594 37.4 110.594 31.4 118.194 31.4C125.794 31.4 131.794 37.4 131.794 46C131.794 54.6 125.794 60.6 118.194 60.6ZM154.203 32V40.4L144.603 60H133.803L143.203 40.8H133.003V32H154.203Z" fill="#E73E26"/>
<path d="M174 49.2725H314" stroke="#E73E26" stroke-width="5"/>
<path d="M356.113 37.52C356.113 43.28 352.913 46.48 349.392 46.48C346.193 46.48 344.913 44.08 344.913 44.08V54H337.232V29.04H344.273C344.913 30.96 344.913 30.96 344.913 30.96C344.913 30.96 346.193 28.56 349.392 28.56C352.913 28.56 356.113 31.76 356.113 37.52ZM348.113 37.52C348.113 35.92 347.312 35.12 346.352 35.12C345.392 35.12 344.592 35.92 344.592 37.52C344.592 39.12 345.392 39.92 346.352 39.92C347.312 39.92 348.113 39.12 348.113 37.52ZM361.23 47.28L361.71 46L356.11 29.04H364.11L365.55 38L366.99 29.04H374.99L368.91 47.28C366.99 53.04 364.75 55.28 360.75 55.28C358.51 55.28 356.59 54 356.59 54L358.35 48.4C358.35 48.4 358.83 48.72 359.47 48.72C360.27 48.72 360.942 48.08 361.23 47.28ZM391.305 46H386.185L383.305 36.72V46H375.625V29.04H386.185L388.745 37.36L391.305 29.04H401.865V46H394.185V36.72L391.305 46ZM413.383 33.52C417.383 33.52 420.263 36.4 420.263 39.92C420.263 43.44 417.383 46.32 411.783 46.32C407.143 46.32 404.103 46 404.103 46V29.04H411.783V33.68C411.783 33.68 412.743 33.52 413.383 33.52ZM411.463 38.64V41.2C412.423 41.2 412.903 40.72 412.903 39.92C412.903 39.12 412.423 38.64 411.463 38.64ZM428.903 29.04V46H421.223V29.04H428.903ZM441.383 34.48V29.04H449.063V46H441.383V40.56H438.823V46H431.143V29.04H438.823V34.48H441.383ZM458.667 37.52C458.667 38.96 459.627 39.92 461.227 39.92C462.827 39.92 464.107 38.64 464.107 38.64L467.307 43.76C467.307 43.76 464.747 46.48 460.107 46.48C454.667 46.48 450.667 42.48 450.667 37.52C450.667 32.56 454.667 28.56 460.107 28.56C464.747 28.56 467.307 31.28 467.307 31.28L464.107 36.4C464.107 36.4 462.827 35.12 461.227 35.12C459.627 35.12 458.667 36.08 458.667 37.52ZM486.974 29.04L482.494 37.36L487.614 46H479.134L475.934 39.28V46H468.254V29.04H475.934V35.44L478.654 29.04H486.974ZM487.279 37.52C487.279 32.56 491.279 28.56 497.039 28.56C502.799 28.56 506.799 32.56 506.799 37.52C506.799 42.48 502.799 46.48 497.039 46.48C491.279 46.48 487.279 42.48 487.279 37.52ZM499.119 37.52C499.119 36.08 498.159 35.12 497.039 35.12C495.919 35.12 494.959 36.08 494.959 37.52C494.959 38.96 495.919 39.92 497.039 39.92C498.159 39.92 499.119 38.96 499.119 37.52ZM516.716 28.56C521.676 28.56 525.676 32.56 525.676 37.52C525.676 37.648 525.676 38.992 525.676 39.12H515.436C515.436 39.12 515.756 40.88 518.316 40.88C519.916 40.88 521.196 39.6 521.196 39.6L523.916 43.92C523.916 43.92 521.516 46.48 517.196 46.48C511.756 46.48 507.756 42.48 507.756 37.52C507.756 32.56 511.756 28.56 516.716 28.56ZM515.276 36.08H518.156C518.156 34.8 517.516 34.16 516.716 34.16C515.916 34.16 515.276 34.8 515.276 36.08ZM409.791 55.04L405.311 63.36L410.431 72H401.951L398.751 65.28V72H391.071V55.04H398.751V61.44L401.471 55.04H409.791ZM418.736 72H410.736V55.04H418.416V62.4L421.296 55.04H429.296V72H421.616V64.64L418.736 72ZM441.766 60.48V55.04H449.446V72H441.766V66.56H439.206V72H431.526V55.04H439.206V60.48H441.766ZM451.051 63.52C451.051 58.56 455.051 54.56 460.811 54.56C466.571 54.56 470.571 58.56 470.571 63.52C470.571 68.48 466.571 72.48 460.811 72.48C455.051 72.48 451.051 68.48 451.051 63.52ZM462.891 63.52C462.891 62.08 461.931 61.12 460.811 61.12C459.691 61.12 458.731 62.08 458.731 63.52C458.731 64.96 459.691 65.92 460.811 65.92C461.931 65.92 462.891 64.96 462.891 63.52Z" fill="#E73E26"/>
<path d="M106.499 492.68C116.099 492.68 123.779 500.36 123.779 518.12V545H100.739V518.12C100.739 514.28 98.8188 512.36 96.8988 512.36C94.9788 512.36 93.0588 514.28 93.0588 518.12V545H70.0188V494.12H92.0988L94.0188 499.88C94.0188 499.88 97.8588 492.68 106.499 492.68ZM149.736 546.44C140.136 546.44 132.456 538.76 132.456 521V494.12H155.496V521C155.496 524.84 157.416 526.76 159.336 526.76C161.256 526.76 163.176 524.84 163.176 521V494.12H186.216V545H164.136L162.216 539.24C162.216 539.24 158.376 546.44 149.736 546.44ZM263.031 492.68C272.631 492.68 280.311 500.36 280.311 518.12V545H257.271V518.12C257.271 514.28 255.351 512.36 253.431 512.36C251.511 512.36 249.591 514.28 249.591 518.12V545H226.551V518.12C226.551 514.28 224.631 512.36 222.711 512.36C220.791 512.36 218.871 514.28 218.871 518.12V545H195.831V494.12H217.911L219.831 499.88C219.831 499.88 223.671 492.68 233.271 492.68C242.871 492.68 247.671 501.8 247.671 501.8C247.671 501.8 253.431 492.68 263.031 492.68ZM311.485 492.68C327.805 492.68 339.805 504.68 339.805 519.56C339.805 527.816 339.805 537.512 339.805 545H317.725L315.805 539.24C315.805 539.24 311.965 546.44 303.325 546.44C292.765 546.44 286.045 539.72 286.045 530.6C286.045 521.48 292.765 514.76 309.085 514.76H316.765C316.765 514.76 315.805 509.48 308.125 509.48C303.325 509.48 299.485 513.32 299.485 513.32L291.325 500.36C291.325 500.36 298.525 492.68 311.485 492.68ZM311.965 531.08C314.365 531.08 316.765 528.68 316.765 522.92C311.485 522.92 309.085 525.32 309.085 528.2C309.085 529.64 310.525 531.08 311.965 531.08ZM372.456 499.88C372.456 499.88 376.296 492.68 383.976 492.68C387.816 492.68 390.696 494.12 390.696 494.12L386.856 515.24C386.856 515.24 383.016 513.32 380.136 513.32C375.336 513.32 371.496 517.16 371.496 523.88V545H348.456V494.12H370.536L372.456 499.88ZM411.861 546.44C402.261 546.44 394.581 538.76 394.581 521V494.12H417.621V521C417.621 524.84 419.541 526.76 421.461 526.76C423.381 526.76 425.301 524.84 425.301 521V494.12H448.341V545H426.261L424.341 539.24C424.341 539.24 420.501 546.44 411.861 546.44ZM457.956 545V473.96H480.996V545H457.956ZM266.868 598.2H272.628V616.44H266.868V627H241.908V616.44H214.068V598.2L238.068 559.8H266.868V598.2ZM236.148 598.2H241.908V585.72L236.148 598.2ZM332.118 598.2H337.878V616.44H332.118V627H307.158V616.44H279.318V598.2L303.318 559.8H332.118V598.2ZM301.398 598.2H307.158V585.72L301.398 598.2Z" fill="#E73E26"/>
</svg>
