<svg width="1425" height="2056" viewBox="0 0 1425 2056" fill="none" xmlns="http://www.w3.org/2000/svg">
<g clip-path="url(#clip0_470_640)">
<rect x="-482" width="2025.22" height="91" fill="#4A3B37"/>
<rect x="-22.3262" y="14" width="53.2953" height="63" fill="#EADFC9"/>
<rect x="94.9219" y="14" width="53.2953" height="63" fill="#EADFC9"/>
<rect x="212.17" y="14" width="53.2953" height="63" fill="#EADFC9"/>
<rect x="329.422" y="13.999" width="53.2953" height="63" fill="#EADFC9"/>
<rect x="446.672" y="14" width="53.2953" height="63" fill="#EADFC9"/>
<rect x="563.92" y="14" width="53.2953" height="63" fill="#EADFC9"/>
<rect x="681.172" y="14" width="53.2953" height="63" fill="#EADFC9"/>
<rect x="798.422" y="13.999" width="53.2953" height="63" fill="#EADFC9"/>
<rect x="915.67" y="14" width="53.2953" height="63" fill="#EADFC9"/>
<rect x="1032.92" y="14.001" width="53.2953" height="63" fill="#EADFC9"/>
<rect x="1150.17" y="13.999" width="53.2953" height="63" fill="#EADFC9"/>
<rect x="-482" width="2025.22" height="91" fill="#4A3B37"/>
<rect x="-22.3262" y="14" width="53.2953" height="63" fill="#EADFC9"/>
<rect x="94.9219" y="14" width="53.2953" height="63" fill="#EADFC9"/>
<rect x="212.17" y="14" width="53.2953" height="63" fill="#EADFC9"/>
<rect x="329.422" y="13.999" width="53.2953" height="63" fill="#EADFC9"/>
<rect x="446.672" y="14" width="53.2953" height="63" fill="#EADFC9"/>
<rect x="563.92" y="14" width="53.2953" height="63" fill="#EADFC9"/>
<rect x="681.172" y="14" width="53.2953" height="63" fill="#EADFC9"/>
<rect x="798.422" y="13.999" width="53.2953" height="63" fill="#EADFC9"/>
<rect x="915.67" y="14" width="53.2953" height="63" fill="#EADFC9"/>
<rect x="1032.92" y="14.001" width="53.2953" height="63" fill="#EADFC9"/>
<rect x="1150.17" y="13.999" width="53.2953" height="63" fill="#EADFC9"/>
<rect x="1267.42" y="14" width="53.2953" height="63" fill="#EADFC9"/>
<rect x="1384.67" y="14" width="53.2953" height="63" fill="#EADFC9"/>
<rect x="-369" y="1965" width="2025.22" height="91" fill="#4A3B37"/>
<rect x="-25.2441" y="1979" width="53.2953" height="63" fill="#EADFC9"/>
<rect x="90.6738" y="1979" width="53.2953" height="63" fill="#EADFC9"/>
<rect x="207.922" y="1979" width="53.2953" height="63" fill="#EADFC9"/>
<rect x="325.17" y="1979" width="53.2953" height="63" fill="#EADFC9"/>
<rect x="442.422" y="1979" width="53.2953" height="63" fill="#EADFC9"/>
<rect x="559.672" y="1979" width="53.2953" height="63" fill="#EADFC9"/>
<rect x="676.92" y="1979" width="53.2953" height="63" fill="#EADFC9"/>
<rect x="794.172" y="1979" width="53.2953" height="63" fill="#EADFC9"/>
<rect x="911.422" y="1979" width="53.2953" height="63" fill="#EADFC9"/>
<rect x="1028.67" y="1979" width="53.2953" height="63" fill="#EADFC9"/>
<rect x="1145.92" y="1979" width="53.2953" height="63" fill="#EADFC9"/>
<rect x="1263.17" y="1979" width="53.2953" height="63" fill="#EADFC9"/>
<rect x="-369" y="1965" width="2025.22" height="91" fill="#4A3B37"/>
<rect x="-25.2441" y="1979" width="53.2953" height="63" fill="#EADFC9"/>
<rect x="90.6738" y="1979" width="53.2953" height="63" fill="#EADFC9"/>
<rect x="207.922" y="1979" width="53.2953" height="63" fill="#EADFC9"/>
<rect x="325.17" y="1979" width="53.2953" height="63" fill="#EADFC9"/>
<rect x="442.422" y="1979" width="53.2953" height="63" fill="#EADFC9"/>
<rect x="559.672" y="1979" width="53.2953" height="63" fill="#EADFC9"/>
<rect x="676.92" y="1979" width="53.2953" height="63" fill="#EADFC9"/>
<rect x="794.172" y="1979" width="53.2953" height="63" fill="#EADFC9"/>
<rect x="911.422" y="1979" width="53.2953" height="63" fill="#EADFC9"/>
<rect x="1028.67" y="1979" width="53.2953" height="63" fill="#EADFC9"/>
<rect x="1145.92" y="1979" width="53.2953" height="63" fill="#EADFC9"/>
<rect x="1263.17" y="1979" width="53.2953" height="63" fill="#EADFC9"/>
<rect x="1380.42" y="1979" width="53.2953" height="63" fill="#EADFC9"/>
</g>
<defs>
<clipPath id="clip0_470_640">
<rect width="1425" height="2056" fill="white"/>
</clipPath>
</defs>
</svg>
