<svg width="2110" height="1556" viewBox="0 0 2110 1556" fill="none" xmlns="http://www.w3.org/2000/svg">
<path d="M1713.5 448L1747.2 701.241L1885.53 487.959L1807.93 731.002L2023.5 599.922L1849.95 784.628L2100.06 761.713L1864.95 851.5L2100.06 941.287L1849.95 918.372L2023.5 1103.08L1807.93 971.998L1885.53 1215.04L1747.2 1001.76L1713.5 1255L1679.8 1001.76L1541.47 1215.04L1619.07 971.998L1403.5 1103.08L1577.05 918.372L1326.94 941.287L1562.05 851.5L1326.94 761.713L1577.05 784.628L1403.5 599.922L1619.07 731.002L1541.47 487.959L1679.8 701.241L1713.5 448Z" fill="#4A3B37"/>
<path d="M396.5 749L430.201 1002.24L568.535 788.959L490.927 1032L706.496 900.922L532.951 1085.63L783.059 1062.71L547.95 1152.5L783.059 1242.29L532.951 1219.37L706.496 1404.08L490.927 1273L568.535 1516.04L430.201 1302.76L396.5 1556L362.799 1302.76L224.465 1516.04L302.073 1273L86.5038 1404.08L260.049 1219.37L9.94107 1242.29L245.05 1152.5L9.94107 1062.71L260.049 1085.63L86.5038 900.922L302.073 1032L224.465 788.959L362.799 1002.24L396.5 749Z" fill="#E24728"/>
<path d="M492.739 245L1820 7.87233e-06L1820 808.5L492.739 379L492.739 245Z" fill="#E24728"/>
<path d="M457.51 426.111L1398.15 759.461L1213.34 1280.96C1205.22 1303.86 1180.07 1315.85 1157.17 1307.73L299.474 1003.78C276.569 995.661 264.581 970.513 272.698 947.608L457.51 426.111Z" fill="#4A3B37"/>
<path d="M435.5 486.5L1374.5 826" stroke="#EADFC9" stroke-width="10"/>
<path d="M383.5 635L1321 977.5" stroke="#EADFC9" stroke-width="10"/>
<path d="M324.5 801.5L1264 1138" stroke="#EADFC9" stroke-width="10"/>
<path d="M793 968.5L859 803" stroke="#EADFC9" stroke-width="10"/>
<path d="M637.5 919.5L578 1102.5" stroke="#EEE4D0" stroke-width="10"/>
<path d="M925.5 1023L862.5 1203" stroke="#EEE4D0" stroke-width="10"/>
<rect x="468.939" y="241.182" width="997.154" height="105" transform="rotate(-10.0016 468.939 241.182)" fill="#4A3B37"/>
<path d="M574 351.5C574 336.616 585.569 325 600.754 325C614.492 325 621 332.986 621 332.986L612.323 346.781C612.323 346.781 607.985 342.788 602.923 342.788C597.862 342.788 594.246 346.418 594.246 351.5C594.246 356.582 597.862 360.212 602.923 360.212C607.985 360.212 612.323 356.219 612.323 356.219L621 370.014C621 370.014 614.492 378 600.754 378C585.569 378 574 366.384 574 351.5Z" fill="#EADFC9"/>
<path d="M664.72 313.224V402.5L639.76 393.5V317.675L664.72 313.224Z" fill="#EADFC9"/>
<path d="M748 432L724 365.5L723 422.5L685 409.5V309L727.5 301.5L754 353.5V297L792 290.5V447.5L748 432Z" fill="#EADFC9"/>
<path d="M878 395.5V408H953L943 499L813 453V287.5L945.5 263.5L948 333H878V345.5H943V395.5H878Z" fill="#EADFC9"/>
<path d="M1175 578L1106 555L1065 368.5V540.5L974 509V258.5L1097.5 237L1143.75 393L1183 222L1313.5 199V625.5L1222.5 595V368.5L1175 578Z" fill="#EADFC9"/>
<path d="M1643.25 129.316C1648.5 157.816 1797 800.816 1797 800.816L1622.5 744.316L1603 613.816H1564H1525L1497 703.816L1330.5 649.816L1442.75 174.316L1543 151.816L1643.25 129.316ZM1543 471.816H1585L1564 363.816L1543 471.816Z" fill="#EADFC9"/>
<rect x="485.535" y="340.707" width="1008.52" height="101.71" transform="rotate(18.9623 485.535 340.707)" fill="#3E3431"/>
</svg>
